<mxfile host="app.diagrams.net" modified="2023-11-26T11:18:28.609Z" agent="Mozilla/5.0 (Windows NT 10.0; Win64; x64) AppleWebKit/537.36 (KHTML, like Gecko) Chrome/119.0.0.0 Safari/537.36" etag="3tJQuoBp_EliiKmLKxvr" version="22.1.4" type="github" pages="2">
  <diagram name="Page-1" id="bTpt-ltExCX3WLFdOyZC">
    <mxGraphModel dx="1050" dy="566" grid="1" gridSize="10" guides="1" tooltips="1" connect="1" arrows="1" fold="1" page="1" pageScale="1" pageWidth="850" pageHeight="1100" math="0" shadow="0">
      <root>
        <mxCell id="0" />
        <mxCell id="1" parent="0" />
        <mxCell id="_ptWhWyAbyTOVgkivp3k-1" value="&lt;b&gt;PRODUCER&lt;/b&gt;&lt;br&gt;(YOUTUBER)" style="rounded=0;whiteSpace=wrap;html=1;" parent="1" vertex="1">
          <mxGeometry x="100" y="160" width="140" height="80" as="geometry" />
        </mxCell>
        <mxCell id="_ptWhWyAbyTOVgkivp3k-2" value="&lt;b&gt;TOPIC&lt;/b&gt;&lt;br&gt;(YOUTUBE CHANNEL)" style="rounded=0;whiteSpace=wrap;html=1;" parent="1" vertex="1">
          <mxGeometry x="310" y="160" width="140" height="80" as="geometry" />
        </mxCell>
        <mxCell id="_ptWhWyAbyTOVgkivp3k-3" value="&lt;b&gt;CONSUMER&lt;/b&gt;&lt;br&gt;(SUBSCRIBERS)" style="rounded=0;whiteSpace=wrap;html=1;" parent="1" vertex="1">
          <mxGeometry x="520" y="160" width="140" height="80" as="geometry" />
        </mxCell>
        <mxCell id="_ptWhWyAbyTOVgkivp3k-4" value="&lt;font style=&quot;font-size: 48px;&quot;&gt;&lt;b&gt;KAFKA&lt;/b&gt;(YOUTUBE)&lt;/font&gt;" style="rounded=0;whiteSpace=wrap;html=1;" parent="1" vertex="1">
          <mxGeometry x="100" y="40" width="560" height="60" as="geometry" />
        </mxCell>
        <mxCell id="_ptWhWyAbyTOVgkivp3k-5" value="" style="shape=flexArrow;endArrow=classic;html=1;rounded=0;" parent="1" edge="1">
          <mxGeometry width="50" height="50" relative="1" as="geometry">
            <mxPoint x="240" y="201" as="sourcePoint" />
            <mxPoint x="310" y="200.79999999999998" as="targetPoint" />
          </mxGeometry>
        </mxCell>
        <mxCell id="_ptWhWyAbyTOVgkivp3k-6" value="" style="shape=flexArrow;endArrow=classic;html=1;rounded=0;" parent="1" edge="1">
          <mxGeometry width="50" height="50" relative="1" as="geometry">
            <mxPoint x="450" y="199.7" as="sourcePoint" />
            <mxPoint x="520" y="199.49999999999997" as="targetPoint" />
          </mxGeometry>
        </mxCell>
      </root>
    </mxGraphModel>
  </diagram>
  <diagram id="gG7O5yuhFMbDLmAAOvDK" name="Page-2">
    <mxGraphModel dx="1235" dy="666" grid="1" gridSize="10" guides="1" tooltips="1" connect="1" arrows="1" fold="1" page="1" pageScale="1" pageWidth="850" pageHeight="1100" math="0" shadow="0">
      <root>
        <mxCell id="0" />
        <mxCell id="1" parent="0" />
        <mxCell id="RkjFfQdDdX4bQdD2x07N-1" value="&lt;font style=&quot;font-size: 36px;&quot;&gt;&lt;b&gt;STREAMING PROJECT&lt;/b&gt;&lt;/font&gt;" style="rounded=0;whiteSpace=wrap;html=1;" parent="1" vertex="1">
          <mxGeometry x="180" y="140" width="880" height="60" as="geometry" />
        </mxCell>
        <mxCell id="RkjFfQdDdX4bQdD2x07N-2" value="" style="rounded=0;whiteSpace=wrap;html=1;" parent="1" vertex="1">
          <mxGeometry x="180" y="260" width="160" height="180" as="geometry" />
        </mxCell>
        <mxCell id="RkjFfQdDdX4bQdD2x07N-3" value="" style="rounded=0;whiteSpace=wrap;html=1;" parent="1" vertex="1">
          <mxGeometry x="420" y="260" width="160" height="180" as="geometry" />
        </mxCell>
        <mxCell id="RkjFfQdDdX4bQdD2x07N-4" value="" style="rounded=0;whiteSpace=wrap;html=1;" parent="1" vertex="1">
          <mxGeometry x="660" y="260" width="160" height="180" as="geometry" />
        </mxCell>
        <mxCell id="RkjFfQdDdX4bQdD2x07N-5" value="" style="rounded=0;whiteSpace=wrap;html=1;" parent="1" vertex="1">
          <mxGeometry x="900" y="260" width="160" height="180" as="geometry" />
        </mxCell>
        <mxCell id="RkjFfQdDdX4bQdD2x07N-7" value="" style="shape=flexArrow;endArrow=classic;html=1;rounded=0;entryX=0;entryY=0.5;entryDx=0;entryDy=0;fillColor=#212121;" parent="1" target="RkjFfQdDdX4bQdD2x07N-3" edge="1">
          <mxGeometry width="50" height="50" relative="1" as="geometry">
            <mxPoint x="340" y="350" as="sourcePoint" />
            <mxPoint x="390" y="300" as="targetPoint" />
          </mxGeometry>
        </mxCell>
        <mxCell id="RkjFfQdDdX4bQdD2x07N-9" value="" style="shape=flexArrow;endArrow=classic;html=1;rounded=0;entryX=0;entryY=0.5;entryDx=0;entryDy=0;fillColor=#0D0D0D;" parent="1" edge="1">
          <mxGeometry width="50" height="50" relative="1" as="geometry">
            <mxPoint x="820" y="349.5" as="sourcePoint" />
            <mxPoint x="900" y="349.5" as="targetPoint" />
          </mxGeometry>
        </mxCell>
        <mxCell id="RkjFfQdDdX4bQdD2x07N-10" value="" style="shape=flexArrow;endArrow=classic;html=1;rounded=0;entryX=1;entryY=0.5;entryDx=0;entryDy=0;fillColor=#191919;" parent="1" edge="1">
          <mxGeometry width="50" height="50" relative="1" as="geometry">
            <mxPoint x="660" y="350" as="sourcePoint" />
            <mxPoint x="580" y="350" as="targetPoint" />
          </mxGeometry>
        </mxCell>
        <mxCell id="RkjFfQdDdX4bQdD2x07N-16" value="" style="shape=image;imageAspect=0;aspect=fixed;verticalLabelPosition=bottom;verticalAlign=top;image=data:image/png,iVBORw0KGgoAAAANSUhEUgAABUYAAALMCAIAAACnr/8GAAAKOWlDQ1BQaG90b3Nob3AgSUNDIHByb2ZpbGUAAEjHnZZ3VFTXFofPvXd6oc0wAlKG3rvAANJ7k15FYZgZYCgDDjM0sSGiAhFFRJoiSFDEgNFQJFZEsRAUVLAHJAgoMRhFVCxvRtaLrqy89/Ly++Osb+2z97n77L3PWhcAkqcvl5cGSwGQyhPwgzyc6RGRUXTsAIABHmCAKQBMVka6X7B7CBDJy82FniFyAl8EAfB6WLwCcNPQM4BOB/+fpFnpfIHomAARm7M5GSwRF4g4JUuQLrbPipgalyxmGCVmvihBEcuJOWGRDT77LLKjmNmpPLaIxTmns1PZYu4V8bZMIUfEiK+ICzO5nCwR3xKxRoowlSviN+LYVA4zAwAUSWwXcFiJIjYRMYkfEuQi4uUA4EgJX3HcVyzgZAvEl3JJS8/hcxMSBXQdli7d1NqaQffkZKVwBALDACYrmcln013SUtOZvBwAFu/8WTLi2tJFRbY0tba0NDQzMv2qUP91829K3NtFehn4uWcQrf+L7a/80hoAYMyJarPziy2uCoDOLQDI3fti0zgAgKSobx3Xv7oPTTwviQJBuo2xcVZWlhGXwzISF/QP/U+Hv6GvvmckPu6P8tBdOfFMYYqALq4bKy0lTcinZ6QzWRy64Z+H+B8H/nUeBkGceA6fwxNFhImmjMtLELWbx+YKuGk8Opf3n5r4D8P+pMW5FonS+BFQY4yA1HUqQH7tBygKESDR+8Vd/6NvvvgwIH554SqTi3P/7zf9Z8Gl4iWDm/A5ziUohM4S8jMX98TPEqABAUgCKpAHykAd6ABDYAasgC1wBG7AG/iDEBAJVgMWSASpgA+yQB7YBApBMdgJ9oBqUAcaQTNoBcdBJzgFzoNL4Bq4AW6D+2AUTIBnYBa8BgsQBGEhMkSB5CEVSBPSh8wgBmQPuUG+UBAUCcVCCRAPEkJ50GaoGCqDqqF6qBn6HjoJnYeuQIPQXWgMmoZ+h97BCEyCqbASrAUbwwzYCfaBQ+BVcAK8Bs6FC+AdcCXcAB+FO+Dz8DX4NjwKP4PnEIAQERqiihgiDMQF8UeikHiEj6xHipAKpAFpRbqRPuQmMorMIG9RGBQFRUcZomxRnqhQFAu1BrUeVYKqRh1GdaB6UTdRY6hZ1Ec0Ga2I1kfboL3QEegEdBa6EF2BbkK3oy+ib6Mn0K8xGAwNo42xwnhiIjFJmLWYEsw+TBvmHGYQM46Zw2Kx8lh9rB3WH8vECrCF2CrsUexZ7BB2AvsGR8Sp4Mxw7rgoHA+Xj6vAHcGdwQ3hJnELeCm8Jt4G749n43PwpfhGfDf+On4Cv0CQJmgT7AghhCTCJkIloZVwkfCA8JJIJKoRrYmBRC5xI7GSeIx4mThGfEuSIemRXEjRJCFpB+kQ6RzpLuklmUzWIjuSo8gC8g5yM/kC+RH5jQRFwkjCS4ItsUGiRqJDYkjiuSReUlPSSXK1ZK5kheQJyeuSM1J4KS0pFymm1HqpGqmTUiNSc9IUaVNpf+lU6RLpI9JXpKdksDJaMm4ybJkCmYMyF2TGKQhFneJCYVE2UxopFykTVAxVm+pFTaIWU7+jDlBnZWVkl8mGyWbL1sielh2lITQtmhcthVZKO04bpr1borTEaQlnyfYlrUuGlszLLZVzlOPIFcm1yd2WeydPl3eTT5bfJd8p/1ABpaCnEKiQpbBf4aLCzFLqUtulrKVFS48vvacIK+opBimuVTyo2K84p6Ss5KGUrlSldEFpRpmm7KicpFyufEZ5WoWiYq/CVSlXOavylC5Ld6Kn0CvpvfRZVUVVT1Whar3qgOqCmrZaqFq+WpvaQ3WCOkM9Xr1cvUd9VkNFw08jT6NF454mXpOhmai5V7NPc15LWytca6tWp9aUtpy2l3audov2Ax2yjoPOGp0GnVu6GF2GbrLuPt0berCehV6iXo3edX1Y31Kfq79Pf9AAbWBtwDNoMBgxJBk6GWYathiOGdGMfI3yjTqNnhtrGEcZ7zLuM/5oYmGSYtJoct9UxtTbNN+02/R3Mz0zllmN2S1zsrm7+QbzLvMXy/SXcZbtX3bHgmLhZ7HVosfig6WVJd+y1XLaSsMq1qrWaoRBZQQwShiXrdHWztYbrE9Zv7WxtBHYHLf5zdbQNtn2iO3Ucu3lnOWNy8ft1OyYdvV2o/Z0+1j7A/ajDqoOTIcGh8eO6o5sxybHSSddpySno07PnU2c+c7tzvMuNi7rXM65Iq4erkWuA24ybqFu1W6P3NXcE9xb3Gc9LDzWepzzRHv6eO7yHPFS8mJ5NXvNelt5r/Pu9SH5BPtU+zz21fPl+3b7wX7efrv9HqzQXMFb0ekP/L38d/s/DNAOWBPwYyAmMCCwJvBJkGlQXlBfMCU4JvhI8OsQ55DSkPuhOqHC0J4wybDosOaw+XDX8LLw0QjjiHUR1yIVIrmRXVHYqLCopqi5lW4r96yciLaILoweXqW9KnvVldUKq1NWn46RjGHGnIhFx4bHHol9z/RnNjDn4rziauNmWS6svaxnbEd2OXuaY8cp40zG28WXxU8l2CXsTphOdEisSJzhunCruS+SPJPqkuaT/ZMPJX9KCU9pS8Wlxqae5Mnwknm9acpp2WmD6frphemja2zW7Fkzy/fhN2VAGasyugRU0c9Uv1BHuEU4lmmfWZP5Jiss60S2dDYvuz9HL2d7zmSue+63a1FrWWt78lTzNuWNrXNaV78eWh+3vmeD+oaCDRMbPTYe3kTYlLzpp3yT/LL8V5vDN3cXKBVsLBjf4rGlpVCikF84stV2a9021DbutoHt5turtn8sYhddLTYprih+X8IqufqN6TeV33zaEb9joNSydP9OzE7ezuFdDrsOl0mX5ZaN7/bb3VFOLy8qf7UnZs+VimUVdXsJe4V7Ryt9K7uqNKp2Vr2vTqy+XeNc01arWLu9dn4fe9/Qfsf9rXVKdcV17w5wD9yp96jvaNBqqDiIOZh58EljWGPft4xvm5sUmoqbPhziHRo9HHS4t9mqufmI4pHSFrhF2DJ9NProje9cv+tqNWytb6O1FR8Dx4THnn4f+/3wcZ/jPScYJ1p/0Pyhtp3SXtQBdeR0zHYmdo52RXYNnvQ+2dNt293+o9GPh06pnqo5LXu69AzhTMGZT2dzz86dSz83cz7h/HhPTM/9CxEXbvUG9g5c9Ll4+ZL7pQt9Tn1nL9tdPnXF5srJq4yrndcsr3X0W/S3/2TxU/uA5UDHdavrXTesb3QPLh88M+QwdP6m681Lt7xuXbu94vbgcOjwnZHokdE77DtTd1PuvriXeW/h/sYH6AdFD6UeVjxSfNTws+7PbaOWo6fHXMf6Hwc/vj/OGn/2S8Yv7ycKnpCfVEyqTDZPmU2dmnafvvF05dOJZ+nPFmYKf5X+tfa5zvMffnP8rX82YnbiBf/Fp99LXsq/PPRq2aueuYC5R69TXy/MF72Rf3P4LeNt37vwd5MLWe+x7ys/6H7o/ujz8cGn1E+f/gUDmPP8usTo0wAAAAZiS0dEAP8A/wD/oL2nkwAAAAlwSFlzAAAuIwAALiMBeKU/dgAAAAd0SU1FB94LEBQGKczuhTcAACAASURBVHja7N15vFXj4sfxZ609nX322WeeGjVoUplSXVwhUuqSKclQJKJSXAoVUhJSZI6UKFNJVERUKEmzZo1KdeZ5z3uv9fvjuK5fN3XGfdbweb+8Xo7q7P083+fZ2d+z1l5LUlVVAAAAAEAtixQdUQNl5V8XfzA8dHjTcX8gddQPf34t2WItyY0IDTg5iUoPAAAAoPaokaB/y+dCiOK5Qyr1jQm3vFb+hfOc64UkkSRApQcAAAAQJd5VM8JZu8NZu4IH1lbncRxtutmbdXZ1HU6kAJUeAAAAQG1SleC+1SXzR4Vz99Xgo1rTmgshEu+Ybc1oScYAlR4AAABAjXb5kF8pzcmdeF6tPkvqw6stiQ0keyyBA1R6AAAAADVA8RXlPd1Z8RZGpcfIqf/+1pLWXLLFkDyo9AAAAABQVZGQb8O8smVTIwWHovm09qadk+75RLLaWQFQ6QEAAACg8pRIwWvXVPMCeFVma3SOrUG7+D5TWAdQ6QEAAACgMlQlb0rX8LEddTuKmPa9EgfM5EZ3MCGZCAAAAABUvsyrircw/6Wedd7nhRD+rUuKPxgapY/xA1rCUXoAAAAAle7zpYuf9Kx8TWvjir/26dh/DmJ9QKUHAAAAgBMrWfCId/VMbY7N3XOM67IRrBFMwkoEAAAAACqu+KP7fT+/r9nhlX4xUQhBq4dJ8Fl6AAAAABWjKsUf/1vLff7PVu9Z/hLLBSo9AAAAAPzBt36eb+0cXQy1dMlT3lUzhKqwaqDSAwAAADA7NRIM7vlORwMu+XS04i9h4UClBwAAAGBuSrhoZn/fhvn6GnXZl88ILgcOQ+OK9wAAAABOSlXzp/UIHd6kx7E72vVIuuNd1hBGxVF6AAAAACdt9EGvTvu8ECKwbWnR7Dv5UD2o9AAAAADM1+f9JTnjztD1FPy/LPKumsFSgkoPAAAAwFyKP7hPDfr0Povg3tVqyM9qgkoPAAAAwCzCOXtDx3YaYCL+bV8WTu9Dq4fxWIkAAAAAwP+KFB/Nf7GbGvAYYzrBA2tVX5Fky2RlYSQcpQcAAABwokqfvdcwfb5c7qTOiq+IlYWRcBM7AAAAAMdTw8HshxsasP/YnRmTfmN9YRgcpQcAAABwPP+GeQYtQNZw9m7WF4bBUXoAAAAA/4/n+zdKP3vcwBNMeWCZreFZLDQMgKP0AAAAAP5/pf/mRWNPMLBrOasMKj0AAAAAoyldPF7xFBh7jmVLnw3s/EZwwjKo9AAAAAAMQw36wsd2mGCeSuGMm9WQjxUHlR4AAACAQfg2zjPPSem+tXM4UA8qPQAAAACj1ANXinkmW7JwrBBUelDpAQAAAOifUpJVsuARU025cNYADtSDSg8AAABA98JZvyol2aaacmD7VyWfjGLpQaUHAAAAoGNqwFMw/QYTTjyc/asaKGMDgEoPAAAAQK8kq92cEw/uX+Nb/zEbAFR6AAAAAHpV/NEI087dt3aOUprLHoAeSSpXgwAAAABMLhLKGtXAzAHIruS0x7dIVgd7ATrbukQAAAAAmFz+Sz1NnoDiKYjkH2QngEoPAAAAQG/M+kH6v8p77iJCAJUeAAAAgJ6Ej27nAHU5/9YlhAAqPQAAAADd8Kx8lYvDlSt65w7/pk/JAVR6AAAAADqpBAn1COFP/s0LBVcQB5UeAAAAgA4oYaX4GDH8t9Jv+9K/dTE5gEoPAAAAQOt8mxb6Nswnh78K7l0tlAg5gEoPAAAAQNt9IC6FEI7jXT2z+MP7RCREFKDSAwAAANAopSy/dNGT5PC/fBvmqyE/OYBKDwAAAECrld5XFD62gxxOKG9yF0IAlR4AAACARkmyhRD+TqToiOIpIAdQ6QEAAABostLbYwnhJHIebx3hdgCg0gMAAADQHCVc9vVkYjg5rjUAKj0AAAAAzVHDQe+Ps8nh5IJ7fwgd3kwOoNIDAAAA0BKJLnBqSmlu6NBGcgCVHgAAAICWGr3FSggVUbLgkcC2pUJViQJUegAAAACaENjxDSFUUOGs/qoSIgdQ6QEAAABogKoWzupPDBVX9hWXEgSVHgAAAIBWqgAn3leC59tpQlXIAVR6AAAAAHVNksigsgreuIFWDyo9AAAAgDqmlOXRTisruHdV6eLx5AAqPQAAAIC6lD/1Mip9FYR+/0XxFpIDqPQAAAAA6owluTEhVEFw76rgr9+TA6j0AAAAAKA/pV9MVEqyyQFUegAAAAB11QMsZFA1kfyDuU91EEqYKEClBwAAABBtaqBMKcsnh6oHGAmGju0iB1DpAQAAAERbycKx4ezd5FAd+VO7EgKo9AAAAACi3gHc6YRQXZLs+/kDYgCVHgAAAECU2ygfpK82VSn+aIRvw3ySAJUeAAAAQPS6qOLJI4YaEdz3o1AVcgCVHgAAAEA0+Lct9f44mxxqhG/tnOC+H8kBVHoAAAAA0SBZ7YRQg/ybPuWGdqDSAwAAAID+eH96r3DmAKFEiAJUegAAAAC1S7LYCKFmBXYuU0N+cgCVHgAAAEBtUtVI4e/EUONynzqXEEClBwAAAFCLIoWHiz9+gBxqnBrwKCXZ5AAqPQAAAIBaI/H+v3YqfSSY82T7cO4+ogCVHgAAAAD0x8fdAUGlBwAAAFBLuDZe7Vb69R+Fj+0gB1DpAQAAANS8SMFhQqg9ircw9PtWckA0SaqqkgIAAABgeGrIn/1IY3KobQm3vOY853ohSUSBKOAoPQAAAGAOlMyoKJ47RKgKOYBKDwAAAKAmOz0RREfJwtGEACo9AAAAgJoTDmh8gLEXDkwd9YMBkvaunlWycAw7zhRUpWL/1NYH3q0sAQAAAGAGOY+30fLwJKvD0eYyS0I92Z2mlObqPe3QwfVqJChZ7Gw8o1X4gOfPr8PZu/On9ajId9lbXpx0+zv/2euyZHfW2AuHy+MBAAAAZpD96Glq0KfZ4VnTW6Q+vFoIoZRkFbx5kwHuBhd35aNxlz/AxtM9JRzO3Vf+ZejI1uK5Q6r/kH+ejWLNaFXdFw4LBAAAAKDu/eeScnJ8pq1+WwNU+uDulcqFA2VnAmurR6FDG8N5+4UQga1f+n9ZVLMPnvfcReVfxHV70JLe3JrRytagfdUeiqP0AAAAgClo/Ci9Jblx2pj1f7T7cCB34nlKSbbeM7emt0h5YJlkj2X76YOqlnwyqvxL75rZ0Xzm2PMHxHUfJbvTKr3HWDUAAADA+JSw1ttvRss/v5asDluD9gH9V/pwzh6lNMeS0oQNqM0CL4QqhAgf21n03t1CCDUSiuQfrJOxeNfM9m9eKLvTUx5aIcm2it9ykqP0AAAAgPEVvHJV8MBaLY8w8/ksIcl/rVtF793l3/K5AcLPfD674g0N0ejy/hIhRPGHI/xbl2hweDHteyX2nyFkS0X+MEfpAQAAABOw6u3S65KUcNNLxqj0od/W25p0ZA/WcY0P+SO5+4QQkYLDhbP6a3mo/q1Lij8c7rpkiLV+21O/UDhKDwAAABhewRvXB/do+pbvxx+lF0KoinfNu39+tlnXku/5xN7iIvZh9AV2r1CKjwkhvGvnhg6u09fg464YGdd95Mn/DEfpAQAAAGiSJDtaXmyMqZQufSaFSh81kVDxvH+Xf+lb95F+51H29WShKnE9HqbSAwAAAOblXTUjtF/TH6S3prc44a9bUpsmDni7+MPhasCj6yUIH97i37ww5uxr2I21QomU/9vz3RveNbPVkM8At0v4o9UvmyJkOe6KkVR6AAAAwKx9x1OoRoJaHmHKiKXHn3X/HzFnXuX7+YPAzm90vQRqJBj6bUPMWb25Tl5NbmxvoRBCKErOE20MPM2yryZL1hjXpUNP+Bqh0gMAAABGp/kaqarKSYbo7jkmdHCd4ivW9SJ4vp8uZIu711gh08KqVeMjBYeEEKHft5TMe8gksy5dMsF5Xh85PpNKDwAAAEBnrPXbqqpigIl4Vr7muvwB2ZnAmlaWb+N81e8RQniWT4sU/m7CBMqWTYm/7rn//fEclR4AAAAwPG3f5epvTrn/q7Qx63OeaCuUsN5Xomj2wOTB8yoyZQghIgWHSr94WqiKf/NCk0fh/XF2pPBI0qD3qfQAAACAiQQPrPV8+5KWR5gy/ItTHriWY5PSH9uU82R73S/Hnh/UoE9yuNiZJ/CfH9mUfPpoYPvXQgjFU6CGAwRTLrDzGzUSlCx2Kj0AAABgGqGAxkuRZHVU6I/FJjradAvsXKb3Bcl5vHX6kzukGDd7UwghVFXxFAgh1KA3d2IH8ji5gleuThmxlEoPAAAAmIZRLrEuWR3unqMNUOnVcKCw/PR7cwtn7VYDZYFdy8u+nszLtIIUT0Gk+KgloT6VHgAAAIDOWDJaODv29a37SO8TieQdCGfttma2Mt0Sqop31YzyL0sWjmVLV3rn5B/0LHsh/obJVHoAAADALCVK08OTrRU/j0Cy2BP6TosUHgnuXaXvYlZwKLDrW/NU+tDhTZ5vXhRCKJ6C4IG1vCir9YqJS/3rf1LpAQAAAMNSSnMLZ/XX8gjjr51krXdGJb5Bkh0tLw7u/0nvV78v+3KSrfG59mb/MOC2i4TK/10487bQ77+UN3lhiNsQaoFn+cv2FhfZm19ApQcAAACMTo2oQZ+WByhZbZX9FtdlI0q/mKj7lQkHCl69OmPSb5LdaZC9Fg6ovmKlLC/v+Ut45dXmazqohoN//ieVHgAAAEAdFhS1Ct+UNPDdwpn9DTB7/+ZPnR376foShqHfNqiRoBCidOGY0JFt7OgokP6yYaj0AAAAgHHJNs0PsSqV3tG2R/K9nxS8fr3e16f4o/udHfvpbthqOOj9froQQqiKAc6Y0B+LjUoPAAAAGF0kVPjWTZoeoWwVFbsp/f+yNTpHsjrUcED3rf6DoQk3v6aLoQa2f+VdM1sIESk6Gj62g1dYne2Zj/+d9uhPVHoAAADAyFRVDf2+RcsjdJ5zjbNDn6p9r+SIS7rrg4LXr9P7Mvk2zJddKe7eE7S4hcJBIYQa8uY+1UEIofpLeVlpQSRv/59fU+kBAAAAg5IMPkRrRktLQr1I8TG9L1To2A416NPIdfJUf6kSKBNCBHZ8XTJ/JC8jjaPSAwAAANAl2Z2e8u/lBa9fG87apeuJBPf84N+0wNn5lrodQ/kXRXMGK2V57C4qPQAAAIC6JEmyxkeoBsqq2+rjUiyJ9fVe6YUQ3rVzHO17yrFJUX7ecO4+/6ZP1aDXs+IVXjK6fJmrVbppBAAAAACNK5jeJ/jrd5odniWhXtrYjUK2VPeBIqHc5y7666eLdcqS2CD10Z+kql4vsFJK5o8M5+0XQoQObVQDHl4supM5Jaf8C47SAwAAAMYU2rdG0+OTLTXQ54UQFlvqyO+zH26o9/WKFB1Rio5aUpvW8OOqavl94xVPft7Tnf/4Nf3fKQBUegAAAMDIJLtT9QVNMVOLNfafg7yrZuh9IrmTOv959LWaFE+BGvQKIbxr3vV8+yIvByNxtO1OpQcAAABgmE4vx/UYZYBKL4QI/vqdveXF1ajykcDuFUKIwhk3sy+MKq7rcCo9AAAAgLpUsx/hlmPi4697pmTBI3qPpWB6n6Q75zjOuKJS3xU6uN6/42shRDhrZ2D7V+wug792gl4qPQAAAGBkpYvGKf5SLY8wbezGmnw4SY69cGCk4JBn5Wt6Xzvf+o9PUen/c43zwrdvVf0lQojgwXVCVdj2JkSlBwAAAAwodGSrxjueZHfW+GPaW1zkWztX8RXreu38Wz4P7Pj6BK0+ElIj4Uj+wbwpl/6n21PjzUjhKD0AAABgbNG5F1q1qIqQ5Jp9SEfry+SEenqv9EKI4L4fHW0uL88nkn+w/BcL3rzJAPfqQzXZGp5la3QWlR4AAAAwNItJ3+onDpiZ9+wFep+FZ+Vrashnb3mJ6i0q/mgE2xl/ijnraktCfSo9AAAAYFjBvatCB34259yt6aenjV6X+3RHvU/Eu3qWd/UsNjOOo/iK/vqfMokAAAAAxqv0iqdAyyNMG7tRyLV1fNGS1FCOz2AbwHhsTTq6e46l0gMAAABGJtldWh9hTFwtPrpsSRmxlG0A41HK8oUkUekBAAAA1G01UWv14WVXir3lxcQMQ5Gt8Vc/efyvEQsAAABgMJJND5e7r90EYpLunBvT7ko2A4xDCTvadqfSAwAAAEYWyTvgWTVTyyNMvO1N2ZVc288iWe22xueyH2AYaaNPcM1LKj0AAABgrEpfcFjjdy+3prc47vPAtcTVdbg1szVbAsYgJ9an0gMAAABGZ7VpfIBqJBilZ5IkZ8eb2BEwAEfrrpKQqPQAAAAATMR1yZD4654hB+hdfJ8pwmKj0gMAAAAGJ1m1fm08NRyM5tPFnj+AXQFdi73wDos7/YS/RaUHAAAAjEP1l5Z8OlrLI3RdNsJ+2nlRfUrZkjz0M/YGdMrZ4Yb4ayed8BA9lR4AAAAwVqUP+UKHNmp5hJbkRkK2RPlJrRmtJIeL7QHdkSx2W5NOQvrb5k6lBwAAAAxVAbQ+wEg4+s8pu5JTHvjGktKE/QF9keNSYi+4/WR/gIwAAAAA4xR6W4zGR6h48uvkea1pzR2tL2WHQF/i+754is5PRgAAAIBBqErZsilaHqCt8bmuLoPr6tnjuj9iTWvONoFeJA/9zNHqUio9AAAAYJJGH/asfE3LI7SkNpVi4uvq2WVXkpxQj30CvajIhSSp9AAAAIBBSDr4IH2obp8/+Z75tgbt2SrQODk+I230z393lXsqPQAAAABTkuTk+5YQAzTO/a/HK3g1Ryo9AAAAYBSyVeMDjBQcrvtSb7HFXTGSzQLtvo7daY6WF1f0D5MXAAAAYAyeH6Zruqg4E5IGzdXAOCyx59/GboE2SXZn2iNrZHc6lR4AAAAwl9LPHtf0+GwxclyqFgYiuzMSbnxBSLQhaE76uB2VuoQkmxgAAAAwCI0U5r+lKloZiSQ5O9/iPPd69gw0xVrvDMnhqtyrntQAAAAAg5AkMqg453k3ys4EcoBG2FtclPrvbyr7XVR6AAAAwAjC2bvVoFfLI1RKc7XVoFpeLKx2dg40shuT7vqgCle4pNIDAAAARlA891414NHyCFNH/aC1IaWM+IqdgzpnO61D0qC5kqUqP2Ci0gMAAABGYElqpPERWtNbaC+0hmljN7J5UIfk+IyUYYur1uep9AAAAACiRYloslClW+udweKgrjhadxWypeobmAQBAAAAI7A6yKAKJIs9ccDb5IA64ex0c0LfadV5BCo9AAAAoHuR4qPhYzu1PML4656pwqW/osOS2MDRphu7SC+S7pwju9MMMBFXl3sSbnyhmg9iZUMAAAAAeudb8244e7eWR+g870bN3mNPssUk3fFO4azbAzuXsZe0SXYlpz70nZAkIVtDv60X4aDeZxR74UD31eOq/6Kg0gMAAABGKDwaH6EaCkiOOO2Oz2KzNWwf2PWtUBW2U52THC7J6hBCuHtPcJ59jRCivMwLIYJ7fih8+1adT092drwp/tpJNfJDLio9AAAAAIi4Ho94V89SvIVEUYcc7XoIIRJvmS7Znf/7u4Gdywpn3KL3OUo2R0LfF2vq0aj0AAAAgO5J9litD1EJ6aDVXzm65JORbKdo1/g2l9tbdhFC2BqcaW9+wd/9scDulQbo80IId88xNfhoVHoAAABA31R/iX/7V1oeoavrfbIrRftJxl4wQIpxFc8dwqaKgqRBc2VnohDC1uhsYbGdaperhW/eaIBZx98wOfb8AVR6AAAAAH8IHdka0Haljzn72lN3No0M9cyrqfS1x9bonKRB75d/LcdV4qc8ZcumGGD6CX2nOTv1q9nHpNIDAAAA+ibZnFofYsinmzCt9uShnxW82pt9VSPk+AwhROItr9mbnS+EEJIspErfSb3sq8llX0/W94vUYnf3Hl/jfZ5KDwAAABig0scQQk12pNRmsjNB8RUTRZXra/lV7mRnQnyf6h5d93w7Te99Xghha9op9sKBtbJd2XAAAACAjqlKcN8arY8x6NVRonJ8RsoDywrf6hfO3cf+qjhnp5ttDc8UQtibX2DNbF0jj+n5fnrpFxMNEE7cZSNq6ZGp9AAAAICOKWX5JZ8+quURxpx5le208/SVqiWliTWzNZW+IlLuWyIsViGEreFZVTip/m+pqmfFK6VLJhggouShn/3xuQMqPQAAAID/R7ZofID2Fl0kh0t3uSbc/Gpw0nqlJJstdkLuq8Y5O/UTklR+1fpaoBqjz6fct8TWpGPtPT6VHgAAAEAtUsM+PQ5bssda05oHqfRCCCEsyY3/KKgPLJNj4oWo9Z8lFc4aYIDckod+Vqt9nkoPAAAA6JtktWu90nuL9NrH7l1QOOPmwK7l5txaclyqo9WlQghLapO4K0ZGcccoRe/cofH7Mp46vdikxNverL3z7an0AAAAgP6panDvai0P0JLUMObsa/QaryQn9p+RPbqZ2baVu/cE2RFnb32pJaF+tJ9biRR/ONy/7Uu9Z2hJa2ZveXEUnohKDwAAAOiWEi6ceZuWB2hrfG5NXfy8bkq9zem+alzponGG30qWlCZJt8/6oyXWb1s3g4iEiueP9G2YZ4A8E295IzpPRKUHAAAA9Ns4ZY0PUI0E9Z2wbHG07W7gSp/Yf0b5wWTJFiNZHXW8W0I+38/vGyDVtMc3R+0EByo9AAAAoE+qqoaDxFDrlSmtecJNL5fMf0gNBwwwl/IvUh5c8cdVGLTzU6FIKO+FK/SesGR3po5aHc0PLFDpAQAAAF0V+YCn/IvCWf2De37Q+GiVomMGyNzZsa9v4/zgr9/pdPz20/9pSWliP+1cZ+dbNbqrI8G8Sf+IFP6u+z7/4EpLUsNoPimVHgAAANBDkw96I0VHVF9J/ktX6qbhWB3uqx43Rv5xV4wsPLRR9ZfqaMwJN70sZFkI4TznWiFbNby3ffnTuuu9z1uSGiYNnmdJbRrl56XSAwAAAJrm2zhfCOFZ/kr42A59jVxyuOynX2SMVbA37ST08DEHe4uL4q99WgghZOufp9lrmRryF7x2TThrl953iByfUSeBU+kBAAAALQod3uxbO1cNenwb5ut1DqpqpBVJG7sxZ1xbbY4tedhiW/0zhBCSLUbLB+SP3yCRYMGrvUOHN+l9b0gWe/I9n9TJU1PpAQAAAO1UHEVVwvnPXyqECOcdEEpY17NRvIVGWhzZnZY2dmPuU+fWfYG0OixpzYUQtobtE/pOE0IH9z448X73Fhugz8vutLTR6yR7LJUeAAAAMF+LD3rLq7v3x9mlSyYYaWqxFwww2GLJcan25hcE9/1YJ88e076XHJ8hhIi9cKA1o6Xew1S8hZo966ESjTqtecr9X9dVnxdCSKqxToYBAAAAdFLllXDWbiFE3vMXG3WKmc9n6fTo8UmEft+S/0K3aD5j4m1v/VHpz7paSJIxYlTK8nOeaKP3WdibnZ84cLbsTKzDMXCUHgAAAIiqwO4VSvGx4IGffT+/b+yZqkpYstgNNilrZuuY9r38W5fU6rM4O98a13WYEELYYqJ5k/Mo9fmSrNxnLzTAROyn/7Nu+7zgKD0AAAAQpRrjLSz9/HEhhG/dRyaZcsZzvxuv0gshhBIpeP264P41tfHY6eN3SbYYyRZjvBMc/givLD/v+S5Kaa7eJ2JrfG7KsEXCYqvbYXCUHgAAAKjF7ieEKJp7b+jwZtVbqPiKicQIZIutaefggbVCVar1MK5kS/JpQghH665x3Uf98atGObX+xCKh3EmdVH+p7vt8g3Ypw7/Qwo9dqPQAAABADVODXjUSDB/dUfDaNaYNIaZ9L0myGHV27p6jPd++WLXvdXa+VXbGCyFclwyR3emm2hXhvP0G6PP2Fhcl3/2xRk6j4MR7AAAAoGaEjmwt/6Lg1avVgMfkaaQ/9Wudf8y4Vvk2zC9+f0jF/7y13hlxPR4WQsS0u9KcWyKctStvche9z8LR5vKkO2bX+fn2/91X/M0LAAAAVKuo5OwN7l2tePLLlj5DGv8VCginkefn7HCD7IwvfPvWk/+xxNvfsTVoJ4SQ49Iku9O82+Hw5vwXr9D7LGLOvCrh1te10+ep9AAAAEBVKZGi94cKIQLbv1SDPvIwIXuz84//JdkqhJBj3GmPbSo/MVuyxRBU6MhWA/R5IYSt0Vlau+IjlR4AAACoeI0PCyG8a+d6lk1VlbABrtpde1Q1Yvg5SjHulAeWlS4cW/6fzo43OTvd/J/fk9gDf7xoyvLzX+hmgIk4O9/q6jpca6Oi0gMAAACnEgkp/lI14Mmd2IEwKsJ++j/lmHgzzNTW8KzkYYtY8ZMIHfmlmrcG0ESf73Rzwo1TNTgwKj0AAABwYuFjO9WgVwhRtmxqYOcyAqk4d6+xkiOOHOD/ZVHR7Dv1PgvXpcPc/3pcm2Oj0gMAAAD/jxoo8/38vhCi5D8nVKPSGYa4uACEf/PCovfuNkKf7/WYZodHpQcAAAD+ULpoXCTvQDj713DuPtKoFkUhA7P3+U0Liubco/dZODvc4O71mJavjEClBwAAgJmbZ0SoSihrV+GbfYUQSlkekVSfHJcqu5LJwbxU1b99qQH6vBDC3vxCjV/pkEoPAAAAM1aO8vaeN7WrUpJNHjXLdekwa/225GBairewaNYAA0wk/rpnnJ1v0fggqfQAAAAwTdMoyQrnHRBCBPetKVv6DIHUWtBhMjAz/8b5BphFwo1TnZ1v1f44qfQAAAAwOlX1rHhFCOFZ/pLiKyYPoPaUfjHR8+003ff5W15znnuDLoZKpQcAAIBh+Tcv9K3/WPEVhw6uI42oUcMBQjBpn18ywbP8Zb3PIv7ap/XS56n0AAAAMFibVFQlrPo9eZM6CSE4Jh99ksNlTW9JDiZUtvRZA/R5IYSt0Tk6Gi2VHgAAAEaglGQJIUoXj/dtmE8adcje7PyYs3uTg7moimfl62XLphhgKslDPrWd1oFKDwAAAESlyZfmhrN2KWV55ZYlnQAAIABJREFURXMGk4Y2loRr45lvzb3FpYufNEKfH7bY3rSTvsZMpQcAAID+eFfPVDwFQgjvmtnchQ6oS6pauuhxA8wjZfiX+jo+T6UHAACAzoRz9pYseFgIEdzzA2lokxLwEIKp+nzB9Bv0/nqUrI7kIQv12Oep9AAAANB8ZQgHhBD5Uy+PFB5Sgz4C0XY3kh0tLyEG07w4lcIZNxvg52vu3hN02uep9AAAANAopTRXDQcCu5eXzHuINHTT6O3OuO4jycEUdT4cLH5/SGDXct3PRLbaW1yk3+FT6QEAAKClnhAJBn/9XghROONm0gA0K3xkq3/L5waYSNqYdZbEBlR6AAAAoOqCv34X2LtaCBE6tIHPyetYhMvdm4Ia8pd99awR+vzjWywJ9XQ9BSo9AAAA6qoWqGrIV/hmXyFE8MBa8jAAWeftCBV64UaCeZO7RPIP6noWktWROvpni/53rKSqKpsSAAAA0esDIb8QonTROO+ad4WqCFUhE8PIePawZHWQg7H7fO6Ec5TSXF3PwpLaLPme+ZakhgZYEY7SAwAAICpNIFCmlOVFSrILXrmKNIxLIgIjv4qDvrzJF+m9zwshXBcNMkafp9IDAACg1vm3fSmEKP38Cb2fqQuYmeIrLnz9ukjBIb1PRI7PiDnnesOsC5UeAAAAtSK4/6fA9qWKJ9+37iPSAPQukrM3dGSr3mchxbjTRq+TbDFUegAAAOB/qKoaCRa8crUQInR4E3mYiuxM4Lx7o1LK8oveHaT7LepKTntss5H6PJUeAAAANVHkg14hRNmyKZ7lL5OGKdu81dnhevfV4yWLnTAM2Oc9BTlPtNH7LGyNz02+d4HB+jyVHgAAANV7r1+WF8n/Lf+lK4nChJydb7U37SyEsDU6y5rZmkAM+hrPN0CfF0LEX/eMZI813gJR6QEAAFAVatAb2LGsaO69QgmThtmkPvSdEMKa2UpIMmkYWKT4aN7ETgaYiKNNN6P+1IlKDwAAgMq2ebXk00dDB9cZ4FpZqJSkuz6wN+koZKshj3biOEpJVv7Uy9VIUO8TsTftnDRwtpCNWX6p9AAAAKh4mVdKv5gY2PpFOHcfYZiB7EyQ3emWtGZJd8wWQnBM3lTCeQeUsjy9z8LW6JzkoZ8ZeOtKqqqyWQEAAHCKLh8oC+5dXTjzNqIwidjzBwgh4rqPkt1ppGHGPn9sZ97zF+t9FvYWFyUPnmfsH0VxlB4AAAAnwwXwzMPWoL3r0mFCCMkZ72h9GYGYVujItvypXfU+C2fnWxNueM7wp5ZQ6QEAAPD3fb4kK/eZ89WAhyiMLWX4l5Iz3pLYgA/JI3R4c/6LVxhgIrHn32bUz89T6QEAAHAKajhYsuCRwI6v6PMGFtft365L7xNCSA4XaUAIETq0MX9aDwNMxHXJEFuDM82wZFR6AAAA/I9IKHdiB6UkmySMx9agnRAiefiXksXG5e5wnODBdQaYReyFd7ivGmeSJePyeAAAAPgLJaIEyvInd4kUHyMMI3F26CO7kh1n/svetDNp4IT8W78oeud2A/T5+OueNc+qcZQeAAAA/+3zxR8O922YRxKGkXj7rPIvYtr3Ig2crM9v/qzovbv0PgtX1/vcvR4z1cJR6QEAACCEEEJV6fPGafK3vmFrdI7kiOMWdKgI34b5xe8P0fss3L0eK79lA5UeAAAApuvzhTP6BXYtJwldszU+N/neBUIILlwPs/V5IYS9xT+FJFHpAQAAYL4+//Yt9Hn91nghRGL/GZbEBkIIE1YaVEdwzw/G6PMJN061NTrHhCtIpQcAADA3JVL03t2Bnd+QhL7YW15sa3imJeW02H/0Jw1UkaoGf1tvjD7v7HyrOdeQSg8AAGDmN/RK8cf3+39ZRBI6knTnHCGEo9WlwmIjDVRH2bcvln05Sfd9vu80Z6d+pl1EKj0AAIBp+7xa/MEw34b5JKF9sRcOdF0yVAgh2RyyO51AUH2li8Z5Vr6m91kk3v5OTPueZl5HKj0AAIBJ+zzXw9M4yWIXQqQ9uV2yOiSrXUgymaDG+vxnj3u+f8MAE7E3O9/kS0mlBwAAMKOidwfR57XJ1ugcyRbjunSoo003IbjcHWqaqpZ+8ZQx+nzKfV/IriQqPQAAAEz2lj4cCOfsIQdNsSTUK7++V1z3kaSB2hPY9a1n+csGmEjy0M9tTc5jQan0AAAA5qL4igtfvzactYsoNCLx1umyK9lav60cl0oaqOXXfySwc5kB5pEy/EvbaR1YTyo9AACA6YR+Wx86so0c6vhdeHqLpHvmlX9tSahPIIgGVSl6724D3OEi5f6vzHkLeio9AACA2Sll+aWfPU4OdUJyuIQQKSO+sqQ0kWRZyLwVRzT7vFrw2rXB/Wt03+dHLKXPU+kBAADMWegjuePPUiNBkojqG+70FpakBrbGHeJ6PEwaqKvXfsH0Pgbo83JskiWlKetJpQcAADCjcM4e+nw0uXuNFULEXnS3ZIshDdSh0qXPBveu0vssJLsz5d/fcol7Kj0AAIBJ5U3uQghREHflo/amnWRXqjWzFWmgzqmBstChDQaYSOqo1ZakhiwolR4AAMCMfBvnC9kqlDBR1JK0sRsli00IIcdnkAa00ueD3oJXrzbAFTHTx22T3eksKJUeAADApLwrX6fP1yzZmSAk2X3txJizrhZCSBY7mUBbfT4cyJ96WTh3n65nITlcaY+upc9T6QEAAExMiUj2WGKomSYfm2Rr1lkIkXT7bCFJBAKt9vlg7rh2iq9Y7xNJGbGUPk+lBwAAMLWyrycHD6wlh2qK6/GI5IiNadfLktyINKDpPu8vzXvunwbo89Z6Z1gS6rGgVHoAAABTk+wuQqgyR9vucV2HCyFsTTqSBnSh7NsXI8XH9D4LS3LjlPsWS444FpRKDwAAYG6yhQyqIG3Mesnukp3xwmIjDehFpOhIYMcy3f+l5UpOHfmDZHeyoFR6AAAAUwsf3e5Z8Qo5nJIU45ZsMTFte8Rf98wfv0STh94opTn5U7oq3kK99/m0x7dIVgcLSqUHAAAw/Vt8b6FSlkcOJ1F+yfqEvtMkB59QgK77fG7OuHYGmEja6J/p81R6AAAACCE46/5vxV4wwJrZxprRwn76RaQBQ/T5tgaYSMyZV0k2zren0gMAAAAnIjsTkgZ/LISwNTybu9DBGCL5B3Of7mSEPt++V+Jt04VMUaXSAwAA4A+01j8kD1lozWwj2RySPZY0YCTete8bYBaOVpck9n+LPk+lBwAAwH+pIb85Jy7HZ1jiMyV7bPI984UkC8FnEGBMoUMbfWtm630W9mbnJ931ESfOVJakqiopAAAAGFjWg+nmnHhCv1dizvyXEBL3wYKR+/yRrflTL9P7LBxtLk+6cy59nkoPAAAAKv3xUh9ebUmoJzni2AwwWp8/vDn/xSsMMJGMSQf5OEzVcOI9AAAADC7v2Qutac3jeo0VQsS070UgMEifP7g+/+WeBphIXI9HuGVdlXGUHgAAwOB8a+cWf/wAOZRzduhjb3mx87wbiQJ6l//SlaHfNuh9Fq7LRrivHM0p91XGUXoAAACjv+HLbE0If/JtmOfbMM/7/RtCiKS7PpTj0ugS0OVO/vn98LEduu/zXe5x9xzDalLpAQAA8LfUSJAQjhM6sk0IkTOunRyblDZ2gxCSZI+l20MvgvtWF390v+77/CVD3FeNYzWrSSYCAAAAmJbiLcwe3Sx7dFPP8pfCOXsIBLpgzWxjP/2fep8FfZ5KDwAAANSM0i8m5j17offHd/ybPo0UHyUQaLrFuZIdbS4nB1DpAQAATEBVyKCCSj4ZVTRncP7Uy0sWPKyGAwQCzYq9aJC9aWddT6F08XjWkUoPAACAU5AccbIzgRwqTinL866elTvxvLxnLyz94ml+JgItvq4tdttpHYSk40Ln++k9wf3Xqr8TuIkdAACA4XlWvFq6+ElyqLKkge/Zm58vZKtkjyUNaEfWg+m6Hr+z860JN05lHauDo/QAAADGp5RkE0J1FM68LXvM6dmPNgkf26kGfQQCjUjoO03X44/k7FF8RaxjdXCUHgAAwASV3ltY8GrvcNYuoqg+W+NzYy+4Qwjh7NiXNFDHVDXroQxdzyD++udiL7idlaTSAwAA4GQKpvcJ/vodOdSgmHOui2nfM+asq4kCdSj0+5b8F7rpd/zW9BbJ9y6Q4zNYyqrhxHsAAABTsKY11/WVtDTIv2lB0buDcp/ulPt0J8VXxFX0UCdsDc9KGviefscfztkTztvPOlYZR+kBAADMIntMc9VfSg61xJLaLOX+pUII2ZlIGoimSMHhwrduCufs0e8UMp49LFkdLGUV8JNaAAAAs6DP126tytufM7ZlztiW3lUzQke2RgoOkQmiw5LcKObsa3Q9hcCOr1nHquEoPQAAgFmEDm3Mn9aDHKImvs/zMe16yXEpRIHapviKC1+/LnRkq36nkNB3mrNTP5aSSg8AAIC/e9cfyXq4kVDCJBE1lsQGtqadZYcrvs8U0kCtKpp9p/+XRfodv+xMSH9qD+tIpQcAAMDfiuTtz530D3Kog26fUC+2y2BXl7uFEEK2Eghqnt5vaCfJcd0ejOs+kpWsFD5LDwAAYKY3f+50a2Zrcoi+SPGx0kXjskbWzxpZP5J3QA16yQQ1XYkl1yVDdDx+VQkd+UUNB1nJyi07R+kBAABMRfWXFs4aENy7iijqkOxMSLr7IyGErdE5QpIIBDVDiWSNrKfrGSTc/Jqzww2sZCX+MiECAAAAU5Fi3PamncmhjpuXrzh/Wo/8aT1KFozyrf+YQFBDL285aeC7up6Bb90Hiq+YlazEmnOUHgAAwHyFMpw3pWs4axdJaERMuyuFEO6rn7SkNCENVOvF7S3MeaKtrq+CmfrgCmv9tiwllR4AAAB/q/SzxzzfTycHbb01t9glZ3za6HWS1S5kKyfko2oC25YWzuqv4xdCjDv9yZ2S1c5SVgQn3gMAAJiRu/eE2AsHkoOmqJGgUpaXPbpp1qgGpZ8/oZTmkgmqwFq/ra6vgqn6S8PHdrCOFcRRegAAAPPyLH+5dMkEctCshBtfsKSfbklsYElqSBqouNIlEzzLX9b1FDKn5LCOVHoAAACcjFKamzOOz6xqnmx1X/lo7AW3SzFuwkBFqAFP/su9dH2sO/6GybHnD2ApqfQAAAA4yRt/1b/506I595CE9llSmljTT7ekNo2/ZiJp4JSKZt/p/2WRfscvu9PSx21nHan0AAAAOAXfzx8UfzSCHHRTdZwJ7t5PxZx7rRBCsnAJMfwNVS1488bgr9/ptqrKcd0ejOs+kpWk0gMAAOCUrf794o/uJwfdSRuzXo5LleyxRIETlPpIMHuUjq/C4GjXI/G2tySrg6U8Ca54DwAAAOHsdHNCv1fIQXdyJ56XN6VrcO+q4N5VpIHjSLLV3Xu8fscf2LY0sONr1vEUq8xRegAAAJTz/7KoaPad5KBTsRcMsDXt7Dz3BqLAn/R+CUx7s/OT7pzDhSGp9AAAAKgQ38b5xXOHkIOOK1CLi4QQibe8IbvTSANCVX3rPy7+8D79zsCS3DjtkTXCYmMxqfQAAACoQKtfO7f44wfIQedv82XZlZw2ZoOQZcliF5JEJKYVPraj4M2+Skm2fqeQNnajJakhS0mlBwAAQMVaPVfLMxB3r7Ex51xHIzKzkgUPe1fP0vUUMqfksI5UegAAAFS41W+YV/z+UHIwjIR+r8juNFu9NnJ8JmmYTaToSMGrvSMFh/Q7heShn9mbnc9SUukBAABQUVwtz3hkV7LzH/2FGnH3HCMk7n5lIvnTeoQObdTx1o3PSH9iK+tIpQcAAEBlKOHSRU96vp9OEgaTOfmokK3kYB56v0e9ZHXEXzfJ2flWlvI4/GQOAAAAJ3m3aHX3nhB74UCSMAxLSpOMifvo82YjWeyONt30O341HAjuWyOUCEt5/MpylB4AAACn5P1xdnD3cv+2L4lC1+Kvnxxz9tVybBJRmJAaDmY/rO+rJCbd/bGj1SUsJZUeAAAAlaeEC2cPDGxbShK67EKD3rdmtLIkNyIKE3d6xfvjOyULHtHvDJwd+8ZfP1myxbCYVHoAAABUpdUrgbK8iR0VXzFh6EjysEX2pp3JAUpJVs6TZ+p6CmljNvCTKSo9AAAAqkFVlNLc3Gf+oQY8hKFx7qvGuboMFrKFKFDOt3Zu8ccP6Hf8lpQmaY/8yMUg/sTl8QAAAFBJkizHZ6SO/MHZsS9haJajbXd37/GuS4bQ5/FXtkZn63r8kfyDkaJjrON//z7mKL3BqKoaiUTC4bDf7w8GA5FwJBKJhCPhYCAYDAb9fp/f7/f7/YFAwGqx2B0Oh8Nhs9msVqvdbo+NjY1xxsbExNhtNqvNZrFYrFZ++gUAAE4meODn0G/rSxeNIwpNib1gQPz1k8kBJxQ6sq3wzRuVsjz9TiFzSg7rWI7Cpm+BQMBTVlZcXJSXl5eTk5OdlZV17NiR3w///vvh3w4eLCoqqsJjxrndaWnp6RnpGRmZDRo0aNS4ccOGjeo3aJickuJ2u202G7EDAIA/2Zt2sjft5Gh1qX/LZ2XLphJInbM16Zhww/PWzNZEgb/dJA3aSVaHjicgWwO7V3Lp+3IcpdcZVVULCwsP7N+3Yf267du2Hfrtt5yc7Lzc3EAgUKvPa7Va69WvX69+/YYNG5119jkdO3U67bQmrrg4VgQAAPz3bUqgtOCtfqGD6wijrljrnZH6wDJh4RgMTkHxFuY81kq/47ekNEkb/TPrSKXXx/8cw+Hw0aNHtm7ZsvzbbzZt3FhcVFhUVKQoSh2OymazJSQmpqamXdatW89e/2rZqrXVapUkifUCAID3LmrIl/9Ct0jxUS6eF02yKzlt9DrJESd4S4aKyZ14XqTgkF57rMUe96+xri73sI5Ueo0Kh8Mej+eXLZs/mPPeF0sWa3/Ava+97sab+rVt1z4uLo5P4AMAgEj+b54Vr6hKxLd2DmnUcpu3xna+Ja7XGNmZSBioODXgyR7dVNdTSB622N60E5WeSq8hgUAgJzt7y+ZNn8z7eMXyb/U4hcu7XTHgjoFt25+ZlJTEcXsAAOD/ZVFw/0/eH94iitqQcOMLttPOs2a2IgpUmhIuXfSk5/vp+p1B3BUj4y6/3+SfNKHSa0IoFNq8aeO6tWtXrlz+808/GWBGcW53nxv7dr2823kdOzmdTpYYAABTU9Vw7t6STx4O7l1FGDUoefA8e8uLyQFVFin8Pfepc3U9hfRx22R3OpUedSYvN/fzhZ8uWbxow3pjXkimbbv2va+9tk/ffklJSSw3AACmpoSVgCf3ibZqJEgY1eTuPSG2862Sw0UUqBZV8ax8vXTxk/qdgaPVJUmDPhCyhUqPqIpEInt+3T31+ck//fhjSUmx4eebmJh4Ve9rhgwbnlmvHmfjAwBg7gqhCqEG964uXfRE6Mg28qgsa0YrZ4cbXJeNIArUiOC+HwvfvkXXF7NMf2qP7Eyg0iM6/wtTS0tLVi5f/uykiUd+/92ECVzR48oxjz/RqFFjWZbZDwAAmJx31Yzg/p/8Wz4nigqKad8r8fZZUX7SQCDgcDgI38CK5tzj37RAx53WYs947nfTLh+VPnoOHzr08YcfvDztBaLof/sddw2+t1HjxkQBAAD8vyzyrp7Fx+xPzt60c2yXu2Pa/yua96jz+/1z35udlpZ+9TXXsgQGFj66veCN6xVPgV47rdWR8tBKa1pzKj1qy4H9++a8++7bb00nir+6867BAwfd1aBhQ6IAAMDk1HBQKTqihvx5z3OxtxOwNWifPPwLyRrVQ+Vbf/ll/BOPrft57WdLlp519tmsgrHlPNleKcnW7/it6S1SH15NpUfNO3rkyEsvTl302UKPx0Ma/ysxMfHeYcMHDrrLZrORBgAAUIPe0KGNBa9fRxR/Sp+wW3bERfM2XV6v96UXprz5xuuKoggh1m7cnJGRyUIYm+IrzhnbQr/jl50JCbe85mjTjUqPGvq/karm5+VNmjjhi8WLfD4fgZxc89NPf+X16W3OaEsUAACg/L2UZ8Ur/s0LQ0e2mjYDyWK3NmiXdPdH0bzul6qqmzZuGHrP3ceOHv3zF7f/us/l4tL6xpf33EXh7N36Hb+ry2D31eOF+S7FTaWveYWFha9Me5HT7Ctr+P3/vmfosNjYWKIAAADlShePF0L4N30aKTpiqom7Lh3mPPd6a/2oHvAoLS2ZOvm5WW/P+OsvpqdnrFq7zm63sxsNTw2UZY9upusppAz/0nZaByo9qi4YDC5Z9PmD9w8vP0kJlVWvfv033nr7rLPPIQoAAPAnpSw/dGhD4du3mmS+SQPfc7TtHtWEFWX1qh/uv29ofl7ecb/V9bLL35z5jtVqZR+a4JUWLlk4xrt6ln5n4LpshLv7qGh+SkULuJFYjdn6yy933HbLA8OH0eer7NjRo717XTlzxluRSIQ0AADAH29Y41IcZ1yR/sQvyYPnGXum8dc8lTZmQ5T7fHZ21kMPjLitX9//7fNCiNZnnGGxWNiE5nilWeOvneS6ZIh+Z+D5dpriKzbdurF1q6+stHTcY2N69+qxetUPpFF945947N67BxUXFxMFAAD479vW+Ex7y4sznjnk7vWYZLEL2VDHjSWL3d1rbOxFd1uSG0XtSRVFWbjgk17duy2Y/7c/KznttCaS+T6cbF6SbGvaWUg6LolFs+8UqrmOsHLifXX/Hlz+7TcP3T+8qKiINGpWZma9me++d0bbdkQBAACOp6pCCRe8cUM4d69Smqv32TjadEu6c06UL+uVnZ310P0jfvj+u5P/sTkffvzPi7qw40ylaNYA/7Yv9Tv+9Kd+lZ2J5lkvjtJX3bFjxwbc0m/Q7f3p87UhK+tYzysuX/rFEqIAAADHkyRhsSUP/Sz1wZVx3R7U7zxsp3WI6/ZglPt8KBT6ZP7Hnc89+5R9XgiRlpbOdjMbZ6ebJYeO73GQM7al4jNRQeMofVUoivLlF0uGDr6LKKLg8Scn3D7wTlnmx08AAODEwtm7w0e3F825R2d9vtE5yUM/k2wx0XzS/fv2jXlk1JofV1fwz69Zv6levXrsMbPJHtVQjQT1O35b43NTRiyl0uPESkqKn54w/sP35xJF1Ay86+5Hxzxms9mIAgAA/J1I8VEhROmi8f5NC7Q/2rSxG+W41Gj2eb/fP2vGW89Omljxb8nMrPf1ipXx8QnsLtO9mvIP5j7dSb/jtyTUS7xzjq1BezMsFkc+K2fb1q1X9ehOn4+ymW+9ed+QezweD1EAAIC/fxNf35JQP/GW1zKeOWRJbKDZ6+dJDlf6U79akhpGs8//smVL7149KtXnhRBNmzVzOGLYWmZ8NaU0kexO/Y4/UnwssM0sR+mp9BXeFpHIOzPfvrpn999+O0ga0bf0iyU333g9l8EHAACnasyyZItJe2xT+hNb7S0v1tS1u+0tL059cEXG0weiee0uv9//9ITxV/fsvnvXrsp+b6PGjTlN0rTSxmzU9fg9304LH9tphpWyslkrIj8v76EHRqxY/i1R1KEtmzf363P9B/M+SUjg7C8AAHAKclxK8uB5oUMbA79+p5TmelfNqNvxJN72VszZvaP5jIqibNm86d67BmVlHavaI9Rv0IDrGZmWFOOOad/Lv1WvF6tWI8HgwZ+tma10fU++Cq0Un6U/pZ9/+umO/rdw1rdGtGrd+qNPFiYmJhIFAACouOC+1b61c30b5kf/qd29xtqbnW9r0jGaT1pQUPDKSy/OfOvN6jzIs89P7dvvZjaPaYWzduVN1vctDNOf2iM7DX44kJ+6nYyqqu/PeffG66+hz2vH7l27+lx7dUFBAVEAAICKsze/MOGml9Kf2GpJbBDVPv+vJ1xdh0ezz6uq+vXSL3t1v7yafV4IwbXuTc6a1tx1yRBdT6Fs8XihKlR6kwqHQ+OfeGz0w6OIQmv2/Pprvz7X0eoBAEAl3/la5fiMtDHr0sdtl2OT5NikWn02R+uuGc/97rp0aDSnmJebO3TwXXffecexo0er/2hp6dyU3twsNttpHTR7pcmK8P70nhoJG3uVOPH+xDwez5DBd323YjlRaNYZbdt9OP8T7qoCAACqzLfuI/+mTwK7V9bsw1ozWlkzWyXe9paQpKjNJRKJfLlk8QPDh4VCoRp5wJTU1CVfLcvM5EC92RVM7xP89Tv9jt+a1jz1kTUGXiCO0p/AsaNHr+7ZnT6vcTu2bxt858BAIEAUAACgapwd+ybd/bG794SY9r1q6jFtjc9NeWBZYv8Z0ezzR48cuf22W4bdO7im+rwQIi0t3e2OZ5PAdckQyeHS7/iVsjzFY+TTe6n0x9u0ccOV3bru27uXKLRvzY+r/z18WDgcJgoAAFD1xtJlcGL/t1LuW2JJaVLNh0q5b0nyvQuiecP5YDD44ftzL+jU4YfvVtbsI6ekpMTEcFN6CEerS9WgT8eV3ldc9M4dVHqzWLjgk+t7X1VUVEQUerFk8aLnJj2tKApRAACAarwpttqadEwd+X36kztT7v+qCg+Q+uCKjIl7bU06SvbYqI16547tt93c95GRD9bGgyclJ1ssFrYGhBBpo9fpevyR/IOhw5up9MY3e9bM++8bSjnUnTffeO2dmW+TAwAAqCbJFiPHpdganZP53JGEfq/I7rQKvZ92p6U+tNJav60UE73T1IPB4NTJz13zr55r19TWh4Tr1avPlkA5S3KjtEfX6rjSFx8L7F5BpTcyVVXfmv76E2NHE4VOjX/iscWLPicHAABQQw3G5jzvxvRx211dBp/8/nMJN7+aPm67td4Z0XzjunPH9u5dL3npxam1elGh01u0YCPgv70xPtPWoJ1+x1+29Nlw9q9UesP2+TdefWXi+CeJQteG3XP3hvXryAEAANQgd+8JKUM/j7/uGWtGq+N+y3XJkMTb33F26BPN8XjKyl54fvKV3S47cGB/7ZZbVAB7AAAgAElEQVQEWW7SpCkbAH+S7M74PlP03PqU4L4fjbk0Jr+Jnaqqr7487flnn+FVagAul+vb71dxqxUAAFDzbxr9JeHcfaqvtGD6DUIId88xrstGRPld64+rVz0y8sHDhw5F4emcTufSb1ecdloTlh7/3YRBb/G8B/0bP9HvFNw9x7i6Do/m3Sio9LX+N+O0F6a8OOV5Xp+G0brNGZ8uWuJ0OokCAADUBsVTKISQYxOj2QoKCwufffqpD9+fG7VnTElNXfHD6vj4BFYcf+VbO6f443/regqZz2cJyVDnqpv3xHtVVZ9/7hn6vMHs2rnj8TGPco1DAABQW++eXUmyKylqfV5V1WVfLe12aZdo9nkhhN1uj411sdw4jrPTLfZm5+t6CoWzBhjtLyXT9vnnJk189aVpvCyNZ95HH77z9gxyAAAAepefl3f3nXfcNfD2vNzcKD91QkKi1WplCXA8SYo56yrJYtfvDEIHflYjQSq97s2c8ebrr77CS9Koxo97/MfVq8gBAADoVDgcWrzo8w5ntVv21dI6GUCr1q1ZhUpT1UjegUjeAWHojzbH/nOQriux4i0sfvcuKr2+fbPs6wnjnuDvHGO7Z9Cd2dlZ5AAAAHTn4IH9995917B77q7DMZx51lksRKUbvRLKndQ5d1Ln0iUT/FuXhA5tNOpMk4ct0vX4w3kHIgWHDbMcpjudZueO7UMH3yVgdCUlxYNu7//poiVWq400AACAPppGODRzxltTnnu2Vm84XxHNmp/OclSWJP64woJnxR+nA7u6DC7/wn31k0a6JJu9SSd9v9Cydvm3ffHn6uh+45nqivdZWccu6/JPj8fD3zgmce/QYQ+PHksOAABA+/bu2TN86L07tm/TwmCWrfi+RcuWLEqlqJFg9qiGJ/wta3oLyRYjhIi/caqtwZlCCL3fRy2SfzD3aR0Xe9mVnHL/MktyIwNsPBOdeF9WWtrvhuvp86by+quv/PD9d+QAAAC0zO/3v/byS5dfcpFG+rwQIiU1lXWpLEmyOFp3PeFvhXP2hI5sDR3Zmv9Ct6yHMnLGtVUDZWrAowb02k1kd7rttA76XSzFUxA6us0YVz0wy1H6UCh0a78b165Zw981ZpOZWW/JV8v43xIAANAgVVV/2bLl/mFDDhzYr6mB7f3tMJ9erEpR9BXljK3c2Q2Jt79jzWghxybLcSk6a1gH1+W/3EvX65Ux6TfJ7tT7rjPFUfpIJDL64ZH0eXPKyjo27N7B4XCIKAAAgKYUFxdPempC7149tNbn09MzLBbuYCcikUilvydc6UvBF71ze96zF+ZOONu/6dPyf/SSj7VB+787K0EvvD+8aYAD9aY4Sr/488+G3TtYwMQef3LCHXcOknT+mSUAAGAMqqr+8N3KJx4be2D/Pg0Or2evf706/S2Tv3H6cfWqYCB4SdfKVValNCdnXLtqPrWzQx8pJk4IEXfFKK0fulfC+a9cFfptg34XOvP5LL1fudD4R+mP/P77/fcN5f8cJjf+icd2795FDgAAoM4VFRWNGDak/y39tNnnhRCt2rQxeZ8/sH9f/5tv+mnN6sq3K6scV93Pe/o2zPOunuVdPSvv2QvyJncpmjVAqMof/2iuTVptjc/VdSUufPtWvW9Xg1f6YDA4cMCt4XCY/3ngzgG31fn9YAAAgJlFIpFvln3d8ez2ny/U9MnVp7cw9bXus7Ozbri2dzgc3rB+fWXPaJZdyYkD3q6pkSjewnDWLv+2L7Meyiz/J5zzf+y9Z1wUydf33TPMMAwwMKQhSFAJKphd4+qadY2oiIqIAcWEOeeAERHFHBDFHBBRRBcFdc2ZpAiSc87DDEzs54X/x2tvd5cVmNDVfb6ffeEqdFedOqe7fl1V56Th9TV4fQ1x5L3euF1E/Nbw00jy4nFJPUh64uK3d8/XZFibBTAMw/Lz8vz3+YIdAAAAAABQC0VFhUsXLZwzc7pEQvQUP5aWVpQdppqa6qmTJpaXlWEYFhvzUS5vvFhVpr4t8+1TvNGueKNdTehaaWGStOgrEYymPzkA3RGX80urry8DSU9Qnj97GnjqBLw/gO+cPnk85uMHsAMAAAAAAKpEKpVcv3qlf59eEeF3kGiwqZkpNUdKKBTO8piWnpb2/w+ctKamhqBNfX2+bH//Mr9+wjcX6t5fr3t/HZeJ1dUYdvcpaEdo4RdZVT667SdterzSkpIBfXtDFXrgB1q1an33jwe6HA6YAgAAAAAAFZCZkb5uzSq0Si8lfk3T0dWl2khJJJKl3gvu34v4619GREa179ChUdcRpz2vOOGi+vYzW3Zn8OwZ5u10flNDXnBJTkz5od/RHX26rrHxqj/pHB6SjSdlQEql0q2bNoCeB/7htZqZcfzYESoUegAAAAAAQN0zUklQ4KnfhwxCS8+bmZkzmJSrSC+Xy/fu2vmDnscw7GtyUmMvRWNx6Gx9NYjqrPd1767w72wu3dPr23+4qBaTyzC5TAV3Z/Ds6HoIb+6Q15ZJy7IQbTw5Jf3DB5F/D0gA+MbxI4dfv3oJdgAAAAAAQHlUVlaOGDp4x7atyGXndXRy0tDQoNp4nTl9Mijw1N///u2bRn+OYVp11hmszrPZsrKMb/8Vb2hdtNq8aLV53bsr8roqvF6JhwhoWnpct6NI+0DF0dG4VIxiy0ko6fn8mk3r1sCLBGiAyPv3YKEeAAAAAADl8eLZ09SUFBRbbmfvQDVJf+Pa1d07fP7xnxLi45tyRVxGqA5WX19WssmheKOdJC9ekv9Jkv8JU8JMmNGio6ZdX6Q9QZQUhWKzGeSLSb+9eyoqKuBFAvwbGzZvmek5h+LVVgEAAAAAUCrp6WmItrxlq1aUmiZFPYhcs3L5v4rh6qr6+notLS1ydLb84NBvf9Du58Uwa8MwbaPZqqeiLk7XMdC06ytOe4GufaqCZ5n5l4CkVzOpKSkXgs/BWwT4R/T09IMvXe7StRvoeQAAAAAAlEoKsnWULS0tqTNM796+9fKc2cAP8Pn8ivJyixYtGnVZ4u/fFj4P/PYHra7/y+THnXoMozV3B7fuoMWiT/ck+Z/QdQn+3W2cMdtA0qsNuVy+esUyDAD+iX6/9T98/KSBgQGYAgAAAAAApYLjeGlpKaKNN+HxKDJMyclJHm6TGv6ZWj4/Jye7sZJew8iGpsnGxXXEN0J9TOi3P5SkvaBpMDEM4844y2zRHsNoGL3x5y80mJq2fSQFiRguR9Qr6mJCOaO3NP/rhioh1Vn68NthcbEx8BYB/s6GzVvOXbwMeh4AAAAAABUgkUj4fD6KLafT6fr6XCqMUWFh4Uz3qT+TvPBLYmJjL87u5qrZujdaBpHXFMsq82SVeeUBw4pWW5Rsc5ILKr7916jrcJx3oKvnv9mh5vYmtNpMnlX66upqP9898AoBfsDMzPxE4JkuXbuBKQAAAAAAUA21tbVVlZUotpzHM9XW0SH9AFVXV8/ycC8qKvyZH0752qQzFCjLWgzD5IKKki1tv/2ZO+2UhpENhmEM0zY01n+7h7778erLC9Htu7Twi1xYSddGZi2QJJIex/FzQYH5eXnwCgH+yshRo3fv28/lcsEUAAAAAACojMqKiurqKhRbbtOqJZvNJvfo1NXVzXB3S0768pM/n5+fL5PJKFjY7ztVl+Z9+wPTshO7+2SMztDuM7OBn2d3mYC0pBenvxIlPWJ3mwiSXtXPzRNHj1AqtBgMhhabbW/v0M7JqWXLlnp6+lpaWkxNTVF9PZ/P5/NrcrKzP354n5OdLZPJ5HI5Rj127tnr5u5B5ecvAAAAAABqobi4qK6uDsWWW1paMZlMEg+NVCpZ4r2gUWd1C/LzBIJaPT39Rt0Il4jIZz1JXrwkLx7DMFHyI5qGJoZhei776LpGP/4cjW604lF5wHBMLkW0p4Iof5ZDfzrHBCS96gi7dfNnTsIgDZ1Ot2nZys7e/vcRIzt26mxhYaGto/OfmdvlcnlVVVXq168vnj97/uxpRnp6TU016d+jZmbmQecvOLXvAFMKAAAAAABUT25ODqItt7BoQafTyToucrl8y6aNUQ8iG/Vbebm5FeXljZX0TOsu4sy3qG+//zdEiQ/+94cvD2laHKZVF4NZwf/7Nw0mhmHMFh0MPM9XnnFHtIPS0nRZeRYqkp6G4zjqLiUQCLp2cCSxpG/Ttu3AQYOHjxjZztGpOVUxcRzPz8t79vTJ4+jo6KiHZDXX6LHOO3bvhUx4AAAAAACoiwD//QEH9qPY8l17fd09ZpByUHAcP3TQP8C/KeNy+XrIr337Nfa3ijfa4vV8qjm/8ZrndG1DDMPktaU14VvFKU/R7YvpvrxvmxEIDhlW6a9fvUJWPT9k6LDpM2d16daNw9Fr/tVoNJqlldXUadMnTZmakZ5+/97dpj3UiIzv/gMTJ02GzfYAAAAAAKhROpaUliDaeDNzC7KOy5VLF5o89c3OymqCpKcmZfv+ZyjOqM0Mo5ZiDGFJL0qI0OoyASS90qmvr/fbu5t8wdCzd+/tO3bZ2dszGIo/zsRgMBzatLF3cHCfNj34XNCxw4dIYDEra+vAc+fbtm0HT1IAAAAAANSITCYtzM9HseUMBsPc3JyUg3L/XsTGdWub/OuZGRk4jv/niVfgr/Dv7UC9C1WX5puhIOmRPyoTGnId0ewj/waPZ3rlxs0r12+2beeoDD3/HRqNZsLjrVqz7s3H2KHDf0faaM7jJ0RGPQY9DwAAAACA2qmvqy8oQFLS63O5BoZG5BuRVy9fLJw7pzlXSEn5KpU2OtMbLhJAOKBOze2NIOmVi0gkOnn8GGk8hk6ne81b8PTVmz6/9lXZ1nEajWZmZn466NyZ4AstLC2RMxqLxdrnfzDgyDEdXV146AAAAAAAoHYEQkE+mqv0xsbGehwOyYYj8fOn2TM8mn+Rujpho6epbQZAOKCOKPEBJpeBpFciDyP/QDeh6I/PUBOTazfDNm7ZqpZaoDQabcjQYfceRE+Y6IqQ0Ryd2t+OuD9pihvsgwIAAAAAgCBUV1XX8pFMisY1MNAiV1H6gvz82TOmN39Lb1lpaS2/trG/ZTD7EoQD6sgqcvh3t4OkVxZyuTws9CY5fKVL124RkQ979Oyp5uc4l+t3IODAoSNIGM3dY0bIrdvtHJ3gWQMAAAAAAHEoLy9DtOUGBoZkyjFcVVU1a7p7UVGhQq7WhOvgcjmEAwmQ5MXLBRUg6ZVCTk7261cvSeAlLq6TroaEmpkRIhmJhobGhImukdGPDQ0NiWy0w8dO7Ni9BzbbAwAAAABANAoLChBtuUWLFqQZhbq6Og+3SV+TkxV1wbTUVPBtaiLOeC1OfQ6SXim8evGCBInx1qzb4HcgoDnV5pVB23aO96MetWnbloAWs7Fp+eeLV2PHjafT6RgAAAAAAACRwHE8Pz8P0cY7OLQhxyhIpZK5s2d9SkhQ4DW/JH6Ww6o7VeHf2yGvLQdJr2DEYnFoyA3UnWPjlq0LFy8hpjQ1MzMPvX23X/8BhGqVm/u0B4//bNmqNTxZAAAAAAAgIHK5PCszE9HGt2zVihxDsGbliudP/1TsZd+8fi1vZJo0Go3GtOkGQUECZBU50tJ0kPQKpqAg/+OH90h7xrKVq+bMnU/kFupyOIFngwcOGkyExrBYrKMnTu329SPajgYAAAAAAID/m/rLZGmpKSi2nMVimZmZoW5/HMf37tp562aIwq+cnPRFImlkHTsNpoEnZMgjCRVHR+NiITHbhqqkjwi/g7RPjB7rvGTZCuLnadfS0jp55uyo0WPU2wyn9h0ePnk6eqwzZLYHAAAAAIDIiEWilK9fUWw5m802NEK7KD2O4+fOBJ4+eVxJ16+qrGx0k2RiCArSQGNogqRX3LNSLD594gS63uDUvsM+/4OoHAVnsVj+h44MGjxEXQ2Y7TUv9M5dG5uW8BwBAAAAAIDg1NfXI5rsSVOTpa2tg7Tx70Xc9dm2RXnXz8zMAA+nMjW3N4KkVxhfEj/X1FSj6w279vpqa2sj1GAtLa2DR445te+g+q8JQecvbtq6DTbbAwAAAACABJWNX8glCPpcfQaDga7lX796uWj+XKXeIulLYqN/B4eMeuRB+PIcSHqFoYzjMSrDY8bMzl26oveU19c/E3zByNhYZXfs0LFj1JNng4cMhc32AAAAAACggqKqoKseR6f26Jo96Uui+2RXpX81eNno+tk0TW2GWVuIC5JAZxDzOD16kl4ul9+LuIuqG9DpK9esQ7Tx5ubml65eV8295s5fGBIWbm1jA48OAAAAAAAQIic7C9GWO7VHVdLn5+W5T3ZVQYW5N29eN/YudG0DPRdfiAuSIJeWHxhMwHahJ+lLSorLy8oQdYP53ou4XC66btzO0enYqUCl3oLJZAZfvLJ+02bYbA8AAAAAAFrgOP41ORnRxtvZO6DY7MrKyqmTJlZUVKjgXrV8fp2w8Yu0UsiQRx7oHB5IegXw7s0bdJ1gpuds1P145KjRi5cuV9LFu/3S/fmbdwMGDYLN9gAAAAAAoCjpPyUkINp4S0sr5NosEAgmTXDOVuHOiMLCwiZ4BYQGeSCkSEFP0t+/F4GoA/QfOMjIyBh9N6Z5L1na7ZfuCr/ywsVLrt28ZWZmDs8KAAAAAABQRC6Xf0qIR7TxxiYmaDVYLBbPmTk9NSVFlTdNS2307WiabJomG6KDHEiyPwpfnwdJ3yxEIlFqyldEPWD0mLEaGhokcGUtLa29fv4KzIlqZGwcdP7imnUbmEwmPCkAAAAAAEAUkUgklUoRbTyHw0GotTKZbNXypa9fvVTxfT9++NDYX9Fs1VNnwCKIDnKAS0WyihyQ9M0iJzu7ID8fUQ/o2KkzabzZ3sFBUXn++vUfEBEZNXjIUHhGAAAAAACANNVVVYi23MjYGKGVJ7lcvnuHT/jtMNXfOubjB/BzikPT0ARJ3yzevX1dV1eH4tiz2WxjY2MyebPXvHnNr1S/au26oOAL5uaw2R4AAAAAAORBt4Jd9x49UclkhON4UOCpoMBTarl7WWmpVCoBVwdA0jc9gONiYxE1tJ29vbaODplch8Fgnjh9psm/zmazr98M8168VFNTE+IQAAAAAAASkJWZiWjL2zk6oiLp70Xc3eWzXV135/NrqiobvxcDl0F0kAca4RQ0SpJeIpHk5eYiOvRWVtbkOyhubWOz29evCb/Yo1evl28/9OzdGzLbAwAAAABAGlK+olrBztbOHol2vnn9asnC+WpsQE1NTV5eo/UIXdeEgLu1gaaBiwUg6ZuOQCDIykL126cuh0On08nn05OmuPXs3btRv7Jyzdor128aGhnBEwEAAAAAADIRGxuDaMstLS2J38ikL4lTJk6Qy+VqbINUKm1Cjn3tvrOZLX+BACEHgj+Pi5IfgaRvIlWVFcVFRYiOvba2NilXpBkMhp9/AIvF+pkfNjI2vhF6e/HS5QrMlg8AAAAAAEAEcBxPT0tDtPGmpmYEb2Febu6EsaOJ0JLkpCTwdqpDsL33KEn64uJi9X6Waw5iiQTHcVK6tJW1teccr//8sSFDh0U9ftqjVy94CAAAAAAAQD5EIlF9fT2ijdfl6BK5eWWlpRPGjiZIkuzc3ByyzuoBREFpsTQnOxtdQ9dUV8vlclLuvafRaJ5z5oaFhjaQ5XXL9h3TZ86CxXmqIZVK6+vqBEKBUCCorq6urKysqCgvKy0rLyurqxOKRCKZTCaXyyUSiVwmwzCMrvH/oKOjyzM1NTY21udyDQwM9PT0dTkcPQ5Hi81GqNAOACgQmUxWJxR+j6mqyqrKyorS0pKy0jKBQCCTSSUSSQMxpa2jY2LCMzIyMjQy4nK5HI6enp4eh8PRYrPh+QwACpjs1VTL0CxKz+OZMpnEPeldXV3tOt65pKSYIO3Jz8urq6vT1tZu1G/hUhHECEB1SY/jeGZGOrqGLi8rk8lkZJ0zmfB4s+Z47dnp8/d/MjQ0PHfxcqfOXSDYSAyO4zKZtKa6pqioMD8vLy01NTHx89fkpNraWlF9vVgikYjF35RGk29Bp9OZTCZTU5PFYmlpaWlrazs4tHFq38HWzs7Wzt7c3JytrU2j0SDhIkCimJLx+fyiwoK8vLzMjPSkL1+Svnyprq4Si8UikUghMaWhoaGpqanFZmtqaurq6trbO7RzcrK1s7e1tWvRogVbW5tOp0NMAcDPU1ZaKhIhKduc2rdnMAj6rby+vn7+HM/MzAziNCk3J6eqsrKxkp5h2kaS/RHCBKC0pJfJpEgfXEn6kigUCn/yzDmKeMyYee5M4A8L9UOGDtt3IMDQ0BAijWRiQyqV1tfXlZWWpqenJ8TFPXv6Z5ySEwLJ5XKRSCQSiWr5/G9/k5qSci/i7vcfYLPZfX/r/0v3Hp06d7azs+fo6TGZTFLuiwHIHVMZGRmfEuJfvXzx7s0bZcfUt/V8gUDwPabu34v4/gNMJrNXn1979+7TuWtXe3sHjp6epqYmxBQANEBebi6iR0Rb29rR6USU9FKpdM3K5a9fvSRUq2pqqouLiyxatGjUb+lPDqiPCYW1eoDSkl4slmSkI7xKX1VVVVVZYWBgQFZP0tbW3rRt+6L5c7//zfadu909psNmTnIgl8sFgtry8vKsjMy42JhH0Q8/JSQQqoV1dXVRDyKjHkR++18ez3TI8OHdu/do07atuUULfX19kCIA0WKqTigsLy/Pycn++OH9k0eP4giWKFsikTx/+ufzp39++18jY+Ohw4Z379mzTZt2FhYW+lwunH8BgB9ISfmKaMtb27Ym4FtSLpfv3ukTfjuMgBbLzcnp0rVb434Hjt8DIOnlMll5RTnStv7y5Uur1rYkdqYRI0c5OrX/kviZxzMNOn+xQ8eOEGCoIxQKMzPS42Jj4mJjP7x/j9Dhl5KS4isXL1y5eAHDMGMTk4GDBnfp2rVzl64tW7Vu7E45AFAg9fX1mRnpsTExCfFxHz+8b0IlJHVRXlZ27crla1cuYxjG5XL7DxzUvUePjp262Nra6ujqwsgCAIZhKV9RlfQWLQhXwQ7H8cBTJ88GniamxZBeaARA0qsNmVz+fcMtoty4dvX3ESNJvKyhoaGxZ5/fft+9x06d1tPTh+hCFBzHi4qKXr14/jg6Kj09PTnpC+o9KistDbl+LeT6NQzD2rRt27ad4xjncb37/KqjowPDDagmpspKS9++fRP1IDI1JSU56Qu61Vu+UVVVdSfs1p2wWxiG2Ts4tGnbbsxY5z59+3I4ejDcAJUjvbSkBNHG83g8ojUpLPTmPyZpIggpX5OlUmlj96LCrntASdBQqcFQUVHRtYMj6uaO/ZxE4r333yBrYn/SI5PJCgsKwm7dvHHtallpKUHqxCgPLpfbqUvXWZ5zevTqxWazIQcYoIyHYXFRUcTdO9euXC4qLPx+ZJ3EMdXO0cnTa26fPr9q6+hATAE4juM4LpfLamsF/Jqa+vp6oVAgFAoFAkFNdXVNTY1IJFKXm0gl0ta2tr+PHKXAa4rF4vFjRiV+/oTiYL14897Syoo47Xn+7KmH22QiW8zK2joy+klj1wbKDw6V5MXDwwF1dAYu4ozeQqgmobNKj2ZRkB8IC735MyXckQb0PFqIRKLioqLohw9OHj9GnPIwKqCqqurpk8dPnzzGMGzSFDdPr7ktW7bS0tIClwCaP60vKy19/CjqxLGj+Xl5lIqp169efsti5Tx+wpy58+3s7dlsNrgEdZDJZCKRqLq6urAgPz0tLSnpy/u3b4iWeOU7410mKlbSCwSCqqpKFAeOxzMl1PGZ+Lg4gut5DMNyc3KEAkFjJb3hknvFayzhWYE6NCbhXm0IpccTk8AD/PbudveYTuK89wAqSKXS/Py8l8+fBZ46hXR5SIVw49rVG9euWllbL/Be1O+3AS0sLeHLFNAEMVOQn//yxfPgs0EkOK7STL5tyzc2MVm2YmXf3/pbWVlDLj2yIpfL+Xx+UWFh0pfEly+eh98OQ6WKW4eOnRR7warKiopyJLM+tWzdijhf3zIz0ieOG4OE3crKSk0ae2ABMuSRA5xwp+eQkfT19fUkcIC6urrrV69MnzkLYgFQFxXl5c+e/vkw8o+/VqsCMAzLzcnZsHYNhmGuk6eMd5nYvUdPJpMJZgH+ex5fVfXq5YsHf9z/drYc+L/5bmnppvXrMAwbPdZ5ouvkPn37ampqgllIo+Qz0tNfvXwRHxf77u2b3Jwc5LpgZ2en2AsWFxcjembN0tKKIO+74uIiF+cxEokECbtlZGS0c3SCpwEVH4B11SDpmy6GyeEE+333jhg5yoR4aUgA0k+/Pn54Hxx0JibmY2FBARikAb7l0uvQseNkt6kurpNh5zDwj+A4/vnTp3NBge/fvUVRz6iSiPA7EeF3nNp3cJnoOmmKmy6HAzZBl5KS4tu3QqMePEiIj0NlQf4fpr8MhsJzvOfno3rQxszcnAj7aCorK6dMdKmoqEDFbl8SP48cNbpxeUPkMniGoA7TspPe2O0g6ZuITEaSGKipqd6xfeuho8chdRCgGurr6x9FR+3fuyczMwOs8fN8Skj4lJCwb8+e+Qu9Z8zyhDJdwHfEYvHTJ4/9/falfE1GPXe9Kkn8/Cnx86cD/n4zZnnOnb9QXx8KoyADjuOC2tqnT/8MPHnia3ISCVZZmEymoZGRYq+J7udyHs9U7W2oq6tbNH8uWicBP7x/J5fLG/U1pCp4JjxPUIfG0sE0CLeLE5nzopqa5NkBG347LPrhAwgJQKnI5fLSkpLAUycc7Vt7z/MCPd80amqq9+3d7dTGLvhsUFVVFRiE4qqmrLT00oVgJwdbL8+ZJKhFpxZq+fxjhw91cmxz4thRhJbjqPwqKSkpPrjfr31be+95XnGxMeTYNanBYHAUulsEx/HioiJErWFhYaHeBkilkk3r17588Rwtu8V8+NDYFUeDOVd1h67UHbqSxoC8WqgiK88m4ocGVIrYpaakDB34GzeFKZwAACAASURBVGm8gcczvRv5wNTUDAIDUMYMLD0t7cqlC+eCzoA1FAidTt+2Y9fosc6GhoZgDaqJ+azMjOtXr5w8fgysoVg2bN4ywcXV2MQETEG4aatMlpqacu3ypeCzQeTrnZmZ+ZuPsYoVpfPnzI6Oeojiq+3OvcgOHTuqcdKyY9sWRGcsMQmJTdvuISvPlpZlYBgmTnkq+PM4PHCQgUY39L6j2aonSPomkpWVOeDX3mRyic5dut68fYfBgPxbgCKFx8cP7y9fvBAWehOsobyJ4JLlKyZMdIWKdxSJqYT4+EsXgkOuXwNrKAlDQ8NFS5ZNcZ+mra0N1iACcrn8xbOnVy5firx/j6x9HDJ02JngCwq8YC2f7zJuzNfkZBQD8N6DaHM1LdTjOH70cID/Pl9EHel2xP3OXbo20wSymkIMw8r29sbFdRhAcOgMMz8iHrFBZuM9i0W22XNcbMxB//0QGoCiXorv3ryZNmXSxHFjQc8rlaKiwg1rVzuP+v1RdBTsuyZ3TMXGfPScPm38mJGg55VKRUWFz7YtY0YMiwi/AzGldpKTvni4TZ7u7kZiPY9hWIdOCq5gJ6wT5mRno2gKA0NDPT09dd39+tUr6Op5DMO+JCY29xI0moa+hYa+henONFPfPMNFd2ksHRpLBwMICU2TTcxKhAhJehKeOTl2+NCj6CgID6A5yOXypC+J40aPmOQyDrlzaOjyNTl59gyPyS7j83JzwRrkE/NpqalTXCeMHzPqyeNHIDJVQ3pa2qIF88aMGJ6eloZD6WZ1UFFRsWbl8pHDhlDhVWJn76DYC/Jr+IhmGTA0NNJSU2GXqAeR61avRNqRXr18obBraTBpDE3NVj1Nd2ea7s5k95ym6dBf06E/TRPK7hAI3uY4jJAJzpGR9Ewmg5Q1ohfOnZOakgIRAjRNeOTm5Mz3mj1i6OD4uDgwiOp5/+5t317dA0+dIE2VTYipgvz8tatWDBnQ7+3r12AQ1ZP4+dPg/n0PBxwQCARgDZUhFAqvXLrYtYPjjWtXKfINy9raRrEXrKgoR9QU+vr6aqlg9/HDey/Pmag70pChw5Q1LpMOGM4LMZwXYrTsoe6I9ToDF8GTSu1odXUh7BcWZCS9hgbDwqIF+ZxDJBLN9JhaWVkJcQI0ioL8/N07fPr17vEw8g+whnrZ5bN97MjhHz+8h6VFpCkqKjx0wL9Pj243rl0Fa6iXg/v9hg3q//rVS9gioWxwHH/39u2IIYM2rF1NqY7zTHkKfoAUFiJqCosWaphdp6akTJ00EXUv8tm1Z9wEF2XfhWHaRnfIcs7oLYYLbhkuuEXAxGzUgTNqE0YnaAF4hFbpmdY2NqT0j/y8vOlTJ9fX10OoAD9DLZ/vv8+3/6+9Ak+dAGsQhNSUFBfnMVs2rq/l88EayCEUCk8cOzpkwG8BByC/CYHejG6uLqtXLINCd8pDUFvrs3XzpAnO2dlZVOu7vj5XgVf7tmkOUVO0bddOxXcsLCiY7DJOJBIh7UJrN2zymDFTlXfUtOuradfXYH4ob+sn3tZPhvMgcZJK0R2xXkOPuKXKEFql17C1syOrl3xKSNiycT0sRwANI5fL79+LGDV86JFDByUSCRiEaFw8Hzxq+NC42BgwBSrgOP74UfSo4UN9d++EzzEEJDTkxqjhQxR5WhX4/4mN+Thy2BBq1jrlcrkMhiKX2uRyeWZmBqLWaNXaVpW3q6iomDrZFfVPdUuWrZi/0JumjjPVNIYmXc+Urmeq6fCb6b480315Wh3H0LUNoNC9khUzQ7Nld4yuQdwGImNJOt3apiWJXeXGtavBUEUc+HfhkZmR7jreeeHcORRcTkGI7OyscaNHHj0cAN9ciB9TBfn5093dPKdPy8xIB4MQlsKCgqmTJu7dtQP1NT3iIBaLD/jtGz9mFGXfJh06dabTFTkBlslkKV+TUTQFk8k0M1PdwmNdXZ33PC/UH7meXnOXrVxFI0CONJqGJk1DkzsjiLfjq8mWBFa7oax2Q+ERpwzYv7hq2vUlcgsZCFnT0tKS3O7is22LvYNDv/4DIHKAv1LL558+eeJwwAEwBSrs9937KCrq+Okz5ubmYA0CIhQKL54P3rPTB0yBCiePH3vy+NHps8E2pP64rwIKCwpmekxFsXy6AnFyclKsHpNIJGmpqSiagqWlZWhkrJp7SaXSdatXvn71EmnncXOftnHzVsV+ElIIdB0DgzmXMQwTfY6UlmVgGFYfHy7JgW2DCpL03acQvIU0hPI5JcTHjx05nNwew2AwIqOf2NnbQ/AAGIbhOP72zeuVy5bk5+WBNZBDR0fnVNC5vv1+A1MQio8f3q9bvRJKjSBK4NngIcOG0whZQ4j4fHj/zsNtMlTo8DsQ4DpZkRP0ioqKrh0cUTSFoaHhu9gExR5D+EfkcvnGdWuuXr6EtOe4uE7y3X9ABeZSzBxSXCfJT8Bk4ooTLhjQDIyWRjKtuxK8kXSEDGpmbmZoaEhup5FKpZMnjq8oL4f4ASoqKtavWTVl4gTQ84giEAimTZl05NBBqVQK1iACNTXV27dscnEeA3oeXbw8Z+7bs0ssFoMpGiuoLl0InjhuLOh5DMMUvtejEtmT4fpcAxUIVBzH/f18UdfzY8eN993vj4qexzCMpsnWbNVT064fb3sSb3sSZ9QmiP2mQXw9j5ik19fn2tqRf/m6vKxs9szpQqEQQoiy4Dj+MPKP3wcPvHblMlgDdfz3+c71nFldXQ2mUG9MPX/2dPjggecgZQn6nDh21M3VpbysDEzxk4jF4g1rV29avw5M8Q2emaliL1hYWICoKZzat1fBXS4Enzt2+BDSPtN/4KB9/gcZDCaKjafrGtF1jXQGLTHbl2/qm6uhb07nmNA5JvAo+E9oDBZv22c0Rhkhs7JYrJatWlHBgWJjPq5bvVIqhfRaVITPr1m6aOHc2bNKSorBGuTg8aPosSOG5+XmginUgkAg2LB2tYfb5MKCArAGOfj44f2wwQOykM0xrkqqq6tdx4+FD8R/RbEV7DAMy0E20aBT+w7KvkVE+J2tmzYg7TDdful+/FSglpYW8q6vwaQxWCZb4nnbEnnbEvXdjmp1HKPZujc8E/5ZJGsbmGx8T+fwQNIrHtUXz1QX4bfDdu/cAWXtKAWO4/FxsQP69gm/HQbWIBnZ2VlDB/6WEB8PplAxSV8Shw3qj/qGT+DvlJeVDfqt74f378AUDVBRXj5h7Kj4uDgwxXf09PQ1NTUV++5G9yyPspM3vXn9aon3AqQdxtGpffClyzo6OuSLBfYvk7gzggwXhumN3603fjeUwfsrNAbLaMUjOoEL0aMt6X/p3oPJZFLEmc4Gnj5+9DBC+QuB5lBfX3844IDzqBGwm5Ss1NXVjR05PPL+PTCFahCLxYGnTowYOhiyUZAVuVw+cdzYWzdD4EX5j5SUFLs4j0lPSwNT/BWn9u0VLunR/VxrbW2jvIsnJyfNnuGB9OqUo1P7y9dDOBw9UotXunbfOdp955hsfG+07IHRsge6w1bDg8Jk43sNA5RKrSEm6e3s7HmmptTxp/2+e0OuX4O4Ij1ZmRluri4H9/uBKUjPfK/Zly4EgwJRNnm5uTPc3Xb5bAdTkJ4VSxcfO3IINrX9QGFBwfgxozLhbMLfaG1rp6GhoWhJj+o+CBMTZR2oLsjPnzZlkkAgQNdVWrVqff7SFQMDA4qEBl3PjGnVhWnVRXfYKp7PV57PV5oWh5pPCd62RITW57/BQKu5Orq61tY2lFpyWbNyubGJyaDBQ+A1TEpwHI96ELl8ySKkX3tAo9i0fl1dXd2cufOhEJeSeP70T+/582pqICUhVdjvu1dQW7tq7XrFSjV0yc7Och75e1VVFZji79i0tFFsUXGRSCSRoJr8iKOnlPXnqqoq1wnOZaWlCIs6nun5y1dNeDwqBgmNRtcxwDDMdEcKhuGS3Piqi14Yhskqya+/aJpsuo4RirkD6ci1eNAQyolbz+nTYmM+wmuYfEgkkj07d8ydPQv0PNXY5bMd1hWVgVQqPX7ksMfUKaDnqcaJY0d3bNsCBSO/6flRw4eCnv83LFooeDNtVWUluqpVsV83viEUCmdOm4r08psuh3Plxk1rGxuqRwtdA6MzmDbdTDbFmGyK0fltnlZXF62uLjSWDjm7q21gvO61yaYYFBvPQK7Fw34fQcG9lK7jnSOjnyg7iwmgSspKS70XzH37+jWYgprs991bU12zdsNGWFdU2MS6qmrFkkWPH0WDKahJ8NkgPp/vu98f0UJTCqGiomLqpIm1fD74QwM6VrEXLC4uQtQUnbp0Ubikl0olSxbOj4uNQddD2Gx2yK3bMOX+OxznHd/+ICvLEKW9wAWV/Pu7SNM7moam0fJoDX0LRNuPnqS3srI2NjFBejNPkx6R0gljR0dGP7Zo0QKeKSTg/bu3871mQyY8inP65HGJRLxp63ZQ9c3n86dPXp4zoEwdxQkNuSESiQ4ePkqdTLp/RSgUTpsyCfJBNoyxsbFiL5iZgWrCAoUXpZfJZKtXLI+Oeoiue9Dp9Ouht9s5OkGkNICGcWtt49YYhrHaDcEwrCZ8izj1OeqdMtn0ka6HcL42OorBNtltKgXjp6amevLE8SACUQfH8UsXgl3HO8NQAhiGnQs6cyTgIOzAb2ZMhd8OGztyOOh5AMOwiPA72zZvouAOfIlEMm+O55fEz+ADDWBoaKin6NPjKV+TEbWGnZ29AlO64Djut3d3WOhNpD3k2s2wjp06QaT8JAwLJ4aFk6HXNd7OVN7OVEPvcBR7YbQ82nR3BtJ6HklJj2GY87gJ1Iyc3Jyc+V6zBbW18BBBFKlUun3Lpk3r14EpgO8EHNgfHHQGcuA3DZlMdnC/3xLvBfBZBPjO5YvnD/r7Ucol5HL5ts2bnj/9E0a/YaysrbUVXWA8Pg7VdPctLBWZVuBc0JmTx48h7R7nLl7u0bMnhEmj0WDS2fp0tr5m615mfoVmfoVaXV00jFvTtYleLEDDuLXRsgdMy440li7qg8BAsdGtWrfmcrnUTP3y/t3b9WtX+wccpuauQqQR1NYuWjDvyeNHYArgB3y2bdFis6dO8wBTNAqRSLRm5fI7YbfAFMAPHDt8SEdbZ8GixRSpK3Hq+LHLF8/DuP8npmbmCi9Kn5WViag1FJhW4O6d2z5bNyPtG8dPnxk4aDDESHOha2AYxnU/gWGYvK6aH74Vw7C6d1eI1kytjmNYbQexe7qTxvBISnomk7l42fId27ZSM1jCb4dxudxtO3YpI08poCQKCwtnebgnJ30BUwD/yIa1q42NjYf9PgJM8ZNUVFR4zZrx8cN7MAXwj+zbu9vUzMzFdRLpe/rm9SvfPbtgxH9K0puaMhiKnPqKxWJRfT2i1tDlKKbq+KuXL5YuWoi0Yxw4dGTkqNEQIApW92x9/ckBGIaxu4yXVRd90/biDDWnhdZqP4LVfiS7+2SSWZuG6G7PvNzcvr26UzlO5i/0XrN+I6h6JPiUkDDTYyocngf+k7C797p07QZ2+E+yMjPcIQ0Y8BNcvh7ya99+JO5gWWnpkAH9oGTdT7Jq7bpFS5Yp8IKlJSUD+vZGsRKtsYnJ89fv2Gx2M6+TnPTFxXkM0rV4ffcfoGaWLtWDS0WysixcUlceMEwNPr/qKUajM0xaYxok3OmMqiA0Mzfr0asXlaPi5PFjRw4dhPO3xOfli+cTx40BPQ/8DFMnTczOzgI7NExCfPy40SNBzwM/g+f0aakpKWTtnVgsXr50Mej5n8fS0kqxFywrKxWJRCiawql9ByazuRsWCgsK3KdMQlrPb9uxC/S8yqAxWAyzNkyrzqa70k13pXNGq2jDtdHSSNPdmQzzdgyzNqTU8xiiG+8xDGMwmNM8Zrx784bKgXFwvx9Hl+PpNReeEYTlXsRd73leYAfgJ6mrq5s5zf1WeISBgQFY4x95+eL5zGlTJRIJmAL4GUQikev4sdF/Pjc2MSFf7y5dOA8p8Ron6a0ULOnz8vIQLa9ga2dHpzerfmplZaXzqBFIr1isXLN2xixPiAs1aHstDoZhOgO9dQYswDBMXlddccz52z/hUrGsrFmFIRlmbb/9QbNVTz0XXwzDMBr5NzUz0G16336/UbBA/Q/4bNuiraMzZao7PB2IBo7j169eWbd6JZgCaBSZGemb1q05dOw4gwEpMH8k4m74ovnwERNoHFVVVQvmzrl8PUSxedHUTnxcHOoJyVSMLodjwuMp9pppqamIWsPGpmVzDm8KhUI3V5eSkmJ0/WH+Qm/vxUspkkGTwOKejmEYXdvAePWz7xPomrAfK0NJst5L8v+hQie75zTa/ztZ0mo/UtOhPwUNibCkNzQyGjPW+VzQGYrHwrrVK3V0dMY4j4PHAqH0/NkzpymbwRFoJvci7jq177Bw8RIwxV9j6urlixvWrgFTAE3g/bu3vrt3bd62nTQ9EggEszxgt3Dj0NfX53IVvAEqLRXVYx0WFhZN/l2JROI1awbSGX89ZsxcvW4DZKQipMin6Y3f86PL5SVUX/txUkTTYOpP3Pe3FXiKfqNhIN36yW5Tr1y6iOgpJgWyeOF8TU3N4SNGwnOAINrj0EH/AP/9YAqgyezbu9vRqf2AQYPAFBh8IwMUQVDgqc5dupDm8/fuHT4VFRUwrI2CyzXQ0dFW7KOpDNlt5zxTs6b9olQqWb5k0csXz9H1BDf3aVt9dmpoaEBQEFXV//iphWnV+f+W8YF/Au2vU23bOfb5tS+MIoZh8+Z4QsFz0PMAmfDynJGXmwt2wDAM9DygEBYvnJ+cnESCjnz+9Amq0DcBHV0dxR5okkgkVZWoflhpWsYWuVy+b8+eiPA76LqB8/gJPrv2KLaWIQCApG8u6zdtgVH8xiwP9zevX4Ed1KvnDwccAD0PKGqyuGjBPLFYTHE7BJ46AXoeUBTLFnnX8vmoPxm2b9kEQ9kEFJ7uXiAQVFUiWW6AxzNtWlH64LNBp08eR9cH+g8ctNfPn8mEVDUASHqC4dCmTf+BsDf1f0ybMik+Lg7soC49f+zIoYP7/cAUgKKIi405fuQwlWPqbODpXT7bwRMARZGc9OXQwQNId+HWzZD3797CUDaBtu3aKfaC1VWVZWVIJmluYWmprd3oMwh379xGOiNjt1+6Hz1xks1mQywAIOmJyI5de2AgvyGVSqdMHJ/y9SuYQvXa4+jhgP2+e8EUgGI5HHAgLjaGmjF1LuiMzzbYhwUomMBTJ16/eolo48tKS/18Yc7TROzsHRR7wZKSUkRLsltYWDR2pfrF82eLF85Hd/Qdndqfu3iJw9GDQABA0hMUK2trF9dJMJbfqKurmzTBOSszA0yhSs6dCfTf5wt2ABSOXC5fvniRoLaWah2/dTMECnQBSmLRgnlVVejtl/727ZjitXubPt+l0xW+8b4gPw9Ra5iZWzQqOdznT59mTkO4wkKbtm0vXw/R09OHQABA0hMXGo22dDlU//4/qqqqJo53zs/LA1OohtCbN2AtEVAemZkZO7ZvxXGcOl1+FB21chnU8AOURXlZ2aplS5CLqaLCwuCzQTB8TUNDQ8PYxESx1ywsLETUGqZmpj//wznZ2VNcJ0ilUkQ728LS8tLVG01LBwgAIOlVipW19azZc2A4v1NWWjp10sSSkmIwhSq0x1LQHoByuXblcmzMR4p0Nubjh9kzPGDQAaUSHfUw6kEkWm0+6A+5Wpox36XTOU1KCPdv4DheXISqpG/x0xsWysvKxo8dhW5SSS6Xe/1mmAmPByEAgKRHABqN5r14qa5CH9aok52dNctjGop7CxEiNubj/DmeYAdABXjPnysSiUjfzdSUFA+3yTDcgArYunkjn1+DSmsLCwpuXLsKo9ZkOHp6is1zLpNJCwoKkJz60+ktWrT4mZ8U1NZOnTyxvKwM0UHX0dEJu3vP0soK/B8ASY8MxiYmW7b5wIj+lcTPn2bP8KDgKVzVkJmRPsN9qkQiAVMAqpnQHz0UQPI+Fha6T3ZFNN0UgGJMHfDbh8r2+727d8KQNYeOHTsp9oIikTgvNxdFU+jp6ZmY8H6ig6KZHu5fk5MRHXEmk3k74o9WrW3B+QGQ9Ijh4jqpU+fOMKh/5eOH9zM93IVCIZhCsVRWVk5zm1xTUw2mAFTGyeNHU1NSyNo7QW3ttCmucFwIUCWXLpxP/PyZ+O3Mysy4E3YLxqs5dOrSRbEXrBMKMzPSUTSFgYGhvv5/JIqTSCQrlixCulzinXt/2Ds4gOcDIOnRQ0NDY//BwzCoP/D+3dt5s2fV19eDKRSFSCSaOc0NEhACKkYikezZ6SOVknBjiFQqme81Oz0tDUYZUHFMbVy3mvibrY4fPQKD1UwUXsGOz6+pq6tD0RT6XK5Wg7XZ5XL5vj2770XcRXe4Q+/cdXRqD24PgKRHFXsHh/kLvWFcf+D5s6dLvBeIxWIwRfORy+VrVi6Pj4sDUwCq5/Gj6Hdv35KsUziO79y+7fmzpzC+gOqJj4v78/EjIrewtKTk8aNoGKlmYmVlrdgLVlZWImoKjp4eg8Fo4IF8Ifhc4KkT6I715esh3X7pDj4PgKRHm8XLVii8TgkJeBj5x7rVK9GtQUIc7XE44ABsgGwaOjo6xiYmLSwteTxTXQ6ngSkF0AC7fLaTLE/elUsXoDRX02Cz2UbGxi0sLc0tLHg8U0NDQ4isJrB21Qoib2R7/uwp1KJvPo0q2/YzFBUVIWoKK+uGvm5EhN/ZtnkjugN9Oujcr337gcMDVIOEL34dHZ0jx0+6ubrA6P7ArZshGhoae/38NTQ0wBpN44/79wL894MdGqBtO8d2jo62dnbW1jaGRkYsFovF0tJkaWppaWkyNZlMpgaDgcvlYolEIhaLxWKJRCwSierr60uKi7OzszLS09NSUxI/f5bL5WDMfyTx86fw22Guk6eQozsvXzzfuG4tDGsDtGnbtm07x1atW9vYtDQ2NmZpsVksFpvN1tRkamqyvsUUhmFymUyOy2UyuUQsrqurEwoFAoGgqqqquKgwLzc3Ly8vOelLbk4O2PPvVFRUnDx+dNmKVQRsm0QiuXb1MoxR89HT01fg1XAcz87KQtQUjo6O//ZPz/58snjhfHRH+eiJU8N+HwHeDlAQGiq5Xhv7qN2ycf3F88EwwH/HzX3azj2+oOqbQGZG+shhQxA9O6c8hgwdNmTYcIc2bXg8Ux1dXTabzWQym+xgMplMIpGIRCKhUJibk/PqxfO74bfhiPUPsNnsd7HxHI4e6h0pyM8fNngAuhWPlUS//gNGjBxl7+DAMzXlcPS+xxSNRmvaBeVyuVwuE4slQoGgpKQ4LTX1zZvXd26FQnGBv/IuNp7HMyVaq1JTUoYO/A1Gp5lwudwP8Z8VuIFFJpOtX7MK0bKCl6+H/OM6dmzMx/FjRqE7yn4HAkjzsRsAQNL/j1o+32XcGHRrbyiVWbPnbN7mQ6fTwRQ/j0AgGPxb36KiQjAFi8Vq266di+vkPr/2tbSy0tTUVJ4v4Tguk8mEQsHX5OTH0VFhoaElJcWwgI9h2MLFS9as24B0F+rr68eNHpmc9AVGk8Vi2dk7jJswod9v/a1tWmppaSn7+YzjuEwmrayojIuNCb0Z8uRRNMlOczSBKVPd9/r5E6pJOI4f8Nt35NBBiJFm0q//gPOXrigwrCQSiet457jYGORMwWAwop48/Xtpt7TU1FHDh6D7HNi5Z++06TPB1QGQ9CQE9c+NSmWB96I16zc2ec2Hasjl8vlesx9G/kFlI9g7OPzat994l4kObdqyG0yWq9SByMnJDr1x41F01JfEz1QeDl0O5/nrdwYGBoi2H8dxn62bzwWdofIgtmpt26t374mTJrdzdNLW1lZjS0QiUUJ8XGjIjbevX2dmZlBzOPT09O89iGr4mLGKEQqF7dvYwUfM5jN3/sL1mzYrcM5TV1fX2aktigKYzWa//hDL5XL/+pfFxUWjhg9FN2XD2vUb53svgjktQGXInESnS9duK9es9d/nC8P8d04cO8rS0lq6fCU8AX+GoMBTlNXzrVrbDhw8eOiw4V27/cJisdTbGDqd3rJlq5Vr1i5dseJTQsLDyD+iox6SuFR7A9Ty+efOBK5YvQbR9t+9c5uyer6FpeXgIUOH/T6ia7df1Kvkv8Nisbr36Nm9R0+BQPD+7dvIP+7duHaVakqypqb6QvC5jVu2EqdJCfFxoOcVgp29vWJnO/X19YguaGswGLq6uj94/gz3qejq+fkLvecuWAizWYDikHmVHsMwqVTi4jwG6o39Gxs2b/GatwCegw1D2e0es2bPGTFydJt27fT19QnbSD6/5s3r1wH++xM/f6LaABkaGj58/BTFAh/JSV9+HzKIgjHl5j5t9FhnR6f2BN9egeN4Xm7uwwd/7PfdS6nsIVwu94+ox+YWFgRpz8plS0JDbsBbuPlcu3mrV+8+CrxgZkb6wH6/omgKK2vr56/f/fXbxHT3Ke/evEF0ZN09Zvjs2g35oQCA5KepGQzmidNQG+lf2b3D50LwObBDA1RWVs6e4UGthwKdvn3n7piExM3bfHr06kVkPY9hGIejN3TY8FvhEbfCIzp17kypkaqoqAi5fg25ZvP5NbNnTqfak2Tt+o3vYxN27d33a99+xD8uQaPRrKytZ3vNexcbv8//IHWq4lVVVV2/eoUgSx1SqST8dhi8hRWCiQlPsRcsKChA1BSdOnf5q4+tWLIIXT0/aYrb9p27QM8DAEb6Vfpv3L1zG+maHEoX9r5+U6d5gB3+jkwmW71i2a2bIRTpL49nunbjxpGjxqjrqHzzxyvla/LWzRvRnaA0FmMTk0dPXxD8s8tfoVo5EkNDw1Vr1zmPm6Cto4PufiihUBgUeOrwwQMSiYT0Q8ZkMt/HffrhpLFaSE9LG9y/L5lsq8vhDP99xOixzmZmZlwDQz0Oh8Fkquaxw2KxFBuAVy5d3LB2NYqj/pokcwAAIABJREFUsHbDpgXeizAMk8vlO322nQ08jag7jRo9JuDocaZKXAgAiA8lPr2PHD3m+bOniNYaUQEb1q7W0tKaMNEVTPEDDyL/oIie79K127wFC4cMG470cpyGhkY7R6drIbci/7jvu2tndnYW6QeurLT09csXv49E5mDIk8ePKKLnO3XuPNtr3ohRo0kw49TW1l68dPmkKW4+Wzbfi7hL7oGTSCT37t5x95ih9paQJoGLnp7+GOdxk6a4OTo5kUOA4TiemvIV0cbb2dt/+0PgqZPo6vl+/QfsDzgMeh4AvkOJVXoMw2r5/DEjhlM2ke/PcOxU4KjRY8AO3ynIz+/Toxvpu9mhY8elK1YNHDSYZFvX+PyaoMDTAf77ST+CTu073I64j8TMprysbHD/vlVVVeQekTZt2y5euvz3kaPIt18dx/HXr16uX72K3N/LDA0N38bEqz2mxowY9ikhAXVjenrNneU5h1B1BBQSCBPHjf344T2KjY968szewSE05MbKZUsQtX/nLl0vX7uh8/8m+QMAkPQ4Rbqak509uH9fKuwbbDLBF68MGDQI7IBhmFQqGTtyBLnLpLFYrD379v8+chRBcm4rg+zsLN9dO+/fiyC3u965F0n8PAJyuXzGtKnPn/5J7rHYtdfXedwEXQ6HxH2sqqraumnDnbBbJO5j4LnzQ4cNV2MDSktKhg78DenvX91+6e53IKC1rS353EMmkznat0Y0433s56T42NiZHlMRNb6jU/sboWHkfsYCQBOgU6er1jY2gWfPw5A3gOeMaa9evgA7YBh29PAhcut57yVL38bET5joSmI9j2GYjU3Lw8dP7vb1I7mM3LGN+B9nr1y6QG49P9NzdkxCorvHDNLPNblcrn/A4X3+B0ncx317dqm3etzXr8lI6/nFS5dfDQklpZ7HMEwkEiGq5zEMC7sZMmcWqglKW7W2vRoSCnoeAP4OhVbpMQzDcfzQQX8q7MVtMgwG49rNW79070FlI5C7wtavffvt2bffytqaUsULEz9/mj1jelFRIVk7+DYmztTUjLDNy8/L6/9rL6lUSkrjd+rc+cCho61tbalWEDTl69fpU6eQNawiox+3beeorrufOnF8z04fRE137uLlAQMHkTgcCgsKenfvCjNGFcPjmd5/GI1i3VYAUAF0SvWWRqN5L17ao1cvGPh/QyqVuk92jY+LpawFJBLJjm1bSdk1PT39ff4HL169bm1jQzXt4dS+Q9SfT8eOG0/WDhI5/adcLl+3eiUp9Tybzd6yzSf0ToStnR3VYgrDMIc2baL/fNav/wBS9u7KpYtqvHtaagqidgu+eGXgoMHkDofi4iKYLqoYQ0PDO/cjQc8DAEj6/8FkMk+dOWdmZg5j/2+IRCIPtynJyUnU7H7I9WsvXzwnX78GDhp870HUpCludDqdmiPL4egFHDm2c89essoPqZSgiULuhN16/uwp+Wzeo1eviMgoT6+51Cnb/nd0OZwz584P+30E+br29MmTWj5fLbeWSCR5ubkoGu100DkqZOTJyc6GuaIq4XK5tyP+MDeHqTsAgKT/CwYGBqeCzkLpiwaoqal2n+yamZFOtY4XFhbu8tlGvn757j9w+mwwyXION+V5R6dPmz4z8BwJc2oUFxW9f/eOgA0rLyvbtWM7+Qy+edv2C5ev2drZwfuCxWIdO3mafGVQs7OzXr96qZ5XcHV1ZgZ6BXq2bN9Byo87f4eyax5qgc1mh96JsLaxAVMAAEj6H+nUucv2nbth+BueiE92mYDoQkHTkMvlq5YtEQgE5HL1zs9fv5vsNhW+YX1n6LDhN2+Hs1gsknkvAffey+XyXTu2l5WWksnUrVrbPnr6YrbXPC0tLYimbzCZTL8DAR4zZpKsXxF3w9WSJK+4uKikpBgtW/Xu8+uMWZ4Ucfj42FiIepVxKzwCPp4CAEj6f8XNfZqn11zwgAYoKSmeMHZ0YWEhRfob/fABybbce8yYeePWHVic/zu/dO8RERllaGhIpk69ef2qsrKSUE2Kjfl462YImYw8eqzzvQdRML/8OxoaGtt27Jq/0JtMnbofcbesTA0fpHJzctSbb7+xMJnMw8dOaGhoUMHVcRzPyYGN9yqRKHT67Yj77RydwBQAAJL+X6HRaBs2bRk4aDA4QcOqftIE59KSEtL3VCgUrlm5nEw92rXX12fXHpKtRSsQeweHew8fkSmtRmFBAaHWjiQSyRLvBWTymfWbthw6epzcdR+bqepXrV0/avQY0vRIIpEkflZDNdO8PMT2x/kdCDDh8Sji52KxuK6uDuJd2TAYjGshtzp3gcoCAACS/ieeF8dOBaqxSg0S5ObkeEydQrTVP4Vz9HAA0kWA/4qenv71m2HuHjMomIK7UZibm9+8HW5kbEyaHj398zFx6pJePB+cn5dHmpdF8MUr8xYspMg6ZHMM5XfwkL2DA2l6dPtWqIoXzHEcz8/PR8hEZmbmQ4cNp46T1/L5YpEYgl3ZnAo6BwWqAAAk/c+ira197sIlSIDfMMlJX6ZPnayu3L8qIDs7K+j0KXL0pUPHjpHRj3v27g1++zNYWlkFX7zCZrPJ0Z274XdqamqI0JLysrLdZMmKZ2PTMurJUyrk8VbUW/XStRuk+VJ2P+Juba1K331SqTQLqdx4c+cv0NHVpY6Hl5aWCIUCiHSlcvTEqcFDhoIdAAAkfSMwt7A4duo0lasQ/QyfEhLcJrnU19eTr2symcxv7x6RSESCvowdN/566G2LFi3AY3+eDh07njgdRI6+lJWWZqSnqb0ZOI7v3b2THIXo+w8cdDfyQavWthApP4+pqVlQ8AVy9EUikSTEx6vyjmKxGKF09zye6cgxYyjl3nl5eeR4uBGWff4HR491BjsAAEj6RtPtl+77/A+CHf5T1c+b40nY2tdNJubjh4jwOyToiIvrpAOHDsNB3yYwYNAg/0OHydGX6KiHat97/ykhIeT6NRIYc+So0ScDg/T09CFGGkvnLl1J81a9eumiKmNKVF+fnZ2FinE6dupkampGKd8mwmdTErNl+w7XyVPADgAAkr6JTJjoumzFKrBDwzx98nj1iuUymYw0PZJIJHt37SRBR9w9ZvjuP8BgQKW6JuIycdIC70Uk6Ej47TD1riBJpdIAfz8SWHK8y8SAo8dJcyhD9UycNLn/QDKcVrgXcVeVMVVbW4tQuvv2HTtSLWlLRno6RLeSWLNuw6zZcyANEACApG8WS5avIFOqXiURFnpz5/ataNXXaYA3r15+/PAe9V7M9prns2s3HB5pJivXrO3StRvqvcjNyamsrFBjAxLi4x4/ikbdjG7u0/b5H9TU1IS4aPr0gk73O3CQHHscsjIzVXav8vIyVMzCYDD69OlLKa/Gcby8vByiWxnMnb9w3kJv0PMAAJJeAfOPA4eP9us/AEzRMOeCzpw6cZw4ibWbjEQiWbNqBeq98F6ydOOWrZCIWxHTU+aJwDMkUCDv3r5V162lUsmm9etQN6Cn19yde3yZTNjz0lx4PNOtO3aQoCPRDx+o7F4I1YnQ53LtSFTd4CenDRUg6ZXAVI/pazdshJkMAICkVwwsFuvI8ZNQ1u4/8d2989bNENR7EX4nrLCgAOkurFq7btWadXQ6BLJiMDMz9w84hHovQm9cV9cXt7dv3nxJ/Iy09byXLN20ZRvMLBWF87gJAwcNRr0Xt8NCVXMjHMezsjJRMYuujq6eHodS/iwUCkHSK5zxLhN37NoDT10AAEmvSLhcbuDZYDKVqlYSK5ctiY56iG776+vrd2zdgvQQeHrN9V68FHapKZYhw4bP9JyNdBeePH4kkaghjaVUKlm5dAnSpnNzn7Zi1Rr4RqZAGAzGlu0+LBYL6V7k5+dXVVWpRtKnpqSgYha2tjbVErhUV1eVlpVCXCuQYb+P8DtwEPQ8AICkVzxW1taXr4fArsv/ZM7M6egeRL94/pxqpmhKYuSo0Rs2bQE9r3BoNNrKNWt5PFOke5GXm6v6m0aEhxcVFaJrtH6/9d/qsxNmlgqnVWvb6TM9ke5CLZ+fkpysghvJ5bLPnxJQMUvr1q2p5sxlpaW1fD4EtaL4tW+/I8dPQmZfAABJryzatm135cZNsMN/Mn3qlKzMDOSaXcvnB50+ja7Ze/TqdfDIMciHpyQ4HL2tO9CugxAb81HFd5RK0S4e0aq17YnTZ7S0tMD/lYH3kqWo7314/fqlCu4ik8kRKkrfoWMnqnky6of1CEWXrt3OBF9AfQsPAICkJzrde/Q8HXQO7NAwAoHAY+qUmppqtJp9L+IuusuJbdq2PR0UDG9BpTJi5KjuPXqi2/7IP+6r+I5IL9EbGRtfuxmqy+GA5ysJLpe7aMkypLvwKT5eBSkqhEIhQgVlqJYbD8OwwkKQ9IqhQ8eOl67dgCqhAACSXhUM+33Ebt99YIeGyc3JmT1julgsRqXBdXV1Z8+gukTP5XIDz57ncrngeMp9MtLp+1HOk5eSnCyTyVR2O7FYHHw2CF1zXQu5ZWpqBm6vVOYtWIj0Qn1ubo5QKFT2XcpKUTqnbWVlRSkfxnG8qLAIYrn5tGpte/l6iI6ODpgCAEDSqwg3d4/lq1aDHRrm/bu327dsRmVt4fWrl19VcipSGZy7eNnaxgZcTgVYW9ssW7EK0cZXVlaWqTCH09s3r+NiY1DV8zdv2VNvsVH16OjqbvVB+GhGVmZmUaHS96EUFuQjZBMTEx6lfFgmk+bn50EsNxMzM/PQO3dJUC8WAEDSowSNRlu0ZNlUj+lgioa5fPH8pQvnid9OiURyJOAgokbevnN3l67dwNlUFvszPGcjOu2oqalOS01Vzb2kUunZQFS3vaxZt6FX7z7g7aphvIsLujuMRCJReprSYyotLQ0hm3D09CjlwGKxJDcnBwK5ObRt53j3jweGhoZgCgAASa9qNDQ0fHbuGjJ0GJiiYbZsXP/61UuCN/LzpwTVZw5TCEOGDvOYMRPcTJVwudy5CxYg2vjEz59Uc6PUlK9PHj9C0UTde/T0mr8A/Fxl6Onpz1vgjW77MzOVXjE+OekLQo9HqhUGqhMKUcwHTCh8du0x4fHADgAAkl49MBjMoydP9+s/AEzRMHNmTi8pKSZs83Ac90GzFr2xicmBw0egXLaKodFo4ydMRHQ9QTXVreVy+dkzgSjah8VinTh9BoqVqpjhI0aia/OszAxlny9DqC4sBbeM1QpqBQIBRHFz+OPeXYQSQAIASHoSoqWldfzU6c5duoIpGkAgEKxcuoSwqfLy8/IQXaI/d+EyHDxTCy0sLUeMGoNiy4uKiqRSqbLvUlVZGRpyA8mYunjZ2MQEPFzFWNvY9PutP6KNT0tNVerbTSaTZWdloWKN9h060mg0SnlvZUUFhHBzH7xBZ6IeRIIdAAAkvTrhcPTOXrgEiZQa5vmzp8FnzxCzbadPHkfRpNt27OrQsSO4lrrwnOOF4rpiQX6eUKj0BaXQmzdQXHJZsmxF7z6/gm+rHgaDMW6CC6KNT0r6IlTmIm19XR1C0UTBuZAK8iNSgQVz5xSCJQEAJL16MTQ0vHTthrmFBZiiAXbv8Pnw/h3RWiUQCFBcTuzd51d3yM6oVmzt7FBcV8zLza0oL1fqLaRSyaGDB5CzjKNTe+8lS6m2wEgcBg0ewuOZotjyWj6/qqpKedevqKhASNJbWVtTzXVzcyE3ngKQy+VzPWdIpRIwBQCApFcnpqZmt+5EGBkbgykaYKaHe3V1NaGadPfObeROwbFYrN2+++C4r9pBMYmaSCQqLlJuYounf/5Zy+ejZRYmk+kfcIjFYoFXqwtdDmf4iBGINr60pER5F0dr6dLU1IxqQjQjPR3iVyF8Skg4evgQ2AEAQNKrGXMLi1vhEXC2uQFq+fy1q1bgOE6Q9kilkmtXLiNnxnkLvFu1tgV3Uju/dO+BoghUaq5KHMdRrAfpMXNW23aO4NLqxXWyG6ItLywsUN7F0cqmrq9PrSmQXC5LTkqC4FUUAf77Ec1tBAAg6UmFjU3Lm7fDGQwGmOLfiLx/797dcII0JvHz54T4OLQMyOOZei9ZCo5EBJhMppv7NOSardQVxazMjM+fEpCLqaXLV8KWe7XTztER0Y0SBfn5yvtUnZyMjGI0NDRkampSymmlUhlyTzyCs3CeF9G2cwIASHoq4tCmTdjd+7ApugG2bt5IkJ2E0Q8fIpfE6+jJ07A9mDi4e8xArs1FRUXKkx9hoaEqyKiv4CfSjp1UW1okJkwmc/iIkSi2PCsrU3kxlZSYiIod2jk6Ua2oqkgkkkjg+LciKSwo2O+7B2raAQBIevXToWPHy9dvgh3+jfKysp3btqj9eS2orY0gzH6Bn2T0WOfuPXqACxGHlq1aIVfzrKAgXyaTKWl2+yg6Ci1rdO/Rc8TIUeDJBGHKVHcUm52akiKXKyWm5HI5QiuWDm3aUE3SV1ZCBTvFc/F88KOoh2AHAABJr3569Ox56doNsMO/cS/i7sPIP9Tbhq9fkzMzUMpqw+Vyt27fAduDCQWTyZy3YCFabc7LzVXSQvqXxM9JXxLRskbAkWNUEyFEplOnzig2O+VrslSqFElfX18vqK1FxQ6tWttSLZoKCwogbJXBvDmeUNMOAEDSE4K+/X47e+ES2OHf2LB2tRoXH+RyeWhICFoWW7J8pQmPB55DNJArZVdUWCiRiBV+WRzHox4+QGu3pPeSpS0sLcGHiQNbW3vgoMHINVsgEChp50t1dTWfX4OKHShYwS4zIwPCVkmTtAVes6GmHQCApCcEgwYPORN8Aezwj1RUVOzZ6aO+GVjtjWtXEDKXmZn5uAku4DYExNTMnM1mI9TgysoKiUTxq/S1tfyb16+jNXYzZ80GBybW5INOd3GdhGLLlXSguqy0lI9OSUgzMzOqeWxqylcIWyURFxtz8vgxsAMAgKQnBEOGDgs8dx7s8I9cu3I5LjZGLbf++P4DWilt3KdPNzQ0BJ8hIByObl+kFupFIpEyVunTUlOVWh5P4Sxeuhy5PAhUoJ2jE4rNrqurU8ZlC/LzEHpV6etzKeWrOI4nxMdDzCqP/b57oaYdAICkJwpDhw0/fvoM2OEfWb54kernKziOXwg+i5CV9PT0UcysThEYDCZyOQvFIrHCY+p+RARCFtDlcKZMdYfMFATE2MQErW0v31DSifesrCxULMDlcrV1dKgm6b8kfoaYVSrr16xGKJ0EAICkJzkjR40GVf+PZGZmXDwfrOKb1tXVPX4UjZCVZszyhCV6ItMRtZxeCl9RFIvFoSEo7bqfNMUNTtETEx0d7V69+yDXbCWdeM/Py0XFArZ29lpaWpTyVZFIpKTdGcB3kpO+bN+6WXlFIgEAJD3QaFV/7FQg2OHvHD7oX1Gh0jIwMR8/IGQfBoMxd8EC8BMi09rWFq0t3AKBghc9sjIzVRzFzUGXw5njNQ/8lqhPPGaPnr3Qk/Q1ipf0crm8rLQUFQtY29gwmUxK+WpVVRUErAq4ce1q9MMHYAcAAElPFEaNHgNr9f/4UlTxNvgrF1HKWbh0xUoORw/8hMhwuQatbW0RarDCN96H3wlDqPtjxjpbtGgBfktYnNq3R67N9fX1Cr+mRCIpRUfSW1paaWhoUMpRi4ugypqKWLRgHlq5WgAAJD3JGTlq9OFjJ8AOPxDgv19lBUjr6+vfvn2DkHHcp00HDyE4TCbTxBilVXqpTJEZ72Uy2cXgYIS6P997ETgtkbG2sWEwGGi1WayEpDBCobAIHdFoamZKNUfNzcmBaFUNIpFogdccqVQKpgAAkPREYey48QcOHQE7/MCRQwdVc1bq86eEanQ2yw0d/jvXwADcg+DQaDRTc3OU5IdYkav0uTnZNTXVqPTd1s7O2toGnJbIGBoZ2bRsiZikF4kUfs3/j72zjo/i+vr/rGV945uNEU9IICG4u3vRUigUJ7i7FHeXAqWllAJFS1tcCsXdLe6uG9ls1mZ/f+R5+vCjtGWTyWbOzHn/8byeL83cvXLu3Pnce+45RUWFmRmAJL0r2ww1MvIdzlar8eTxo293f4P9gCAo6WlE3/4DNm3bjv3wPkd+Omidb5drf1wFtNE7YdJkLhfnIwB8fX0B1dZI6YniFVC3HOfOX4iB7mmORCLx8KwBTNLrqU8MmZ+XByiDnYp9kv7l8+c4W63Jlk0bXr96hf2AICjpaUS//gNR1X/A+rWrq/onTCbTsydgcpz6+PgG1QxGwwCBn38AJPlBqU64eP48mLWNy23eshWaK83h8wVubm6w6qyrglP67Cwwl4ft7OwcHR1ZZaVmszk1JQVnqzUxGAxjRn6FOe0QBCU9/VT9VlT1/8fpUycz0tOr9Cdyc3NiYqKhdMigIV9KJBI0DBC4ubvL5HIotTVR56iiKSkBdKF09NgInFMgULkCO/I1Gqk/Ts+A43XvrFTKFXJWmaher8cMdtYnIz193ZpVJEliVyAISno6qfoBA1evW4/98BdbNm2o0vKjo6Kg5AQSCATtO3REk4CCnZ29RAxGK/KpyzUVFRWZn58H6JWLXvcg8PX1g1VhgcCG2gLNZnNaaiqU5js4OorFYlaZaElxcWlpKU5V63PwwA83/ryO/YAgKOnpxRdDhi5dsQr7oZzz585mZWVWXfnPnz2F0hXNWrT0AXU9m+UIBAKBDZiczCKRiKqi7t65DSU4Rd169b19fNBWQVDDyxtW0HvKBa3JZExKSoTSfEcHRz6fXUnpc3NztVqU9NXDmBFf5WRnYz8gCEp6GsHhcL4aMXLx0mXYFQRBlBQXnzp+vIoK1+v19+/ehdIVbdu1Z1uOX9Dw+Xw+D4wCsbGh5kSRJMmnjx9DaXXvPn2FQiHaKghcVC4KhYLNkl6vN8RER8MZLxXbTDQ1NQVQ8EKGYTQaJ4wbgzntEAQlPe1U/cjRYxcu+Rq7giCI07+crCJntkK1+iGQjPRisbh5i5ZoDJBemlwuXwBG0lOlbNVqdVRUJJRW161XDw0VCjKpTAwq6oGQOs+XcsrKylKSk6A03z8ggG0mmpgQj/O0Gnn08MEP3+/DfkAQlPS0U/Wjx0bMX7QEuyImOvrh/SoR3pmZmVD21FUqVx9f9BCGBI/HA+QnLKDoLn16WhqU675+/v6+fn5oqIAUMqxAhiKqJX2pRgPoENLLm3ULVmJCAtRPfKZkxl21fNnLFy/wbYkgKOlpp+rHjIuYNnMWdsXxo0dMJhPlxUa+ewulB+rWr8+2e4kMmL88HutO6QGdU4XVCZfLFWioUODxeJSL5CqeUxTXNi8vF0rbxWKxq6sbq+zTbDbnAAm1+3cWLvm6T7/+zBiIebNnYk47BEFJT79+53InT50+fuIklvfD+XNns6kOfEKS5KOHD6D0AGOWW1YhgON4T8mGkdlsfvv2DZQmt8B09NBWQxsbSIEPbKiOjpmWlgZI0juwLCm90WgElOnjg5nVrUevOfMWMOOs/u2b1xvWrTGbzfjORBCU9PSCx+PNmjt/zLjxLO+He3duU74A/3H1CpTm16tXH+cCODgcMG9OSnYfDAbDk8ePQLRXJpc3a94CTRQWsFQitZEXzWZzYjwYFxihSCSXy1hlnBqNJicrG+i0EtrYuLq5TZ81mxljcWD/99f+uIovTARBSU9HVT9v4aKxERPY3Al7d++i9hphSXFxXi4MP8bwuvWkMhlOBHCYTGAuvlJy/llSUgIl3L2rq6vK1RVNFBaeNWoAqq1EKqVW0gMKPCmTydh2U6yosDAnF6TjvYeHZ3ngyfETJwUEBjJjOCaMHY057RAEJT1NVf2c+QuGjxzF2h6Iioyk9gWdAOfSb9/+A3AKwJT0JIh68vl8Sm4p5+bkQIk32bxFSw6HgyYKC3d3d0C1pTZSA0mSr1+9hNL2gIBAthlnXl5uSXExxJorXVzKk5jy+YI9+/YzYzh0Ot2UieOrIgYTgqCkRyj47F64ZGmPXr1Z2wMXzp2lsLQ3r19DaXhoWBjaPzjMZjNJwpD0rm5ulOSlT4iPgzI6jZo0RRMFh1QKyVmJ2mB+JEnGxcZCaXvtUNatWdlZWUBr7uys5PF45f+/n7//3AWLmDEi9+7e+X7fXnxtIghKejoiEAjWb9rSsFFjdjb/8KGDVIU8MZvNz589hdJwLy9vNH6Ikt5g0EOR9IJKS3qz2RwdHQVldIKCaqKJgoOSjSfr4Ojk9JdMogStVgtopFiYlD4jIwNozVWuqvf/56gxY2sGhzBjULZs3PAOTsRWBEFJzy4kEskPBw/5+fuzsO1xsbGFhYVUlXbzxp8gWi2VSmVyOVo+OIxGo9EA4y69SuVaeflBkiSghMCubm5oouAQicVQqurr68fjUfnhlAsqQRqsqAeVx2w2p8PJR/DhYHn+f4NlY2Ozaes2gYAJoRC0Wu2k8eNgbYchCEp6FiGTy4+dPO3o5MTCtlMVT1uv10P5QmrQqDG1pz2I1T4moHxJvO94WRlJf+/uHRDtdXJ2FsMRh8j7YgOQpqU24UV6WiqgkXJ2VrLKMk0mU1pqCsiPey7Xy9v7g3+sVTs0YgJDcifHxcauWbkcc9ohCEp6+n6Snv79HAu/Ss/+/hsl5eTn50NpcuPGTZiRLZZtlBQXl5WVwXifODlVPlacrqwMSnSoVq3bYGw8iAjhSHpXNzdq39vxcDLYEQShsLVllWXq9fqEhASINZfJ5B/df5kweYqPrx8zRufggR9u37qJ708EQUlPU2p4eZ389XdmOEd9Oq9fvaQkhCmgDfXgWrVQfkBErS7QaktBVJUSl5+cHDAZg5o0bYb2CRFKUi1aSdK7ulL73o589xaMSpTL+Xw+qyyzrKwsOTkJYs3lCrmt3Uf2X8Ri8dYdOxkzQKOHD8vPy8NXKIKgpKcptWqH7j94iFVNzs/PL6DigD0q8h2UJnv/zSkOAUFONpiMbvYODpUvJCkRzBctY4I/sU7SC8Gc0iuVLtQW+OwpmHiu9Rsb3UOfAAAgAElEQVQ0ZNs2dKlGAzSDnVyuEIslH/1PdcLrjo2YwIwB0ul0EyPGGo1GAkFQ0mMX0JOWrVpv3raDPe0tyM+nxP/w1UswCX6pTW6MWI3o6EgoVVWpXCmQ9EmJUNrrrFSifUIESlZIgiCULi7UNjwpEYxfd1hYHbZJekBX+T5AYav4F5eKGbPnMCYY8727dw4e+AHfogiCkp6+9O0/YMHiJez5pHv18nnly4GS10ShsBXAuT6KvE9MdDSIejo6OSldKJC4qSlgLrPIZFK0T4gAilxNiefL/zW8tBTQASMLM/JkZqQDrbnvv16YF4lEW3d8w5hhWr1iWSQcD00EQUnPRkaPjRgxajRLGhsbE1P5fQF1gRpEY93c3dkWLoEZGI0GKBLXw8ODEk+QuNgYEO3lcrkCAW6TgQRKvEmpVCqXUZl5tKCggJIgMtahhpcX2ywT0IbmB/znLaTaoaETp0xlyrpsnDpxvEajwXcpgpIeoe9H6vxFS8Lr1mNDY7MyMyt5XqEtLYVy2uPq6oqSHiJFhUWJQBxlnZ2VlOTOiImB4ZXg5eWNWSGBoi2FEW/Sy9tHRGk+mqysTECXDlxcVKwyS5IkY+NigVbez+8/wtpzOJyICRNd3dyYMVhRkZE7tm7GnHYISnqEvtjY2Oz/8SdK7sTSnPT09LLKCXK1Wl0KJBS5s1KJ8gMiWVmZGekwXDFd3dwqf/GVJEko7fWoUQNTSECV9EC2Ymt4ednYULkVmwgqQZrCll3xX0jS9O7NG6CVd3P3+M+/kcsVW7YzJ/r9nm923bl9C1+nCEp6hL44ODru/X4/4w91U5KTioqKKlNCdnZWKRDPK5lcjvIDIslJYMK/B9WsWflC9Ho9lFNEe3t7nFNAKQVySu/pWYPHozKL21s4itHOzg5QrkFKMJnIt29eQ6w5n893cnb+lL9s3KTp4KHDGDNko74ampebi29UBCU9Ql/qhNddtnI1s9uo0WjyKpdfNCU5GYr8EGJsPJhQkpfBGm92LjcwKJgCraXRQJlTIpEIJT1QoDjeq1xV1NpYLJBAFQRB1KodyjbPMp2uTKfTQaw5h8ORSiWf+JeLlix1oDToY7UOmW7GtCmA4lMgCEp6NvLFkC8HDR7C7Daq1QWVkltxcVBaKhSi/ICH0Wh88fwZiKoqFAofH5/Kl1NYqIYyOhKJBE0UKCWaEhD1pPYyOUmS+XlgThT9/P25XHZ9MRYUFACtuZOzM5//qX6dEonk2/0HGDNqN65f++nHAwSCoKRHaAuHw1m+ak2t2qEMbmNhYWFlHk9PTwMj6UUiNGlwFBUV3brxJ4iqyhUKB0fHypejVoOR9GKxGLfJgALlwhS1scR0Ol1JcQmUMfL1Y52kz8rIBFrzuhbGVK7foCGT3O/XrFweFRmJ71UEJT1CX2xsbA78dJjBofIKK3FKT5Jkbk4OlJbyeDj14JGYEA8lTU5QUE1KvGQBJQzHDHZwAbFzJJVKP/F+8idSVFRYVFwEZYzcPTzYZpYJCfFAa147NMyiv+dwOPMWLPTy8mbGwOl0ulnTp0BJjYkgKOlZirNSuXXnLqa2Lj8/v8LPlpWV5eRkQ2kpIKWElGM2m69euQylth06daakHEBfRRqNBjMYASUzI4P+lXRycra1taOwwNycnEI4XjCurm5sM8vId2+B1jwgMNDSRxQK2xWr1zBm7F69fLl+7WpcERCU9AitadK02diICYxsWkFBQYVjcZVqNDnZYE7py7RaXGxgYTQajx4+BKW24XXrsk3SF8M58ETex2w2l5QU07+eDo6OUqmUwgLT09KMRiOUYbKzs2ObWb5+9Qpo5T08PSvwVMvWbQZ8PogxI7h/37f37t7BFyyCkh6hNdNmzvLx9WNeuyoT97igoCA3F4ykxxNFcOTm5FTGi8TKeNbwomZKakuhNLmoqAjnFESMRiOInSN7e3s+n8oMdsnJYDJiOjg4SCjdzgAh6V++eA608k5OFbkhwuFwFiz+2tHJiTGDOHbUCECrNoKgpGcjEolk6w4Gut/r9foKf5Tn5uYAOvFASQ+O27duwtHzNagK/14G54ZIMUp6mGi1pSDy0js6OVEbfzE9LR3KGNXw8haLxawyS71eDzSDHUEQcoWiYg/a29uv27iZMYNYUlw8fcokKHlYEQQlPUupEx4+bPgIhjVKp9NV+KMcxG1MlPRAMZvNhw4egFLbwUOGUqU9oIQDJAiioKAA5xRENJpSTQmAwO++fv4UlkaSJCC3shpeXjY27Ao/CSh/5wc4Ojnx+RWPjdq+Q8den/VhzDjeuH7tyKGD+JpFUNIjtGb2vPlSZvnC6XQ6gmCHpC8pQfkBiOzsrBfPwThhtmnXjqqiQByf/q+kz8c5BRF1QT6InaMKhBz7FwwGQ0YGmFN6d3d3SjJoACITbAa7evUbcLkVHywOh7NyzVomhU5YtXxZXGwsvmkRlPQIfZHLFWvWb2RSi8wV9Y8iSTI1NRXS50JmhsFgQBuGwuGDkLb5a1CXi0hTAuaUPiszEx0sIZKXl0f/l6FAIHB3d6ewwNLS0ox0MJLehbmpc/+JFDiRDj4gMCiokl5aCoXtFgZd7dRqtRFjRmKaIQQlPUJrOnTqzJhUogRBVNi1z2g0pqamAGppXGwsJk2Fgl6v/+30L1Bq27Zde5FIxMJhIkkSkE8B8hc52QCSjwpFImdnJYUFFhcVAZL0KpWKbWYZGxMDtOa+fn6Vv3jVqnWbPv36M2Y0Y6Kjd+/cgW5cCEp6hL5IJJLxkyYzpjlCkYggKrIU6XW62JhoYPIDzi1llvPwwf20NDA+IB07d6bQRRbW7kB2dhaaKzhA3JkSiUQVDjn2UQoKCgDFc1W5su6UHm64e0+PGpUvhMfjLVi0RCaXM2ZAt2/d/OjhQ3zfIijpEfrSuWs3FVOc4oRCYcV2l7VaLaATj//5kM3MQOulP2az+dSJ44A+vus1aEhhabDCXCcnJqLFgiMHQpQ4sVhMbXw4QNtPdnZ2FUuKBhpA27gfoFS5UFKOs1K5lllXO0cMHYw57RCU9Ah9sbe3H/D5IGa0xcbGpmKSvqSkGNw12qQklB8AyMzMvHzxApTa+vj4erh7UFigUCQENFhRUZFosbAgSTI3B4Ck9/b2oTaDXRacLV1HJydbO1tWmaVOp4N7i0cuo+xovXvPXu3ad2DMsGo0mlnTpphMJnzxIijpEZrSt39/ZoS+l0gkFftsysnJBdfYuNhYvNlFf27+eR1QIrcOnTpLZTIqJb0QkqR/8ewZzilYGAyGrCwAocVD69ShsDSz2ZyclAxljBwcHNmWlF5TUgIiseLfUSpdKLwtxeFwNm7ZxufzGTOy1/64euLYUXzxIijpEZri5e3j4enJgIbYOzhWTNKngYqNV87jRw8xQDfNKS0t/XbPN4Aq3LR5c2rPEm1shLDmFEp6cFMsPS2N/vUMDAyisDSTyZiYmABnXXbg8wWsMsvc3FwNzGA3fv7+AkpviDg4Ou7cvZdJg7tg7mzMaYegpEfoOopcbo9evZkg6e3tK/CU2WyG6MT+8P59vV6P1ktn/rx+DdDar1K51qkTTm2ZCkpDglU1arW6qKgI7RYQxUVFIMLjeXl7U1iawWCMiQYTz9XFxYVtZpmelqbT6SDW3MfPj/JD9Y6du7Rt154xg0uS5LzZM4GOL4KgpGc+ffoyId2InZ1dxV7Qke/eQWxvclISmi5t0el0y5csBlThevXrOzg6Ulumvb0DrFF79fIFmi4gCgry6Z+UniAIlasbte8WQGnP/QMC2WaW8fFxQGvu6VmDy6X4w57H463duMnJmTkhEh89fLBtyyZ8/SIo6RE64ubuzoDr9ArbisTgIUnyzetXENt75/YtNF3acunCeVhZCdp37ESt1z1BEApbBaxRu3D+HJouILIhJKUnCMLWlsr4cKUaDaAkGr5+fmwzy2SwwWtdqybdoIuLav7CxUwa4m92bL9/7y6+gRGU9Aj9BpLLbd6yFXhJXyEvX5PJlJKcDLG9p0+dQNOlJ3q9fsnC+YAqLJPL27RtR32xMmB5ie/duYPX6QEBIvmoQCCgNk5kbi6YeK5CodCVUg8F+mM2mwEN0IfaW6WqopI/69uvdRUsMdVIxOiRarUaX8IISvrqfNsmxMe9evkSB+8D2rRtC7r+UqnUzq4id+lLiouBNvnN69dlZWVoujTkt9O/wFrs69QJd3RyqopZCWvgCvLz8vPy0IChrOapKQAim9YODaPWmTkdTs5zsVhcFS8WOmM0GnNysiHWnMvlOjlVlXs8j8dbs26DQMCcQIlqtXr2jGkYpRhBSV89ZGRkrFu9sm3L5ju2bcF5+OE3fXhd0PX38PSUKypyJJibmwO0ySRJxsdh5FXaodVqN29cD6vOY8aNr4pihSIR5Tczq5SioiLc8IUClMDvdcIpjjqZBCeKio2NUEZpXkwI7//S3ByQHxUOjo62drZVV76bu/uylauZNNZXLl3EnHYISnprk5OdvWPblqYN6u75ZhdBEHfv3M7KzMTxex/o3nEqV7eKJb9NTU2F22pcTmjI3t27QPgD/997nMtt2rx5VZQsgibpSZK8dPE82jAIDAZjTFQU/esZGFSTwigVJElGvnsLZYykMhmTDmY/haJCGFkYPvYR6FrVV6U+/2Jw02bNmTTcK5Z9DSijJILAlvQajWbv7m+6d+64af26v/6xpLj48aOHOH7vIxSJQNdfqVRWLPkt6BSjV69cxmQqtCIhPm73zh2w6jxk6DBq7/r+BY/Hc3f3gNUbt2/dLCwsREumPzqdDkT+UW8fHwpLM5vNL188hzJGAYGsC3eflwc1Kb2Li6qKFoL3V4TN23YwabhLiovHjPgKMwojKOmrFqPRcOznI21bNFuzcnl2dtYH//XkieOAYsZaAR6PB7r+KlUFI7UCOvH4OynJyc+fPkXrpc07x7hm1UpwmyxfDhtedYXXql0b3Jx69uQJGjP90ZaWgrhAR20UcZIkAW1Dh4aFsc0soWRh+DvOSqUVvgNd3dzWb9rCpBGPiY7euW0rxlVFUNJXlZi/d/dOy6aN586a8XcxX86N69fgXqKukrHkchUKW7j1DwwKqsBTZrMZuiS+cP4sWi9NuH3z5uWLF2DV2dXNzcfXt+rKDwoOBjeOly9fxGAr9CcHyI1lO3sHCkvTaksBjVEA+5LSZ2dBvdTp7Ky0zg991rdf46ZNmTTo27dufvrkMb6TEZT01Ip54/NnTwd/PuCLAf3+8zrr6VOncAj/gsPhSGVQU9MLBIKACkl6kiQTEuJBD9wfV68UFxehAVc7Go1mxtRJ4Ko9a+48Gxubqivf1xdeVurzZ35H33v6k5GeRv9KCoVCap2Z80AlSPOsUYNVNmk2m9PS0oBW3svH2zo/ZGNjs3b9xqp28rcyY0Z8VVSEqwaCkp4iXr96NWPq5M96dHt4//6n/P2uHdvwHvL7S5G6oABo5Z2cnd3d3Sskw0qgD1xKcvKL58/RgKuddatX5ufnw6qzg4ND69ZVm72yhpcXuKFUq9XPnqLvPd0XrPi4OPrXMzikFrXx4WApRqXShVVmaTKZQCRW/MjXPJfr5eVttZ/z8fWbM38Bk4Y+Pz9/zswZJpMJX84ISvpKkRAfN33KpB5dOv7+6+lPf6qkuPjBvbs4iuWQJKnVaoFW3t7eoWKRWpmRg/rHH/ZjYIjq5c7tWwcP/ACu2r0+6+Pk7FylPwEuPF45a1YuNxoNaNh0lvSRke/oX8/AoCBq7yeD2Mj4C1s7O1aZpcFgABpwVyaTu7iorPmLX40YFVKrNpNG/+L5c7+eRudfBCV9RcnPz583e2a3Th1OnzpZgcfXrVmNMS3KAb256OvnV7EsQRkwk818wJVLFxPi49GGq4uc7OypkybAe31zuX369a/qX5ErFLDy2JUTEx398sULtG06S/rXr17Sv54+vn7U2j+IjYxyFApbPp/PKrPU6XSJMK/ySWVSO3ur7r/w+fzd+75jmAHMnj4NRBoOBKGXpNeUlOzeuaNeaMjRI4crfLwcFfkOtVA5cL3uCYJo3aaCzsMJ8XHMGL6d2zHgavVgNBrnz5mVmwMv1mbdevWtEI6ex+PVCa8LcWSXf70E5xRtgRL4nfLL5IDiudapW7diW+1wKdVogGawk8lkYrHEyj/q5eW9ZOlyhr2X5sycjjntEJT0n0pJcfGpE8cbhIeuW7Oq8p/j3+75BgeSIIiUlGS4lW/QsGHFHnz9+jUzhu+3079kMsLjABzf7/v26pXLEGs++MuhfL6gqn+Fx+M1bNQYYv88f/YUdIZLZgNFOLm5uVErGJKTk6CMUWhYGNskvVoN9WhEJpNXi0vF0OEj6oSHM8kGHty7983O7fiKRlDS/wd6vf73X0/37tF15rQpVF38PvPbr/8ZG58NvH3zBmjN+Xx+hU9Cot69Y8wIrl29Es3Yyrx6+XLNSpCHDI5OTj17f2aFH+JwOHBzU69dvQoP6ukJlMDv9vb2FJamLS01wQmbwsIMdnDD3fv6VU9qEoFAsHHLdoZFv9+6aePjRw/xLY2gpP84JEle++PqwL6fTZk4nlp3O41Gc/zYzywfSLPZfOEc1PTmTZs1r9hhI0mScPfU/85vp38BGmsXKEVFhcOHDgZa+ekzZ1Vp7rr38Q8IANpLN65fe/vmNZo6DUlPS6V/JaVSqVyuoLDAgoICgwFM1EaI2S4qSUoyVG/HWrVDq+unAwIDp06fyTBLiBgzSq1W44saQUn/odp8/epVz66dRw778vmzKrlF9vOhQyyfe2VlZY8ePgBa+a7de1TsQW1paVlZGZPGceH8uXioaB0MBsOYkcNh5Yj+Cz6f37f/QKv9nIuLCmKEvHLWrlqJoe9pSDyEIDieNbzEEirvJ2dlZQJKbmLlCOrVDpT4Dh/F39+/Gn991Nhx1binUBXk5uQsWTifJEl8VyMo6f/n/ZiSnDzqq6E9unR88/pV1f1QZmbGlUsX2TyQUZGA/c+bNmtWsQcLCws1JSVMGscb16/9ef0avpis8Ok2d9aMB/fuAa3/3AULJRLrRUKSymQNGjUC2le3bt64evky2jzdePcWwE0xDw8PoZBKX5ikxERAY6SwVbDKJkmShOvU4+rmXo2/LhQKN2zewjB7+P3X06d/OUkgCEr6tNTUFUuXtGza6NofV63Qkg1r1xQXF7F2II8fOwq05gqFrVtFE19nZ2eVMEvSEwSxctnXVIWZQD6K2WzesHb1LydPAK2/WCzuP3CQlT/XgEbIK2fNyhVsXh3oyfNnzwBIek9PHo/KkGORcIK/yORyGxshq2ySJEm4ATWdnJ2rtwIhtWpPmzmLYSaxbPHitNRUAkFYK+mzsjLXrV7ZvHGDH763XsrK7OysI4cOsXMUNSUlF8FepO/Ru3eFrwSnpqQAcmL8ROJiY4/9fATfTVXH8aM/7961E279IyZOojZk16cA2qkyKSlx3549eKWlijCbzZb2LUmSKRACv7u4qKgN+R4bEw1lWENDw/h8HqssWacrA7qfzuVy5XJZtVdjwqQpQTVrMskkiooKJ4wbjVe3EDZK+tLS0p3bt3bv3LFavpg3rF1dUFDAwlG8cvlSfn4+0Mp37dqtwt9McXGxjBzQdatXZmBCu6rh7p3bc2fNgFt/hcJ28JCh1v9dPz9/0OO+fevmxIR4tP+q4PGjh5mZmRY9oi0tBbEb66Ki8jI5SZKAPlECAgO5XHZJ+oJ8qB+QSqULte4kFcPGxmb7rj0Ms4oXz5/v3L4N3/MIiyS9Xq8/fvTnJvXrbly3Njcnp1oaYzQat2xcz7YhNBoNPx+B6p7A5XIDK7Gnm5WVxcgx1Wq1kyLGAgqMDIV3b998OWgg6CaMiYhwViqt/7senp7Qj19GDhuq0+lwFlBLZOS7iDGjLE1hpVarTSYT/Vvn4eFJYWk6na6kpBjKyHp7+8ANilkxLN2Zog/16ten1p2kwgQGBc2aO49hhrF108ZnT5/g2x5hvqTX6/V3bt9q1qj+nJnTi4oKq7c9Rw79FBMdzaohfPTwIdwoX02bNXdwcKzYsyRJVtfmkRV48vjRjq1bCIQ6Xr182atbF9ABbB0cHIYM/apafloqlUIPaJyQEP/1ogXofk8hKcnJXdq39fSsYWmwxszMDPqf0kulUmcllfeTi4uLAJ3Su3t4sM2ekxITgNY8uFYtmtSEw+GMHD3Wx8eXYbYxbtRIDMiCMFnSG43Ghw8efN6vz5DPB9BEXBmNxgVzZzPvfvU/t9ewfs1quPXv3rOnQCCo2LM6nS6boaf05WzfuvnO7Vv4kqKERw8f9OnZDbrjw5iICQ4ODtX1681btoRuBkePHD4PNuwI3UhMiO/euSNBEL5+fpa+xhMhaCcHR0c7eyqnW15ubiGcbLsqV1e2mXR0VBTQmgcGBtGnMhKJZPP2HXw+n0m2kZ2dNW/WTBC+RQhKesswm81PnzyeMG7MwL696eaO8ujhgwus+Wi7fOkSXHcgoVDYuEmzCj+uKSnJyspk9viOHTk8Jzsb31OV5O6d218M6Ad9p8/Ozm7EqNHVWIHGjZvK5HLoxjB31ozUlBScFJUXP726dS33y6tRw4vHs+zSdeRbAIHfHRwcpFIphQWmpaUB2lW0s3oMzmrn+bOnQGvuWaMGrepTt179r0aMYph5nDt75vzZM/jyRxgl6RPi48aNHtm3V4/LFy/Qs1WLF8xTw9kLrzD5+fmzp0+FW//wevW8vL0q/HhhYWFWJsMlvUajmTJxPF4ArgzXr/0xbPAgBnjuLF62XCQSVWMFXN3cXFxcoHdjSXHx6BFflZaW4tSoMO/evunTs9tf9+yULhYHdwAR+N3O3qHCTmQfJTkpCcoQOzg4yGVyVlm12WyGm5Te2VlJtyrNnjdfpWKao8ecmdPT09JwCUCYIOnzcnPnz5nVsW1r2or5ctRq9Ya1a0Bfmv2U5WfB3NkajQZuE1q0bMXnV/yDKS8vj9lDXM69u3dWLV+K7l4V4/y5syOGDmGAnvfx8e39WZ/qrQOPx2vVug0DrCLy3dsZUydj+MmKcffO7e6dO76/9LhY+OFOkiSIPXdHR0dqQ45lw3Erq+HlLRKLWWXYOp0O7gcVDf2nRCLRnu++Z5iRaLXaqZMm4NqBwJb0arV6984d9evU/vnwIRDfx4d/+vGPq1cYPHI/Hz508fw5uPXn8/ldu/Wo1OdRdhZLZunBAz/s2LYFw3pZhMlk2rv7mwljRzOjOdt27a7M/hdVDBz0BTP68+L5c18vXsiGPUEKMZvNJ44dHTyw//v9xuVyXVwsy/Sm0+mqPZLupxAQEEhhaSRJZsO5ReXu7m5jY8Mq8wZhkx/FydmZnhfX64TXHTNuPMPs5NHDB/v27MblAAEp6YuKCo8eOdy4Xp11a1bBatv4MaOYqvpevnixYO5s0E0IDgnx869UpuuMdBa5P23dtPHHH/bjC+sTKS0tnTV96pqVy5nRnH4DBoaGhdFC5AQGUXu7uBo58tPBrZs24k7ZJ2I0GjauXzt7xrQP/l2hUDg6Wpa1pKiosLAQgHyq5Ar1AQaDISM9Hcpwu7l7MCy82X+SlQn1czE8vC490w1yOJxpM2dRO4/owPq1qzGnHQJM0penmu/dvdu82TMh3uY1Go3jRo1knodMTnb2iGFDoLdi+KjRlfFpJEkyJTmZVXN16eKFv/5yCt9Z/0lGevoXA/qePnWSGc2xs7ObOXsuTXIO8/n8oV8NZ4ypbN+6+cihgzhl/pPCwsIxI4bv2r7t7//JRaWSW+j0m5ebq6Z9Ljc+n09tyDGtVgvoFq7KVcU2I09OTgJa86DgYHpKeoIgpFLpmnUbmWctY0YOh+vWgbBL0pMkeenC+Z5dO82ZOT0hPg5u8549fbJm1QomncOo1eq+vXvk5eZCb0iXLt0q87jJZEpKSmLbdJ02eeKZ337F19a/8PDBg+6dO7x4/pwxLRo3fqKbuzt96tO3/0AmGczCeXOPHPoJz+r/hZjo6B5dOl6/9sdH/6uTk7Oll67T09Ppf31PKBQ6OVGZlL6kuDglBcw2tMrVjX12DjWDna+vH032fD9KoyZNhg0fwTBryc3JWbZkMV7dQmgt6UmSfPniRY8uncaNHhkVGcmAFu7f9+3J48eYMVqakpIhnw9gwOl0r8/6SGWyypSg1+lAxEymnMkTIg4dPIAK5O+QJHn4px8H9u2dn5/PmEb5+PjS7WPI28eHAans3mfB3Nm7d+7ACJQfnVNnz/zeuX2bf1l0HJ2cLPXQBpFEUCgUKmxtKSxQrVYDEgBubqyT9G9eQw13T6s9348yc848V8ZZ1KkTx8+zJmE2AkzSkyQZGxMzduTwXt06w83k8VFmz5j28MED6K0oLCz88ovP37x+xYARmTRlWiVLKCsrS0tNZeekXTR/3rYtm1CBvE9OdvbYkcMXzpvLsHat2bCxkptflGNjYzN1+gyG9fP6tauXLl5oNGIc4/+jqKhw7qwZkyLG/rsQrUD2rKzMDPo338ZGSG18uJwcMLHxFApbaj0UQAA3OZlSSffcora2thu3bGOezcybPTMjI4NAEFpJ+qSkxOVfL+7QpuXVK5cZ2c6vhgwCvU+RlZX5WY9uzAjIERoW5uvnV8lCSjQlbJ63WzdtXDhvDuarJwiCJMmL58+1aNKQee+uAZ8PatK0GQ0r1qlLV+YZ0k8/HogYPQp0WlAKefL4Uef2bU8cO/qff+nn72fphM3KAhCHzMfXl1pnZkCx8RydnGztbFll8Hq9vhTs3FcoFPSvZPMWLRmTMOX/PkSLi6dNnoB7wQhdJL3BYFi/dnX7Vi0O7P+ewe3UarUD+/WJiQbpqh0bE9OzS2fQQQ3eZ868BZUPpZudlcXyqXv0yOGhgz9n+Q5xbk7OlInjI8aMYt7uhkwuX7KMphH73d3dW7dtxzxzunrl8qD+fXF3k4sAACAASURBVJLZF6Tjg4/UtatW9Ovd8xMlqI+vZZIeSuD38Lp1KSzNbDanwIm+5uDgIJFI2Gb2xSXFEGvu5OwsEotAVHXJ0uWOTk4Ms5wH9+7t3rUTxSRCC0nP5XIvnDsHItV85V/ZA/r0io+DJIzNZvOVSxd7d+/CmGx87h4edevVr3w5gE48qo6H9+9379T+1o0/Wdh2s9l89crlLh3bnf39N0Y2cPfefXI5Tc9e+HxBv/4DGNntr16+7NGl08Xz51gYrsJsNt+5fatrp/Z7vtn1iY8IhUKVyrLQ6FACvwcG1aSwNJPJlJCQAMUSbG1t+XwBq4w/Ly+vuKgIYs0DAgKFQhiSXiaX79rzLfOMZ9P6dc+fPcUvUqT6JT2Px5s5ew5LWqtWq3t27fTi+TMQtTUYDOtWrxwzcjiTfEGHDR9Z+dhaZrM5ISEeZy9BEPn5+UMHD9qwbo1er2eP8EhLTR0+dMjo4cNyc3IY2cZen/Vp1qIlnWvYrHkL5p23lFNUVBgxZtSi+fPKysrY8yYpKCiYMXWypeFXpVKpvYNlSelLiovT0gCEQfHy9qawNKPRCCjesIuKdRnsMjPSgbp6eXl7V97t0Wo0atxk8NBhzLOfyRMiSoqLCQSpXklPEESLVq3Z02CNRtO7e9d/ysdDH1KSkwf17/vppyUgkMnln/XtS4moi2ZEOgaq2LV924A+vZKSEpm/hZGXt3nD+uaNG9y4fo2pbXRwcFiydDmPx6NzJZ2cnbt07c5gSzv804/dO3cAelfL0jXx4IEf6tYOPn3qpKXPCkUimUxq0SNqtRqEV6BK5UphaXq9LikRzCl9QGAQ29ZQuKunu4cHbZPSf0RycLmz585n3nZwSnLykkULMKcdUv2S3tbWlhJfaECMGDrkwP7v6flhYTAYjhw62LJpoyePHzGs2z8fNNjFhYLtf5I0vXz5Amfv+7x4/rx1sya7d+4oKipkpvAoKTn804+N6tXZsW0Ls4dy07YdTs4Awk0PHzlKKBQyeCDiYmM7tm21dfNGJqVFfB+dTnfx/LkuHdouWTi/YiXIZDJLPbShBH63s7ensLTS0lJAn/v+/v6sk/SJUCNouLm5w6qwvb392g2bmGdCv5w8cfniBfwWRapZ0nM4nDER49nW8qWLF0aMHpmTTa/Pi7dvXg8bPGjBXAZehZBKpaPHRVBSlNFossg7lD2sW7OqX++ely6cZ9JusU6nO/v7b/0+67Vw3lzGR/0YPHRYGyCR5wICA+vVb8D4ObV108be3bv8/utpJqWNNBqNly6cHzr484gxoyrzLg0ICLT0kYx0ABfphUIhtdtVuTm5UGxDIBC4uXuwat00m825uVDvcEG8JdGhY6du3Xswz5DmzJyRlZWJH6JIdUp6giAaN27CwsaXh9e6fu0POkRCys/LmzF1cu/uXe/dvcPI3u7es5erKzWujKWYaOqfiYmOHjd65JDPBzAgRUJpaen+fd92ad920vhxke/eMn7s3D08lixdTm3qrCpl+ixWxGFJSU6eMnF8v949o+Df9zEaDVevXO7eucO40SMf3r9fydJCw+pYqp1A7MbWDg2jdhqmQwgfUI5QJGJqmIx/nhRGuGFZQLh0fQCHw1m9fiPznLyKigonRYzDnHZINUt6Wzvb5vSOxlRF5OXmjhg6ZOSwLzMyMqpF2JvN5sLCwm1bNtULq/XLyRMGA2PfBTPnzKWqqGwgrpvVyL27d9q2bD521IikpERwp4tmszk/P3/r5o1hwYHLly5hTyjE/T8eEolEgCpcv0EDaq8c05nnz552bt/mqy8Hx0RHQ5xTGo3mxLGjDeqEjh4+jKq9Cf+AAIv+Hkrg99AwiiU9oHD3NgKBTCZj1XKp1ZamQ3Ae+TuOTk72lN4QsRp2dna79u5jni09evjg+337CASpRknP5wv6DhjA2l64fu2Ppg3q7tu725o7tSaTKS01dcvGDXVCgrZs3MDsHp4weQolt+jLAZEDiQ5cvnihdbMmEWNGvXzxAsRuUVlZWVxs7JqVK+qFhmzdtJENyTX/YumKVUE1a8KqM4/H27B5C6vm1I3r1zq2bTV86JAnjx+BCJFtMBgSExN279xRK9Bv9oxparWawsI9PD0t+nsogd8DAgMplPRmszk6Cox/h1QmEwjYlcGupLgkMyMDYs1VKleZTA6029u179C9R0/mmdOalcvfvH6F35+I9fm/1BcNGjYSCAQMPiX+T1avWL56xfLps2b37tPXy8u76txf1Wr10yePL54/d/zoz2zoWIXCNmLCRAoLjIuNwan76Vy5dPHKpYut27Yb8uXQBg0bOTg60q2GRqMxMSHh/r07p0+dYl5UyE+he4+ew4aPgFjzJs2ah9Sq/fbNa1aN160bf9668WfDRo1HjB7TsGEjZ6WSbjU0m83Z2VkP7t07dfJE1aWHcHa2rOF6vS4lGUAcMm8fXwpLI0kSUNrqmsEhbHv95uXlAU0VrFQqYTl2vQ+Xy12xeu2jhw+zs7MYZlEjhn557ebtyidsRpAKSnp3d4/WbdpevXKZ5T2yZeOGb3Zs79CxU/uOndp16GhnZ0dVyfn5+S+eP7v+x9VbN26wKq36gsVLFApbCgt8++YNTl1LuXH92o3r19w9PJq3aNmte8/GTZuKxeJqr1V6WtrF8+euX79259ZN1iaACapZc+3GTYASEb2PQCCYv3DR0MGDWDhwjx4+ePTwgUrl2rR58y5du7Vo1VoqlVZ7rbKyMm9cv37zxp/37t7Jy63aqGwKW8te7BpNKQjXG1dXNwpLM5vJhHgwK35YnTpsm8hwY+M5ODrSPN3pf9b/6xUrJ44bwzCLys7OWrVi2aq164Eu6wh4Sc/n83v36YuSniAInU537uyZc2fPODk7B4fU6tqtW5OmzT08PQUCwacf3ZvNZpIkC9Xq+Pi4h/fvX750MSUluao/sGiIj69fz169qS3z+dOnaKUVIy019fjRn48f/dndw6Nlq9ZfDPkyMKimSCSyWkg2s9ms1WqjoyKvXb36x9UrKcnJTM2696mvYD5/645dcrkCbhMaNm5SJzz8xfPn7BzBzMyM06dOnj510tXNrWmz5oO/HBocUksikVhzTplMxuSk5OvXrp79/feE+Dhqvev/8XPcwYHP51v0CJQVkM0Z7CqQxQA6WZlQo5RDDHf/AV27de/Wvcf5c2cZZlQ/Hz7UvmOnDh074WcnUg2SniCIlq3bKJUuzPOBqTC5OTnlDpbl/7NmcEjDRo2CQ2p5+/jY2dnZ2AhFIpHARkCaSJ1eZ9Ab9HpdXm5uSkpyXFzcm9evnj5+zOaLDOUsXPK1lNJYOyaTKSUFM9hRoO2PHjl89MhhgiACAgP7DxzUvEVLHx8foUjI4/EpVCMkSZKkSafTpyQn3b19+/ixo2yIXf/prN+0JTikFugmiESicRMmTRg7muVDmZGe/svJE7+cPEEQhI+Pb98BA1q1buPr5ycWi6mdU+UaXqfTZ2Vmvnn96vfffr1y6aL121snvK6ljQIR+F0gEFAbizs/Lw+QGXvWqMGqaWs2m9NSU4FW3ofSGyLVApfL/XrFyuvX/tBqtQwzrcnjx/155x6FYaQQxAJJb2dn16ZdO5Zc8K4Ake/eohqxiJat21CeZLu0VMOqqGlWICY6es3K5eX/f/0GDRs1buzj61fDy8vFxUUmk0ukUhsbGy6Xy/lf/v5J9L+QJGnW63QlmpJCdWF6elpCfHx0VOTzZ89w4nyUIUO/6tOvPwMa0rFTZzYf1P+dhIT4TevXbVq/jiCI0LCwJk2b+/n7e3l7u7ioZHKZVCK1EQo5HM5f0+qfpbuJJEmDXq/T6YpLinNzcpISE6OjIu/cvvXq5cvqbWNI7dqWSnoQgd9r1Q6lNj5ceno6INNVKl1YNVVNJlMyhPgOHxXDXt4+DBgCFxfV6nUbpk+ZxDDT0mq1s6ZP++HgIUu9mRCEAklPEMSw4SNPHj/G2kutCLXrzYpVqyl/l+Xn52PfVh1PHj/6IEBdUM2anp41pDKZVCYTi8QSiUQikYglEi6Xq9OVlZaWako0Wm2pRqMpKSnRlJSkp6WxKlREhWnXvsPSFSsBZaH/FwQCwcLFSwcN6Itrx9959fLlB/Lbz9/fy8tbJpdLpVKxRCIWi6USqUgkEoqEBoPRYNAb9IaysrLi4qKcnJyC/PzMzIzkpCS6+XwFBVmWoMFsNkdFvqP/eAUGBVF7Pzk+LhaQuVoaHwE6RqMR1gD9hVgsdlExZP+ld5++v57+peoCeVYXt278uf+7b8dGTMB1EKkGSR9Sq5a7h0dKMjo2I5UlYuIk7yrwCsMMdlYmKjISRN4pWPj5+2/evpNJyaIaNWnSpm27a39cxcH9T+JiY+NiY6G3wlIPbZIkXzx/Rv92+fj4UhvU6u1bMD5KdnZ2bMtgp9PpoqOiINZcKpUBTUr/d7hc7sbNWxvXD2fepvDqFcubNmsRGhaGCx9S5fPo7/Nq4uSp2C9IJVGpXKdOn1kVJQMKHYwgH0UgEHz7/QEKs2nQhBWr1+LgsgdL74iazSSIjQx3Dw9qfWcAxXOtVTuUbWas1ZbqdDqYkl4qkUgZMxDOSuW2nd8w0samTBxfUlyMSwZibUlPEETX7j2wX5BK8v2PB6mNMPQX795iBjsENgePHPXz92deu9w9PCZOwR1htqBQWJamQaMpBdEuFaUZ7EiSzMwAc5c+NCyMGVeBPp0CsFf5ZHIZwy5pd+3evV37DsyzsYT4uFUrlpnNZlw1EGtLeltb20GDh2DXIBVmwuQpIbVqV1HhsTEx2MMIXNZt3Ny0WXOmtm7i5KleXt44yizQ87YCGxuLHsnPg5HBzsHBgcLStFqtHk7iGz//ALZJ+kywGez8GZdukM8XrFi9ViaXM8/Mfj586I+rV3DhQKwt6QmCmDRlGnYNUjFCatWeNGVaFX0WkCRZUFCAnYwAZc68BQMHfcHgBkokkvWbtuBAM5464eGWxpBLhZAqTCqVKmwVFBaoLijQlZVBGVZmRFC3iKTERKA1Dw1l4PVsdw+P+QsXMdLS5s6akZuTg2sHYm1J7+bu3rf/AOwdpAKsWrtOIpFUUeHa0lKNpgQ7GYFIxISJERMnMf4QrFGTJrh8MJ6AoCBLY8iBCIPi4ekppfR+clZWpgHOKT1jIqh/IiRJxkRHA628r58/Iwdl0OAv69arz7x25eXmThw/FnMwI9aW9Fwud9SYsdQGfUXYwNwFi6r0XVxYWFhcVIT9jIBjwOeDZs2dx4aXKofDmTN/AfOC/yHv4+3tY6kxgwiD4u7uIRRRGQUG1iGwQsGuDHYkSUa+ewu08u4eHowcFB6Pt2vPt4xs2oN79374fh8uH4hVJT1BEEE1g9u0bYcdhHw6jZs2HTMuokp/Iicnp6QET+kRYLRs3WbF6rV8PluyQ6lUrhj9ntl4eHpa+sgzCIHfXd3ceTwqQ45FR4HJAKpQ2FZRUFvaYjab3755DbTyTs7OTB0XN3f31evWM7Jpq5YvwxjPiLUlPZ/PHzZ8JB7UI5+IVCr9Zs++qo6/mpqagm5LCCxCatXe8+13IpGIVa3u0at39x49cfSZiouLZR7aJEmmp6XRv11KFyW1V2Pi4uKgjGlwrRC2JaXX63RarRZo5eVyGYOHZuCgwQ0bNWZk0yJGjyotLSUQxGqSniCIlq1bB4fUwj5CPoUffjri6ORU1b+SlJCAXY0AIjQs7OjJU1KZjG0N53A4azduojZ4OEIf7O0tG1ltaanJBGA31s3NncLSSJIElCPN3z/Q0pCH0IEbbVelcqXWnYRu8Pn8jVu3icVi5jUtKSlxzcrlJEniOoJYT9LzeLwJk6dgHyH/yco1axs1tsZ+amZmBvY2AkjPHzp6gm3XU/9CLld8/+NPaAbMw9HJSWxhDFS1Wq3X6+nftApcKPgXdDpdUVEhlGH19vFmm2NmRkY60JrXq1+f8ZFWvby85y5gZvT7n348cOfWTVxKEOtJeoIgOnfpikmGkX9n4KAvvhgy1Ao/RJIkpgBBoFCrduihoydsbW3Z3AnhdevNnDMXjYFheHv7WHp6BiLwu1gsdnFRUVhgSXFxQT6Yc2B3D0+2WXJyUhLQmgfXYoUL7eAvhzZq0oSRTRv51dC83FxcTRDrSXo+n795+w7sJuSfCAgMXLJ0uXW89fR6fVZWFvY5Qn9qBoccOnqc5XqeIAgOhzM2YgJTv8lYi4enp6WXrkEEfndwdLSzt6ewwLz8vIICMI73lsZHYABRkZFAa+7nH8CGAbKxsVm1hplx8gwGw6zpU00mEy4oiJUkPUEQdevVb42h75GPIZPLfzz0s0wut87PlWo06elp2O0IzQkNCzt26rQ9pdoALkKhcPfe7/BSPZNw9/CwdBs3KvId/dtlZ2cvozTsRWZ6BqCk9CycpM+fPwVac0/PGiwZo4DAwDnzFjCyadev/fHTjwdwQUGsJ+m5XO6KVWuwp5C/c/L0b27u7lb7ucJCdU52NnY7Qmfatmt/9MQveD7/Po5OTvsPHsJ+YAwqlaulj4AI/K5QKKgN+Z6amgxlTO3s7ORyBavM2Gw2v3n1CmjllS5K9ozU2PHjQ2rVZmTTli5eiDntEOtJeoIgPGvUGBsxATsLeZ8jx0/WDA6x5i/m5eVhBjuEzvTp13/Pd/tZGN/+PwmvW2/lGsxUzxBcXS2T9CRJFhaq6d8uZyXFGeyyMsHcFPPy9pZIpawyY71eDzmDHYv2X/h8wa49e5nauknjx2lKSnBZQawk6TkczphxEVbzr0boz5btO5s1b2HlH83GI3qExowcM3bD5i1CoRC74qMMGfrVyDFjsR8YgIuFp/RlZWWFagCSPiAwkMLSSJIElKLF1c3dxsaGVWYMYpvpoyiVLtS6k9AfH1+/JUuXM7JpcbGxmzduMJvNuLIg1pD0BEE4K5VTpk3H/kIIgpi7YNFnfftZ/3czMzCDHUJTps+avXDx13y+ALvin+BwOAsWLW7Zug12BWjs7OycnJwseqSkBEbg94AAKiW90WgEtGapVCo+n88qS87JzgaaG7x2aCjb0g0SBDF46LCgmjUZ2bTv9+29ffMGLi6IlSQ9QRDDho/EhHbIhMlTxo2fYP2EqCRJpqamYP8jNGT9pi1Tps2wTt4H0PD5gr3f7WfqrUiW4KxUyhWWuezl5wEI/M7lcj1rUBlyTKvVpqaAWbOozd4HgiSwGewCg4JYKOlFItGW7TuZ6gc3bcqk/Lw8XF8QK0l6kUi0c8+32GVsZsSo0bPmzKuWtcRkMiVACLCEsOsFyuUePfnLwEFfWH+TCygSieTHQ0cqEF8NoQkOjo5iscSiR9LT0+kf+F0gECiVVGZx05SUpKSACY/n7uHBNkuOjoKawc7Xz5+dK05IrdpMDeyVl5s7ddIEzGmHWEnSEwQRGhY2ccpU7DV2MmToVwuXLK2uvWG9Xh8bG4OjgNAHlcr1yvWbTZo2w66wCGel8vgvv2JwFqA4Ojha6qGdnpZK/3YJbGwUlCaqKCxUA4rn6uHpyTZLfvsGaqRxFu6//MXkadN9fHwZ2bRbN2/8uP97XGIQK0l6giCmTJtBrXMaAoKhXw1ftnJlNd610+l0KcnJOBAITajfoOH5y1f9/P2xKypADS+vX8+cR1UPESdnZ0sfARH4XSgUUhsfLjcnB8qYKhS2jhbGR4CO2WzOzsoCWnlq3UlgYWNj8823+5jaupXLl0a+e4urDGIlSS8UCvftP8DCazxsZuSYsV8vX1m9ob9KNRocCIQmDB467NDR4w6OjtgVFcY/IODYyV/EYjF2BSwCg4Is+nsogd/9/Cl2Zs6AExvP3t7ezs6eVWZsMBiKi4uAVl5hqyBYTHBILab6C5MkOW3ypLKyMlxoEGtIeoIggmoGT5k+A/uOJUyYPGXh4q+rPRZuTg5msENowaat21euXotatPLUqh166OhxtsXZho6Pr5+l2glElLjw8HoUlmY2mwG5ldnZ20mlElaZcUlxsaYE5DmBo5MTrj6Tp05napjVyHdv161eiTntECtJeg6HM37i5Drh4dh9jGf+oiWz5syjQyhvQKGDEaaiVLpcuPJHvwED0U2JKuo3aHji9G/4hQoFoVDo5uZm0SNlZWXpaWn0b1rN4GAKSzOZTHFwgr8oFLZsS8CZl5cHNC+9f0CAUChi+YtIJBKtWb+Rqa374fvv7t+7i8sNYg1JX76ub9u1G29CMpsd3+wZGzGeDurFbDbHx2O4e6Q6adm6zZU/bwaH1MKuoJa69eqfPnseVT0IxGKxvYNl902gBH739vGhVtK/e/cOyrCqXFmXgSIrK1Or1UKsuZeXt0AgIFhPnfDw8RMnMbV1Y0YOz8/Px1FGrCHpCYLw9vbZ+c1e7EFGIhAIDh093rP3ZzRJlGI2m6MjI3FckOp5S3K5M+fM/eHgIVtKA2Ijf1GzZvCFK3+wLUAXRGxshDKZ1KJHCgvVJEnSv2nUJmY36PUJcLahqfVQAEFyUiLQmru5u6ObWDkTJ09lavT7kuLi6VMmYU47xEqSniCINu3azV2wCDuRYSgUtqd+O9uiZSv6VIkkyZcvX+DQINbHz9//1G9nJk+djle+qxRvH98z5y9hBgGaI5VKLfXQhhL43c6eyvhwsE6ALY2PwABSU1OB1lylYp1LxT8hk8vXbdrC1NbduH7t6JFDOMqIlSQ9QRDjxk/o3acv9iNjqBkccuHKH2F16tCqViaTCTPYIdZn8NBhp8+cq1uvPnaFFXBzdz995lzTZs2xK2hLgIXh7gmCSE9Pp3+7xGKxUCiksMDcXDAZ7LhcrqcnuzITm83mnGyoAXdR0r9Po8aNh341nKmtWzhvbmxMDI4yYiVJz+VyV6/bEF63HnYlA+jdp++p3864e3jQrWIazGCHWJ19+w+sXL1WoUBne+uhUNj+ePjnAZ8Pwq6gJ+HhdS3VTkkQPJxDatWm1pkZ0CGwUChk250Xo9GYmZkJtPIuKvYmpf8o8xctUSoZ2yfjx44qLS3FUUasIekJgpBKpVt37sJQedCZO3/h5m07pFIpDesGd0MdgUjzFi0fPnvRsXMXvLJofWxsbNZt3Dxn3gLsChriHxBg0d+bTKbE+Hj6tys0LIzawDGJCfFQxlQgsJGz7PutrEybmZEOseaOTk72Dg74InofiUSy9/v9TG1dTHT0rh3bMKcdYiVJTxCEt7fPz8dPYRBOoMjk8r3f7R8/aTIdktV9lPT0NBwmxDofTJu2bf/p52MM3vUHsCxxuRMmT9l/8BC6SNANzxqWeWgbjUYQgd/9AwIolPRmszk6KgrKmEplUrZ9vJUUl2RkZECsubOzUi7D87MPqRNed9SYcUxt3a7t2x7ev4+jjFhJ0hMEERoWdvyXX/FQCxx169U/e/Fy567d6FzJ+LhYEGoQfVVA0+uzPmcvXO7XH9PO04J27TucuXipVu1Q7ApaKQrLJL3BkJSYQP92eXl5U1ia2Wx+/uwplDENDg5hmxmr1QUlxcUQa+7o6CgUsT0p/UeUDJc7beZMBkcZmBAxRq1W40AjVpL05eLw2KnT2KeAiJgw8cjxk97ePjSv55vXr+nfmU2bNT936crYiAloV+BQKGz3Hzy0ZftOVzc37A1aCa3jv/zK4OhH8GaKhXkcNaUaEBnsVK5UTnySNMVER0MZ07DwcLaZMZQsDH/HydkZc698FLlcsWHLVqa2Li83d8aUSSDepQhDJD1BEA0bNT5y/CR2Kwi+/f6HuQsWicVi+lf12ZMn9K+kq6ubl5f3vIWLvv/xJzzmBcT4iZNuP3jYrn0H2l48YTNSqXTZytV79n2PXVHtODg4WConoGgnR0dHCkuDFc4qMKgm2ywZqNc9QRAuLip8Ef0TLVq26tt/AFNbd+2Pq5jTDrGqpCcIolnzFgd+OoI9S2caN2364OnzTl26UhsQqIowmUyZmQAWYKWLkiAILpfbvkPHh09fYC4u+lO3Xv3rt+7Mmb8Q72zTepXicrt0637v8TPMJli91Amva+mSkZ4GIAyKUCikNoNdfn4+oGFlYQY7uNF5LI1PySo4HM6ylavs7OyY2sAlCxcAcv9BmCDpCYJo067d4WMn6Bk7neWIxeJlK1cfOXYS0F5vaanGaDTSv56u77luOjk7Hzp6fPHSZegjR098fHx37d136rczPr5+IDa2EFdX1xOnf527YBG6wFQXIbVrWzpZEiAEfq8ZHCywsaGwwIx0SNHUyzej2QNJkslJSSC/17ncGl5e+CL6F+RyxY7de5naOqPROHvGNJ1OhwONWE/SEwTRvEXLX89esDQ6LlKlNG/R8tylq1+NGAnLwTg/P99gMACQHP//NWwejzdqzLgzFy6FhoWh7dEHgUAwd/7C385f6N6jJ4pDWPD5gvETJ529eLlx06bYG9bH39+yE0Kz2RwVGUn/dvn5B1C7JibExwEaVltbO1aZsdFojIuNgVhzoVCocnUlkH+lRctWffr1Z2rrnj97umXjesxph1hV0hMEERAY+OuZ8+h+TBM2bd2+/+AhXz8/cDXPTAfgdS+Ty52cnf/+78EhtY6d+nX1ug1ogXRgyrQZtx88Gj9pMnrawyWkVu2Dh49u2LwVu8LKWHpCaDabn0IIg+Lr50ft7t6b12+gjKlCYcu2DHY6XRmgFIPvI5FKHTAp/X/B4XCWrljF4Ei3e77Z9ejhQxxoxKqSniAIRyenA4eODPh8EHZ0NdK9R8/Hz1/1GzCQ2uuCVgOE66azk7Odnf3Hl2GJZPCXQ5+8eM3gnWP607f/gPtPnk2fNRvDCzEAoVA44PNBD5+96Ni5C/aG1bB07pCkCUQGO3d3D2pv3wDKYFcnPJxtN4/Kysq0Wi1ISS+RSCR4ofW/sbW1XbV2PYMbOH7sqMLCQhxoxKqSvvzba+2GTVOmzcC+tj5KpcvBwz/v3PPtRw+QoRD57i39urqm6QAAEm5JREFUK+ng6CiRSP7lDxydnDZv2/HbuYsBgYFomVZDIBA0bdb82s07m7ZuV6lc8do8w95ve7/bf/jYCbzhZR0UtgqL/r60tBRE1iVqD/RIkszKyoQypsEhtdj2VizILwBac6lUhtF5PpE2bdv1GzCQqa3Ly82dOXUy5rRDrC3pCYLg8XgzZs/BDy9r4ujkNGfegpv3HrRq0xb6gh0XB+Beoq3tf7svcjicOuHhF65cW7thk0qFN+KqXMz37tP3zIVLP5845euHMfAYuoBxuc1btLx2887yVWvcPTywQ6p4TlkWQy4/Lw9Eu+ztqXRmLisr0+v0UMbUPyCAbe/GrEyoGewCg4LwLfTpS8P8hYsZfMPu6pXLx4/+jAONWFvSl9O8Rcvfz18aOOgL7PSqZsSo0WcvXpkweYpIJILeFpIk1QUAEgJ9uh8En88fNHjImQuXxk+chLZaRYyNmHD+8h/bdn5TMzgEe4MFUlMwbPiIM+cvTZs5C0MeVhFz5y+09OpWOoTA72Kx2NaOyu/+QrXaYAAj6Vl40JKcnAS05rVDQ/FFZNFX2er1TA5jtGzJokQI91IRBkp6giDs7e3Xbti0b/8B/OqqInp91ufK9ZtLlq1wZUpYVK1WW1JcQv96BtWsadHfOyuVcxcsuvf42dz5C9FuKZR28xctufvwyfxFi/GCA9twcHScNmPWvcdPp82chb1B2ScCl7t46bI7Dx5HTJxk6cIdHxdL/wbW8PKSSWUUFpiZmQEoy5QryyKom81moLHxCILwD8BFzTK69+jZoWMnprZOq9WOGz2yrKwMBxqpBklf/n3QsXOXh09fNG/REnufQpq3aHn52o0t23cGBAYyyY+uqLCwsFBN/3r6+FYklYCrq2vExEkv3kbNmbcAbbgyuHt47Nt/4MXbqLER493c3dHNnrW4uKimTp/59NXbCZOnYG9UBpXKdeeeb19FxowaM87doyIB5N68fg2gma5uIjGV7mxJiYmA7rgqWJbBjiRJEGb5UTw8PPG9ZBEcDmfDlm0MzukQFRn5zY7tmNMOqR5JX46Ts/NPPx/77sBBvP1YSfh8fqMmTc5cuHzo6PHAoCBYCec/hZycnKKiIppXUiAQuLm7V3jJsbW1nTB5ypuo2LkLFimVLmjVn45MLm/dtt1v5y7evPugY+cuEokExTzC4XAcHBzmzFvw9NXbyVOn45yydE41bNT42MnTtx886tGzl1Ra8QjbL1+8oH97XV1deTwqQ47FxERDGWs7OzugeXAqjNlMvnzxHGjlQcc5ri7s7e2/+fY7Bjdw+9bNT588xoFGCIKotuCZXC63Q8dOLVu1/vGH77/buzc7OwsHwyKEQmHnrt1Gj40IDQtjsIzJSE8zGo00r6RYLHF2quxaK5XJxk+cNGz4iNOnTpw+derJ40do5P9Cw0aNO3Tq3Kv3ZwxOP4tUEgcHh5lz5o6fNPnMb7/+curEg3v3sE/+hfoNGnbq0rVnr94V3qB8H5IkMyHEIVMqXahdQBPjwdxuDaxZk31J6fUGgwFo5eVyOb6mKkDbdu27dOt+8fw5pjZwzIiv/rxzj8GxABG6S/q/dOnYiAl9+vbf/923u3ftxPH4FAQCwcTJU3v36VMxZ29YJCUlAhgRG4FcoaCkKKlU+uWw4QMHDX754vnlixePHjlcVITZR/8PRyenQYOHtO/QsXZomI2NDXYI8p9IJJLPvxjcb8CAJ48enz3z2+GfDmLunw/m1OdfDO7QsRO1c0qr1Rr0ALSTitLL5CRJ5ufnQxl6Pz9/5nn2/TuFajXceYoZ7Cqoc/j8ZStXPbx/D9DctIj8/Pw5M2fs/vY79FJESV/9OCuVc+YvHDTky2937z780484Kv9EQGDgzNlzGzVu4uDoyJImZ2YCSPArkUiolZc2NjYNGjaq36Dh+EmTX714vnPHtof377Pc+L8Y8uVnffrVDAmxtcWtaKQCX3WCxk2bNmzceOr0mY8fPdy+dcvbN69Z3ieDBg/5rG+/msEhdnbUX6hWFxRotaX074QaXl4UlqbT6fLz86AYQA0vb7ZJ+oyMdKA1r9+gIb7GK4yLi2rhkqUzpzE2wMrF8+dOHj/Wf+DnqOpR0lc/HA7Hy8t7xeo102fOOnTwx62bN+LYvE/vPn0nTJri5+/H57PITY4kyewsADcy/P0DqmhS2Nvbt2rTtlmLljnZ2adOHt+9c4dGo2GPAXC53H4DBg7+cmhQzWCRSISZMpDKW5STs3OXbt07dOqUlpZ26vjxgwf2q8Ee3FV4Tn0x5MuawSFVOqdyc3PlcjlJkrSdtkajSSqTulNxy+AvSjUagiBkcrkN7R3a8/Pz/fz82PYGyEhPF4vFYrEYVrU1Gk2Dhg1RrVWGPv36X7p44c6tm4yMH2E0mtasXO7o5NSufQcca9bCoWekRI1Gc+LY0R++2wfC77qKUChs/fz9hw0f0alzF6lMxsIeKCsrG/rF548ePqB5PadMmzFj9hyrvLUNsTExv//265VLF7Mysxjpky+Ty11cXBo1btK3/4A64XXRux6pUkwmU0J8/MnjRy9dvJielgoo/dinI5VKlUqXuvXrD/5yaFidcKvNKRBxmCmXSYCiT7NTIgIND456nrVDj3aCwJb05ej1+ssXL1w4d/be3TtMvQPz0c+vxk2atmjZqku37m6UHiCAo6CgoFun9hnpdPeU27l7b49eva35iyRJZmZk3Lt3586tW8+ePk2Ij4M+1kE1a9aqHdqkabOmzZq7ubuzzR0UoYO2j4+Lu3XzxtMnj188f5aSnAy9RSG1ageHhDRu0rRRkyYeHh6s8vBCEARBEJT09MJsNmdmZj598vjShfO//3qaqSMhEAj69OvfqnWbOuF1UdKUk5SU2L5VC/pHvP/t3MU64eHV9etqtTo2Jvrpk8ePHz16/PABoM2v8Lr16jdoWCc83D8gwLNGDblcgTaP0GHFKSgoiIuNefni+YP79+/cugnotkut2qH1GzSoU7durdqhnp41KpOCDkEQBEEQlPTUYzQaC/Lznzx+9MP+7xiTjqhmcEiffv2bNG1Ww8vL1tYWbwu/z7OnT/r07E7/ej54+tzFRUWDCWIoLS0tKChISkh49uzp7Zs36XZnQal0adq8ebmMd3NzlysUQqEQ/cQQGi86hpISTX5eXkx01P17dy9eOE83pyEHB4cOnTo3bNS4ZnCISqWSyeVCoRDXEQRBEARBSQ9A25dptVFRkVcvXzp14gS4nPZOzs49evbq0Klz7dAwmUzK4/FR1XyUK5cujhk5nP71jIxLFIlEtKqS2Ww2mUwGgyE7O+vdmzePHj58+eL52zevtVqtdTJ4cblcgUAQGBTUpGnz+g0a+AcEqlQqoUjE4/FQbyAQMZvNJpOxTFuWk5MdGxPz8sWLWzdvvH710mpuRFwuVyKV1q1br36DhjWDg728vVWubjKZDOcUgiAIgqCkhx0uwmw2q9XqF8+enT935uWLF+qCgsJCtVarpUn1uFyuvYODnZ2dk7Nzy1atm7do6efvL5crUMN/Cj/+sP/rRQtoXkmxWPw6KhbERQmz2azX60uKi/Py8rIyMxISEqIiI2Njo4uLig0GvdFoIk0mo8loMpoMRoPJaDSaTCajsVyx8Pl8LpfL4XL5PB6Xy+XyeEKh0MZGKBQKhUIbhcLW1c2thpeXr5+/p2cNpYtSobDF00KE8ZhMptJSTaG6MCcnOy01NS4uNjoyMj093Wg06PV6vU5fpivT6/Umo5EkzaSZNBmNJEmWb6vx+Xwen8/lcPl8HpfH43K4PD5PJBQJRSKRSOTg4ODl7e3m7q5SubqoXN3c3BydnEQiEa4dCIIgCIIwTdK/D0mSJSXFWZlZMTHRkW/fpqQkp6akJCUmWu0YXyAQeHh4OrsolUoXpYuLv39AcEiIh4envYM9hiaqgP5cvWL5vr27aV7Pps2aHzl+EvR3dvmRfvn/NRmNBqPRaDAYjEaDXq/T6QwGPYfD4fMFfD6Px+Pz+XwenyfgC4RCoY1QiCeECPLROUWSpNFo1Ot1Zdqy/9kd+9/9MtJkKp9TAhuBgC8on1A8Pp/P4wlsbAQCAc4pBEEQBEE+HT6TGsPlchUKW4XCNiAwsFv3HuVnkkWFhXn5eUXqwoKC/Ly8PHVBQXZ2Vnp6elZmRkZ6RnFxkUVH+kKh0MHR0dbWTmGrUCpdXFxULioXe3sHO3t7R0dHRycnW1s7iUQiEAjwLKWSmExGEIHca4eGQe9qDofD5/MJghAIcOMJQaiZUzwej8fjCYVCjPuIIAiCIAhK+op/VAmFQmel0lmpfP/fSZIkSZPRaDIaDCaSJEnSXP5PpIkkzSaj0WDQm0wkj8fl8ng8Lo/H4xEcDo/H5fMFPB6P/z//xuNyuTweD6V7FaHXG6KiIulfz4DAQLQBBEEQBEEQBEFQ0lsJLpfL5XL5fAFBs5BmyP8v6fVpqan0r6eXlzcOFoIgCIIgCIIg1SNvsQsQelKq0VgnNnslUbm54mAh/6+9O1lq4wqgAGqBJMygicmSkTBJwGBMFs7/f0Jih3IZ2ymKGSQGW8wIkFrZyPXIOou8Tp3zBbd0S4tb3f0eAACY9BCcnp6kImepVFYWAABg0kOwv78ff8jx8fF8Pq8sAADApIeBfr+fiuPuV9+uOSUeAAAw6eEfk/7rlxQcd7+4tDQ8PKwvAADApIcw6T+ur8efc+Gnn4eG/IkAAACTHn5IkmR3dyf+nPVGQ1kAAIBJD8H19XUqclarVWUBAAAmPQRnp6epyDk5OaksAADApIegeXQYf8hisVQoFJUFAACY9BBsbm7GH7IxPz86NqYsAADApIfg88an+EO+nJsbGRlRFgAAYNJD8P6P3+MPWa/Xs9mssgAAAJMeBnq93vHxcfw5Z1847h4AADDp4Ynb25tetxt/zlqtpiwAAMCkh6D9vf34+Bh/zrl6XVkAAIBJD0Gr1epG/5R+olCYmZlRFgAAYNJDsLO9FX/IqcmpcmVSWQAAgEkPQSpusCtXyuPj48oCAABMegi2tlLwlL5YKrvBDgAAMOkhSJLk8uIi/pyzs7OZTEZfAACASQ8DnU7n8jIFk355ZUVZAACASQ/BxcXF+fl5/Dl/WVxSFgAAYNJDcHZ62v7+PfKQ2Wy2Xm8oCwAAMOkhaDWPkiSJPOTIyMj09LSyAAAAkx6C/f39+EPmcrlCsagsAADApIeg1WzGH/L589F8Pq8sAADApIeBJEmOj1vx51xaXlYWAABg0kPw8PDQbB7Fn/Pdu9+UBQAAmPQQ3N3d7e/txZ9z6fVrZQEAACY9BNdXV8etFLx435ifVxYAAGDSQ9But+O/we7Zs2cvqjVlAQAAJj0EJyfHqchZqVSUBQAAmPQQtNJwNt5EoZDL5ZQFAACY9DDQ7/f3dlNwNt7btbVMJqMvAADApIeBXq+7vb2Vhkn/q0kPAACY9BA8Pna/fN6IP+fy8opJDwAAmPQQPDw8HB4cxJ/z1cKCsgAAAJMegtubm1TcYFetVpUFAACY9BCcnJykImep7AY7AADApIcnDg9T8Nb96OhoPp9XFgAAYNJDsLOVguPuV9+umfQAAIBJD0G/39/Y+BR/zqXXr4eG/GsAAACTHn5IkuTj+nr8OV+9WhgeHtYXAABg0sNAv5/s7u7En3OuXlcWAABg0kNwfX2TipzVak1ZAACASQ/B2elpKnJOTk0pCwAAMOkhOErDDXbFYqlUKikLAAAw6SHY3NyMP2S90RgbG1MWAABg0kPw5fNG/CFfvnw58nxEWQAAgEkPwfqfH+IP+aJay2ZzygIAAEx6GOj1esetVvw5q7WqsgAAAJMegrvb226vF3/OuTmX0gMAACY9PNFut+87nfhz1usNZQEAACY9BK1W8/HxMfKQE4XCzOyMsgAAAJMegp3t7fhDViqVcmVSWQAAgEkPwV9fv8YfslgsTUxMKAsAADDpIdjZScFT+nK5nMu5wQ4AADDp4YckSc7b7fhzTs/4kB4AADDp4YlOp3N5eRF/zpU3q8oCAABMegiuri6/ffsWf87FxUVlAQAAJj0E387O4n/xfmhoqDE/rywAAMCkh6DZbHa73chD5nK56Wnf0gMAACY9PHF4cBB/yGw2WyyVlAUAAJj0ELRazfhDjo6NucEOAAAw6SFIkqTVTMGkf/NmNZPJ6AsAADDpYeD+/v7D+/fx51xaXlYWAAAQm0y/3/cr8F/p9Xr7e7ud+/vMs6ifgVdrtZJv6QEAAJMeAAAA+Pe8eA8AAAAmPQAAAGDSAwAAACY9AAAA/N/8DYkFOOPOuUAwAAAAAElFTkSuQmCC;" parent="1" vertex="1">
          <mxGeometry x="670" y="305.69000000000005" width="140" height="74.31" as="geometry" />
        </mxCell>
        <mxCell id="RkjFfQdDdX4bQdD2x07N-17" value="" style="shape=image;imageAspect=0;aspect=fixed;verticalLabelPosition=bottom;verticalAlign=top;image=data:image/jpeg,/9j/4AAQSkZJRgABAQEAAAAAAAD/4QAuRXhpZgAATU0AKgAAAAgAAkAAAAMAAAABAAsAAEABAAEAAAABAAAAAAAAAAD/2wBDAAoHBwkHBgoJCAkLCwoMDxkQDw4ODx4WFxIZJCAmJSMgIyIoLTkwKCo2KyIjMkQyNjs9QEBAJjBGS0U+Sjk/QD3/2wBDAQsLCw8NDx0QEB09KSMpPT09PT09PT09PT09PT09PT09PT09PT09PT09PT09PT09PT09PT09PT09PT09PT09PT3/wAARCADXAdoDASIAAhEBAxEB/8QAHwAAAQUBAQEBAQEAAAAAAAAAAAECAwQFBgcICQoL/8QAtRAAAgEDAwIEAwUFBAQAAAF9AQIDAAQRBRIhMUEGE1FhByJxFDKBkaEII0KxwRVS0fAkM2JyggkKFhcYGRolJicoKSo0NTY3ODk6Q0RFRkdISUpTVFVWV1hZWmNkZWZnaGlqc3R1dnd4eXqDhIWGh4iJipKTlJWWl5iZmqKjpKWmp6ipqrKztLW2t7i5usLDxMXGx8jJytLT1NXW19jZ2uHi4+Tl5ufo6erx8vP09fb3+Pn6/8QAHwEAAwEBAQEBAQEBAQAAAAAAAAECAwQFBgcICQoL/8QAtREAAgECBAQDBAcFBAQAAQJ3AAECAxEEBSExBhJBUQdhcRMiMoEIFEKRobHBCSMzUvAVYnLRChYkNOEl8RcYGRomJygpKjU2Nzg5OkNERUZHSElKU1RVVldYWVpjZGVmZ2hpanN0dXZ3eHl6goOEhYaHiImKkpOUlZaXmJmaoqOkpaanqKmqsrO0tba3uLm6wsPExcbHyMnK0tPU1dbX2Nna4uPk5ebn6Onq8vP09fb3+Pn6/9oADAMBAAIRAxEAPwD2WiivMfjD44l0OwTRtNlMd7eJullU4aKLOOPQtgjPYA98GgBPHHxgtdDmk0/QkjvL1CVklY/uoj6cfeP0wB6npXiuueINQ8RXpu9UnE0x7hFXH5Cs2nxxvLIscaF3Y4VVGSaAGVoaNrd94fv1vdMmEM6dGKBv0INX18CeJ3t/PGg6h5eM8wNn8utYs8EttM0VxE8UqHDI6lSp9welAHungj4yW+sTR2HiBI7S7chUuFOInPvn7p/MfSvUq+NK91+Dfjl9VtzoGpSl7m2TdbSN1eMcFSe5Xj6j6UAerUUUUAFFFFABRRRQAUUUUAFFFFABRRRQAUUUUAFFFFABRRRQAUUUUAFFFFABRRRQAUUUUAFFFFABRRRQAUUUUAFFFFABRRRQAUUUUAFFFFABRRRQAUUUUAFFFFABRRRQAUUUUAFFFFABXyf4y1htf8W6lfsxKyTER89EX5V/QCvqu5yLWUrndsOMfSvjps5Oc5z3oAVEaRwqgsx4AA5NfSvw++H9n4S0qGaaFJNXkXM0+M7M9UU9gOmR16+mPAvB3lf8Jno32j/VfbYc/wDfYx+uK+saACuW8beBrDxjpjxyxpFfopMFyF+ZT6H1X2/Ec11NFAHx1dW0tldTW1whjmhcxyIeqsDgj8xV/wAM6u+geJdP1JCf9HmVmA7r0YfipI/GtT4meX/wsTWvJxt8/nH97aM/rmuWoA+ywQQCOhoqtpn/ACCrT/rin/oIqzQAUUUUAFFFFABRRRQAUUUUAFFFFABRRRQAUUUUAFFFFABRRRQAUUUUAFFFFABRRRQAUUUUAFFFFABRRRQAUUUUAFFFFABRRRQAUUUUAFFFFABRRRQAUUUUAFFFFABRRRQAUUUUAFfJ3i/SH0LxZqVg6lRFOxTPdCcqfyIr6xry74xeB5Nasl1zToy93aJtnjUcyRDnI9SvP1B9gKAPB1do3DKSrKcgg9DX0r8P/H9n4t0qGKWZI9XjXE0Gcb8dXUdweuB06emfminxSPDIskTsjqcqynBFAH2RXLeN/HFh4O0t5JZElv3UiC2DfMx9T6L6n8BzXz6vjzxOlt5A17UNmMcznP59aw555bmZpZ5HlkY5Z3YsT9SaAHXVzLe3U1zcOZJpnMkjnqzE5J/M1e8N6RJr3iOw02NSTcTKrY7L1Y/goJ/Csuvc/gz4Ik0yA+INRj2T3KbLWNhgrGerEdieMe31oA9YAAAA6CiiigAorG8S+KdN8K6W17qUu1eRHGvLytjoo/r0HcivBvFPxY1/xDK8dtO2nWR+7DbthiP9p+pP0wPagD6GvNX0/Tzi8v7W3PpNMqfzNMtte0m8fZbapYzP/djuEY/oa+RXdpHLOxZickk9abQB9l0V8u+HPiL4h8MyL9mvnnthwba4JdCPQZ5X8MV7x4K8fab4zsyYD5F9GoM1s5yV91P8S+/buBQB1VFFFABRRRQAUUUUAFFFFABRRRQAUUUUAFFFFABRRRQAUUUUAFFFFABRRRQAUUUUAFFFFABRRRQAUUUUAFFFFABRRRQAUUUUAFFFFABRRRQAUUUUAFFFFABRRRQB5f44+DltrM0moaA8dndtkvbsMRSH1GPuk/iD7V47rfhLW/DzsNU024gQHHmlcxn6MOK+sq4r4wf8k01P/ei/9GrQB801raP4Y1nxBIF0rTbi5BON6phB9WPyj8TWTX0l8Gv+Sb2X/XWX/wBDNAGF4I+DMGmSx3/iMx3VyvzJapzEh7bj/Efbp9a9WoooAKhurqGxtJrq5cRwwoZHY/wqBkn8qmrz/wCNGqtp3gR4I2Ie9nSAkH+Hlj/6Dj8aAPFfGniu58X+IJr+YlYFJS2iz/q07D6nqT6n0xXPUV3Xwr8Fx+LNfaW9Xdp1iA8y/wDPRj91PpwSfYY70AYGieD9e8QoZNK0ye4izjzAAqf99HAzV7Vfhv4o0e0+03ekTGELuZomWTb65CkkY9elfTsEMdtCkMEaxxoNqogwFHoAOlS0AfGlX9G1i70LVINRsJTHcQNuRux9QfUEZGPevT/jN4It7BU8Q6bCkSSSeXdRoMLuPIfHbJ4Pvg9c15DQB9aeGfEFv4m8P2uqWvCzr8yZyUccMp+hz+HNa9eOfALVXaLVdKdiUUpcRj0z8rfyWvY6ACiiigAooooAKKKKACiiigAooooAKKKKACiiigAooooAKKKKACiiigAooooAKKKinuYbZN9xNHEn952Cj9aAJaKr29/aXhYWt1DMVHIjkDY/KrFABRRRQAUUUUAFFFFABRRRQAUUUUAFFFFABRRRQAUUUUAFFFZPiDxHp3hjTmvdVuBDEDhR1aQ+ijuf8nAoA1q4f4wSIPhxqKF1Ds0W1SRk/vF6eteZ+KPjNrerO8OkH+zbTOAUOZmHu3b8PzNefXN3cXsxmup5Z5W6vI5Zj+JoAhr6M+Dd3bnwDZ2wuIjcLJKWiDgsBvPUda+c6fHI8Th42ZHB4ZTgigD7Ior5t8M/FnxB4fdI7ic6jZg8xXDZYD/ZfqD9cj2r3Lwr4y0rxhY/aNNmPmoB5tu/EkZ9x3HuOPxoA6CvJ/j6jnQ9KcfcFywPPcrx/I16nPPFawvNPIkUUY3M7tgKPUk9BXhfxW+Iun+JbddH0qPzreGYSNdtxuYAj5B6cnk9ew70AeW17l8ApYjomrRAjzluEZh32lcD9Qa8Nrp/AfjGbwZry3gVpbSUeXcQqcFl9R7g8/mOM0AfUlFZuieINM8Q2S3WlXcVxGRyFPzL7MvUH61bvL620+2e4vbiK3hQZaSRgoH4mgDk/i1LFF8N9UEwB3+WqD/a8xcfljP4V8z16H8U/iBF4su4rDTC39mWrFg5BHnP03Y9AMgZ55J9q88oA9Q+AqMfF184+4tiQefV0x/I173Xk/wI0RrbRr/V5UIN1IIoiR1ROpH1Y4/4DXrFABRRRQAVU1NmTSrt0YqywuVIPIO04q3VTVv+QPe/9e8n/oJoA+W/+E38Tf8AQwap/wCBT/410PgPxZr99450i3uta1CaGScK8clwzKwweoJ5rgq6b4b/APJQ9E/6+R/I0AfUtFFFABRRRQAUUUUAFFFFABRRRQAUUUUAFFFFABVTUdQttJ0+4vr2URW8CmSRz2H+Pt3NW68m+POryW+kadpcbYW6kaWUA9QmMA+2Wz+FAHK+KvjLrGrzSQ6Kx02yzgMoHnMPUt/D9B+Zrz25vLi9lMt3cTTyHq8jlifxNQ10HhTwfqPjLUTa6cqKkYBmmkOEjB6Z9TweB6UAd5+z/wD8hXWf+uEf/oRr1TxnczWngvWLi2leKaK0kZJEO1lIXggjoazPA3w9svBMczwXE1zdTqFlkbCqceijoM56k1f8ef8AIh67/wBeUv8A6CaAPm//AITfxN/0MGqf+BT/AONdz8IfEms6p43W31DVr66h+zyN5c07OuRjBwTXlVehfBH/AJKAv/XrL/SgD6JooooAKKKKACiiigAooooAKKKKACiiigAooooAzde1q08O6PcalfvthgXJA6ueyj3J4r5i8VeKb7xbq8l/fuQOkUKsSkS+g/qe55rt/jh4ma+1yHRIJM21moklAPDSMMj8lI/M15ZQAUVo6Jol94h1WHT9NhMtxL07BR3Zj2A9a9+8K/CXQtBgSS+gTUr3ALSzrlAf9lDxj3OT9KAPnCivsMafaCHyhaQCP+4Ixj8q5LxL8KvDviGF2itU0+7P3ZrZQoz7oOD+h96APmmr+ja1e+H9Ui1DTZjDcRHgjoR3BHcH0q14n8M3/hXV5NP1FBvUBkkX7sin+JT6dvYjFY1AHXeMfiLq3jFxHOwtrEEFbWJvlz6sf4j9eB6VyNT2dpPf3kNraxtLPM4SNF6sx4Ar3DwP8HLbTPLv/EgS6vAQyWw5ij/3v75/T60AeMz6DqVrpMGp3FlPHYzsVinZCFY4/r2PfBxnFZ1fYF7p1pqNhJZ3kEc1tINrRsuQR/n8q8c8UfA25ikkuPDNws0R5FrO2119lbofxx9TQB5PBczWsgkt5ZIpB0ZGKkfiKdc311ekG7uZpyOhlkLY/OtW+8FeI9Ocrc6JfrjPzLCzrx7jIqK08Ka9fMFttG1CTd0It2x+eMUAZFb3hHwnfeL9ZjsrNCIlwZ5iPliT1Pv1wO59s11/hz4I6xqEiya3ImnW/dAQ8rfQDgfUn8K9p0Dw7p3hnT1sdKt1hhByx6tIfVj3P+eKALOl6db6PpltYWabLe3QRxr1OB6+p9/WrlFFABRRRQAVU1b/AJA97/17yf8AoJq3VTVv+QPe/wDXvJ/6CaAPj+um+G//ACUPRP8Ar5H8jXM103w3/wCSh6J/18j+RoA+paKK434h+PrfwZpZSEpLqkw/cQn+Ef329h+p49cAG/qviPSNC2/2pqNtalhlVkkAY/QdTWX/AMLJ8Jf9B20/M/4V8y6hqFzqd7Ld3s7zXEzFndzkk/57dqfpemXes6hDY6fA01xM21EX9eew9z0oA+oNN8beH9YvY7PTtUhuLh8lY0BJOBk9q3q5PwH4GtPBmkhAFl1GYA3NxjOT/dX0Ufr1Pt1MkiRRtJIwRFBZmY4AA9aAH1z2u+PPDvhx2j1HU4lnHWGPMjj6gdPxxXkvj/4t3mrXEun+HZnttPXKtcJ8sk/0PVV+mCe/pXmJYsSSSSTyTQB75P8AHfw9HJtis9SlX+8I0H82q5p/xr8LXrqs73dmT1M0OQPxUmvnWigD6/07VbHWLUXGnXcN1Cf4onDfgcdD7Go9U17TNEER1S/t7MS58szSBd2OuM+mR+dfKuja5qPh++S80u6kt5l7qeG9iOhHsa6fx148XxvoukCaHyb+0aQTqv3HyEwy+n3TwenqaAPdP+E88L/9B/Tf/Aha0tL1ew1mBp9MvILuJG2M8LhgG4OOO+CPzr5Br3z4Cf8AIn3/AP1/N/6LSgDvNY8Q6V4fjifVr6G0WUkR+YfvYxnH5ivEPjL4j03xDqumnSruK6ihgYM8eeGLdPyA/Oui/aC/489D/wB+b+SV4pQAV7R8IvEfhzw34WmGoanb297c3Bd1fO4KAAo6fU/jXi9FAH1ro/inRvEEksek6hDdPEAziPPyg/Wq3jz/AJEPXf8Aryl/9BNeX/s//wDIV1n/AK4R/wDoRr1Dx5/yIeu/9eUv/oJoA+U69C+CP/JQF/69Zf6V57XoXwR/5KAv/XrL/SgD6Joorzr4mfEn/hE1Gm6WUk1SZdzMeVt1PQkd2PUA/U8YyAdvqes6do0Pm6nfW9oh6GaQLn6Z6/hWF/wtHwh5vl/23Du9fLfH57cV803+o3eqXT3V/cy3M79ZJGLE/n/KrWg6DfeI9Wi0/TITJNJ1J+6i92Y9gP8A63JoA+otM8TaPrcxh0zUra7lC7ykUgYgep9OorVrn/B/hKx8IaLHZ2iq0zgNcTkYaV/X2HXA7fUmti+vbfTrKW7vJVht4VLPI3RRQBYrltZ+JPhjQnaO51SOWZesVuDKfxxwD9SK8b8c/FTUfE8slpp7yWWldBGpw8vu5HY/3Rx65rgaAPfZfjz4fRyEsNTdezbEH/s1aem/GTwpfuEkuZ7NjwPtEWB+a5A/HFfN9FAH2LaXlvf2yXFnPFPC4yskTBlP4iqOpeJdG0a4WDU9TtLSVl3hJpQpK9M89sg/lXzF4d8War4WvBcaVctGM5eI8xyf7y9/r1HYitT4heLIPGWpWGoRRNDKtmsU0Z5CuHY8HuCCD+NAHv3/AAnnhf8A6D+m/wDgQtH/AAnnhf8A6D+m/wDgQtfKdFAEtxcS3UzTTuzyN1Ynk9v6VFRRQB7/APBHw9HYeF31eSMfab9yFYjkRKcAfiwJ9+K9MrlfhnIsvw60YqcgQlfoQxB/UV1VABRRRQBwXxg8PR6z4LnvFQG6079/GwHOz+MfTHP4CvnGvrLxfLFB4N1mSYAxiymyD3yhGPx6V8m0ATWlzJZXkF1CcSQSLIp9CDkfyr7AtZ1urWGdfuyoHH4jNfHNfXPhtHj8MaUkn31s4Q3PfYKANKiiigAooooAKKKKACiiigAooooAKqat/wAge9/695P/AEE1bqpq3/IHvf8Ar3k/9BNAHx/XTfDf/koeif8AXyP5GuZrX8LavFoPiWx1OeNpY7WTzCiHBbg8fnigD6O8b+NLTwZozXM2JLuXK20GeXb1Poo4yfw6180avqt3rmpz6hqExluZ23Ox/QD0AGBirXiXxHfeKtZm1LUHBd+FQfdjUdFHt/M5Pesy2tpru5jt7aJ5ZpWCoiDJYnoAKAJbGxudUvobOyiaa4mbaiL1Y/5719HfDzwBB4M00vKVl1ScDz5QOFH9xfb37nn0Ag+HPw6t/CFmLu8CzavMv7x+ohB/gX+p7/Su6oAK8m+N3i1rOxi8P2cmJbpfMuiDyI+y/wDAiD+A9DXrNfKHjPV213xfql+TlZJ2WPn+BflX9AKAMOr+j6Lf69fx2Wl2z3Fw/RVHQepPQD3NUQCxAAJJ7Cvp34d+DYPCXh2JGjX+0LhVkupCOdx/h+i9Prk96AOH0b4CK0KvrmqOJCMmK0UYX/gTdfyrRufgHozQkWuqX8cv96UI4/IAfzr1SigD5j8YfDbWPB4M84S6sS2Bcw5wP94dVP5j3rkK+xri3iureSC4jWSKRSjo4yGB4INfMHj/AMLf8Ij4quLGPcbVwJrZj1KHt7kEEfhmgDmK98+An/In3/8A1/N/6LSvA698+An/ACJ9/wD9fzf+i0oA7HxP4O0nxelumrRyuLYsY/LkKY3Yz069BXifxZ8H6V4Ru9Ni0mOVFuEdn3yFuhGOv1NfRVeI/tAf8hLRf+uMv81oA8ir1r4W/D7QvFfhie91WKZ50umiBSUqNoVT0HuxryWvoD4Ef8iRdf8AX+//AKAlAHUeGfA2jeEZriXSYpUadQr75C+QOR1+tSePP+RD13/ryl/9BNb9YHjz/kQ9d/68pf8A0E0AfKdehfBH/koC/wDXrL/SvPa6XwJ4nh8I68+pywPOy27pHGpxuc4xk9h155+lAHvnj3xvaeDNIMrFZb+UEW1uT94/3j6KP16V8039/c6rfTXt7KZbmdi7u3Un/Pap9c1u98RatPqWoy+ZPKecfdUdlUdgKh0zTbrVtQhsbCFpriVtqIo6/wCA9z0oAfo+kXmu6pBYafCZbiZtqjsPcnsB1zX0p4I8EWXgvSxDBiW7lANxcYwXPoPRRzx+PWofAHgS28GaWAwSXU5xm4uAP/HF/wBkfqeT2A66gArw342eMGu9RXw7aPi3tsPckH78h5C/QAg/U+1e13t0ljYXF3L/AKuCNpG+ijJ/lXyJqN9LqWo3N7cMWluJWlcnuWOT/OgCtWz4d8Lar4pvha6TbGVhgvIeEjHqzdv5nsDVDTbCfVNStrG1XdPcSLGgPTJOK+qPC/huz8K6HBp1kgwgzJJjBlfux+v6DAoA870v4BWghB1bVp3lI5W2QKqn6tnP5Cnah8ArBoT/AGZq11HKBwLhFdT+QGP1r1uigD5S8UeDdX8I3Yh1SACNyRHPGd0cn0P9Dg+1YNfXWuaLZ+INIn07UIg8Ey4Pqp7MPQg18ra/o0/h7XbzS7nmS2kKZxww6hvoQQfxoAzqKKKALur6XcaLqctjdoUmixuUjplQR+hFUq9l+OfhVi8HiK1QkYEF3gdP7jf0/wC+a8aoA9m+CHi+GOOXw5eSBHZzLalj97P3k+vGffJr2WvjiOV4JFkjdkkQhlZTggjoQexr1nwv8cprW3S28R2r3W3AFzBgOR/tKeCfcEfSgD26iuDHxn8ImPcbq5Bx9027Z/wrlPE/x182B4PDdnJGzDH2m5xlfogz+ZP4UAaHxr8XRWuk/wDCO2sqtdXJD3IBzsjByAfQkgHHoPcV4XU1zczXlzJcXMrSzysXeRzksT3JqGgC5pNi2p6vZ2KkBrmdIgScY3MB/WvryKNYY0jjGFRQoHoBXxvXpvgX4v3uieXY68ZL2wGFWXOZYR/7MB6Hn0PagD36iub1bx5oWleHF1k3qT20vEAhOWlb+6B2PrnGO+K8O8U/FPX/ABHM6Q3DafZHhYLdipI/2m6k/kPagD6Hu9b0uwfZealZ27/3ZZ1Q/qagtfFGh3xAtdY0+Vm6KlyhJ/DNfJZYuSWJJPUk9abQB9lgggEcg0V8q+HvHGveGZVOnX0nkg828h3xN/wE9PqMH3r3jwL8RLDxpbmLH2XUo1zJbFvvD+8h7j9RQB2VFFFABRRRQAVU1b/kD3v/AF7yf+gmrdVNW/5A97/17yf+gmgD4/p6I8h2opY4zgCmV03w5APxA0YEAhrgAg+mDQBzNdj8MfE1l4Y8VxT6hDG0Ey+SZ2HzW+f4h7dj7H87nxU8C/8ACKayLyxjxpd4xMYH/LF+pT6dx7cdq4KgD7JV1dAykMpGQR3p1eQ/Bvx59phTw5qkv72Jf9Ckc/eUf8s/qO3tx2FevUARXJItZSCQQhwR24r46JJJJOSe9fZEiCSNkbOGBBxXx9f2r2OoXFpIMSQStGwPYqcf0oAu+Fokm8WaPFIoZHvYVZT3BcZr62r49028fTtTtb2L79tMkq/VSD/SvrmwvodT0+3vbV98NxGsiN6gjNAFmiiigArxj9oC2UPolyMbiJoz7gbCP5n869nrwD44a3HqHiqCwgYMunxFXI/vvyR+AC/jmgDzOvfPgJ/yJ9//ANfzf+i0rwOvfPgJ/wAiff8A/X83/otKAPT68R/aA/5CWi/9cZf5rXt1eI/tAf8AIS0X/rjL/NaAPIq+gPgR/wAiRdf9f7/+gJXz/X0B8CP+RIuv+v8Af/0BKAPS6wPHn/Ih67/15S/+gmt+sDx5/wAiHrv/AF5S/wDoJoA+U6ekbSZ2KW2jJwOg9aZXbfCO3iu/H1tb3EYkhmgmSRGGQymNgQfagDia9E+DniPTtE8TPb38MavfKIYrpusbZ+77Bjjn1ArG+IHg2Xwb4geABmsZyXtZD3X+6fdc4/I965SgD7Lorzr4UePf+Ek0z+zNRlzqlov3mPM8Y4DfUcA/gfXHotAHP+PHaPwJrjKSD9jkGR7qRXypX1r4qsjqXhTVbRQS81pIqgd22nH64r5KoA7j4PQpN8R7AuufLSV19jsP+NfSdfKvgTXE8O+MtO1CZisCSbJT6Iw2k/hnP4V9UqQ4DKQQehB4NAC0UUUAFfPfxztkh8cxSr96ezR2+oZl/kor6Er5m+KmvJr/AI5u5IH329qBbRsDkEL1I9txNAHG0UUUAfYl7ZwahZy2t3GstvMpSRGGQwPavm7x/wDD+88Hai0kavNpcp/c3AH3f9hvQj17/mB9MVDd2kF9ayW93Ck0Eq7XjkG5WHuKAPjqivbfFHwMhuHe58N3KwEnP2W4JK/8BbqPoc/UV5jrfgfxB4dRpdT0yaKBTgzLh09PvDgfjigDAooroNC8DeIPEcSy6Zp0ktu5IEzMET0PJ6/hQBz9dT4H8DX3jPUxHEDFYxn/AEi5K8KPQerH0/E16D4Z+BccbLP4kuxLjpbWxIB/3nPP4DH1r1mxsbbTbSO1soI4LeMYWONcAUAeKeN/gzPp6PfeGfMurdRl7VjmVR3Kn+L6dfTNeUurRuVYFWHBBHIr7Jryb42+HdIh0NdaW28rUXnWLzI+BJkE/OO5wp54PuaAPDtxwBk4Hakortvhf4Ni8W+Im+2gnT7NRJMB/GSflTPYHBP0BoAx9D8E6/4jQSaXps00OceacIn/AH02AfwzV7VPhl4r0mAz3GkySRKMloHWTH4Kc/pX03BDHbQpDDGscSKFVEGAoHQAdqkoA+NDkcHqKt6df3Ol38N5ZStFcQNvR1OCD/h7d+letfGjwRbw23/CSadEIn3hbxFHytu4D+xzgH1yD1znxqgD6u8G+JYvFfhq11OMKsjDZMg/gkH3h/X6EVu14j8A9VdNR1PSmJKSRC4UdgVO0/mGH5V7dQAUUUUAFVNW/wCQPe/9e8n/AKCat1U1b/kD3v8A17yf+gmgD4/rpvhv/wAlD0T/AK+R/I1zNdN8N/8Akoeif9fI/kaAPpTXtEtPEWj3Gm3yboZ1xkDlT2Ye4PNfLfiTQLvwzrlxpt8v7yE/K+OJFPRh7Efl0619a1xHxN8Dr4u0PzbVQNUtAWgbvIO6H69vQ+gJoA+cLe4ltbiOe3kaOWNg6Op5UjkEV9MfDvxtH4x0JXlKLqNuAlzGO57OB6H9DkV8yOjRuUkUqynBUjkGtfwt4ju/CmvQalZHLJ8skZOBIh6qf88EA9qAPrKvnX4yeG20fxi99GhFrqQ84EDgSdHH1zg/8Cr3nQ9ZtPEGkW+pWEm+Cdcj1U91PoQciqPjHwtbeLtAl065ISTO+CXGfLkHQ/Tkgj0NAHynXpPwz+Jo8NKuk6wXbTGbMcoG5rcnrx3Xvgcg8jPSuG1nRb7w/qUthqdu0FxGeQRww9Qe4PqKz6APsDTdSs9WtFutPuYbmBujxOGH6dD7VaJCgknAHc18e2t9d2Dl7O6mt3PVopCh/SrN34g1e/i8u81W+uI/7stw7D8iaAPdvHfxW0/w9ayWmjzxXmqMMAoQ0cPuxHBP+yPxxXz7c3M15cS3FxI0k0rF3djksx5JPvUVXptKvLbTLbUZoWjtrl3SF2/jK43Y9uRz60AUa98+An/In3//AF/N/wCi0rwOvfPgJ/yJ9/8A9fzf+i0oA9PrxH9oD/kJaL/1xl/mte3V4j+0B/yEtF/64y/zWgDyKvoD4Ef8iRdf9f7/APoCV8/19AfAj/kSLr/r/f8A9ASgD0usDx5/yIeu/wDXlL/6Ca36wPHn/Ih67/15S/8AoJoA+U67r4Nf8lIsv+uUv/oBrha7r4Nf8lIsv+uUv/oBoA9z8YeFrXxfoM2n3IVZPvQTEZMUg6H6diO4NfL2p6dc6RqVxYXsZjuYHKSKfX/DvnuDX1/Xmfxd8Cf25px1vT4s6haJ+9RRzNGP5leT7jI9KAPDdL1K60XVLfULGUxXMDB0YfyPqCMjHcGvqDwh4ptfF2gw6jbELJ92eHOTFIOo+ncHuDXylXU+AfGU/g3X1uBl7KbCXUX95fUe46/mO9AH1FXy58Q/DbeGPGF5ahcW8rGe3IHGxjnH4HI/Cvp2zvINQtIrq0lWWCZQ8bqchgehrlfiN4ITxlom2Damo22Xt5G/i9UPseOexAPrQB8yV658OPi3FpdnDo/iJn8iMbYLsZbYvZXHXA6AjoMDGOa8qvbK40+7ktbyF4biJtrxuMFTUFAH2FY6jaalbrPY3MNzEw4eJww/Sn3N3b2UJmup4oIlHLyOFUfia+P4Lma2fdbzSRN6oxU/pS3F3cXT7rmeWZs9ZHLH9aAPYviH8XoHtpdL8MzF2cbZb1RgAdwnv/tdu2eo8Xoq5eadc2EVtJdQmIXUXnQhhgsmSA30JU49evSgCnRRRQB9l0UUUAFcT8YP+Sa6n/vRf+jUrtq4j4wOo+G+oqWUMzRbQT1/eL09aAPmuvpL4Nf8k3sv+usv/oZr5tr6Q+Dbqfh1ZqGUsskuQDyPnPWgDu6KKKACvLvj3Gx8Kae4B2LegE+mUbH8jXqNcn8TtEbXfAl/DEm+eAC4iGMnKHJx7ldw/GgD5gr2r4ASx/Zdai48wPExHthh/jXitdH4J8WXHg7xBHqESebCy+XPFn76H+oIBH09KAPqiisrQvEul+JLMXOk3kc64+ZAcOnsy9RV68vbbT7Z7m8uIreBBlpJWCqPxNAHM/FGWKL4c6uZsYaNVUE/xF1A/XB/CvmGvSPin8RI/FMyaXpZP9mQPvaU8ee+MA47KMnr1zn0rzegD0b4HKzeO5GAJC2chJ9PmUV9C1498BdEeODUtakGFkItosjqB8zfrt/I17DQAUUUUAFQXsLXVhcQKQrSxsgJ9xip6KAPCv8AhQOr/wDQWsP++X/wrV8L/BrUtA8TWGpzalaSR20okZEVsn6Zr2CigAooooA8v8cfCBfEettqelXcNpLNzcRSIdrN/fGOhPGR+PWua/4UDq//AEFrD/vl/wDCvdaKAPP/AIeeCNd8FXM0M+pWtzp043PCoYFH7MufXofXj0r0CiigDE8SeEdJ8WWQt9Vt95X/AFcyHbJGfZv6HI9q8f134GazZSM+jXEN/D2VyIpB+fyn65H0r3uigD5YuPh54qtjh9Cvj/1zj3/+g5qSy+G3iy/cLHol1HnvMBEB/wB9Yr6jooA8h8KfA6K3kjuvE1ws7Kd32SAnZ/wJup+gx9TXRfET4ez+LrTS7bTJ7azisQ4CMpC4IUAADoBtrvKKAPCv+FA6v/0FrD/vl/8ACvR/hz4PufBeh3Fjd3MNw8twZg0YIABVRjn/AHa66igArz/4lfDy88b3VhLaXlvbi2R1YSg85IPb6V6BRQB4V/woHV/+gtYf98v/AIV6T8O/CNz4M0CbT7u4huHkuWmDRggYKqMc/wC6fzrrKKACs7xBpja14fv9OWURNdQPCHIyFyMZxWjRQB4l/wAM/wB5/wBB2D/wHP8A8VW/4K+Elx4T8TW+qyarFcLErqY1hKk7lI65969OooAKKKKAPIvFXwS/tPWp73Rb2C1huGLNbyocIx67SOxOTjt9Kx/+FA6v/wBBaw/75f8Awr3WigDi/h74W1rwhZS6fqF/bXdlndAEDbomPUc9j1x6/Wu0oooA5fxd4B0fxhDm9iMV2oxHdRcOPQH+8PY/gRXkWs/BPxHYSMdOMGowjkFHEb/ird/oTX0LRQB8qy+AfFMLANoGoEn+5AW/lVzTvhf4s1KQKmkTQKer3JEYH4Hn8ga+nqKAPLvB3wXs9JmjvNfljv7lDuWBB+5U++eX/HA9jV3x/wDC+bxnrcF9BqMVosNuIBG0JbozHPX/AGsY9q9EooA8S/4Z/vP+g7B/4Dn/AOKo/wCGf7z/AKDsH/gOf/iq9tooAKa7LGhZmCqBkknpTq8h+NfjN7aNfDlhJteZA94wPIQ/dT8ep9sdiaAK/jn40OJZbDwswAXKvfMM5/65g/8AoR/Ad68kv9SvNUuTcX9zNczHq8rlj+tVauabpl7q92trp9rNcztyEiQsf06D3oAp1Ysr+7064E9jczW0y9HhkKN+YrsR8HfGBt/N/s+IN/zzNwm7+eP1rlNU0bUNEujbapZzWswGQsq4yPUeo9xQB6n4I+M8yTRWHihlkibCreqMFD/tgdR7jkdwetezo6yRq8bBkYZUg5BFfG9ey/BTxq7Snw3fylhtL2TMemOWT6YyR9D7UAezUUUUAfOnxQ8Ay+GNWk1CyiP9k3LkoVHEDHqh9B6H047V5/X2LeWdvqFrLa3cKTQSrteNxkMPevHfFPwNkEr3Hhi4Uoefslw2CP8Adfv9Dj6mgDyCGaS3lWSGR43Xo6Egj8RT7m+u70g3VzPOR0MshbH51sX3gXxNp8hS40O/yDjMcJkU/iuRUMHhDxDcyCOLQ9SLH1tnH8xQBjVt+FvC994s1mOwsE68yysPliTux/w7niux8PfBLW9Rljk1h49Otjyy5DykewHA/E8ehr2fw74X0zwtpws9KgEcZILuTl5D6se5/QdgKALOi6RbaFo9tptkm2C3QIvqfUn3Jyfxq/RRQAUUUUAFFFFABRRRQAUUUUAFFFFABRRRQAUUUUAFFFFABRRRQAUUUUAFFFFABRRRQAUUUUAFFFFABRRRQAUUUUAFFFFABRRRQAUUUUAFFFFABRRRQAV8leKNUfW/E+pag7E+fcMy57LnCj8FAH4V9Y3CGS3kVfvMpA59q+OmUq7K3UHBoAfBBJc3EcEKl5ZWCIo7knA/WvqTwZ4Qs/B+hxWluitcsoa4uAvzSv3/AAHQD098184eD54bbxlo01zjykvIixPQfMOfw619Y0AFYnirwxYeLNGlsL+MbiCYpguWhf8AvD9MjuOK26KAPj7UbGbTNSubK5G2a3laJx7qcH+VS6Hqb6NrljqEZIa2mWTjuAeR+IyPxrX+I00M/wAQdae3IKfaCuR/eAAb/wAeBrmaAPslXWRA6kFWGQR3p1V9PUrptqrAhliQEH1xVigAooooAKKKKACiiigAooooAKKKKACiiigAooooAKKKKACiiigAooooAKKKKACiiigAooooAKKKKACiiigAooooAKKKKACiiigAooooAKKKKACiiigAooooAKKKKACiiigAooooAK+WfiBob+H/ABrqNoylYmlM0JPQo/zDH0yR9Qa+pq4H4qeBW8WaSt3YoDqlmD5a5/1qd0+vce+R3oA+cunNfQfw7+KFjrenwafrVyltqkYCBpG2rcY6MCeNx7g9TyPQeASRPDI0ciMjoSrKwwQR1BHao6APsoEFQQRg9DXBePvidp/huylttNniutWYFVRGDLCf7znpx/d6n2HNfPIvroQ+SLmYRf3BIcflUFAD5JHlkaSRizMSzMTySa2/BeiP4h8W6fp6glHlDSnHRF+Zv0B/EisNFZ2CqCWJwAOpr6E+E/gJvDOnNqWpR7dTvFA2nrBH12/UnBP0A9aAPRaKKKACiiigAooooAKKKKACiiigAooooAKKKKACiiigAooooAKKKKACiiigAooooAKKKKACiiigAooooAKKKKACiiigAooooAKKKKACiiigAooooAKKKKACiiigAooooAKKKKACiiigAooooA4fxr8L9J8Wl7qM/YtSI/18a5WT/fXv9Rg/WvBPE/hq68K6s+n3ksMki/xQkkH8wKKKAMetbw34eufE+rR2FnJDHI5+9KSFH5A0UUAe9eCvhZpfhSVbydzfaioyJXXCx+6r6+55+ld3RRQAUUUUAFFFFABRRRQAUUUUAFFFFABRRRQAUUUUAFFFFABRRRQAUUUUAFFFFABRRRQAUUUUAFFFFABRRRQAUUUUAFFFFABRRRQAUUUUAFFFFABRRRQAUUUUAFFFFABRRRQAUUUUAFFFFAH/2Q==;base64,/9j/4AAQSkZJRgABAQEAYABgAAD/2wBDAAoHBwkHBgoJCAkLCwoMDxkQDw4ODx4WFxIZJCAmJSMgIyIoLTkwKCo2KyIjMkQyNjs9QEBAJjBGS0U+Sjk/QD3/2wBDAQsLCw8NDx0QEB09KSMpPT09PT09PT09PT09PT09PT09PT09PT09PT09PT09PT09PT09PT09PT09PT09PT09PT3/wAARCADcAdUDASIAAhEBAxEB/8QAHwAAAQUBAQEBAQEAAAAAAAAAAAECAwQFBgcICQoL/8QAtRAAAgEDAwIEAwUFBAQAAAF9AQIDAAQRBRIhMUEGE1FhByJxFDKBkaEII0KxwRVS0fAkM2JyggkKFhcYGRolJicoKSo0NTY3ODk6Q0RFRkdISUpTVFVWV1hZWmNkZWZnaGlqc3R1dnd4eXqDhIWGh4iJipKTlJWWl5iZmqKjpKWmp6ipqrKztLW2t7i5usLDxMXGx8jJytLT1NXW19jZ2uHi4+Tl5ufo6erx8vP09fb3+Pn6/8QAHwEAAwEBAQEBAQEBAQAAAAAAAAECAwQFBgcICQoL/8QAtREAAgECBAQDBAcFBAQAAQJ3AAECAxEEBSExBhJBUQdhcRMiMoEIFEKRobHBCSMzUvAVYnLRChYkNOEl8RcYGRomJygpKjU2Nzg5OkNERUZHSElKU1RVVldYWVpjZGVmZ2hpanN0dXZ3eHl6goOEhYaHiImKkpOUlZaXmJmaoqOkpaanqKmqsrO0tba3uLm6wsPExcbHyMnK0tPU1dbX2Nna4uPk5ebn6Onq8vP09fb3+Pn6/9oADAMBAAIRAxEAPwD2WiiigAooooAKKKKACiiigAooooAKKKKACiiigAooooAKKKKACiiigAooooAKKKKACiiigAooooADRQaKACiiigAooooAKKKKACiiigAooooAKKKKACiiigAooooAKKKKACiiigAooooAKKKKACiiigAooooAKKKKADmjmjmjmgA5o5o5o5oAOaOaOaOaADmjmjmjmgA5o5o5o5oAOaOaOaOaADmjmjmjmgA5o5o5o5oAOaOaOaOaADmjmjmjmgA5o5o5o5oAOaOaOaOaADmjmjmjmgA5o5o5o5oADmjmg5o5oAOaOaOaOaADmjmjmjmgA5o5o5o5oAOaOaOaOaADmjmjmjmgA5o5o5o5oAOaOaOaOaADmjmjmjmgA5o5o5o5oAOaOaOaOaADmjmjmjmgA5o5o5o5oAOaOaOaOaADmjmjmjmgA5oo5ooAKKKKACiiigAooooAKKKKACiiigAooooAKKKKACiiigBKWkpaACikpaACiiigAooooAKKKKACiiigANFBooAKKKKACiiigAooooAKKKKACiiigAooooAKKKKACiiigAooooAKKKKACiiigAooooAKKKKACiiigAooooAKKKKACikooAWiikoAWikpaACikpaACiiigAoopKAFpKKyfEV41jpZuWvVsbaE77i4IBKoOyj+8TgCgDWori0u/E+tQJLaeXoWnkfu3uI/OvJB/eKn5Uz6HJpP7G1aICS38U6kZuuZo43jP1XH8q4MRmWGw8lCpLUpQb2O1ormdI8TTLqCaVr8Udrfv/qJUJ8i7H+wT0b1Q8+ma6auynUjUipRd0yWrC0UlFWAtFFJ3oAWiiigAooooADRSGlNABRRSUALRRRQAUUUUAFFFFABRRRQAUUlLQAUUlLQAUUUUAFFFFABRRRQAUUlLQAUUlLQAUUUlAC0UUUAFFFFABRRRQAlFLRQAUlLRQAlLRRQAlLRRQAUlLVHVZbuK3T7CsZmeRULPyEUnlsd8daALvHSquoajZ6TaPdahcw21unWSVwoz6fX2rz5vHd3HrljqN1K8Wgm3lmaJVBIj5ETyN/fdhwg/vDvWtpWjSandRa74ojEt/J81tZOcxWCHkADoXx1Y9+OMVhVxEKUeeTGk2Jf/Eq0gtGurDSNVvrfcqLMIDFHIzHChN2GYk+grI1S1u7iS1n8QW8upalPKrx6fHcGO1sRnjOPvMO7Hv06Vtac39v3g1+5GbaIsmlQH7qqODOR/ebnHoo465rRWBWnedhljgAn0H/168PNM39i1Thuawh1ZJC03khZsAkdNxOPxNMhleZ5f3ZVEbarE8t6n2FV7e7MmrahbN/yxEbKPZlP9RVPxLoT+INOWyF3NbxlssIm27j6sRycenevmGueolXdr9d7G2y0L+oadZapatBqEEc0BGSH7e4PUfUVy+leO5bRNS0mxafV5bcj7HcSow8tTxidjz8pz7sMd66eysn0/SobOK4llaGMIJpSCxx3NUNG0mSx1G6uJpWle5hjMpYDAcE9PoO9ell2PWEjUSlddCJx5mtBml+KbnQ9QS08V6nbvBc2wuLe7kjEJ3Zw0ZA49CO+OtbH/Ce+Fwf+Q9pw+s4rzv41xq2h6bKQNyzsoPfBH/1qseDtBs4vDOmpPZW7zSIJHZ4lY/McjJPtX1+U1JY2gqj3OPE1VQ3PTNK1/S9baQaXf292Ysb/ACX3bc9M1o1558NLnTbe01fUHuLK2N9fyGOPeqYiT5V4z9fzrtf7b0z/AKCVl/4EJ/jXU1Z2KTui/RVD+29L/wCglZ/+BCf40f25pX/QTsv/AAIT/GkMv0VQ/tzS/wDoJ2X/AIEJ/jR/belngalZE/8AXdP8aAL1Bqvc6haWUayXd1BBG33WlkCg/Qmqh8S6IP8AmM6b/wCBSf40AXrq5gsraS4upY4YIxueR2wqj1JrGPjjwyv3te00fW4WuT+LfijT28C3FrYajaXEt1KkRSGZXO3O4ng+wrkPhlo9s+h3N5dWsMplm2oZIw3CjnGfc1pTpupKxnVqqnHmZ7HY+KNE1S6W20/VbO5nYEiOKUMSB14FawrzDwymmwfErULh2s7OPT7GOBVJWPMjncx+oAxXoA1vSx/zErL/AMCE/wAamUeV2KhLmimaFFUP7c0v/oJ2X/gQn+NSQanY3Mgjt722lc/wxyqx/IGpKLdFVJtVsLeQxz3trFIvVXmVSPwJqP8AtzS/+glZf+BCf40AX6Kof25pf/QSsv8AwIT/ABo/tzS/+glZf+BCf40AXqWqH9t6X/0ErL/wIT/Gj+3NL/6CVl/4EJ/jQBepaof25pf/AEErL/wIT/GrNvcw3UfmW80cqZxujYMPzFAE1FFFABRRRQAUUUUAJS0UUAJS0UUAFJS0UAFFFFABRRRQAYoxRRQAYoxRRQAYoxRRQAYoxRRQAYoxRRQAUhpaRqAPNNY8Hw2njPSs/Z5LS8vGkCNEd8YQNMUBzgruz27kZrrpgtwsiy8rKpVgDzg8H9Kw/GetwQ+JNEhgzNLp8/2i9K8i2hdTHl+wJ35A64GelbuMcV8lxFOUJQjHb9Tejre5z+i389tMnh2aNmubFQBLjCNbDhH/AN7jbj2zXQH9Kx7qC9sNYn1Gxtxew3MaRzW4cJJHsztKE8Ec8rn3qNn1zVW2pH/ZFuerble4b8eVT8Mn3FeXiaaxDVZSSVtX5+hotNB6EL43uQufmsY94/2txx+ma2GZUQu5wo5JrO0zQ4tOmklEskssvMkkjlmY9Bkn0rIPi86Z4jlsL2Mz2kESzS3KL88AJwC6j7y+pHIzzUfV3i6nLR1skF+VanUr8yKwB2t0NHH1P868j0GDX38QTQ2Ot5kvZy8UVlcCZIkLZaVwMqqgdAeSSK9Im8K6mY5G1LxXfNaKC0iwwRwsVA5BYDPQdq9L/Vyq37s1Yn2yR5v8V9VTWNf0/QLRw7xSASlTkCRiBj8BXcrEkMKxrhY40CjnACgYrx/wVbJqHjuF1B8qOR5huOTgZxk9+SK9I8WIbvTLXTVB3anfQ23BwdudzfoK+4yzDxwmH5Y7I8bG3q1YwEPhDw2cltPsuep80f40Dwb4dIyNLtyD3BJ/kaofFzw14d8NeGrb+y9Nit7y4uQodS2QiqS3U+u2mfDOCSPwn5khYiad2QH0GB/MGumjONSVuUzr0Z0ocymym3g3R7TxxCpjhFk1o07QTSDaGztA5PI5/St8eHfDHP8AoOlf99r/AI1zuueG5/GPjK7Im+z2VgqW5kAySwGSqj6nmpP+FU6aR/yEL38l/wAKai7vliE5Jpc1SzN7/hHfC/8Az5aV/wB9r/jTx4V8PsgZdJsmUjgquQR7Gue/4VTpoP8AyELz8l/wrqtB0aPRNOi0+GWSZFckNIeee3HatYQv8UbGNSSS9ybbOOfwLbXnjOW0aec6XaQpJ5RkLFS3SMHsO9dR/wAIp4ehiBfSrFIxwGkwP1J5pdBY3c2q3/X7TeMqH1SMbR/WnaVoVj4v8casNVgF1ZaZDFbxRsxCiRuWOBWUuSlHm5TWLqVp8nNayIT4e8MAE/YtK+u9P8a1rCztrOKO3tIkhtwchEHyjPU15B4rsbN/iJc6bpFukFqLlbZI4ySMjAJ/PNeq6zONN8P30seQIbZkjx6kbF/U1VGopJu1icVRcOWLk3c5jRvCtn4gvLvX9XQzi7ndoISSFCAkBmx1zitt/Bnh1CA+mWqt6M2D/OtDT4k0jR7dHwEs7YM3/AVyf1qDwT4C0fxD4Yt9X8Q2Zu9Qv2adneVxhSx2gYI4xipquFJbXuXTjUryfvWSKo8HeHCQF06zJPQCTJP4ZqvqPgzRRp9xLa232GeGNpUuIWIZCoJz19q8+tIYbr4kiHS1MFr9vJiQMfljVif/AEEV6j4nlePw9dpGT5tyVto/rIwX+WaKbhUi242FVU6NSKUm7nM+FfAti+mQ3+sobu5uV8wI7HainkfUkYP41vt4N8OqcNptopHUM+D+Wav6hcro2h3dxH8os7ZvLA7YXC/0pfDfw48PT+FbG/1yx+0XstuLi4lklfJLDcc89gQKKjhRslG5VJVMQ3LmsZw8G+HWOF020Y+ivk/oayvE/grRl8PXtxaWqWs9vH5qOhODjsfrXG+CYvtnjuA2u6OBZHlwCeEGSB/IV6Z4l/f6bbWPe/u4oSPVQdzfypw5KkG+WxNRTo1VFSbKem+CdEXTLVbjTYpJhCpkdiclsZOean/4Q/w3206z/wC/n/16m8XXhsvCmpSx58yRBDHj1c4GKzfHPgjw94X+Hf2qOxxqRWGITea2d5wWOM49amrOFJ8vLcdCFSsnJya1Lo8HeHWGV0u2YdMqxI/Q1BZ6enhXxroUmiFoItRma2uLYMSjgDO4D2rC+FEEn2DUZ2dtjSLGqnpkDJP6iuw02H+0vinYRlSU0uxe4PoHkOB+OD+lKryOjzWs2VR541+TmbSPSwKXFIKWuE9IMUYoooAMUYoooAMUYoooAMUYoooAMUYoooAMUYoooAMUUUUAFFFFABRRRQAUUUUAFFFFABRRRQAUjUtBoA83u/s3hfU9ZsdciK6bq9w9xFeMPkYuPmikb+Eg9M9sVpeFNROo6N/rVnFtM1stwpyJgnRx+GB+BrsZ4VniaN1RlYYwy7h+XevO9Ih1nwdoyaZd6BcXccLPi709llEm5idxj4YHnpXgZtlzrU5SpK8mzWnOz1NXVtZuLDV7Cys7A3092krCMTLGVCYJJJ471S0HxPeeJLpZLfSZrfTVZg11LIpDsMgBAPvDPccVZ8G2tzf67qetX9hdwRtHFa2a3seyXYATIdvYFiPrisw3R8CNLo9+JI9MDs+n3SxNIPLYkmE7QSGBPGeorknlCp4ROMLz/r8hqp72+h0uoX8Om2U1xcPtjjQsx/p9T0rkrFGtte8P3twBHc3d7KJs9lkj4jP5D8elX7Lw1qfi+BdR1e6u9Kh3B7OziCh1x0km3Agsey9AK2LTwMF1G0ub/V9QvltJfPihl8tU8zGNx2qMkZrqy3KqmF5ZSav1/wAhTnc6K1sbWyDC1toYAxywjjC5PvgVh/EPU/7J8CatcBgGaAxJz3f5f610teXfHbUTD4bsNPjOXu7ncVHUhB/iwr3zI4v4T2JNxqF6RwiLCp+vJ/kK7u2i/tH4kaJanlLC2mvpB2y2EX/GuX0jSvE/gvSre2XT9NmN/dpGhadt5kccAgdgBzV2bxDq3gLxA93rGlWtxqWrIkMEMFzhYo04HOD95j+lbxxNOVHlg7nL7Gft/aS2M/48al5/iHT9PViVtrcyMO25z/gorqPDVmum+H9Pt5AB5UCtJ9cbm/ma4P4laPrS6w3iTWYbSKO5lSNLdJ/MI2qMDoOMDn612DQeMtQ0xhHpukwi5gwp89tyBh6eoBrKjjcPRjzyktdh4qjOqlGKJvDGX0NLpvv3sj3Le+9jj9AKzNe07xdd6rJJpOqQW1nwI495UqMd/lNP0PQvG2iacln5GlXMMefL82dsoPTIHvWf4g8YeIPC93Hbalo9kryLujaN2ZX+nNdEMxwtf3Iz18jleFrQm5JK3mRf2J496HXYufSds/8AoNdpLMdO0ua4lfcbW3Ls5PVgvX86z7VfGd3axznStIty43COaZw4HuBwKj1TRfGWraZcaf8AZ9FhW4HltIk8hIHfqKy/tTBwulU1HLC16jXMkvQt+HIPsegafGwyfKWRvdm+Y/zqlpn/AAlXh271M6QNHnhvbk3Be6L7znoOPSsjwvd+Lpo5tOtbGxvItPc25upnKrleNobPzflXQeV40H/ML0X/AMCXqquYYN2jOdrDhh8RTnKUEcrofgXVLbxXHq2py2rqJWmcRuSSxyRwR6mun8S/voNOsc8Xl9GrD/ZTLH+QqG9uvF1hJZRSaXpDSXs4t4VSdyS2Ccn2wDVfWfCnjzV7uwuEtNNtnsmLx+XcZBY9zn8q1p4mhyfundMboV6lTmqdDb1m1l1DRr+0t3CS3ELRqx6c1Ss9Z8a2GjQ6bbadoiRwQCCNxK+QAuAevWra2HjfaN+iaSW7lbsjJ+lL9g8a/wDQD0r/AMDW/wAKupUo1NWyaVLEUk1FHIeDPA15ournUNSkhLIpWNI23Ek8Zz24/nXS6uRcavotkcH98924/wBmNeP/AB5hVr+zvGrcDRtIQnozXjED8AM1gah4D8dw+JotYgnsr2dBgBX2Ii45QKcfL/8Aro9tThHliN0KtSbnM1vE+mXGs+HbqxtXRZZdpy5wGAbJGR64pt/rfje90i409bDRYEmgMO6OVtyAjbxk46VOtp44IG7w7poP/X7/APXp32Lxt/0ANMH/AG+mipUoVHdsVKniKS5Yo5vwP4MuPD11cXd/JEZ3j8pEiO4KM5JJ/Ctu8xceLtPh4/0S2kuWHozfKn6Zqn4m1bxP4W0j7df6RpkSM4jQi4Mh3HJHy9+lUPh5LdalDqWs38jS3F1Oqbz6KM4HtyOlaU5wdoQIq06ivVqGx4osL/UbSyj06KCUw3S3EiTttVwvQH8azPGUHi/xnZW9rd22l20UMnm/upm+ZsYGc56ZrXlv9YuteutL0LS7a9azijed5pvL2l+QB61N9l8bf9C5p3/gbUVXRlK8mVQWIhBKK0IvCuhHQdFg09pFkmLFpGXoWPYfStL4cIL/AFrxLrHJWW6W1ibsVjHb8TVVNB8ZauPs9xFYaNbuNss0Uhmm29wvYH3rutE0a00DSbfTtPi8u3gXCgnJJ6kk+pPJrGtVjKKhHZG+HozjJzqbs0MUUUVzHYFFFFABRRRQAUUUUAFFFFABRRRQAUUUUAFFFFABRRRQAUUUUAFFFFABRRRQAUUUUAFFFFABQaKKAE/Ck206ikAgFLRQaYCdK8Z+I7f2/wDFrQ9GHKW4TzF+p3t/46BXsvWvFPCz/wBv/GPW9VPzxWvmeWT252L+gNc+KqeyoTn2Q46s67xDdm28TaHPLZ31xZWhmuH+y25l/eY2JnHTALVy2rQ33jH4r6Ze/wBmahFpVsEw9zbtGBtyxzn1auwW/wBd1PVtRt9Dh0r7Np8iwvLePIC0m0M2No6DIrJ8DeNb3xdfX8U9pbww2gH7yFmO9iSB17cH9K8KFXF4bBfArW3v3NbRcjF+KJbV/FHh3Q15Esgkcf77Ac/gDXZa0bq61jR9F0+8lsvtRllmlgxuWKNeMZBHLMorjLX/AInnx2uZRzFpkZAx6qoT/wBCY111tqVlB491W8vbqCKPS9PjgUSSBSWcmRyM+wQU6FBSq0KMldRjzP1YX0bOY0PWtXf4p3eiLqtzeabZiQP9oCkttXByQB/EaZ4uVda+LegaVjdHaKssg/Euf0AqD4PQyahqeua3ODvnkCAn1Zi7f0qx4Q/4nXxY8Rar95LYGGMnsSdg/RTTr8lPE1akElyR6d2C1SudD4o1K5i1eztfM1e3sWheaefTLYySM+QEQtg4GMk/hXJeLPEZ0XSFk03WvFS30jARLqEIjjK/xdUGTXbW9/4h1a+1AaJBpIs7O5NsJLt5N8jKBuPyjHU4rG8T+CdR8UN/xUuq6RYNBARZpbytjeW5Zw+CQQMcVvluHqKEY1acbW36im+zNHwrBNpHw6t2jiaW8+yvdBcZaSV8sM+pyRWPbX872kTXmq+MxclQZVi05dof+ID5OgNaWmHxFpunQ2kmseFLhYE2rLJcSBioHGQOOBUXgbxre+LbvUI5rW3ihtAqrLAzHeScd+2BmuWVKthPaV6lNSTd9R3UrK5reGdIstWvbbWE17UdTNi7okF2FQwSEYO5doIbHrXagVyXhFfP8S+KL1QVia6jtwOxaNAGb8z+lddX0FBp000rX6GT3FooorYQUUUUAFIaWigDzT4weH9d8SW+mWejae1zFEzyysJFUBuAo5I96yPDemeJ9A0SCwPhG4laMszuL2IbiTnpmvYaMVUJuDuiJwjNcsjjvh/pGo2Z1jUdYs/sd3qN1vERdXKxquFGRx612VJS1LbbuykrKwUUUUDCiiigAooooAKKKKACiiigAooooAKKKKACiiigAooooAKKKKACikooAWiikoAWikpaACikpaACiiigAooooAKKKKACikpaAKeqzy2uk3c9vG8s0cLtHGgyzNjgD8a8g+G8N94Whv5NV0DXDc3UinMNmWG0eucdzXtVJisa9GNaDpy2Y07M4fSodRsPhxqt2bG4GqX5ubn7OEPmh5CQgx1yAR+Vcp8N1u/CWj3Meo+H9da6mn8w+VZlhtC8DP5/nXsmKMVNXDwq0/ZS2BOzueKeA4tS0LU9X1DWNA1s3F64KGG0LYGSTn8SK6W5udJvJ2lufBmqTyv96STSgxP1Jr0XHtRiuarltKpU9o7p2toylNpWPO5dduLDSpo/DvhHVllVSURrQQRqT39z7AVgfDv7b4W0u8GpeH9de8uJ/MbyrMsCAOBn6k17HijHtRHLaEabp/zasOZnO+BdPuLDwpbi+iaK9uHkubhW6h3ctg/QED8K878VaXfal8XBqF9oOo3ej2u2MeXamQShVzwOhG4mvZ8UYrucU4uKI6nmm3Qf+hFv/wDwTrVu11QWUTQaD4P1OOeQ5RHs1tot3Ys2eBXf4pcV5/8AZdJv3m36svnZi+FNEl0HREtrmUTXcjvPcyKOGlc7mx7c4H0raoor0kraIgWiiimAUUUUAFFFFABRRRQAUUlLQAUUlLQAUUUUAFFFFABRRRQAUUlLQAUUlLQAUUUlAC0UUUAFFFFABRRRQAlFLRQAUlLRQAlLRRQAlLRRQAUUUUAFFFFABRRRQAlLSUtACUtFFABRRRQAUUUUAFFFFABRRRQAhpaDRQAUlLRQAUUUUAFFFFABRRRQAUUUUAJS0UUAJS0UUAFFFFABRRRQAUUUUAJS0UUAJS0UUAFJS0UAFFFFABRRRQAUUUUAFFFFABRRRQAUUUUAFFFFABRRRQAUUUUAFFFFACUtJS0AFFFFABRRRQAUUUUAFFFFABRRRQAGig0UAFFFFABRRRQAUUUUAFFFFABRRRQAUUUUAFFFFABRRRQAUUUUAFFFFABRRRQAUUUUAFFFFABRRRQAUUUUAFFFFABRRRQAUUUUAFFFFABRRRQAUUUUAFFFFABRRRQAUUlLQAUUUUAFFFFABRRRQAUUUUAFFFFAAaKDRQAUUUUAFFFFABRRRQAUUUUAFFFFABRRRQAUUUUAFFFFABRRRQAUUUUAFFFFABRRRQAUUUUAFFFFABRRRQAfjR+NFFAB+NH40UUAH40fjRRQAfjR+NFFAB+NH40UUAH40fjRRQAfjR+NFFAB+NH40UUAH40fjRRQAfjR+NFFAB+NH40UUAH40fjRRQAfjR+NFFAB+NH40UUAB+tH40GigA/Gj8aKKAD8aPxoooAPxo/GiigA/Gj8aKKAD8aPxoooAPxo/GiigA/Gj8aKKAD8aPxoooAPxo/GiigA/Gj8aKKAD8aPxoooAPxo/GiigA/Gj8aKKAD8aPxoooAPxooooAKKKKACikooAWiikoAWikpaACikpaACiiigAooooAKKKKACikpaACikpaACiiigAooooAKKKKACiiigANFIaWgAoopKAFooooAKKKKACiiigAooooAKKSloAKKSloAKKKKACiiigAooooAKKSloAKKSloAKKKSgBaKKKACiiigD/9k=;base64,/9j/4AAQSkZJRgABAQEASABIAAD/4gxYSUNDX1BST0ZJTEUAAQEAAAxITGlubwIQAABtbnRyUkdCIFhZWiAHzgACAAkABgAxAABhY3NwTVNGVAAAAABJRUMgc1JHQgAAAAAAAAAAAAAAAQAA9tYAAQAAAADTLUhQICAAAAAAAAAAAAAAAAAAAAAAAAAAAAAAAAAAAAAAAAAAAAAAAAAAAAAAAAAAAAAAABFjcHJ0AAABUAAAADNkZXNjAAABhAAAAGx3dHB0AAAB8AAAABRia3B0AAACBAAAABRyWFlaAAACGAAAABRnWFlaAAACLAAAABRiWFlaAAACQAAAABRkbW5kAAACVAAAAHBkbWRkAAACxAAAAIh2dWVkAAADTAAAAIZ2aWV3AAAD1AAAACRsdW1pAAAD+AAAABRtZWFzAAAEDAAAACR0ZWNoAAAEMAAAAAxyVFJDAAAEPAAACAxnVFJDAAAEPAAACAxiVFJDAAAEPAAACAx0ZXh0AAAAAENvcHlyaWdodCAoYykgMTk5OCBIZXdsZXR0LVBhY2thcmQgQ29tcGFueQAAZGVzYwAAAAAAAAASc1JHQiBJRUM2MTk2Ni0yLjEAAAAAAAAAAAAAABJzUkdCIElFQzYxOTY2LTIuMQAAAAAAAAAAAAAAAAAAAAAAAAAAAAAAAAAAAAAAAAAAAAAAAAAAAAAAAAAAAAAAAAAAWFlaIAAAAAAAAPNRAAEAAAABFsxYWVogAAAAAAAAAAAAAAAAAAAAAFhZWiAAAAAAAABvogAAOPUAAAOQWFlaIAAAAAAAAGKZAAC3hQAAGNpYWVogAAAAAAAAJKAAAA+EAAC2z2Rlc2MAAAAAAAAAFklFQyBodHRwOi8vd3d3LmllYy5jaAAAAAAAAAAAAAAAFklFQyBodHRwOi8vd3d3LmllYy5jaAAAAAAAAAAAAAAAAAAAAAAAAAAAAAAAAAAAAAAAAAAAAAAAAAAAAAAAAAAAAABkZXNjAAAAAAAAAC5JRUMgNjE5NjYtMi4xIERlZmF1bHQgUkdCIGNvbG91ciBzcGFjZSAtIHNSR0IAAAAAAAAAAAAAAC5JRUMgNjE5NjYtMi4xIERlZmF1bHQgUkdCIGNvbG91ciBzcGFjZSAtIHNSR0IAAAAAAAAAAAAAAAAAAAAAAAAAAAAAZGVzYwAAAAAAAAAsUmVmZXJlbmNlIFZpZXdpbmcgQ29uZGl0aW9uIGluIElFQzYxOTY2LTIuMQAAAAAAAAAAAAAALFJlZmVyZW5jZSBWaWV3aW5nIENvbmRpdGlvbiBpbiBJRUM2MTk2Ni0yLjEAAAAAAAAAAAAAAAAAAAAAAAAAAAAAAAAAAHZpZXcAAAAAABOk/gAUXy4AEM8UAAPtzAAEEwsAA1yeAAAAAVhZWiAAAAAAAEwJVgBQAAAAVx/nbWVhcwAAAAAAAAABAAAAAAAAAAAAAAAAAAAAAAAAAo8AAAACc2lnIAAAAABDUlQgY3VydgAAAAAAAAQAAAAABQAKAA8AFAAZAB4AIwAoAC0AMgA3ADsAQABFAEoATwBUAFkAXgBjAGgAbQByAHcAfACBAIYAiwCQAJUAmgCfAKQAqQCuALIAtwC8AMEAxgDLANAA1QDbAOAA5QDrAPAA9gD7AQEBBwENARMBGQEfASUBKwEyATgBPgFFAUwBUgFZAWABZwFuAXUBfAGDAYsBkgGaAaEBqQGxAbkBwQHJAdEB2QHhAekB8gH6AgMCDAIUAh0CJgIvAjgCQQJLAlQCXQJnAnECegKEAo4CmAKiAqwCtgLBAssC1QLgAusC9QMAAwsDFgMhAy0DOANDA08DWgNmA3IDfgOKA5YDogOuA7oDxwPTA+AD7AP5BAYEEwQgBC0EOwRIBFUEYwRxBH4EjASaBKgEtgTEBNME4QTwBP4FDQUcBSsFOgVJBVgFZwV3BYYFlgWmBbUFxQXVBeUF9gYGBhYGJwY3BkgGWQZqBnsGjAadBq8GwAbRBuMG9QcHBxkHKwc9B08HYQd0B4YHmQesB78H0gflB/gICwgfCDIIRghaCG4IggiWCKoIvgjSCOcI+wkQCSUJOglPCWQJeQmPCaQJugnPCeUJ+woRCicKPQpUCmoKgQqYCq4KxQrcCvMLCwsiCzkLUQtpC4ALmAuwC8gL4Qv5DBIMKgxDDFwMdQyODKcMwAzZDPMNDQ0mDUANWg10DY4NqQ3DDd4N+A4TDi4OSQ5kDn8Omw62DtIO7g8JDyUPQQ9eD3oPlg+zD88P7BAJECYQQxBhEH4QmxC5ENcQ9RETETERTxFtEYwRqhHJEegSBxImEkUSZBKEEqMSwxLjEwMTIxNDE2MTgxOkE8UT5RQGFCcUSRRqFIsUrRTOFPAVEhU0FVYVeBWbFb0V4BYDFiYWSRZsFo8WshbWFvoXHRdBF2UXiReuF9IX9xgbGEAYZRiKGK8Y1Rj6GSAZRRlrGZEZtxndGgQaKhpRGncanhrFGuwbFBs7G2MbihuyG9ocAhwqHFIcexyjHMwc9R0eHUcdcB2ZHcMd7B4WHkAeah6UHr4e6R8THz4faR+UH78f6iAVIEEgbCCYIMQg8CEcIUghdSGhIc4h+yInIlUigiKvIt0jCiM4I2YjlCPCI/AkHyRNJHwkqyTaJQklOCVoJZclxyX3JicmVyaHJrcm6CcYJ0kneierJ9woDSg/KHEooijUKQYpOClrKZ0p0CoCKjUqaCqbKs8rAis2K2krnSvRLAUsOSxuLKIs1y0MLUEtdi2rLeEuFi5MLoIuty7uLyQvWi+RL8cv/jA1MGwwpDDbMRIxSjGCMbox8jIqMmMymzLUMw0zRjN/M7gz8TQrNGU0njTYNRM1TTWHNcI1/TY3NnI2rjbpNyQ3YDecN9c4FDhQOIw4yDkFOUI5fzm8Ofk6Njp0OrI67zstO2s7qjvoPCc8ZTykPOM9Ij1hPaE94D4gPmA+oD7gPyE/YT+iP+JAI0BkQKZA50EpQWpBrEHuQjBCckK1QvdDOkN9Q8BEA0RHRIpEzkUSRVVFmkXeRiJGZ0arRvBHNUd7R8BIBUhLSJFI10kdSWNJqUnwSjdKfUrESwxLU0uaS+JMKkxyTLpNAk1KTZNN3E4lTm5Ot08AT0lPk0/dUCdQcVC7UQZRUFGbUeZSMVJ8UsdTE1NfU6pT9lRCVI9U21UoVXVVwlYPVlxWqVb3V0RXklfgWC9YfVjLWRpZaVm4WgdaVlqmWvVbRVuVW+VcNVyGXNZdJ114XcleGl5sXr1fD19hX7NgBWBXYKpg/GFPYaJh9WJJYpxi8GNDY5dj62RAZJRk6WU9ZZJl52Y9ZpJm6Gc9Z5Nn6Wg/aJZo7GlDaZpp8WpIap9q92tPa6dr/2xXbK9tCG1gbbluEm5rbsRvHm94b9FwK3CGcOBxOnGVcfByS3KmcwFzXXO4dBR0cHTMdSh1hXXhdj52m3b4d1Z3s3gReG54zHkqeYl553pGeqV7BHtje8J8IXyBfOF9QX2hfgF+Yn7CfyN/hH/lgEeAqIEKgWuBzYIwgpKC9INXg7qEHYSAhOOFR4Wrhg6GcobXhzuHn4gEiGmIzokziZmJ/opkisqLMIuWi/yMY4zKjTGNmI3/jmaOzo82j56QBpBukNaRP5GokhGSepLjk02TtpQglIqU9JVflcmWNJaflwqXdZfgmEyYuJkkmZCZ/JpomtWbQpuvnByciZz3nWSd0p5Anq6fHZ+Ln/qgaaDYoUehtqImopajBqN2o+akVqTHpTilqaYapoum/adup+CoUqjEqTepqaocqo+rAqt1q+msXKzQrUStuK4trqGvFq+LsACwdbDqsWCx1rJLssKzOLOutCW0nLUTtYq2AbZ5tvC3aLfguFm40blKucK6O7q1uy67p7whvJu9Fb2Pvgq+hL7/v3q/9cBwwOzBZ8Hjwl/C28NYw9TEUcTOxUvFyMZGxsPHQce/yD3IvMk6ybnKOMq3yzbLtsw1zLXNNc21zjbOts83z7jQOdC60TzRvtI/0sHTRNPG1EnUy9VO1dHWVdbY11zX4Nhk2OjZbNnx2nba+9uA3AXcit0Q3ZbeHN6i3ynfr+A24L3hROHM4lPi2+Nj4+vkc+T85YTmDeaW5x/nqegy6LzpRunQ6lvq5etw6/vshu0R7ZzuKO6070DvzPBY8OXxcvH/8ozzGfOn9DT0wvVQ9d72bfb794r4Gfio+Tj5x/pX+uf7d/wH/Jj9Kf26/kv+3P9t////2wBDAAYEBAUEBAYFBQUGBgYHCQ4JCQgICRINDQoOFRIWFhUSFBQXGiEcFxgfGRQUHScdHyIjJSUlFhwpLCgkKyEkJST/2wBDAQYGBgkICREJCREkGBQYJCQkJCQkJCQkJCQkJCQkJCQkJCQkJCQkJCQkJCQkJCQkJCQkJCQkJCQkJCQkJCQkJCT/wAARCAJ2BLADAREAAhEBAxEB/8QAHAABAAICAwEAAAAAAAAAAAAAAAYHBAUBAgMI/8QASxABAAECAwMGCQkGBAUEAwAAAAECAwQFEQYHchIhNUGxwRMxMzQ2UWGBkRQWFyJUcXOSshUjMlJVoUJTYtEkQ2Nk4SZFgqKDk/H/xAAZAQEAAwEBAAAAAAAAAAAAAAAAAgMEAQX/xAAkEQEAAgIBBAIDAQEAAAAAAAAAAQIDMRESEyEyBEEUUWEiQv/aAAwDAQACEQMRAD8A+qQAAAAAAAAAAAAAAAAAAAAAAAAAAAAAAAAAAAAAAAAAAAAAAAAAAAAAAAAAAAAAAAAAAAAAAAAAAAAAAAAAAAAAAAAAAAAAAAAAAAAAAAAAAAAAAAAAAAAAAAAAAAAAAAAAAAAAAAAAAAAAAAAAAAAAAAAAAAAAAAAAAAAAAAAAAAAAAAAAAAAAAAAAAAAAAAAAAAAAAAAAAAAAAAAAAAAAAAAAAAAAAAAAAAAAAAAAAAAAAAAAAAAAAAAAAAAAAAAAAAAAAAAAAAAAAAAAAAAAAAAAAAAAAAAAAAAAAAAAAAAAAAAAAAAAAAAAAAAAAAAAAAAAAAAAAAAAAAAAAAAAAAAAAAAAAAAAAAAAAAAAAAAAAAAAAAAAAAAAAAAAAAAAAAAAAAAAAAAAAAAAAAAAAAAAAAAAAAAAAAAAAAAAAAAAAAAAAAAAAAAAAAAAAAAAAAAAAAAAAAAAAAAAAAAAAAAAAAAAAAAAAAAAAAAAAAAAAAAAAAAAAAAAAAAAAAAAAAAAAAAAAAAAAAAAAAAAAAAAAAAAAAAAAAAAAAAAAAAAAAAAAAAAAAAAAAAAAAAAAAAAAAAAAAAAAAAAAAAAAAAAAAAAAAAAAAAAAAAAAAAAAAAAAAAAAAAAAAAAAAAAAAAAAAAAAAAAAAAAAAAAAAAAAAAAAAAAAAAAAAAAAAAAAAAAAAAAAAAAAAAAAAAAAAAAAAAAAAAAAAAAAAAAAAAAAAAAAAAAAAAAAAAAAAAAAAAAAAAAAAAAAAAAAAAAAAAAAAAAAAAAAAAAAAAAAAAAAAAAAAAAAAAAAAAAAAAAAAAAAAAAAAAAAAAAAAAAAAAAAAAAAAAAAAAAAAAAAAAAAAAAAAAAAAAAAAAAAAAAAAAAAAAAAAAAAAAAAAAAAAAAAAAAAAAAAAAAAAAAAAAAAAAAAAAAAAAAAAAAAAAAAAAAAAAAAAAAAAAAAAAAAAAAAAAAAAAAAAAAAAAAAAAAAAAAAAAAAAAAAAAAAAAAAAAAAAAAAAAAAAAAAAAAAAAAAAAAAAAAAAAAAAAAAAAAAAAAAAAAAAAAAAAAAAAAAAAAAAAAAAAAAAAAAAAAAAAAAAAAAAAAAAAAAAAAAAAAAAAAAAAAAAAAAAAAAAAAAAAAAAAAAAAAAAAAAAAAAAAAAAAAAAAAAAAAAAAAAAAAAAAAAAAAAAAAAAAAAAAAAAAAAAAAAAAAAAAAAAAAAAAAAAAAAAAAAAAAAAAAAAAAAAAAAAAAAAAAAAAAAAAAAAAAAAAAAAAAAAAAAAAAAAAAAAAAAAAAAAAAAAAAAAAAAAAAAAAAAAAAAAAAAAAAAAAAAAAAAAAAAAAAAAAAAAAAAAAAAAAAAAAAAAAAAAAAAAAAAAAAAAAAAAAAAAAAAAAAAAAAAAAAAAAAAAAAAAAAAAAAAAAAAAAAAAAAAAAAAAAAAAAAAAAAAAAAAAAAAAAAAAAAAAAAAAAAAAAAAAAAAAAAAAAAAAAAAAAAAAAAAAAAAAAAAAAAAAAAAAAAAAAAAAAAAAAAAAAAAAAAAAAAAAAAAAAAAAAAAAAAAAAAAAAAAAAAAAAAAAAAAAAAAAAAAAAAAAAAAAAAAAAAAAAAAAAAAAAAAAAAAAAAAAAAAAAAAAAAAAAAAAAAAAAAAAAAAAAAAAAAAAAAAAAAAAAAAAAAAAAAAAAAAAAAAAAAAAAAAAAAAAAAAAAAAAAAAAAAAAAAAAAAAAAAAAAAAAAAAAAAAAAAAAAAAAAAAAAAAAAAAAAAAAAAAAAAAAAAAAAAAAAAAAAAAAAAAAAAAAAAAAAAAAAAAAAAAAAAAAAAAAAAAAAAAAAAAAAAAAAAAAAAAAAAAAAAAAAAAAAAAAAAAAAAAAAAAAAAAAAAAAAAAAAAAAAAAAAAAAAAAAAAAAAAAAAAAAAAAAAAAAAAAAAAAAAAAAAAAAAAAAAAAAAAAAAAAAAAAAAAAAAAAAAAAAAAAAAAAAAAAAAAAAAAAAAAAAAAAAAAAAAAAAAAAAAAAAAAAAAAAAAAAAAAAAAAAAAAAAAAAAAAAAAAAAAAAAAAAAAAAAAAAAAAAAAAAAAAAAAAAAAAAAAAAAAAAAAAAAAAAAAAAAAAAAAAAAAAAAAAAAAAAAAAAAAAAAAAAAAAAAAAAAAAAAAAAAAAAAAAAAAAAAAAAAAAAAAAAAAAAAAAAAAAAAAAAAAAAAAAAAAAAAAAAAAAAAAAAAAAAAAAAAAAAAAAAAAAAAAAAAAAAAAAAAAAAAAAAAAAAAAAAAAAAAAAAAAAAAAAAAAAAAAAAAAAAAAAAAAAAAAAAAAAAAAAAAAAAAAAAAAAAAAAAAAAAAAAAAAAAAAAAAAAAAAAAAAAAAAAAAAAAAAAAAAAAAAAAAAAAAAAAAAAAAAAAAAAAAAAAAAAAAAAAAAAAAAAAAAAAAAAAAAAAAAAAAAAAAAAAAAAAAAAAAAAAAAAAAAAAAAAAAAAAAAAAAAAAAAAAAAAAAAAAAAAAAAAAAAAAAAAAAAAAAAAAAAAAAAAAAAAAAAAAAAAAAAAAAAAAAAAAAAAAAAAAAAAAAAAAAAAAAAAAAAAAAAAAAAAAAAAAAAAAAAAAAAAAAAAAAAAAAAAAAAAAAAAAAAAAAAAAAAAAAAAAAAAAAAAAAAAAAAAAAAAAAAAAAAAAAAAAAAAAAAAAAAAAAAAAAAAAAAAAAAAAAAAAAAAAAAAAAAAAAAAAAAAAAAAAAAAAAAAAAAAAAAAAAAAAAAAAAAAAAAAAAAAAAAAAAAAAAAAAAAAAAAAAAAAAAAAAAAAAAAAAAAAAAAAAAAAAAAAAAAAAAAAAAAAAAAAAAAAAAAAAAAAAAAAAAAAAAAAAAAAAAAAAAAAAAAAAAAAAAAAAAAAAAAAAAAAAAAAAAAAAAAAAAAAAAAAAAAAAAAAAAAAAAAAAAAAAAAAAAAAAAAAAAAAAAAAAAAAAAAAAAAAAAAAAAAAAAAAAAAAAAAAAAAAAAAAAAAAAAAAAAAAAAAAAAAAAAAAAAAAAAAAAAAAAAAAAAAAAAAAAAAAAAAAAAAAAAAAAAAAAAAAAAAAAAAAAAAAAAAAAAAAAAAAAAAAAAAAAAAAAAAAAAAAAAAAAAAAAAAAAAAAAAAAAAAAAAAAAAAAAAAAAAAAAAAAAAAAAAAAAAAAAAAAAAAAAAAAAAAAAAAAAAAAAAAAAAAAAAAAAAAAAAAAAAAAAAAAAAAAAAAAAAAAAAAAAAAAAAAAAAAAAAAAAAAAAAAAAAAAANQAAAAAAAAAAAAAAAAAAAAAAAAAAAAAAAAAAAAAAAAAAAAAAAAAAAAAAAAAAAAAAAAAAAAAAAAAAAAAAAAAAAAAAAAAAAAAAAAAAAAAAAAAAAAAAAAAAAAAAAAAAAAAAAAAAAAAAAAAAAAAAAAAAAAJAcB0AAAAAAAAAAAAAAAAAAAAAAAAAAAAAAAAAAAAAAAAAAAAAAAAAAAAAAAAAAAAAAAAAAAAAAAAAAAAAAAAAAAAAAAAAAAAAAAAAAAAAAAAAAAAAANQAAAAAAAAAAAAAAAAAAAAAAAAAAAAAAAAAAAAJBAd4+2t7I67GCwF3k4nWKrmk88Uz4luPHz5lnzZOnxCV7O5zazzKbGNtzry6frR1xKu1emeF1LdUctnq4kAAAAAAAAAAAAAAAAAAAAAAAAAAAAAAAAAAAAAAAAAAAAAAAAAAAAAAAAAAAAAAAAAAAAAAAAAAAAAAAAAAAAAAAAAAAAAAAAAAAAAAA0Gbbb5JkeK+S47FeDu+rkzKdaTOldstazxLD+k/Zj7fP5Jd7Vke/T9n0n7Mfbp/JJ2rO9+h9J+zH26fySdqx3qH0n7Mfb5/JJ2rOd+n7I3nbM1VRTGOnWeaPqSdqx36JRZu037VF2idaa6YqifZKtc7gAAAAAA8MRjbGGp1u3aaY+92I5cmYhrL21WAtaxRXNc+yNHeiUZvDEq2ztxMxThapj18pLoc7jznbOeVzYadPvOhzuO3z0p+y1fmOg7jtG2lHXhKvzHbd7jMy7aO3mOJixTammZiZ11RmvDsX5luUUwAGqubTZbarqoqvaVUzpPNKUVlGbw6/OrLP8APn8snRLnXB86cs/z/wD6ydEnXB86cs/z/wD6ydEnXB86cs/z/wD6ydEnXD1w20OX4q9Fq1d1qnxRoTWYdi0S2SKQAAAAAAAAAAADDzfMrWU5fexl2Yim3TNX3+x2I5nhy1uI5fPOc5nczjM7+Mu1TM11TydeqnXmhsrHEcPOvbqnlL91m0/7OzCrLMRc0s3/AK1Mz1THNEf3V5a8xzC7BfiemVxeLxc7K2OXQAAAAAAAAAAAAAAAAAAAAAAAAAAAAAAAAAAAAAAAAAAAAAAAAAAAAAAAAAAAAAAAAAAAAAAAAAAAAAAAAB0vXItWq65nTSJkJQi7tJmHLrqpvVRTrzQt6YUdcphluJ+V4K1d11mYjX71c+JXVnmGr2nzHE4DwXye5NHKjWdPvSpHKN5mNNTazTOsRbm5aqu1Ux1xCXEIdVmZk+0t6rERh8bHj5oq69UbV/Ttb/Ut9mmKnB4C9eidKqadYRiOZWWniEPt7R5jN2iZvVcmao1+7VZ0wp65Tezdi9bpuUzrFUawqle0+0Gd1ZdTFqzz3auv1J1ryha3DSRic9qsfKfDXfB+PX2Jf50hzbbb7O57cx9VWHv6cumNYq9aN68JUty8Nps1xeAxNuixdqpiqmZmIdpETBe0xpusrv138BauXKuVXVTrMoTHlONI1czzHxmkWYvVcjwkRp7NVnTHCrqnluNp8ffwGFtV2K5oqqr0nT7kKRyneeIaK1nGcX6ZqtVXa49cRqnxCHVaWblmNzi5jbdN+L3gpnn1jmcmI48O1m3PlKVa0ABSW9WP/UnunuasWmHP7IYtUgAAO9ny1vicl2H0plfRuE/Bo/TDFO3pV0yXHQAAAHFVUUUzVVOkR45kEXzjaiqJqs4P7pr6/csrT9qrX/SOXb92/Vy7tyquqeuVnCvl5gAAAA2+y3S9HDUjbSVNpypXgAK2x3nl7jq7V8aZp28HQAABn5F0paRtpKu1gqV4AAAAAAAAAABr1gqXertV8rvxk+Gr/d2p1uzE/wCKOr4S0YqfcsmfJ/zCuV7M72btdi9RdtzpXRVFVM+2HCF9bD7R0bQ5Pbrqqjw9qOTcjr1jrZMlOmXoYr9UJGgsAAAAAAAAAAAAAAAAAAAAAAAAAAAAAAAAAAAAAAAAAAAAAAAAAAAAAAAAAAAAAAAAAAAAAAAAAAAAAAAAAavaLE/J8suaT9armhKseUbz4RfC4HwuS4i9Mc9NyJifZosmfKqI8N7shivCYKqzPjomZQvHlOk+GNtl/wAj7p7XaOZGVstXRRlVXLqiPrz45RvtKmkdxVVF7OYmxz0+Ep00+9ZGlU7b/a3ETbwNu1rz1zpVHsQpHnlZefHDSYjAzbyWxiNPrRVOs+/mTifKEx45SjZzEeHyu1GvPRTFMq7R5W0nwje0lybmc8nq+rCddK77S6jDxXl0WI5omjkqvvlbx44ajLNm72Ax1OIm/TVTE/wxCdrcwhWvEtftl57Z4J7UqaRybbLK8+wFjA2rVy/FNdNOkwjNZ5SraOEdmum7m9NyidaZuRpPvT+lc7SDbPzKx+J3IUWZNMfZnMcJhMJNF+7TRVM+KXbxMuUmIb3D5pgsTci3ZvU1V+qEOmYTi0SzHEgAFJb1fST3T3NWLTDn9kMWqQAAHez5ajicl2H0plnRuE/Bo/TDFO3pV0yXHQAAAEZ2qzWaI+R2a9JmPrTHqTpCrJb9IqtVOR1wAAAADb7LdL0cNXYjfSVNpypXgAK2x3nl7jq7V8aZp28HQAABn5F0paRtpKu1gqV4AAAAAAAAAACPba7SW9ncouXeVE3rkTTbp65TpTmVeS/TChL1+5iL1d67VNddc61TPW1sEzy83XAEh2I2lr2bzmi5VVPya7pRdj2IXr1QsxX6ZX5h79GJs0XrcxNNcRMTDHxw3xPLuOgAAAAAAAAAAAAAAAAAAAAAAAAAAAAAAAAAAAAAAAAAAAAAAAAAAAAAAAAAAAAAAAAAAAAAAAAAAAAAAAIttlidZs2KZ541mVlFWSXhhc5y+zk04OrwnhpomJ+pzakxPPLkWjjh57J4nwOYVWtea7EUw7ePBSfLN2y/5P3T2uUdyNblmQ4jMcN4a3dmmjXTTV2bcOVrMt9lWzVrAXIvXK5uVx4tY8SFrc+E604aXazE+Hx8W4nmop096dI8IXny9sbnWX38ojB2/CeE0jx0c2rkVnnl2bRMcPbY7E893Dz1/WLwY5+muz6OTnc838qVdI22mtu5FOHi5VzRFOsqp2u+mvw20eCxWLjC2/CeEmZiNaeZ3p4ci8S0e2M/8bZ4Z7U6aV5NsjAbMYfFYS3equ1RVVTrpo5N+J4SikcctLRZixmlFqJ1im5TH90vpX9pFtn5lY/E7kKbWZNNXkmQW80sTdrvV29OqI1StbjwjWvPlvMt2btZdiYv03665iNNJhCb8+E4pw3KKYACkt6vpJ7p7mrFphz+yGLVIAADvZ8tRxOS7D6Uyzo3Cfg0fphinb0q6ZLjoAADpeueCs11/wAtMyEq5xuInF4q7emf4qtYXwzTPMvB0AAAAAAbfZbpejhqQvpKm05VLwAFbY7zy9x1dq+NM07eDoAAAz8i6UtI20lXawVK8AAAAAAAAA8YPHFYq1gsPcxF+qKbduOVVPsIjlyZ4UJtltLd2kza5emZpsW55Nujq5ubX3tlK9McMGW/VLQJqwAHILU3V7W+FonJsZc+vTz2Zqnxx1s+Wn3DXgv/AMyspQ0uQAAAAAAAAAAAAAAAAAAAAAAAAAAAAAAAAAAAAAAAAAAAAAAAAAAAAAAAAAAAAAAAAAAAAAAAAAAAAAAAQTOr3y7OJiNdNYpXV8Qot5lIaNlcByY18Jrp61fXKzohGYicrziNNY5FfN9yzcKtS2+188qjD1ePWlGieRnbI82Vz+JKN9pY9Nzcq8Hbqq9UTKKaB00ftTO+TVryLlz+y7UKN2SK5stgabVUxy+VFM6c/Wh1yn0Q0GSXqsDnFFufHVPIlK0cwhXxLO2swNynFU4ymnWidImY6tHKSlePPJG1NEZb4CbdXheTydeo6PLnX4eWyuCuX8bOKqpmKKOeJ9cu2nwUjy52x88sz/ontKadybSLJujLPBHYrttOukOu82df/ljtW/Smdt/tn5jY/E7kKbWZNNRlO0H7Lw82vBVVzM+OEprzKNbcQ22B2r+V4u3YmxVHLq5OvqRmnHlKL8pEgsAAUlvV9JPdPc1YtMOf2QxapAAAd7PlqOJyXYfSmV9G4T8Gj9MMU7elXTJcdAAAa/Pr02Msu1ROmv1fi7XaNp4hX/sXM466AAA5iJmYiI1mQbPCbOY/FRFU25t0z11R40ZvCUUmWbGxuK+0WvhLnW725ZmT7OYjLsfTfru0VUxExzRKNrcwlWnEpGgsAAVtjvPL3HV2r40zTt4OgAADPyLpO0jbSVdrBUrwAAAAAAAAHGunsBVW9DbGbt6rJcFc+rTzXqqfX6mjFT7lkz5P+YQPEZb8kwVu9eq5Ny5/DR16etbzzKia8QwUkQAAHrhsVdwWIt4ixVNFy3MVRMOccuxPHmF87GbT2tpMqt3JqiMTRGl2n2+tkvTplvx36oSJBYAAAAAAAAAAAAAAAAAAAAAAAAAAAAAAAAAAAAAAAAAAAAAAAAAAAAAAAAAAAAAAAAAAAAAAAAAAAAAAAxoy7CxXy/BU8rXXV3mXOIZLjrHu4DDXrnhK7VM1et3lzh2vYOzfiIuURVFPi1OTh2sWLeHo5FumKafHpDk+XXeYiqJiY1ieYHhbwGGs1xXRaiKo6zmXOIZA6x/2fhvC+F8FTy9ddXeXOIe1dFFynk10xVHqlx1hzkmBmvlzYjXXV3qlHphl27VFqnk0UxTEdUQ4lw6X8FYxMxN23FUx6zlyYelu3TboiimNKY5ogHhOXYabnhJtU8rXXV3k4h6X8NaxNMU3aIqiOeNXIngny8f2Vg/8ml3qk6YdreW4W1XFdFqmKonWJOZOIZLjpIGgK+2y3e4zaPNfllm9FFOkxpzLqZIrHDPkxTaeWh+h7MftVPxhPvQr/Hk+h3MftVPxg70H48n0O5j9qp+MHeg/Hk+h7MftVPxg70H48u1vc/mNFymqcTTzTr44O9Dv48rXwlmcPhLFmeebdumifdGjNLVGnsOgAANPtVVplNftrp7UqbQvpB1ykAAABINk8upxF6rEXI1ij+HX1oXlOlUwiIiNIVLgAAAAETxGyeIu367kXI0qqmY+KyLwqmjz+Z+J/wAyP7O9cOds+Z2J/wAyPjB1u9s+Z2J/zI+MHWds+Z2J/wAyPjB1nbZOXbMX8Ji6L1VyJilybckU4lJ1a0AAAAAAAABEN4G11Gz+AmxZqicXeiYpiOqOvX1LMdOqVOXJ0wqfJcBVjb9eOxlUzatzyq6qv8UtFp48MtI5nmWFmuOqx+Lqr8VFP1aY9kJRHCNp5liOouAAAAbnZbaO/s1mlvFUTM2pnS7R/NShavVHCeO/TPK/ctzGxmmDt4rD1xVRXETzT4pZJjh6EW5jmGUi6OgAAAAAAAAAAAAAAAAAAAAAAAAAAAAAAAAAAAAAAAAAAAAAAAAAAAAAAAAAAAAAAAAAAAAAAAAAAAAAAAAAAAABoAAAAB1g4ByAAAAAAAAAAAAAAAADTbWdE1cVPalTaF9IQuUgAAAJjsf5hVxSqvtbTTfoLAAAAAAAAAAAAAAAAAAAAGr2jz/D7O5Zcxt+rnpj6lHXXPqhKtZtPEI3tFY5lRl6/jdrM5qvXZqqmudeGn1fBq8Vhgnm9mbtDireX4WjLMNOkafW073Kxz5lO88RxCMrFIAAAAACbbutsqsjxcYDFV/8JdnSJn/BP/8AVOSnPmF+HJ0+JXTTVTXTFVM6xPillbXLoAAAAAAAAAAAAAAAAAAAAAAAAAAAAAAAAAAAAAAAAAAAAAAAAAAAAAAAAAAAAAAAAAAAAAAAAAAAAAAAAAAAAAA87t+1ZjW7cooj/VVEHEuctVi9rsmwMzF7GUf/ABnVKKWlGclYYE7ydm6Z0nGVfklLtWR71Xe3vE2duzEU4yef10TDnasd2strhM+y3G062cZZn764iUZrMJxeJ0z6aoqjWmYmPXDiTkAAAAAAAAAAAAAAAAGl2s6Kq4qe1Km0L6QlcpAAAATHY/o+rilVfa3Hpv0FgAAAAAAAAAAAAAAAAAADyxOIt4Sxcv3aopoopmqZmfVBEOTPHlRe2O01/avN5t2Zn5PTVybVP83ta6VisMOS83ln4TDWdncrqu16eFmOefb1OTPMpRHRCHYnEV4u/XeuTrVXOv3LIUzPPl5OuAAAAAAOY8cac0x4pBbG7LbL5VZpyfG3P3tuNLVU9cepny0+4a8OTn/MrGUNLmAAAAAAAAAAAAAAAAAAAAAAAAAAAAAAAAAAAAAAAAAAAAAAAAAAAAAAAAAAAAAAAAAAAAAAAAAAAAARPeFtDjNncut38FyeXVMxOqzHWJlTmvNY5hXv0qZ9/wBP4yu7VWfv2PpVz/8A6fxk7VTv2PpVz/8A6fxk7VTv2PpVz/8A6fxk7VTv2dre9LPq7tun93pVVETzz6ztVO/ZcOVYmvFZdh79z+O5RFUs1ttlfMcvbE4qzg7NV6/cpt26Y1mqrxQ5Hl2Z4VztLvZt2a68PlFuLsxzeFq8X3xovrh/bPfP9VV7me0ub5vNXyvHXrlE/wCCZ5oXRWIZrXtbctXyY110SRc6R6gNI9QObdVVqqK6J5NUeKY6gSXJd4OeZPVTE4mvE2o/5d2eaI9iu2Osra5bQtTZbbrLtpKKbdNUWcTpz2quaZn2M98c1aseWLJNqr5WkS6AAAK12627zTIM6jC4SKJt6T/FMr8eOJjmWbLltWeIR76WM9/ks/GU+zVV37OPpYz3+Sz8ZOzU79j6WM9/ks/GTtVO/Y+ljPf5LPxk7VTv2dre9bPa7lNM0WtJnTxyTiq7Gey5MFdqv4Oxdr/irt01T98xqyy2Rp7DrEzbE14TL7t63/FTHM7Ecy5aeIRP514/1U/FZ0Qq65PnXj/VT8Zd6IOuWPjs9xWYWJs3dOTMxPMRWIcm0y1ySIAAADYYDO8Tl1rwVnTk6686M1iUotwyfnXj/VT8XOiDrk+deP8AVT8Zd6Id65bDI8/xWPzCmxdinkzTMo2rERy7W0zKTq1oACG4nafHWsRct08nSmqYjn9q2KQpm8vL514//T8Tog65PnXj/VT8Zd6IOuT514/1U/GTog65PnXj/VT8ZOiDrll5XtHjMVjaLNzk8mr2o2rEOxeeUsVrQAAAAAHGunjBU+87bL5VdnJ8Dc/d0z+9qpnxz1Q0YqfcsmfJz/mFe0RfwlVNdEVW6o54lfLP5h6YjMsXi6It4jEV3KY6qpciOCbTO2O644AAAAAAAB64XFXsFibeJsVzRdt1cqmqOqXJ8uxPE8r42J2ptbS5ZTXyojEW45Nynr9WvvZL16ZbsV+qEjhBaAAAAAAAAAAAAAAAAAAAAAAAAAAAAAAAAAAAAAAAAAAAAAAAAAAAAAAAAAAAAAAAAAAAAAAAAAAAAgO9/oazxT3LsO2f5GlOtLGAAA72PL2uOntcIfQ2XY2xl2zuHxOJuRbt27MTVMsUxzbh6NZiK+VQ7Z7b4raPFVWrNVVrB0TMU0xOnK9stVKRDHlyTZFIhYqAAAAAAeuGxN7BXqMRh7lVu5ROsVRLkxy7E8T4XhsFtdG0mA5F7SnFWYiK49ftZclOluxZOqEr61a0AABSW9X0k909zVi0w5/ZDFqkAAB3seWt/e5LsbfSmWdG4T8Gj9MMU7elGmS461+f9E4j7u9Ku0baQBcocAAAAAAAAAA2+y3S9HDV2I30nTacqVwACtsd55e46u1fGmadvB0AAAZ+RdKWkbadrtYKloAAAAAJBEd4W1tOz+WTZsTE4u/E00f6fasx15lTlv0x4VTkGVV5ripxWImZoirlTM9ctFp48Qy0jmeZb3aHFWMDgKoi1am5XHJp+rHMhXzKy88Qg3jmZnr51zOAAAAAAAAAA3Gy20F/ZzNLeJtTM25mIuU9UwhevVCeO/TPK/8ALsdZzLB2sVh64rt3KdYmGOY4l6ETzHMMkdAAAAAAAAAAAAAAAAAAAAAAAAAAAAAAAAAAAAAAAAAAAAAAAAAAAAAAAAAAAAAAAAAAAAAAAAAAAQDe/wBDWeKe5dh2z/I0p5pYwAAHexzX7U/647R2Ew212pnG4HBZThbuti3ajwk0z459SrHT7lbkvzHEIYtUgAAAAAAAN1sjndzIs7w+IpmeRVVFFUdU68yN68wnjt025fQlFym5RTXRMTTVzxMMT0XYAAFJb1fST3T3NWLTDn9kMWqQAAHez5ajicl2NvpTLOjcJ+DR+mGKdvSrpkuOtfn/AETiOHvSrtG2kAXKHAAAAAAAAAANvst0vRw1diN9J02nKlcAArbHeeXuOrtXxpmnbwdAAAGfkXSlpG2kq7WCpXgAAAAMTNMxs5Vgb2Lv1RTRbpmefrn1ERzKMzxHKhMzzDFbW57VeqmqYrq0p/0U9TZEdMMFpm9kuwmGt5fhKbVMRFNEayr55XxHCE59mE4/HVTE/u6J0p9q2scQovbmWtSQAAAAAAAAAAAWHut2snBYmcpxdzWzdn91Mz/DPi0hTlpz5howZOP8yt3xwzNhAAAAAAAAAAAAAAAAAAAAAAAAAAAAAAAAAAAAAAAAAAAAAAAAAAAAAAAAAAAAAAAAAAAAAAAAAAAIBvf6Gs8U9y7Dtn+RpTzSxgAAOYAkHAOYjXxRMuByav5avgDh0AAAAANZpmJjxxzwC/8AYHMP2hstgaqquVcotxTXPtY8kcWl6GKeawkKCwABSW9X0k909zVi0w5/ZDFqkAAB3s+Wo4nJdh9KZZ0bhPwaP0wxTt6VdMlx1r9oOiMR93elXaNtIBpPqXKDSQAcAAAAA5A0kDSQbbZbpejhq7Eb6SptOVK8ABW2O88vcdXavjTNO3g6AAAM/IulLSNtJV2sFSvAAAANdPH4nBUO9Paj5djIynC1z4O15XSfHV1NWKnHljz5OfEMLZnKowWG8Pcp/eXI5teqHbTz4cx14c7T5l8jwfgqJ/eXfF93WVgvbiOEJWqAAAAAAAAAAAAHe1drsXabturk10TrTMdUuGl8bCbS29oMmtzVV/xFr6ldMzz83Nr72TJXiW/FfqhJUFoAAAAAAAAAAAAAAAAAAAAAAAAAAAAAAAAAAAAAAAAAAAAAAAAAAAAAAAAAAAAAAAAAAAAAAAAACAb3+hrPFPcuw7Z/kaU80sYAAAA4Jtsfu3xOexTisbVVh8LP8OkfWq90q75YrpdjwzbzKx8DsBs/gaaYpwNFVUf4p11lROS0tUYqx9M6dl8nmNJwNrRHrl3or+kd2g3X5VmVqqvA0/JL8RrHJjWKp9uqyuWY2rtgidKizbKsTk2OrweLo5Nyj+8etprPMcwyWrNZ4lhuogAAALh3PYibmSYi3M/wXdI+7RmzR5bPjz4T9S0AAKS3q+knunuasWmHP7IYtUgAAO9ny1HE5LsPpTLOjcJ+DR+mGKdvSrpky466XrNGItzbu08qirxwQ5LD/YWXfZqXeqXOmD9g5d9mpOqTphqto8rwmEy6q5Zs00VcqI1hOkzyjescImsVAAAAJPsxl2FxmCmu/aiurlTGsq7z5WUiJhuv2Fl32alDqlPpg/YOXfZqTqk6YemHyrB4W74SzZporjm1g5l2KxDLcdAAVtjvPL3HV2r40zTt4OgAADPyLpS0jbSVdrBUrwAAAGh2zz+jZ/Jbt/lR4auJpt0+uUqV5nhXkv015UtkWCuZtmU4i9rVTTVyqpnrnxw12niGKkcym08minXxUxHwVL0AzvHzj8fXXr9SmdKYWxHDPaeZYCSLgAAAAAAAAAAAAEi2G2hq2ezu3cqqmLF2YouR7EL16oWYr9Nl+WrlN63TcomJpqjWJhjb4dh0AAAAAAAAAAAAAAAAAAAAAAAAAAAAAAAAAAAAAAAAAAAAAAAAAAAAAAAAAAAAAAAAAAAAAAAABAN7/Q1ninuXYds/yNKeaWMAAByCRbCbPxtBn1u1cp5Vm1pcuR64V5LcQsxU6pX1Zs0WLVNq3TFNNMaREMj0Ijh30AABW++HKKLmDw+Y0UR4SiqYrq9cacy7Db6ZvkV8cqnaWQAAABau5mqPkmNp15/Ca6e5nztfx9SstQ0gAKS3q+knunuasWmHP7IYtUgAAO9ny1HE5LsPpTLOjcJ+DR+mGKdvSrpkuOgEAA021nRVXFT2p02hfSELVIAAAOJjsf0fVxSqvtdj036CwA0AAABW2O88vcdXavjTNO3g6AAAM/IulLSNtJV2sFSvAAAJmIjUFIbyNoK88zz5JZq1w2Hnk0x/r8UtWOvFWHNfm3DYZJl9OXYGmjT69Ua1fe5aeZTrXiHhtJmHyLATTTOld36sex2scy5eeIQWeedVrO5BwAAAAAAAAAAAADnXn1jxwC6t120P7WyacLer1vYaYo5556utky14nluw35jhNVa4AAAAAAAAAAAAAAAAAAAAAAAAAAAAAAAAAAAAAAAAAAAAAAAAAAAAAAAAAAAAAAAAAAAAAAAABAN7/Q1ninuXYds/yNKeaWMAAByC2NzmBinAYnGTH1puTRr7GbNPnhr+PHjlY6lpAAARbeXZi7sljKp8dFOsfGFmKf8ASrN6SohrYAAAAFo7mfJ4zj7oUZmr432s9nagAFJb1fST3T3NWLTDn9kMWqQAAHez5ajicl2H0plnRuE/Bo/TDFO3pV0yXHQAAGm2s6Jq4qe1Om0L6QhapAAAATHY7zCrilVdbj036CwAAAABW2O88vcdXavjTNO3g6AAAM/IulLSNtJV2sFSvAANQaPbLOackyHEX5q0rqpmijimOZOleZQyW6a8qW2cwlWY5lVib0a8meXVPrmWm08R4YaRzPMpqraEI2oxvyvMJoifqW+b3raRwoyTzLTJKwAAAAAAAAAAAAAAEh2FzyrI9oLFyap8FdnwVUdWs6RqhkrzCzFbpsv6mqKoiqmYmJ64Y29yOgAAAAAAAAAAAAAAAAAAAAAAAAAAAAAAAAAAAAAAAAAAAAAAAAAAAAAAAAAAAAAAAAAAAAAAAIBvf6Gs8U9y7Dtn+RpTzSxgAAE+IF17p6OTs3M+u5r/AGZcu23BH+U1VLwAAEb3iR/6PzDgjthPH7QqzekqDbGAAAABaO5nyeM4+6FGZq+N9rPZ2oABSW9X0k909zVi0w5/ZDFqkAAB3s+Wo4nJdh9KZZ0bhPwaP0wxTt6VdMlx0AABptrOiauKntTptC+kIWqQAAAEx2O8wq4pVXW49N+gsAAAAAVtjvPL3HV2r40zTt4OgAADPyLpS0jbSVdrBUrwAAFTb3858NirGWW6taKI5VyPVVEtGGvEcsnyLeeGHs1g4wmW0zMaV1zytfY7afLlI4hnY6/GGwl27rppTOn3uJTPEK5vXJvXarlXjqnWVzLy6OgAAAAAAAAAAAAADkCmqqiqK6Z0qpnWHBf+xGaxm+z2Gu8rWq3TFur74hkyRxZ6GK3NUgQWAAAAAAAAAAAAAAAAAAAAAAAAAAAAAAAAAAAAAAAAAAAAAAAAAAAAAAAAAAAAAAAAAAAAAAAAIBvf6Gs8U9y7Dtn+RpTzSxgAAE+IF3bq/RqOPuZcu27B6pkqXAAAI5vE9D8x4I7YTx+yrL6SoJsYAAAAFo7mfJ4zj7oUZmr432s9nagAFJb1fST3T3NWLTDn9kMWqQAAHez5ajicl2H0plnRuE/Bo/TDFO3pV0yXHQAAGm2s6Jq4qe1Om0L6QhapAAAATHY7zCrilVdbj036CwAAAABW2O88vcdXavjTNO3g6AAAM/IulLSNtJV2sFSvAAdLtfgrVdyf8NMy5A+fs6xVWe7V4i9rrTcvc3sjmba+KvPtPVZMrVEWrVFEeKmIhWvaTa7F+BwEWYnSquqJ9yVI5V5J4hDFqgAAAAAAAAAAAAAAABz4wWfubzOZnF5bM81FPhY++Z0Z80fbV8e30tBQ1AAAAAAAAAAAAAAAAAAAAAAAAAAAAAAAAAAAAAAAAAAAAAAAAAAAAAAAAAAAAAAAAAAAAAAAAIBvf6Gs8U9y7Dtn+RpTzSxgAAEgu7dX6NRx9zLl23YPVMlS4AABHN4nofmPBHbCeP2VZfSVBNjAAAAAtHcz5PGcfdCjM1fG+1ns7UAApLer6Se6e5qxaYc/shi1SAAA72fLUcTkuw+lMs6Nwn4NH6YYp29KumS46AAA021nRNXFT2p02hfSELVIAAACY7HeYVcUqrrcem/QWAAAAAK2x3nl7jq7V8aZp28HQAABn5F0paRtpKu1gqV4ADV7T46MuyTFYjXTSiY+PM7SOZQvPFeVG7K2PD5ryp8VNM1a+1rtphxx5TZW0Idthf8ACY23b15qKZiVlNKMs+WgTVgAAAAAAAAAAAAAAAAJPu5x84LanC0a6RiKot1fdzyryR/lbhniy+Y8TI3gAAAAAAAAAAAAAAAAAAAAAAAAAAAAAAAAAAAAAAAAAAAAAAAAAAAAAAAAAAAAAAAAAAAAAAAIBvf6Gs8U9y7Dtn+RpTzSxgAAALv3V+jUcfcyZdt2D1TFWuAAARzeJ6H5jwR2wnj9lWX0lQTYwAAAALR3M+TxnH3QozNXxvtZ7O1AAKS3q+knunuasWmHP7IYtUgAAO9ny1HE5LsPpTLOjcJ+DR+mGKdvSrpkuOgAANNtZ0TVxU9qdNoX0hC1SAAAAmOx3mFXFKq63Hpv0FgAAAACtsd55e46u1fGmadvB0AAAZ+RdKWkbaSrtYKleAAiW9C94PZLFUddfJ0+KzFH+lOef8Ky2LtxNV651xOn9l92bElSC1AM/u+FzbETrzRPMtrpnvtrkkQAAAAAAAAAAAAAAAHINhs7fnC57gb0eOi5r/ZG3mEqTxaH0ZZq5Vm3V66Yn+zE9KHcAAAAAAAAAAAAAAAAAAAAAAAAAAAAAAAAAAAAAAAAAAAAAAAAAAAAAAAAAAAAAAAAAAAAAAAEA3v9DWeKe5dh2z/I0p5pYwAAAF37q/RqOPuZMu27B6pirXAAAI5vE9D8x4I7YTx+yrL6SoJsYAAAAFo7mfJ4zj7oUZmr432s9nagAFJb1fST3T3NWLTDn9kMWqQAAHez5ajicl2H0plnRuE/Bo/TDFO3pV0yXHQAAGm2s6Jq4qe1Om0L6QhapAAAATHY7zCrilVdbj036CwAAAABW2O88vcdXavjTNO3g6AAAM/IulLSNtJV2sFSvAAQjezVMbOVRz8898LcPsoz+qBbFRHyXEz/ANSOxddRiSSf4Z+5BarjMauXjr0/6l0MttsZ1wAAAAAAAAAB6WLNeJvUWbVPKuVzyaYjrlx2I58JZb3V7Q3KKa4jDRFUaxrXKHdqt7Fnb6KNovVhfzz/ALOd2p2LH0UbR+rC/nO7U7Fz6KNo/Vhfzndqdix9FG0fqwv55/2O7U7Fj6KNo/Vhf/2T/sd6p2LPbB7rtosPi7N2fkulFWs6V/8AgnLXh2MFoXJYpqosW6KvHTTET8GWWyHoOgAAAAAAAAAAAAAAAAAAAAAAAAAAAAAAAAAAAAAAAAAAAAAAAAAAAAAAAAAAAAAAAAAAAAAAIBvf6Gs8U9y7Dtn+RpTzSxgAAALv3V+jUcfcyZdt2D1TFWuAAARzeJ6H5jwR2wnj9lWX0lQTYwAAAALR3M+TxnH3QozNXxvtZ7O1AAKS3q+knunuasWmHP7IYtUgAAO9ny1HE5LsPpTLOjcJ+DR+mGKdvSrpkuOgAANNtZ0TVxU9qdNoX0hC1SAAAAmOx3mFXFKq63Hpv0FgAAAACtsd55e46u1fGmadvB0AAAZ+RdKWkbaSrtYKleAAhe9a3NWzFyr+WY7YW4vZRn9VfbFVx8nxNPXNcT/ZddRiSSr+GfulBarfGxpirkdfKXQyzt4OuAAAAAAAAAANlsz6RZd+NCNtSnT2hdO2G01WzGT0Ym3a8JcnkxEMtK9UtuS/THKD/TDj/s1Pwhb2YZ/yJPpix/2an4QdmD8iSd8WP+zU/CDswfkSsLY/PLm0WS0Y67RyKqq6qdPuU3rxPDTjt1Ry0G3G3mJ2XzGxhrNmK6blE1TzR1Snjx9UK8mWazwjk74cd9mp+ELOzCr8iWTlm9fHY7MLGGnDRpcrimeaOuUZxREOxnmZ4WooawAAAAAAAAAAAAAAAAAAAAAAAAAAAAAAAAAAAAAAAAAAAAAAAAAAAAAAAAAAAAAAAAAAAAAAEA3v9DWeKe5dh2z/ACNKeaWMAAABd+6v0ajj7mTLtuweqYq1wAACObxPQ/MeCO2E8fsqy+kqCbGAAAABaO5nyeM4+6FGZq+N9rPZ2oABSW9X0k909zVi0w5/ZDFqkAAB3s+Wo4nJdh9KZZ0bhPwaP0wxTt6VdMlx0AABptrOiauKntTptC+kIWqQAAAEx2O8wq4pVXW49N+gsAAAAAVtjvPL3HV2r40zTt4OgAADPyLpS0jbSVdrBUrwAEd2/wAJVjtlsZZpj62kT8JTxzxZXljmswqLY69ycbcsz4qqZqabwx4p8pfMc0x7Fa9XWa0eDzG/TPVUujTNbbEdRAAAAAAAAAAbPZn0hy78aEbalKntCzd7Po5Z++nuUYdtXyPVT7SxgE+IF5brfRO1+LX3MuX2bsHqhW+HpzCfhVdsLcOlPyPaECWs7d7G4WcXtJhLcRrMTy/hMShf1TxxzZ9CMb0XIAAAAAAAAAAAAAAAAAAAAAAAAAAAAAAAAAAAAAAAAAAAAAAAAAAAAAAAAAAAAAAAAAAAAAAIBvf6Gs8U9y7Dtn+RpTzSxgAAALv3V+jUcfcyZdt2D1TFWuAAARzeJ6H5jwR2wnj9lWX0lQTYwAAAALR3M+TxnH3QozNXxvtZ7O1AAKS3q+knunuasWmHP7IYtUgAAO9ny1HE5LsPpTLOjcJ+DR+mGKdvSrpkuOgAANNtZ0TVxU9qdNoX0hC1SAAAAmOx3mFXFKq63Hpv0FgAAAACtsd55e46u1fGmadvB0AAAZ+RdKWkbaSrtYKleAAx8dYjE4O/aqjWKqJjT3ET5cnzD5+wlNeT7QVYev6tVFzwdXvbZ8w8+P8ANuE5ideePEqXoNtPZ8FmtdWnlOdbXSjJHEtQkgAAAAAAAAAA2ezXpDl340I21KVPaFm72fRyz/8AHuUYdtXyPVT7SxgE+IF5brfRO1+LX3MmX2bsHqhW+Hp3CfhVdsLcOlPyPaECXM6b7p8BOI2j+U6fVs0VRM+2YVZZ8L8Ef65XSytoAAAAAAAAAAAAAAAAAAAAAAAAAAAAAAAAAAAAAAAAAAAAAAAAAAAAAAAAAAAAAAAAAAAAAACAb3+hrPFPcuw7Z/kaU80sYAAAC791fo1HH3MmXbdg9UxVrgAAEc3ieh+Y8EdsJ4/ZVl9JUE2MAAAAC0dzPk8Zx90KMzV8b7WeztQACkt6vpJ7p7mrFphz+yGLVIAADvZ8tRxOS7D6Uyzo3Cfg0fphinb0q6ZLjoAADTbWdE1cVPanTaF9IQtUgAAAJjsd5hVxSqutx6b9BYAAAAArbHeeXuOrtXxpmnbwdAAAGfkXSlpG2kq7WCpXgAHsIFJb0MnqyraH5XRH1cVrd1jqnXRqxW5jhhz14ty2GS4uMbl9q5E6zH1Z++HJ2nWeYafbLC8q3axMR/D9WffKVEMkfaKLFIAAAADmAemGw13F36LFmma7lc6U0x1kzw7EczxDe/MDaH7HT+dDuVT7VnHzB2h+x0/mO5U7Vj5g7Q/Y6fzHcqdqzPyHYfPcLneCv3cLTTbt3YqqnleKHLXjhKmK0TEplvYt11bP2qaaKqqomnmiNfUqxbXZ/NVRfJr/APkXfyS0csfB8mv/AORe/JJycS4nD34if3F38knJwu/dfTVRspaiumqmfC180xp6mXL7N+H1Qve/auV55g5otV1R4Kr+GmZ64W4dKPke0IL8nvx/yLv5JXM/C3N0eUVYTKbuNuUTTViaomIqjSY05mXNbzw2fHrxHKfqmgAAAAAAAAAAAAAAAAAAAAAAAAAAAAAAAAAAAAAAAAAAAAAAAAAAAAAAAAAAAAAAAAAAAAAABAN7/Q1ninuXYds/yNKeaWMAAABd+6v0ajj7mTLtuweqYq1wAACObxPQ/MeCO2E8fsqy+kqCbGAAAABaO5nyeM4+6FGZq+N9rPZ2oABSW9X0k909zVi0w5/ZDFqkAAB3s+Wo4nJdh9KZZ0bhPwaP0wxTt6VdMlx0AABptrOiauKntTptC+kIWqQAAAEx2O8wq4pVXW49N+gsAAAAAVtjvPL3HV2r40zTt4OgAADPyLpS0jbSVdrBUrwAAEU3jZBGd5Dcqpp/fWP3kTHjmI6lmO3EqstOqqqdlswnCYqrC3Z5NNfNET1T1tF45hlx24nhJ8zwsY3A3LWmvNrH3q48LJjmFd3LdVq5Vbq5qqZ0lfDM6gAAAAA32wvpZl3HPZKGT1lZi9oW9tjtfb2Uw1quqzVdruaaRDNSnU2ZMnQiX0yx9hr/ALLeyp/JPplj7DX8IOwfkfxxVvmiI1+Q1/2c7B+T/E+y2/h9ocrtYm/h6aorjXk1R4lU/wCZXxPVHl7fsTLfsdn8rnVLvTDn9iZb9is/lOqTphxOSZb9is/lOqTphk4fD2sNb8HYt026InXk0xzOOxHDzxOXYPF1xXfw9u5VHNE1QRMwTES8pyTLZ5vkVn8rvVLnTDLs2LWHtxbs0U0UR4qY8UOT5SiOHYHIAAAAAAAAAAAAAAAAAAAAAAAAAAAAAAAAAAAAAAAAAAAAAAAAAAAAAAAAAAAAAAAAAAAAAAIBvf6Gs8U9y7Dtn+RpTzSxgAAALv3V+jUcfcyZdt2D1TFWuAAARzeJ6H5jwR2wnj9lWX0lQTYwAAAALR3M+TxnH3QozNXxvtZ7O1AAKS3q+knunuasWmHP7IYtUgAAO9ny1HE5LsPpTLOjcJ+DR+mGKdvSrpkuOgAANNtZ0TVxU9qdNoX0hC1SAAAAmOx3mFXFKq63Hpv0FgAAAACtsd55e46u1fGmadvB0AAAZ+RdKWkbaSrtYKleAAA4roprpmmqNYnxxIKP3h7NXMgzmcVYpmMNfnlU1R1VeOWrHbqhhy06Z5hnZFmtOZYWOVMeFo5qo9ZaOJSrblH9qssnDYqMTRH7u549OqUqT4V5K8eWiTVgAAAAN7sL6W5dxz2Shf1lZi9oTbfJ5HB/d3qsK75H0qxoZQHFf8Eg+hdi/R3C8LHf2ehj9YVzvA2kzXL9ortnDYqbduNdKdPaux1iYZ817Rbwjfzyz37dV8E+iqruWPnlnv26r4HRU7lmVlm12dXswsW68ZM01VxExo5akO1yWmV82ZmbNEz10wyPQhXe2e8LH7P53OCsWqaqIoirXmX0xxaOWbJmmtuIYmz+8bOc9zWzgbdin6061Tzc0R43bY4iOXKZrWnhaLO1OQAAAAAAAAAAAAAAAAAAAAAAAAAAAAAAAAAAAAAAAAAAAAAAAAAAAAAAAAAAAAAAAAAAAAAAQDe/0NZ4p7l2HbP8jSnmljAAAAXfur9Go4+5ky7bsHqmKtcAAAjm8T0PzHgjthPH7KsvpKgmxgAAAAWjuZ8njOPuhRmavjfaz2dqAAUlvV9JPdPc1YtMOf2QxapAAAd7PlqOJyXYfSmWdG4T8Gj9MMU7elXTJcdAAAabazomrip7U6bQvpCFqkAAABMdjvMKuKVV1uPTfoLAAAAAFbY7zy9x1dq+NM07eDoAAAz8i6UtI20lXawVK8AAAkGr2iyPD5/ll3B36Y+tH1auumUq24nlC9eqOJUXisJjdkc4qs3ommqifdXT7GqJi0MMxNJ4lJ+Vhs/y6qmmYnlRz/6ZQ1K3xaEHxmEuYLEVWbkaTErYnlRMcTw8HXAAAAG92F9Lcu457JQv6ysxe0Jtvk8jg/u71WFd8jUKtaGVwDiv+CQfQuxfo7heFjv7PRx+qp95npRe9/avxerJn9kTWqQGZlHSmF44cnSVdvpGx5G3wx2MMvShSO9P0rq/Bp7Za8Xqw5/dMN1mzE5fg5zTE0aXr38ETHPTHilVltz4XYKcRzKwetS0AAAAAAAAAAAAAAAAAAAAAAAAAAAAAAAAAAAAAAAAAAAAAAAAAAAAAAAAAAAAAAAAAAAAAAAIBvf6Gs8U9y7Dtn+RpTzSxgAAALv3V+jUcfcyZdt2D1TFWuAAARzeJ6H5jwR2wnj9lWX0lQTYwAAAALR3M+TxnH3QozNXxvtZ7O1AAKS3q+knunuasWmHP7IYtUgAAO9ny1HE5LsPpTLOjcJ+DR+mGKdvSrpkuOgAANNtZ0TVxU9qdNoX0hC1SAAAAmOx3mFXFKq63Hpv0FgAAAACtsd55e46u1fGmadvB0AAAZ+RdKWkbaSrtYKleAAAA4BHdsdkMNtNgqo5MU4miNaK47E6XmsqsmOLQpmYzDZTMqrN6iqmaZ0qpnxVR7GrxaGPzSfLcY6zhdpMH4bDzEYmiPEjHNZTni0Indt12rk27lM01UzpMSsVS6DgAADe7C+luXcc9koX9ZWYvaE33yRM2cHpEzzdUe1VhXfI+lWcmr+Wr4NDKcmr+Wr4A4roq5M/Vq+APoTYv0dwvN/hY7+z0cfqqfeb6UXvf2r8XqyZ/ZE1qkBmZR0phtP54ctpKu30jY8hb4Y7GGXpQrrN9kru0W3sXbtExg7Numa5/m555l9b9NGa2PqyfxYtqzRYt027dMU00xEREKNtLsDkAAAAAAAAAAAAAAAAAAAAAAAAAAAAAAAAAAAAAAAAAAAAAAAAAAAAAAAAAAAAAAAAAAAAAAEA3v8AQ1ninuXYds/yNKeaWMAAABd+6v0ajj7mTLtuweqYq1wAACObxPQ/MeCO2E8fsqy+kqCbGAAAABaO5nyeM4+6FGZq+N9rPZ2oABSW9X0k909zVi0w5/ZDFqkAAB3s+Wo4nJdh9KZZ0bhPwaP0wxTt6VdMlx0AABptrOiauKntTptC+kIWqQAAAEx2O8wq4pVXW49N+gsAAAAAVtjvPL3HV2r40zTt4OgAADPyLpS0jbSVdrBUrwAAAAAGi2n2RwG02Fm3foii9EfUu0x9amU6Xmqu+OLbU3nOzubbI42ZrpqiiJ+rdp54mPbLTW8WY7UtSWtzHMf2lNFyq1RRXEc9VP8AidiEbTywkkQAAG92F9Lcu457JQv6ysxe0L3x2U4HM4pjGYai/FMc3K6mSJmNN0xE7YfzRyL+mWPhP+7vXb9uduv6PmhkP9Msf3/3Ou37O3X9E7IZDP8A7ZY/v/uddv2duv6bTD4e1hLVNmxbi3bp8VMdSPMztKI40qbb7ZTNsy2gu4jC4aq5bnXSYhox3iIZMtLTbwjfzFz77FX8JT7kK+1Y+YuffYq/hLvcqdqzf7I7uszrzWzicdRFmxaq1mJ8coXyRx4WY8M8+Vw0RFNMUx1RozNhFFNMzMRETIOQAAAAAAAAAAAAAAAAAAAAAAAAAAAAAAAAAAAAAAAAAAAAAAAAAAAAAAAAAAAAAAAAAAAAAAAAQHe/0NZ4p7l2HbP8jSnWljAAAAXdus9Go4+5ky7bsHqmStcAAAjm8T0PzHgjthPH7KsvpKgmxgAAAAWjuZ8njOPuhRmavjfaz2dqAAUlvV9JPdPc1YtMOf2QxapAAAd7PlqOJyXYfSmWdG4T8Gj9MMU7elXTJcdAAAabazomrip7U6bQvpCFqkAAABMdjvMKuKVV1uPTfoLAAAAAFbY7zy9x1dq+NM07eDoAAAz8i6UtI20lXawVK8AAAAAkAGPjMDhsfZmzibNF2iY00qjUiZjTkxE+JVvtNummZuYnJrmnX4GrnmZ9nqX1y/tmvg+6q7zDKMdlV2bWMw1y1VHrhdFonTNNZjbDScAAb7YX0ty7jnslC/rKzF7QsreZtLmGQ4bD04Cuiiq5zzNVOvWoxUi0+WnNeax4V39Ie0X2q3+T/wAru3Vn71j6Q9ovtVv8v/k7dTvWcVbxNo4pmYxVv8n/AJO3VzvWXRsvjL2PyXD4i/VFVyuOeYZrxxLbSeY5bSaojxzEIpnLp/mj4gTXT/NHxAjTxg5gAAAAAAAAAAAAAAAAAAAAAAAAAAAAAAAAAAAAAAAAAAAAAAAAAAAAAAAAAAAAAAAAAAAAAAAAAAEe2y2XnanBUYaL9VnkzrrERKVLdKrJTrjhDPoZr/qNz8sLu8q/G/p9DFf9Ruflg738Pxv6fQxX/Ubn5YO9/D8b+n0MV/1G5+WDvfw/G/ridzFf9Ruflg7x+N/U62T2fnZvK4wU3Zu6TryphTe3M8rsdOmOG7RWAAANZtJlH7dybE5f4SbfhqYjlR1c6VJ4nlG9eqOFffQzX/Ubn5YW95n/ABv6fQxX/Ubn5Yd738Pxv6fQxX/Ubn5YO9/D8b+n0MV/1G5+WDvfw/G/p9DFf9Ruflg7zn439SvYrY2dlKb0Tiar3hZ154iNFd79S7Hj6EpVrQHDgg+1m7mdpcz+WfLK7PNMcmIiV1MnTCi+HqnlpfoYn+pXPywn3v4h+N/T6GJ/qNz8sHePxv6fQxP9Ruflg7x+N/T6GJ/qVz8sHePxv67Ubmporpq/aNzmnX+GDvH4/wDVmYWz8nwtmzrr4OimjX16Rozz5aYjiHrA6AAAwc4y+cywc2Iq5MzMTq7E8I2jlovmbX9on4Qn1ods+ZlX2if7HWds+ZlX2if7HWds+ZlX2if7HWds+ZlX2ifhB1nbbrJcr/ZeHmzNc1azM6oWnlOscNi4kAAAAAjN/ZHw16u58oqjlVTPihOL+Fc0dPmZ/wBzV8Id7jnbPmX/ANzV8IOs7Z8y/wDuavhB1nbPmX/3NXwg6ztsjAbK/I8VRf8AD1Vcnq0hyb8uxThIUFgAAAAAAAADGxeXYTH25t4ixRcpnx6wRMw5MRKJZtupyXHa1YXlYOr/AERrr8VsZpjam2Cs6RXMNz+ZWZ/4K/Rfp9dyqKVkZo+1U/Hn6aTEbutosNP1sNbq4a9e5LuVV9mzO2R2XzfAbT4C/fwldNuiueVVpPNzOWvE1Sx47RaOUg3yeRwf3d6GFZ8j6Va0MrgHFcxyJB9C7F+jmE4WK/s9HH6o5vVzXHZXg8NXgsTXZqmuInk9azDWJ2qz2mI8K3jbDP5mIjMr0zPVpC7oj9M3ct+0x2RyvazPLlOIxuYX8Pg4nWdYjlVezSVd5rGl2Ot7eZlaVizFizTbiZnkxprPWzz5aoekDoAAAAAAAAAAAAAAAAAAAAAAAAAAAAAAAAAAAAAAAAAAAAAAAAAAAAAAAAAAAAAAAAAAAAAAAAAAAAAAAAAAAAABAAAAAAAAAAAAAAAAGgAAAAAAAAAAAAAAAAA4DoAAAAAAAAAAAAAA4HjdAAAEF3mbO5jn1GGpwNiq7yI59OrnW4rRG1Gak20hWH3WZ9emIqimzx0re7VRGCzc4Hc1idYnGY+zNPqoiYlGc0fScfGn7lJ8q3Y5Hl0xVXaqxFUdVyeVCucsytjDWErsYe3hrcWrNFNuinxU0xpEK5W8IlvC2Yxu01rDYfCcmnk1xM11RrEQsx3ivPKrNSbadNmt2WW5Pyb2LiMXfjnnlc9Me6XbZZnRTDEeZTOiimimKaYimmOaIjqVLnIAAAAAAAAAAAAAAAAAAAAAAAAAAAAAAAAAAAAAAAAAAAAAAAAAAAAAAAAAAAAAAAAAAAAAAAAAAAAAAAAAAAAAAAAAAAAAAAAAAAAAAAAAAAAAAAAAAAAAAAAAAAAAAAAAAAAAAAAAAAAAAAAAAAAAAAAAAAAAAAAAAAAAAAAAAAAAAAAAAAAAAAAAAAAAAAAAAAAAAAAAAAAAAAAAAAAAAAAAAAAAAAAAAAAAAAAAAAAAAAAAAAAAAAAAAAAAAAAAAAAAAAAAAAAAAAAAAAAAAAAAAAAAAAAAAAAAAAAAAAAAAAAAAAAAAAAAAAAAAAAAAAAAAAAAAAAAAAAAAAAAAAAAAAAAAAAAAAAAAAAAAAAAAAAAAAAAAAAAAAAAAAAAAAAAAAAAAAAAAAAAAAAAAAAAAAAAAAAAAAAAAAAAAAAAAAAAAAAAAAAAAAAAAAAAAAAAAAAAAAAAAAAAAAAAAAAAAAAAAAAAAAAAAAAAAAAAAAAAAAAAAAAAAAAAAAAAAAAAAAAAAAAAAAAAAAAAAAAAAAAAAAAAAAAAAAAAAAAAAAAAAAAAAAAAAAAAAAAAAAAAAAAAAAAAAAAAAAAAAAAAAAAAAAAAAAAAAAAAAAAAAAAAAAAAAAAAAAAAAAAAAAAAAAAAAAAAAAAAAAAAAAAAAAAAAAAAAAAAAAAAAAAAAAAAAAAAAAAAAAAAAAAAAAAAAAAAAAAAAAAAAAAAAAAAAAAAAAAAAAAAAAAAAAAAAAAAAAAAAAAAAAAAAAAAAAAAAAAAAAAAAAAAAAAAAAAAAAAAAAAAAAAAAAAAAAAAAAAAAAAAAAAAAAAAAAAAAAAAAAAAAAAAAAAAAAAAAAAAAAAAAAAAAAAAAAAAAAAAAAAAAAAAAAAAAAAAAAAAAAAAAAAAAAAAAAAAAAAAAAAAAAAAAAAAAAAAAAAAAAAAAAAAAAAAAAAAAAAAAAAAAAAAAAAAAAAAAAAAAAAAAAAAAAAAAAAAAAAAAAAAAAAAAAAAAAAAAAAAAAAAAAAAAAAAAAAAAAAAAAAAAAAAAAAAAAAAAAAAAAAAAAAAAAAAAAAAAAAAAAAAAAAAAAAAAAAAAAAAAAAAAAAAAAAAAAAAAAAAAAAAAAAAAAAAAAAAAAAAAAAAAAAAAAAAAAAAAAAAAAAAAAAAAAAAAAAAAAAAAAAAAAAAAAAAAAAAAAAAAAAAAAAAAAAAAAAAAAAAAAAAAAAAAAAAAAAAAAAAAAAAAAAAAAAAAAAAAAAAAAAAAAAAAAAAAAAAAAAAAAAAAAAAAAAAAAAAAAAAAAAAAAAAAAAAAAAAAAAAAAAAAAAAAAAAAAAAAAAAAAAAAAAAAAAAAAAAAAAAAAAAAAAAAAAAAAAAAAAAAAAAAAAAAAAAAAAAAAAAAAAAAAAAAAAAAAAAAAAAAAAAAAAAAAAAAAAAAAAAAAAAAAAAAAAAAAAAAAAAAAAAAAAAAAAAAAAAAAAAAAAAAAAAAAAAAAAAAAAAAAAAAAAAAAAAAAAAAAAAAAAAAAAAAAAAAAAAAAAAAAAAAAAAAAAAAAAAAAAAAAAAAAAAAAAAAAAAAAAAAAAAAAAAAAAAAAAAAAAAAAAAAAAAAAAAAAAAAAAAAAAAAAAAAAAAAAAAAAAAAAAAAAAAAAAAAAAAAAAAAAAAAAAAAAAAAAAAAAAAAAAAAAAAAAAAAAAAAAAAAAAAAAAAAAAAAAAAAAAAAAAAAAAAAAAAAAAAAAAAAAAAAAAAAAAAAAAAAAAAAAAAAAAAAAAAAAAAAAAAAAAAAAAAAAAAAAAAAAAAAAAAAAAAAAAAAAAAAAAAAAAAAAAAAAAAAAAAAAAAAAAAAAAAAAAAAAAAAAAAAAAAAAAAAAAAAAAAAAAAAAAAAAAAAAAAAAAAAAAAAAAAAAAAAAAAAAAAAAAAAAAAAAAAAAAAAAAAAAAAAAAAAAAAAAAAAAAAAAAAAAAAAAAAAAAAAAAAAAAAAAAAAAAAAAAAAAAAAAAAAAAAAAAAAAAAAAAAAAAAAAAAAAAAAAAAAAAAAAAAAAAAAAAAAAAAAAAAAAAAAAAAAAAAAAAAAAAAAAAAAAAAAAAAAAAAAAAAAAAAAAAAAAAAAAAAAAAAAAAAAAAAAAAAAAAAAAAAAAAAAAAAAAAAAAAAAAAAAAAAAAAAAAAAAAAAAAAAAAAAAAAAAAAAAAAAAAAAAAAAAAAAAAAAAAAAAAAAAAAAAAAAAAAAAAAAAAAAAAAAAAAAAAAAAAAAAAAAAAAAAAAAAAAAAAAAAAAAAAAAAAAAAAAAAAAAAAAAAAAAAAAAAAAAAAAAAAAAAAAAAAAAAAAAAAAAAAAAAAAAAAAAAAAAAAAAAAAAAAAAAAAAAAAAAAAAAAAAAAAAAAAAAAAAAAAAAAAAAAAAAAAAAAAAAAAAAAAAAAAAAAAAAAAAAAAAAAAAAAAAAAAAAAAAAAAAAAAAAAAAAAAAAAAAAAAAAAAAAAAAAAAAAAAAAAAAAAAAAAAAAAAAAAAAAAAAAAAAAAAAAAAAAAAAAAAAAAAAAAAAAAAAAAAAAAAAAAAAAAAAAAAAAAAAAAAAAAAAAAAAAAAAAAAAAAAAAAAAAAAAAAAAAAAAAAAAAAAAAAAAAAAAAAAAAAAAAAAAAAAAAAAAAAAAAAAAAAAAAAAAAAAAAAAAAAAAAAAAAAAAAAAAAAAAAAAAAAAAAAAAAAAAAAAAAAAAAAAAAAAAAAAAAAAAAAAAAAAAAAAAAAAAAAAAAAAAAAAAAAAAAAAAAAAAAAAAAAAAAAAAAAAAAAAAAAAAAAAAAAAAAAAAAAAAAAAAAAAAAAAAAAAAAAAAAAAAAAAAAAAAAAAAAAAAAAAAAAAAAAAAAAAAAAAAAAAAAAAAAAAAAAAAAAAAAAAAAAAAAAAAAAAAAAAAAAAAAAAAAAAAAAAAAAAAAAAAAAAAAAAAAAAAAAAAAAAAAAAAAAAAAAAAAAAAAAAAAAAAAAAAAAAAAAAAAAAAAAAAAAAAAAAAAAAAAAAAAAAAAAAAAAAAAAAAAAAAAAAAAAAAAAAAAAAAAAAAAAAAAAAAAAAAAAAAAAAAAAAAAAAAAAAAAAAAAAAAAAAAAAAAAAAAAAAAAAAAAAAAAAAAAAAAAAAAAAAAAAAAAAAAAAAAAAAAAAAAAAAAAAAAAAAAAAAAAAAAAAAAAAAAAAAAAAAAAAAAAAAAAAAAAAAAAAAAAAAAAAAAAAAAAAAAAAAAAAAAAAAAAAAAAAAAAAAAAAAAAAAAAAAAAAAAAAAAAAAAAAAAAAAAAAAAAAAAAAAAAAAAAAAAAAAAAAAAAAAAAAAAAAAAAAAAAAAAAAAAAAAAAAAAAAAAAAAAAAAAAAAAAAAAAAAAAAAAAAAAAAAAAAAAAAAAAAAAAAAAAAAAAAAAAAAAAAAAAAAAAAAAAAAAAAAAAAAAAAAAAAAAAAAAAAAAAAAAAAAAAAAAAAAAAAAAAAAAAAAAAAAAAAAAAAAAAAAAAAAAP//Z;" parent="1" vertex="1">
          <mxGeometry x="425" y="315.98" width="150" height="68.04" as="geometry" />
        </mxCell>
        <mxCell id="RkjFfQdDdX4bQdD2x07N-20" value="" style="shape=image;imageAspect=0;aspect=fixed;verticalLabelPosition=bottom;verticalAlign=top;image=data:image/jpeg,/9j/4AAQSkZJRgABAQEAYABgAAD/2wBDAAoHBwkHBgoJCAkLCwoMDxkQDw4ODx4WFxIZJCAmJSMgIyIoLTkwKCo2KyIjMkQyNjs9QEBAJjBGS0U+Sjk/QD3/2wBDAQsLCw8NDx0QEB09KSMpPT09PT09PT09PT09PT09PT09PT09PT09PT09PT09PT09PT09PT09PT09PT09PT09PT3/wAARCADcAdUDASIAAhEBAxEB/8QAHwAAAQUBAQEBAQEAAAAAAAAAAAECAwQFBgcICQoL/8QAtRAAAgEDAwIEAwUFBAQAAAF9AQIDAAQRBRIhMUEGE1FhByJxFDKBkaEII0KxwRVS0fAkM2JyggkKFhcYGRolJicoKSo0NTY3ODk6Q0RFRkdISUpTVFVWV1hZWmNkZWZnaGlqc3R1dnd4eXqDhIWGh4iJipKTlJWWl5iZmqKjpKWmp6ipqrKztLW2t7i5usLDxMXGx8jJytLT1NXW19jZ2uHi4+Tl5ufo6erx8vP09fb3+Pn6/8QAHwEAAwEBAQEBAQEBAQAAAAAAAAECAwQFBgcICQoL/8QAtREAAgECBAQDBAcFBAQAAQJ3AAECAxEEBSExBhJBUQdhcRMiMoEIFEKRobHBCSMzUvAVYnLRChYkNOEl8RcYGRomJygpKjU2Nzg5OkNERUZHSElKU1RVVldYWVpjZGVmZ2hpanN0dXZ3eHl6goOEhYaHiImKkpOUlZaXmJmaoqOkpaanqKmqsrO0tba3uLm6wsPExcbHyMnK0tPU1dbX2Nna4uPk5ebn6Onq8vP09fb3+Pn6/9oADAMBAAIRAxEAPwD2WiiigAooooAKKKKACiiigAooooAKKKKACiiigAooooAKKKKACiiigAooooAKKKKACiiigAooooADRQaKACiiigAooooAKKKKACiiigAooooAKKKKACiiigAooooAKKKKACiiigAooooAKKKKACiiigAooooAKKKKADmjmjmjmgA5o5o5o5oAOaOaOaOaADmjmjmjmgA5o5o5o5oAOaOaOaOaADmjmjmjmgA5o5o5o5oAOaOaOaOaADmjmjmjmgA5o5o5o5oAOaOaOaOaADmjmjmjmgA5o5o5o5oADmjmg5o5oAOaOaOaOaADmjmjmjmgA5o5o5o5oAOaOaOaOaADmjmjmjmgA5o5o5o5oAOaOaOaOaADmjmjmjmgA5o5o5o5oAOaOaOaOaADmjmjmjmgA5o5o5o5oAOaOaOaOaADmjmjmjmgA5oo5ooAKKKKACiiigAooooAKKKKACiiigAooooAKKKKACiiigBKWkpaACikpaACiiigAooooAKKKKACiiigANFBooAKKKKACiiigAooooAKKKKACiiigAooooAKKKKACiiigAooooAKKKKACiiigAooooAKKKKACiiigAooooAKKKKACikooAWiikoAWikpaACikpaACiiigAoopKAFpKKyfEV41jpZuWvVsbaE77i4IBKoOyj+8TgCgDWori0u/E+tQJLaeXoWnkfu3uI/OvJB/eKn5Uz6HJpP7G1aICS38U6kZuuZo43jP1XH8q4MRmWGw8lCpLUpQb2O1ormdI8TTLqCaVr8Udrfv/qJUJ8i7H+wT0b1Q8+ma6auynUjUipRd0yWrC0UlFWAtFFJ3oAWiiigAooooADRSGlNABRRSUALRRRQAUUUUAFFFFABRRRQAUUlLQAUUlLQAUUUUAFFFFABRRRQAUUlLQAUUlLQAUUUlAC0UUUAFFFFABRRRQAlFLRQAUlLRQAlLRRQAlLRRQAUlLVHVZbuK3T7CsZmeRULPyEUnlsd8daALvHSquoajZ6TaPdahcw21unWSVwoz6fX2rz5vHd3HrljqN1K8Wgm3lmaJVBIj5ETyN/fdhwg/vDvWtpWjSandRa74ojEt/J81tZOcxWCHkADoXx1Y9+OMVhVxEKUeeTGk2Jf/Eq0gtGurDSNVvrfcqLMIDFHIzHChN2GYk+grI1S1u7iS1n8QW8upalPKrx6fHcGO1sRnjOPvMO7Hv06Vtac39v3g1+5GbaIsmlQH7qqODOR/ebnHoo465rRWBWnedhljgAn0H/168PNM39i1Thuawh1ZJC03khZsAkdNxOPxNMhleZ5f3ZVEbarE8t6n2FV7e7MmrahbN/yxEbKPZlP9RVPxLoT+INOWyF3NbxlssIm27j6sRycenevmGueolXdr9d7G2y0L+oadZapatBqEEc0BGSH7e4PUfUVy+leO5bRNS0mxafV5bcj7HcSow8tTxidjz8pz7sMd66eysn0/SobOK4llaGMIJpSCxx3NUNG0mSx1G6uJpWle5hjMpYDAcE9PoO9ell2PWEjUSlddCJx5mtBml+KbnQ9QS08V6nbvBc2wuLe7kjEJ3Zw0ZA49CO+OtbH/Ce+Fwf+Q9pw+s4rzv41xq2h6bKQNyzsoPfBH/1qseDtBs4vDOmpPZW7zSIJHZ4lY/McjJPtX1+U1JY2gqj3OPE1VQ3PTNK1/S9baQaXf292Ysb/ACX3bc9M1o1558NLnTbe01fUHuLK2N9fyGOPeqYiT5V4z9fzrtf7b0z/AKCVl/4EJ/jXU1Z2KTui/RVD+29L/wCglZ/+BCf40f25pX/QTsv/AAIT/GkMv0VQ/tzS/wDoJ2X/AIEJ/jR/belngalZE/8AXdP8aAL1Bqvc6haWUayXd1BBG33WlkCg/Qmqh8S6IP8AmM6b/wCBSf40AXrq5gsraS4upY4YIxueR2wqj1JrGPjjwyv3te00fW4WuT+LfijT28C3FrYajaXEt1KkRSGZXO3O4ng+wrkPhlo9s+h3N5dWsMplm2oZIw3CjnGfc1pTpupKxnVqqnHmZ7HY+KNE1S6W20/VbO5nYEiOKUMSB14FawrzDwymmwfErULh2s7OPT7GOBVJWPMjncx+oAxXoA1vSx/zErL/AMCE/wAamUeV2KhLmimaFFUP7c0v/oJ2X/gQn+NSQanY3Mgjt722lc/wxyqx/IGpKLdFVJtVsLeQxz3trFIvVXmVSPwJqP8AtzS/+glZf+BCf40AX6Kof25pf/QSsv8AwIT/ABo/tzS/+glZf+BCf40AXqWqH9t6X/0ErL/wIT/Gj+3NL/6CVl/4EJ/jQBepaof25pf/AEErL/wIT/GrNvcw3UfmW80cqZxujYMPzFAE1FFFABRRRQAUUUUAJS0UUAJS0UUAFJS0UAFFFFABRRRQAYoxRRQAYoxRRQAYoxRRQAYoxRRQAYoxRRQAUhpaRqAPNNY8Hw2njPSs/Z5LS8vGkCNEd8YQNMUBzgruz27kZrrpgtwsiy8rKpVgDzg8H9Kw/GetwQ+JNEhgzNLp8/2i9K8i2hdTHl+wJ35A64GelbuMcV8lxFOUJQjHb9Tejre5z+i389tMnh2aNmubFQBLjCNbDhH/AN7jbj2zXQH9Kx7qC9sNYn1Gxtxew3MaRzW4cJJHsztKE8Ec8rn3qNn1zVW2pH/ZFuerble4b8eVT8Mn3FeXiaaxDVZSSVtX5+hotNB6EL43uQufmsY94/2txx+ma2GZUQu5wo5JrO0zQ4tOmklEskssvMkkjlmY9Bkn0rIPi86Z4jlsL2Mz2kESzS3KL88AJwC6j7y+pHIzzUfV3i6nLR1skF+VanUr8yKwB2t0NHH1P868j0GDX38QTQ2Ot5kvZy8UVlcCZIkLZaVwMqqgdAeSSK9Im8K6mY5G1LxXfNaKC0iwwRwsVA5BYDPQdq9L/Vyq37s1Yn2yR5v8V9VTWNf0/QLRw7xSASlTkCRiBj8BXcrEkMKxrhY40CjnACgYrx/wVbJqHjuF1B8qOR5huOTgZxk9+SK9I8WIbvTLXTVB3anfQ23BwdudzfoK+4yzDxwmH5Y7I8bG3q1YwEPhDw2cltPsuep80f40Dwb4dIyNLtyD3BJ/kaofFzw14d8NeGrb+y9Nit7y4uQodS2QiqS3U+u2mfDOCSPwn5khYiad2QH0GB/MGumjONSVuUzr0Z0ocymym3g3R7TxxCpjhFk1o07QTSDaGztA5PI5/St8eHfDHP8AoOlf99r/AI1zuueG5/GPjK7Im+z2VgqW5kAySwGSqj6nmpP+FU6aR/yEL38l/wAKai7vliE5Jpc1SzN7/hHfC/8Az5aV/wB9r/jTx4V8PsgZdJsmUjgquQR7Gue/4VTpoP8AyELz8l/wrqtB0aPRNOi0+GWSZFckNIeee3HatYQv8UbGNSSS9ybbOOfwLbXnjOW0aec6XaQpJ5RkLFS3SMHsO9dR/wAIp4ehiBfSrFIxwGkwP1J5pdBY3c2q3/X7TeMqH1SMbR/WnaVoVj4v8casNVgF1ZaZDFbxRsxCiRuWOBWUuSlHm5TWLqVp8nNayIT4e8MAE/YtK+u9P8a1rCztrOKO3tIkhtwchEHyjPU15B4rsbN/iJc6bpFukFqLlbZI4ySMjAJ/PNeq6zONN8P30seQIbZkjx6kbF/U1VGopJu1icVRcOWLk3c5jRvCtn4gvLvX9XQzi7ndoISSFCAkBmx1zitt/Bnh1CA+mWqt6M2D/OtDT4k0jR7dHwEs7YM3/AVyf1qDwT4C0fxD4Yt9X8Q2Zu9Qv2adneVxhSx2gYI4xipquFJbXuXTjUryfvWSKo8HeHCQF06zJPQCTJP4ZqvqPgzRRp9xLa232GeGNpUuIWIZCoJz19q8+tIYbr4kiHS1MFr9vJiQMfljVif/AEEV6j4nlePw9dpGT5tyVto/rIwX+WaKbhUi242FVU6NSKUm7nM+FfAti+mQ3+sobu5uV8wI7HainkfUkYP41vt4N8OqcNptopHUM+D+Wav6hcro2h3dxH8os7ZvLA7YXC/0pfDfw48PT+FbG/1yx+0XstuLi4lklfJLDcc89gQKKjhRslG5VJVMQ3LmsZw8G+HWOF020Y+ivk/oayvE/grRl8PXtxaWqWs9vH5qOhODjsfrXG+CYvtnjuA2u6OBZHlwCeEGSB/IV6Z4l/f6bbWPe/u4oSPVQdzfypw5KkG+WxNRTo1VFSbKem+CdEXTLVbjTYpJhCpkdiclsZOean/4Q/w3206z/wC/n/16m8XXhsvCmpSx58yRBDHj1c4GKzfHPgjw94X+Hf2qOxxqRWGITea2d5wWOM49amrOFJ8vLcdCFSsnJya1Lo8HeHWGV0u2YdMqxI/Q1BZ6enhXxroUmiFoItRma2uLYMSjgDO4D2rC+FEEn2DUZ2dtjSLGqnpkDJP6iuw02H+0vinYRlSU0uxe4PoHkOB+OD+lKryOjzWs2VR541+TmbSPSwKXFIKWuE9IMUYoooAMUYoooAMUYoooAMUYoooAMUYoooAMUYoooAMUUUUAFFFFABRRRQAUUUUAFFFFABRRRQAUjUtBoA83u/s3hfU9ZsdciK6bq9w9xFeMPkYuPmikb+Eg9M9sVpeFNROo6N/rVnFtM1stwpyJgnRx+GB+BrsZ4VniaN1RlYYwy7h+XevO9Ih1nwdoyaZd6BcXccLPi709llEm5idxj4YHnpXgZtlzrU5SpK8mzWnOz1NXVtZuLDV7Cys7A3092krCMTLGVCYJJJ471S0HxPeeJLpZLfSZrfTVZg11LIpDsMgBAPvDPccVZ8G2tzf67qetX9hdwRtHFa2a3seyXYATIdvYFiPrisw3R8CNLo9+JI9MDs+n3SxNIPLYkmE7QSGBPGeorknlCp4ROMLz/r8hqp72+h0uoX8Om2U1xcPtjjQsx/p9T0rkrFGtte8P3twBHc3d7KJs9lkj4jP5D8elX7Lw1qfi+BdR1e6u9Kh3B7OziCh1x0km3Agsey9AK2LTwMF1G0ub/V9QvltJfPihl8tU8zGNx2qMkZrqy3KqmF5ZSav1/wAhTnc6K1sbWyDC1toYAxywjjC5PvgVh/EPU/7J8CatcBgGaAxJz3f5f610teXfHbUTD4bsNPjOXu7ncVHUhB/iwr3zI4v4T2JNxqF6RwiLCp+vJ/kK7u2i/tH4kaJanlLC2mvpB2y2EX/GuX0jSvE/gvSre2XT9NmN/dpGhadt5kccAgdgBzV2bxDq3gLxA93rGlWtxqWrIkMEMFzhYo04HOD95j+lbxxNOVHlg7nL7Gft/aS2M/48al5/iHT9PViVtrcyMO25z/gorqPDVmum+H9Pt5AB5UCtJ9cbm/ma4P4laPrS6w3iTWYbSKO5lSNLdJ/MI2qMDoOMDn612DQeMtQ0xhHpukwi5gwp89tyBh6eoBrKjjcPRjzyktdh4qjOqlGKJvDGX0NLpvv3sj3Le+9jj9AKzNe07xdd6rJJpOqQW1nwI495UqMd/lNP0PQvG2iacln5GlXMMefL82dsoPTIHvWf4g8YeIPC93Hbalo9kryLujaN2ZX+nNdEMxwtf3Iz18jleFrQm5JK3mRf2J496HXYufSds/8AoNdpLMdO0ua4lfcbW3Ls5PVgvX86z7VfGd3axznStIty43COaZw4HuBwKj1TRfGWraZcaf8AZ9FhW4HltIk8hIHfqKy/tTBwulU1HLC16jXMkvQt+HIPsegafGwyfKWRvdm+Y/zqlpn/AAlXh271M6QNHnhvbk3Be6L7znoOPSsjwvd+Lpo5tOtbGxvItPc25upnKrleNobPzflXQeV40H/ML0X/AMCXqquYYN2jOdrDhh8RTnKUEcrofgXVLbxXHq2py2rqJWmcRuSSxyRwR6mun8S/voNOsc8Xl9GrD/ZTLH+QqG9uvF1hJZRSaXpDSXs4t4VSdyS2Ccn2wDVfWfCnjzV7uwuEtNNtnsmLx+XcZBY9zn8q1p4mhyfundMboV6lTmqdDb1m1l1DRr+0t3CS3ELRqx6c1Ss9Z8a2GjQ6bbadoiRwQCCNxK+QAuAevWra2HjfaN+iaSW7lbsjJ+lL9g8a/wDQD0r/AMDW/wAKupUo1NWyaVLEUk1FHIeDPA15ournUNSkhLIpWNI23Ek8Zz24/nXS6uRcavotkcH98924/wBmNeP/AB5hVr+zvGrcDRtIQnozXjED8AM1gah4D8dw+JotYgnsr2dBgBX2Ii45QKcfL/8Aro9tThHliN0KtSbnM1vE+mXGs+HbqxtXRZZdpy5wGAbJGR64pt/rfje90i409bDRYEmgMO6OVtyAjbxk46VOtp44IG7w7poP/X7/APXp32Lxt/0ANMH/AG+mipUoVHdsVKniKS5Yo5vwP4MuPD11cXd/JEZ3j8pEiO4KM5JJ/Ctu8xceLtPh4/0S2kuWHozfKn6Zqn4m1bxP4W0j7df6RpkSM4jQi4Mh3HJHy9+lUPh5LdalDqWs38jS3F1Oqbz6KM4HtyOlaU5wdoQIq06ivVqGx4osL/UbSyj06KCUw3S3EiTttVwvQH8azPGUHi/xnZW9rd22l20UMnm/upm+ZsYGc56ZrXlv9YuteutL0LS7a9azijed5pvL2l+QB61N9l8bf9C5p3/gbUVXRlK8mVQWIhBKK0IvCuhHQdFg09pFkmLFpGXoWPYfStL4cIL/AFrxLrHJWW6W1ibsVjHb8TVVNB8ZauPs9xFYaNbuNss0Uhmm29wvYH3rutE0a00DSbfTtPi8u3gXCgnJJ6kk+pPJrGtVjKKhHZG+HozjJzqbs0MUUUVzHYFFFFABRRRQAUUUUAFFFFABRRRQAUUUUAFFFFABRRRQAUUUUAFFFFABRRRQAUUUUAFFFFABQaKKAE/Ck206ikAgFLRQaYCdK8Z+I7f2/wDFrQ9GHKW4TzF+p3t/46BXsvWvFPCz/wBv/GPW9VPzxWvmeWT252L+gNc+KqeyoTn2Q46s67xDdm28TaHPLZ31xZWhmuH+y25l/eY2JnHTALVy2rQ33jH4r6Ze/wBmahFpVsEw9zbtGBtyxzn1auwW/wBd1PVtRt9Dh0r7Np8iwvLePIC0m0M2No6DIrJ8DeNb3xdfX8U9pbww2gH7yFmO9iSB17cH9K8KFXF4bBfArW3v3NbRcjF+KJbV/FHh3Q15Esgkcf77Ac/gDXZa0bq61jR9F0+8lsvtRllmlgxuWKNeMZBHLMorjLX/AInnx2uZRzFpkZAx6qoT/wBCY111tqVlB491W8vbqCKPS9PjgUSSBSWcmRyM+wQU6FBSq0KMldRjzP1YX0bOY0PWtXf4p3eiLqtzeabZiQP9oCkttXByQB/EaZ4uVda+LegaVjdHaKssg/Euf0AqD4PQyahqeua3ODvnkCAn1Zi7f0qx4Q/4nXxY8Rar95LYGGMnsSdg/RTTr8lPE1akElyR6d2C1SudD4o1K5i1eztfM1e3sWheaefTLYySM+QEQtg4GMk/hXJeLPEZ0XSFk03WvFS30jARLqEIjjK/xdUGTXbW9/4h1a+1AaJBpIs7O5NsJLt5N8jKBuPyjHU4rG8T+CdR8UN/xUuq6RYNBARZpbytjeW5Zw+CQQMcVvluHqKEY1acbW36im+zNHwrBNpHw6t2jiaW8+yvdBcZaSV8sM+pyRWPbX872kTXmq+MxclQZVi05dof+ID5OgNaWmHxFpunQ2kmseFLhYE2rLJcSBioHGQOOBUXgbxre+LbvUI5rW3ihtAqrLAzHeScd+2BmuWVKthPaV6lNSTd9R3UrK5reGdIstWvbbWE17UdTNi7okF2FQwSEYO5doIbHrXagVyXhFfP8S+KL1QVia6jtwOxaNAGb8z+lddX0FBp000rX6GT3FooorYQUUUUAFIaWigDzT4weH9d8SW+mWejae1zFEzyysJFUBuAo5I96yPDemeJ9A0SCwPhG4laMszuL2IbiTnpmvYaMVUJuDuiJwjNcsjjvh/pGo2Z1jUdYs/sd3qN1vERdXKxquFGRx612VJS1LbbuykrKwUUUUDCiiigAooooAKKKKACiiigAooooAKKKKACiiigAooooAKKKKACikooAWiikoAWikpaACikpaACiiigAooooAKKKKACikpaAKeqzy2uk3c9vG8s0cLtHGgyzNjgD8a8g+G8N94Whv5NV0DXDc3UinMNmWG0eucdzXtVJisa9GNaDpy2Y07M4fSodRsPhxqt2bG4GqX5ubn7OEPmh5CQgx1yAR+Vcp8N1u/CWj3Meo+H9da6mn8w+VZlhtC8DP5/nXsmKMVNXDwq0/ZS2BOzueKeA4tS0LU9X1DWNA1s3F64KGG0LYGSTn8SK6W5udJvJ2lufBmqTyv96STSgxP1Jr0XHtRiuarltKpU9o7p2toylNpWPO5dduLDSpo/DvhHVllVSURrQQRqT39z7AVgfDv7b4W0u8GpeH9de8uJ/MbyrMsCAOBn6k17HijHtRHLaEabp/zasOZnO+BdPuLDwpbi+iaK9uHkubhW6h3ctg/QED8K878VaXfal8XBqF9oOo3ej2u2MeXamQShVzwOhG4mvZ8UYrucU4uKI6nmm3Qf+hFv/wDwTrVu11QWUTQaD4P1OOeQ5RHs1tot3Ys2eBXf4pcV5/8AZdJv3m36svnZi+FNEl0HREtrmUTXcjvPcyKOGlc7mx7c4H0raoor0kraIgWiiimAUUUUAFFFFABRRRQAUUlLQAUUlLQAUUUUAFFFFABRRRQAUUlLQAUUlLQAUUUlAC0UUUAFFFFABRRRQAlFLRQAUlLRQAlLRRQAlLRRQAUUUUAFFFFABRRRQAlLSUtACUtFFABRRRQAUUUUAFFFFABRRRQAhpaDRQAUlLRQAUUUUAFFFFABRRRQAUUUUAJS0UUAJS0UUAFFFFABRRRQAUUUUAJS0UUAJS0UUAFJS0UAFFFFABRRRQAUUUUAFFFFABRRRQAUUUUAFFFFABRRRQAUUUUAFFFFACUtJS0AFFFFABRRRQAUUUUAFFFFABRRRQAGig0UAFFFFABRRRQAUUUUAFFFFABRRRQAUUUUAFFFFABRRRQAUUUUAFFFFABRRRQAUUUUAFFFFABRRRQAUUUUAFFFFABRRRQAUUUUAFFFFABRRRQAUUUUAFFFFABRRRQAUUlLQAUUUUAFFFFABRRRQAUUUUAFFFFAAaKDRQAUUUUAFFFFABRRRQAUUUUAFFFFABRRRQAUUUUAFFFFABRRRQAUUUUAFFFFABRRRQAUUUUAFFFFABRRRQAfjR+NFFAB+NH40UUAH40fjRRQAfjR+NFFAB+NH40UUAH40fjRRQAfjR+NFFAB+NH40UUAH40fjRRQAfjR+NFFAB+NH40UUAH40fjRRQAfjR+NFFAB+NH40UUAB+tH40GigA/Gj8aKKAD8aPxoooAPxo/GiigA/Gj8aKKAD8aPxoooAPxo/GiigA/Gj8aKKAD8aPxoooAPxo/GiigA/Gj8aKKAD8aPxoooAPxo/GiigA/Gj8aKKAD8aPxoooAPxooooAKKKKACikooAWiikoAWikpaACikpaACiiigAooooAKKKKACikpaACikpaACiiigAooooAKKKKACiiigANFIaWgAoopKAFooooAKKKKACiiigAooooAKKSloAKKSloAKKKKACiiigAooooAKKSloAKKSloAKKKSgBaKKKACiiigD/9k=;" parent="1" vertex="1">
          <mxGeometry x="905.38" y="310" width="149.24" height="70" as="geometry" />
        </mxCell>
        <mxCell id="RkjFfQdDdX4bQdD2x07N-21" value="" style="shape=image;imageAspect=0;aspect=fixed;verticalLabelPosition=bottom;verticalAlign=top;image=data:image/jpeg,/9j/4AAQSkZJRgABAQEASABIAAD/4gxYSUNDX1BST0ZJTEUAAQEAAAxITGlubwIQAABtbnRyUkdCIFhZWiAHzgACAAkABgAxAABhY3NwTVNGVAAAAABJRUMgc1JHQgAAAAAAAAAAAAAAAQAA9tYAAQAAAADTLUhQICAAAAAAAAAAAAAAAAAAAAAAAAAAAAAAAAAAAAAAAAAAAAAAAAAAAAAAAAAAAAAAABFjcHJ0AAABUAAAADNkZXNjAAABhAAAAGx3dHB0AAAB8AAAABRia3B0AAACBAAAABRyWFlaAAACGAAAABRnWFlaAAACLAAAABRiWFlaAAACQAAAABRkbW5kAAACVAAAAHBkbWRkAAACxAAAAIh2dWVkAAADTAAAAIZ2aWV3AAAD1AAAACRsdW1pAAAD+AAAABRtZWFzAAAEDAAAACR0ZWNoAAAEMAAAAAxyVFJDAAAEPAAACAxnVFJDAAAEPAAACAxiVFJDAAAEPAAACAx0ZXh0AAAAAENvcHlyaWdodCAoYykgMTk5OCBIZXdsZXR0LVBhY2thcmQgQ29tcGFueQAAZGVzYwAAAAAAAAASc1JHQiBJRUM2MTk2Ni0yLjEAAAAAAAAAAAAAABJzUkdCIElFQzYxOTY2LTIuMQAAAAAAAAAAAAAAAAAAAAAAAAAAAAAAAAAAAAAAAAAAAAAAAAAAAAAAAAAAAAAAAAAAWFlaIAAAAAAAAPNRAAEAAAABFsxYWVogAAAAAAAAAAAAAAAAAAAAAFhZWiAAAAAAAABvogAAOPUAAAOQWFlaIAAAAAAAAGKZAAC3hQAAGNpYWVogAAAAAAAAJKAAAA+EAAC2z2Rlc2MAAAAAAAAAFklFQyBodHRwOi8vd3d3LmllYy5jaAAAAAAAAAAAAAAAFklFQyBodHRwOi8vd3d3LmllYy5jaAAAAAAAAAAAAAAAAAAAAAAAAAAAAAAAAAAAAAAAAAAAAAAAAAAAAAAAAAAAAABkZXNjAAAAAAAAAC5JRUMgNjE5NjYtMi4xIERlZmF1bHQgUkdCIGNvbG91ciBzcGFjZSAtIHNSR0IAAAAAAAAAAAAAAC5JRUMgNjE5NjYtMi4xIERlZmF1bHQgUkdCIGNvbG91ciBzcGFjZSAtIHNSR0IAAAAAAAAAAAAAAAAAAAAAAAAAAAAAZGVzYwAAAAAAAAAsUmVmZXJlbmNlIFZpZXdpbmcgQ29uZGl0aW9uIGluIElFQzYxOTY2LTIuMQAAAAAAAAAAAAAALFJlZmVyZW5jZSBWaWV3aW5nIENvbmRpdGlvbiBpbiBJRUM2MTk2Ni0yLjEAAAAAAAAAAAAAAAAAAAAAAAAAAAAAAAAAAHZpZXcAAAAAABOk/gAUXy4AEM8UAAPtzAAEEwsAA1yeAAAAAVhZWiAAAAAAAEwJVgBQAAAAVx/nbWVhcwAAAAAAAAABAAAAAAAAAAAAAAAAAAAAAAAAAo8AAAACc2lnIAAAAABDUlQgY3VydgAAAAAAAAQAAAAABQAKAA8AFAAZAB4AIwAoAC0AMgA3ADsAQABFAEoATwBUAFkAXgBjAGgAbQByAHcAfACBAIYAiwCQAJUAmgCfAKQAqQCuALIAtwC8AMEAxgDLANAA1QDbAOAA5QDrAPAA9gD7AQEBBwENARMBGQEfASUBKwEyATgBPgFFAUwBUgFZAWABZwFuAXUBfAGDAYsBkgGaAaEBqQGxAbkBwQHJAdEB2QHhAekB8gH6AgMCDAIUAh0CJgIvAjgCQQJLAlQCXQJnAnECegKEAo4CmAKiAqwCtgLBAssC1QLgAusC9QMAAwsDFgMhAy0DOANDA08DWgNmA3IDfgOKA5YDogOuA7oDxwPTA+AD7AP5BAYEEwQgBC0EOwRIBFUEYwRxBH4EjASaBKgEtgTEBNME4QTwBP4FDQUcBSsFOgVJBVgFZwV3BYYFlgWmBbUFxQXVBeUF9gYGBhYGJwY3BkgGWQZqBnsGjAadBq8GwAbRBuMG9QcHBxkHKwc9B08HYQd0B4YHmQesB78H0gflB/gICwgfCDIIRghaCG4IggiWCKoIvgjSCOcI+wkQCSUJOglPCWQJeQmPCaQJugnPCeUJ+woRCicKPQpUCmoKgQqYCq4KxQrcCvMLCwsiCzkLUQtpC4ALmAuwC8gL4Qv5DBIMKgxDDFwMdQyODKcMwAzZDPMNDQ0mDUANWg10DY4NqQ3DDd4N+A4TDi4OSQ5kDn8Omw62DtIO7g8JDyUPQQ9eD3oPlg+zD88P7BAJECYQQxBhEH4QmxC5ENcQ9RETETERTxFtEYwRqhHJEegSBxImEkUSZBKEEqMSwxLjEwMTIxNDE2MTgxOkE8UT5RQGFCcUSRRqFIsUrRTOFPAVEhU0FVYVeBWbFb0V4BYDFiYWSRZsFo8WshbWFvoXHRdBF2UXiReuF9IX9xgbGEAYZRiKGK8Y1Rj6GSAZRRlrGZEZtxndGgQaKhpRGncanhrFGuwbFBs7G2MbihuyG9ocAhwqHFIcexyjHMwc9R0eHUcdcB2ZHcMd7B4WHkAeah6UHr4e6R8THz4faR+UH78f6iAVIEEgbCCYIMQg8CEcIUghdSGhIc4h+yInIlUigiKvIt0jCiM4I2YjlCPCI/AkHyRNJHwkqyTaJQklOCVoJZclxyX3JicmVyaHJrcm6CcYJ0kneierJ9woDSg/KHEooijUKQYpOClrKZ0p0CoCKjUqaCqbKs8rAis2K2krnSvRLAUsOSxuLKIs1y0MLUEtdi2rLeEuFi5MLoIuty7uLyQvWi+RL8cv/jA1MGwwpDDbMRIxSjGCMbox8jIqMmMymzLUMw0zRjN/M7gz8TQrNGU0njTYNRM1TTWHNcI1/TY3NnI2rjbpNyQ3YDecN9c4FDhQOIw4yDkFOUI5fzm8Ofk6Njp0OrI67zstO2s7qjvoPCc8ZTykPOM9Ij1hPaE94D4gPmA+oD7gPyE/YT+iP+JAI0BkQKZA50EpQWpBrEHuQjBCckK1QvdDOkN9Q8BEA0RHRIpEzkUSRVVFmkXeRiJGZ0arRvBHNUd7R8BIBUhLSJFI10kdSWNJqUnwSjdKfUrESwxLU0uaS+JMKkxyTLpNAk1KTZNN3E4lTm5Ot08AT0lPk0/dUCdQcVC7UQZRUFGbUeZSMVJ8UsdTE1NfU6pT9lRCVI9U21UoVXVVwlYPVlxWqVb3V0RXklfgWC9YfVjLWRpZaVm4WgdaVlqmWvVbRVuVW+VcNVyGXNZdJ114XcleGl5sXr1fD19hX7NgBWBXYKpg/GFPYaJh9WJJYpxi8GNDY5dj62RAZJRk6WU9ZZJl52Y9ZpJm6Gc9Z5Nn6Wg/aJZo7GlDaZpp8WpIap9q92tPa6dr/2xXbK9tCG1gbbluEm5rbsRvHm94b9FwK3CGcOBxOnGVcfByS3KmcwFzXXO4dBR0cHTMdSh1hXXhdj52m3b4d1Z3s3gReG54zHkqeYl553pGeqV7BHtje8J8IXyBfOF9QX2hfgF+Yn7CfyN/hH/lgEeAqIEKgWuBzYIwgpKC9INXg7qEHYSAhOOFR4Wrhg6GcobXhzuHn4gEiGmIzokziZmJ/opkisqLMIuWi/yMY4zKjTGNmI3/jmaOzo82j56QBpBukNaRP5GokhGSepLjk02TtpQglIqU9JVflcmWNJaflwqXdZfgmEyYuJkkmZCZ/JpomtWbQpuvnByciZz3nWSd0p5Anq6fHZ+Ln/qgaaDYoUehtqImopajBqN2o+akVqTHpTilqaYapoum/adup+CoUqjEqTepqaocqo+rAqt1q+msXKzQrUStuK4trqGvFq+LsACwdbDqsWCx1rJLssKzOLOutCW0nLUTtYq2AbZ5tvC3aLfguFm40blKucK6O7q1uy67p7whvJu9Fb2Pvgq+hL7/v3q/9cBwwOzBZ8Hjwl/C28NYw9TEUcTOxUvFyMZGxsPHQce/yD3IvMk6ybnKOMq3yzbLtsw1zLXNNc21zjbOts83z7jQOdC60TzRvtI/0sHTRNPG1EnUy9VO1dHWVdbY11zX4Nhk2OjZbNnx2nba+9uA3AXcit0Q3ZbeHN6i3ynfr+A24L3hROHM4lPi2+Nj4+vkc+T85YTmDeaW5x/nqegy6LzpRunQ6lvq5etw6/vshu0R7ZzuKO6070DvzPBY8OXxcvH/8ozzGfOn9DT0wvVQ9d72bfb794r4Gfio+Tj5x/pX+uf7d/wH/Jj9Kf26/kv+3P9t////2wBDAAYEBAUEBAYFBQUGBgYHCQ4JCQgICRINDQoOFRIWFhUSFBQXGiEcFxgfGRQUHScdHyIjJSUlFhwpLCgkKyEkJST/2wBDAQYGBgkICREJCREkGBQYJCQkJCQkJCQkJCQkJCQkJCQkJCQkJCQkJCQkJCQkJCQkJCQkJCQkJCQkJCQkJCQkJCT/wAARCAJ2BLADAREAAhEBAxEB/8QAHAABAAICAwEAAAAAAAAAAAAAAAYHBAUBAgMI/8QASxABAAECAwMGCQkGBAUEAwAAAAECAwQFEQYHchIhNUGxwRMxMzQ2UWGBkRQWFyJUcXOSshUjMlJVoUJTYtEkQ2Nk4SZFgqKDk/H/xAAZAQEAAwEBAAAAAAAAAAAAAAAAAgMEAQX/xAAkEQEAAgIBBAIDAQEAAAAAAAAAAQIDMRESEyEyBEEUUWEiQv/aAAwDAQACEQMRAD8A+qQAAAAAAAAAAAAAAAAAAAAAAAAAAAAAAAAAAAAAAAAAAAAAAAAAAAAAAAAAAAAAAAAAAAAAAAAAAAAAAAAAAAAAAAAAAAAAAAAAAAAAAAAAAAAAAAAAAAAAAAAAAAAAAAAAAAAAAAAAAAAAAAAAAAAAAAAAAAAAAAAAAAAAAAAAAAAAAAAAAAAAAAAAAAAAAAAAAAAAAAAAAAAAAAAAAAAAAAAAAAAAAAAAAAAAAAAAAAAAAAAAAAAAAAAAAAAAAAAAAAAAAAAAAAAAAAAAAAAAAAAAAAAAAAAAAAAAAAAAAAAAAAAAAAAAAAAAAAAAAAAAAAAAAAAAAAAAAAAAAAAAAAAAAAAAAAAAAAAAAAAAAAAAAAAAAAAAAAAAAAAAAAAAAAAAAAAAAAAAAAAAAAAAAAAAAAAAAAAAAAAAAAAAAAAAAAAAAAAAAAAAAAAAAAAAAAAAAAAAAAAAAAAAAAAAAAAAAAAAAAAAAAAAAAAAAAAAAAAAAAAAAAAAAAAAAAAAAAAAAAAAAAAAAAAAAAAAAAAAAAAAAAAAAAAAAAAAAAAAAAAAAAAAAAAAAAAAAAAAAAAAAAAAAAAAAAAAAAAAAAAAAAAAAAAAAAAAAAAAAAAAAAAAAAAAAAAAAAAAAAAAAAAAAAAAAAAAAAAAAAAAAAAAAAAAAAAAAAAAAAAAAAAAAAAAAAAAAAAAAAAAAAAAAAAAAAAAAAAAAAAAAAAAAAAAAAAAAAAAAAAAAAAAAAAAAAAAAAAAAAAAAAAAAAAAAAAAAAAAAAAAAAAAAAAAAAAAAAAAAAAAAAAAAAAAAAAAAAAAAAAAAAAAAAAAAAAAAAAAAAAAAAAAAAAAAAAAAAAAAAAAAAAAAAAAAAAAAAAAAAAAAAAAAAAAAAAAAAAAAAAAAAAAAAAAAAAAAAAAAAAAAAAAAAAAAAAAAAAAAAAAAAAAAAAAAAAAAAAAAAAAAAAAAAAAAAAAAAAAAAAAAAAAAAAAAAAAAAAAAAAAAAAAAAAAAAAAAAAAAAAAAAAAAAAAAAAAAAAAAAAAAAAAAAAAAAAAAAAAAAAAAAAAAAAAAAAAAAAAAAAAAAAAAAAAAAAAAAAAAAAAAAAAAAAAAAAAAAAAAAAAAAAAAAAAAAAAAAAAAAAAAAAAAAAAAAAAAAAAAAAAAAAAAAAAAAAAAAAAAAAAAAAAAAAAAAAAAAAAAAAAAAAAAAAAAAAAAAAAAAAAAAAAAAAAAAAAAAAAAAAAAAAAAAAAAAAAAAAAAAAAAAAAAAAAAAAAAAAAAAAAAAAAAAAAAAAAAAAAAAAAAAAAAAAAAAAAAAAAAAAAAAAAAAAAAAAAAAAAAAAAAAAAAAAAAAAAAAAAAAAAAAAAAAAAAAAAAAAAAAAAAAAAAAAAAAAAAAAAAAAAAAAAAAAAAAAAAAAAAAAAAAAAAAAAAAAAAAAAAAAAAAAAAAAAAAAAAAAAAAAAAAAAAAAAAAAAAAAAAAAAAAAAAAAAAAAAAAAAAAAAAAAAAAAAAAAAAAAAAAAAAAAAAAAAAAAAAAAAAAAAAAAAAAAAAAAAAAAAAAAAAAAAAAAAAAAAAAAAAAAAAAAAAAAAAAAAAAAAAAAAAAAAAAAAAAAAAAAAAAAAAAAAAAAAAAAAAAAAAAAAAAAAAAAAAAAAAAAAAAAAAAAAAAAAAAAAAAAAAAAAAAAAAAAAAAAAAAAAAAAAAAAAAAAAAAAAAAAAAAAAAAAAAAAAAAAAAAAAAAAAAAAAAAAAAAAAAAAAAAAAAAAAAAAAAAAAAAAAAAAAAAAAAAAAAAAAAAAAAAAAAAAAAAAAAAAAAAAAAAAAAAAAAAAAAAAAAAAAAAAAAAAAAAAAAAAAAAAAAAAAAAAAAAAAAAAAAAAAAAAAAAAAAAAAAAAAAAAAAAAAAAAAAAAAAAAAAAAAAAAAAAAAAAAAAAAAAAAAAAAAAAAAAAAAAAAAAAAAAAAAAAAAAAAAAAAAAAAAAAAAAAAAAAAAAAAAAAAAAAAAAAAAAAAAAAAAAAAAAAAAAAAAAAAAAAAAAAAAAAAAAAAAAAAAAAAAAAAAAAAAAAAAAAAAAAAAAAAAAAAAAAAAAAAAAAAAAAAAAAAAAAAAAAAAAAAAAAAAAAAAAAAAAAAAAAAAAAAAAAAAAAAAAAAAAAAAAAAAAAAAAAAAAAAAAAAAAAAAAAAAAAAAAAAAAAAAAAAAAAAAAAAAAAAAAAAAAAAAAAAAAAAAAAAAAAAAAAAAAAAAAAAAAAAAAAAAAAAAAAAAAAAAAAAAAAAAAAAAAAAAAAAAAAAAAAAAAAAAAAAAAAAAAAAAAAAAAAAAAAAAAAAAAAAAAAAAAAAAAAAAAAAAAAAAAAAAAAAAAAAAAAAAAAAAAAAAAAAAAAAAAAAAAAAAAAAAAAAAAAAAAAAAAAAAAAAAAAAAAAAAAAAAAAAAAAAAAAAAAAAAAAAAAAAAAAAAAAAAAAAAAAAAAAAAAAAAAAAAAAAAAAAAAAAAAAAAAAAAAAAAAAAAAAAAAAAAAAAAAAAAAAAAAAAAAAAAAAAAAAAAAAAAAAAAAAAAAAAAAAAAAAAAAAAAAAAAAAAAAAAAAAAAAAAAAAAAAAAAAAAAAAAAAAAAAAAAAAAAAAAAAAAAAAAAAAAAAAAAAAAAAAAAAAAAAAAAAAAAAAAAAAAAAAAAAAAAAAAAAAAAAAAAAAAAAAAAAAAAAAAAAAAAAAAAAAAAAAAAAAAAAAAAAAAAAAAAAAAAAAAAAAAAAAAAAAAAAAAAAAAAAAAAAAAAAAAAAAAAAAAAAAAAAAAAAAAAAAAAAAAAAAAAAAAAAAAAAAAAAAAAAAAAAAAAAAAAAAAAAAAAAAAAAAAAAAAAAAAAAAAAAAAAAAAAAAAAAAAAAAAAAAAAAAAAAAAAAAAAAAAAAAAAAAAAAAAAAAAAAAAAAAAAAAAAAAAAAAAAAAAAAAAAAAAAAAAAAAAAAAAAAAAAAAAAAAAAAAAAAAAAAAAAAAAAAAAAAAAAAAAAAAAAAAAAAAAAAAAAAAAAAAAAAAAAAAAAAAAAAAAAAAAAAAAAAAAAAAAAAAAAAAAAAAAAAAAAAAAAAAAAAAAAAAAAAAAAAAAAAAAAAAAAAAAAAAAAAAAAAAAAAAAAAAAAAAAAAAAAAAAAAAAAAAAAAAAAAAAAAAAAAAAAAAAAAAAAAAAAAAAAAAAAAAAAAAAAAAAAAAAAAAAAAAAAAAAAAAAAAAAAAAAAAAAAAAAAAAAAAAAAAAAAAAAAANQAAAAAAAAAAAAAAAAAAAAAAAAAAAAAAAAAAAAAAAAAAAAAAAAAAAAAAAAAAAAAAAAAAAAAAAAAAAAAAAAAAAAAAAAAAAAAAAAAAAAAAAAAAAAAAAAAAAAAAAAAAAAAAAAAAAAAAAAAAAAAAAAAAAAJAcB0AAAAAAAAAAAAAAAAAAAAAAAAAAAAAAAAAAAAAAAAAAAAAAAAAAAAAAAAAAAAAAAAAAAAAAAAAAAAAAAAAAAAAAAAAAAAAAAAAAAAAAAAAAAAAANQAAAAAAAAAAAAAAAAAAAAAAAAAAAAAAAAAAAAJBAd4+2t7I67GCwF3k4nWKrmk88Uz4luPHz5lnzZOnxCV7O5zazzKbGNtzry6frR1xKu1emeF1LdUctnq4kAAAAAAAAAAAAAAAAAAAAAAAAAAAAAAAAAAAAAAAAAAAAAAAAAAAAAAAAAAAAAAAAAAAAAAAAAAAAAAAAAAAAAAAAAAAAAAAAAAAAAAA0Gbbb5JkeK+S47FeDu+rkzKdaTOldstazxLD+k/Zj7fP5Jd7Vke/T9n0n7Mfbp/JJ2rO9+h9J+zH26fySdqx3qH0n7Mfb5/JJ2rOd+n7I3nbM1VRTGOnWeaPqSdqx36JRZu037VF2idaa6YqifZKtc7gAAAAAA8MRjbGGp1u3aaY+92I5cmYhrL21WAtaxRXNc+yNHeiUZvDEq2ztxMxThapj18pLoc7jznbOeVzYadPvOhzuO3z0p+y1fmOg7jtG2lHXhKvzHbd7jMy7aO3mOJixTammZiZ11RmvDsX5luUUwAGqubTZbarqoqvaVUzpPNKUVlGbw6/OrLP8APn8snRLnXB86cs/z/wD6ydEnXB86cs/z/wD6ydEnXB86cs/z/wD6ydEnXD1w20OX4q9Fq1d1qnxRoTWYdi0S2SKQAAAAAAAAAAADDzfMrWU5fexl2Yim3TNX3+x2I5nhy1uI5fPOc5nczjM7+Mu1TM11TydeqnXmhsrHEcPOvbqnlL91m0/7OzCrLMRc0s3/AK1Mz1THNEf3V5a8xzC7BfiemVxeLxc7K2OXQAAAAAAAAAAAAAAAAAAAAAAAAAAAAAAAAAAAAAAAAAAAAAAAAAAAAAAAAAAAAAAAAAAAAAAAAAAAAAAAAB0vXItWq65nTSJkJQi7tJmHLrqpvVRTrzQt6YUdcphluJ+V4K1d11mYjX71c+JXVnmGr2nzHE4DwXye5NHKjWdPvSpHKN5mNNTazTOsRbm5aqu1Ux1xCXEIdVmZk+0t6rERh8bHj5oq69UbV/Ttb/Ut9mmKnB4C9eidKqadYRiOZWWniEPt7R5jN2iZvVcmao1+7VZ0wp65Tezdi9bpuUzrFUawqle0+0Gd1ZdTFqzz3auv1J1ryha3DSRic9qsfKfDXfB+PX2Jf50hzbbb7O57cx9VWHv6cumNYq9aN68JUty8Nps1xeAxNuixdqpiqmZmIdpETBe0xpusrv138BauXKuVXVTrMoTHlONI1czzHxmkWYvVcjwkRp7NVnTHCrqnluNp8ffwGFtV2K5oqqr0nT7kKRyneeIaK1nGcX6ZqtVXa49cRqnxCHVaWblmNzi5jbdN+L3gpnn1jmcmI48O1m3PlKVa0ABSW9WP/UnunuasWmHP7IYtUgAAO9ny1vicl2H0plfRuE/Bo/TDFO3pV0yXHQAAAHFVUUUzVVOkR45kEXzjaiqJqs4P7pr6/csrT9qrX/SOXb92/Vy7tyquqeuVnCvl5gAAAA2+y3S9HDUjbSVNpypXgAK2x3nl7jq7V8aZp28HQAABn5F0paRtpKu1gqV4AAAAAAAAAABr1gqXertV8rvxk+Gr/d2p1uzE/wCKOr4S0YqfcsmfJ/zCuV7M72btdi9RdtzpXRVFVM+2HCF9bD7R0bQ5Pbrqqjw9qOTcjr1jrZMlOmXoYr9UJGgsAAAAAAAAAAAAAAAAAAAAAAAAAAAAAAAAAAAAAAAAAAAAAAAAAAAAAAAAAAAAAAAAAAAAAAAAAAAAAAAAAavaLE/J8suaT9armhKseUbz4RfC4HwuS4i9Mc9NyJifZosmfKqI8N7shivCYKqzPjomZQvHlOk+GNtl/wAj7p7XaOZGVstXRRlVXLqiPrz45RvtKmkdxVVF7OYmxz0+Ep00+9ZGlU7b/a3ETbwNu1rz1zpVHsQpHnlZefHDSYjAzbyWxiNPrRVOs+/mTifKEx45SjZzEeHyu1GvPRTFMq7R5W0nwje0lybmc8nq+rCddK77S6jDxXl0WI5omjkqvvlbx44ajLNm72Ax1OIm/TVTE/wxCdrcwhWvEtftl57Z4J7UqaRybbLK8+wFjA2rVy/FNdNOkwjNZ5SraOEdmum7m9NyidaZuRpPvT+lc7SDbPzKx+J3IUWZNMfZnMcJhMJNF+7TRVM+KXbxMuUmIb3D5pgsTci3ZvU1V+qEOmYTi0SzHEgAFJb1fST3T3NWLTDn9kMWqQAAHez5ajicl2H0plnRuE/Bo/TDFO3pV0yXHQAAAEZ2qzWaI+R2a9JmPrTHqTpCrJb9IqtVOR1wAAAADb7LdL0cNXYjfSVNpypXgAK2x3nl7jq7V8aZp28HQAABn5F0paRtpKu1gqV4AAAAAAAAAACPba7SW9ncouXeVE3rkTTbp65TpTmVeS/TChL1+5iL1d67VNddc61TPW1sEzy83XAEh2I2lr2bzmi5VVPya7pRdj2IXr1QsxX6ZX5h79GJs0XrcxNNcRMTDHxw3xPLuOgAAAAAAAAAAAAAAAAAAAAAAAAAAAAAAAAAAAAAAAAAAAAAAAAAAAAAAAAAAAAAAAAAAAAAAAAAAAAAAAIttlidZs2KZ541mVlFWSXhhc5y+zk04OrwnhpomJ+pzakxPPLkWjjh57J4nwOYVWtea7EUw7ePBSfLN2y/5P3T2uUdyNblmQ4jMcN4a3dmmjXTTV2bcOVrMt9lWzVrAXIvXK5uVx4tY8SFrc+E604aXazE+Hx8W4nmop096dI8IXny9sbnWX38ojB2/CeE0jx0c2rkVnnl2bRMcPbY7E893Dz1/WLwY5+muz6OTnc838qVdI22mtu5FOHi5VzRFOsqp2u+mvw20eCxWLjC2/CeEmZiNaeZ3p4ci8S0e2M/8bZ4Z7U6aV5NsjAbMYfFYS3equ1RVVTrpo5N+J4SikcctLRZixmlFqJ1im5TH90vpX9pFtn5lY/E7kKbWZNNXkmQW80sTdrvV29OqI1StbjwjWvPlvMt2btZdiYv03665iNNJhCb8+E4pw3KKYACkt6vpJ7p7mrFphz+yGLVIAADvZ8tRxOS7D6Uyzo3Cfg0fphinb0q6ZLjoAADpeueCs11/wAtMyEq5xuInF4q7emf4qtYXwzTPMvB0AAAAAAbfZbpejhqQvpKm05VLwAFbY7zy9x1dq+NM07eDoAAAz8i6UtI20lXawVK8AAAAAAAAA8YPHFYq1gsPcxF+qKbduOVVPsIjlyZ4UJtltLd2kza5emZpsW55Nujq5ubX3tlK9McMGW/VLQJqwAHILU3V7W+FonJsZc+vTz2Zqnxx1s+Wn3DXgv/AMyspQ0uQAAAAAAAAAAAAAAAAAAAAAAAAAAAAAAAAAAAAAAAAAAAAAAAAAAAAAAAAAAAAAAAAAAAAAAAAAAAAAAAQTOr3y7OJiNdNYpXV8Qot5lIaNlcByY18Jrp61fXKzohGYicrziNNY5FfN9yzcKtS2+188qjD1ePWlGieRnbI82Vz+JKN9pY9Nzcq8Hbqq9UTKKaB00ftTO+TVryLlz+y7UKN2SK5stgabVUxy+VFM6c/Wh1yn0Q0GSXqsDnFFufHVPIlK0cwhXxLO2swNynFU4ymnWidImY6tHKSlePPJG1NEZb4CbdXheTydeo6PLnX4eWyuCuX8bOKqpmKKOeJ9cu2nwUjy52x88sz/ontKadybSLJujLPBHYrttOukOu82df/ljtW/Smdt/tn5jY/E7kKbWZNNRlO0H7Lw82vBVVzM+OEprzKNbcQ22B2r+V4u3YmxVHLq5OvqRmnHlKL8pEgsAAUlvV9JPdPc1YtMOf2QxapAAAd7PlqOJyXYfSmV9G4T8Gj9MMU7elXTJcdAAAa/Pr02Msu1ROmv1fi7XaNp4hX/sXM466AAA5iJmYiI1mQbPCbOY/FRFU25t0z11R40ZvCUUmWbGxuK+0WvhLnW725ZmT7OYjLsfTfru0VUxExzRKNrcwlWnEpGgsAAVtjvPL3HV2r40zTt4OgAADPyLpO0jbSVdrBUrwAAAAAAAAHGunsBVW9DbGbt6rJcFc+rTzXqqfX6mjFT7lkz5P+YQPEZb8kwVu9eq5Ny5/DR16etbzzKia8QwUkQAAHrhsVdwWIt4ixVNFy3MVRMOccuxPHmF87GbT2tpMqt3JqiMTRGl2n2+tkvTplvx36oSJBYAAAAAAAAAAAAAAAAAAAAAAAAAAAAAAAAAAAAAAAAAAAAAAAAAAAAAAAAAAAAAAAAAAAAAAAAAAAAAAAxoy7CxXy/BU8rXXV3mXOIZLjrHu4DDXrnhK7VM1et3lzh2vYOzfiIuURVFPi1OTh2sWLeHo5FumKafHpDk+XXeYiqJiY1ieYHhbwGGs1xXRaiKo6zmXOIZA6x/2fhvC+F8FTy9ddXeXOIe1dFFynk10xVHqlx1hzkmBmvlzYjXXV3qlHphl27VFqnk0UxTEdUQ4lw6X8FYxMxN23FUx6zlyYelu3TboiimNKY5ogHhOXYabnhJtU8rXXV3k4h6X8NaxNMU3aIqiOeNXIngny8f2Vg/8ml3qk6YdreW4W1XFdFqmKonWJOZOIZLjpIGgK+2y3e4zaPNfllm9FFOkxpzLqZIrHDPkxTaeWh+h7MftVPxhPvQr/Hk+h3MftVPxg70H48n0O5j9qp+MHeg/Hk+h7MftVPxg70H48u1vc/mNFymqcTTzTr44O9Dv48rXwlmcPhLFmeebdumifdGjNLVGnsOgAANPtVVplNftrp7UqbQvpB1ykAAABINk8upxF6rEXI1ij+HX1oXlOlUwiIiNIVLgAAAAETxGyeIu367kXI0qqmY+KyLwqmjz+Z+J/wAyP7O9cOds+Z2J/wAyPjB1u9s+Z2J/zI+MHWds+Z2J/wAyPjB1nbZOXbMX8Ji6L1VyJilybckU4lJ1a0AAAAAAAABEN4G11Gz+AmxZqicXeiYpiOqOvX1LMdOqVOXJ0wqfJcBVjb9eOxlUzatzyq6qv8UtFp48MtI5nmWFmuOqx+Lqr8VFP1aY9kJRHCNp5liOouAAAAbnZbaO/s1mlvFUTM2pnS7R/NShavVHCeO/TPK/ctzGxmmDt4rD1xVRXETzT4pZJjh6EW5jmGUi6OgAAAAAAAAAAAAAAAAAAAAAAAAAAAAAAAAAAAAAAAAAAAAAAAAAAAAAAAAAAAAAAAAAAAAAAAAAAAAAAAAAAAABoAAAAB1g4ByAAAAAAAAAAAAAAAADTbWdE1cVPalTaF9IQuUgAAAJjsf5hVxSqvtbTTfoLAAAAAAAAAAAAAAAAAAAAGr2jz/D7O5Zcxt+rnpj6lHXXPqhKtZtPEI3tFY5lRl6/jdrM5qvXZqqmudeGn1fBq8Vhgnm9mbtDireX4WjLMNOkafW073Kxz5lO88RxCMrFIAAAAACbbutsqsjxcYDFV/8JdnSJn/BP/8AVOSnPmF+HJ0+JXTTVTXTFVM6xPillbXLoAAAAAAAAAAAAAAAAAAAAAAAAAAAAAAAAAAAAAAAAAAAAAAAAAAAAAAAAAAAAAAAAAAAAAAAAAAAAAAAAAAAAAA87t+1ZjW7cooj/VVEHEuctVi9rsmwMzF7GUf/ABnVKKWlGclYYE7ydm6Z0nGVfklLtWR71Xe3vE2duzEU4yef10TDnasd2strhM+y3G062cZZn764iUZrMJxeJ0z6aoqjWmYmPXDiTkAAAAAAAAAAAAAAAAGl2s6Kq4qe1Km0L6QlcpAAAATHY/o+rilVfa3Hpv0FgAAAAAAAAAAAAAAAAAADyxOIt4Sxcv3aopoopmqZmfVBEOTPHlRe2O01/avN5t2Zn5PTVybVP83ta6VisMOS83ln4TDWdncrqu16eFmOefb1OTPMpRHRCHYnEV4u/XeuTrVXOv3LIUzPPl5OuAAAAAAOY8cac0x4pBbG7LbL5VZpyfG3P3tuNLVU9cepny0+4a8OTn/MrGUNLmAAAAAAAAAAAAAAAAAAAAAAAAAAAAAAAAAAAAAAAAAAAAAAAAAAAAAAAAAAAAAAAAAAAAAAAAAAAAARPeFtDjNncut38FyeXVMxOqzHWJlTmvNY5hXv0qZ9/wBP4yu7VWfv2PpVz/8A6fxk7VTv2PpVz/8A6fxk7VTv2PpVz/8A6fxk7VTv2dre9LPq7tun93pVVETzz6ztVO/ZcOVYmvFZdh79z+O5RFUs1ttlfMcvbE4qzg7NV6/cpt26Y1mqrxQ5Hl2Z4VztLvZt2a68PlFuLsxzeFq8X3xovrh/bPfP9VV7me0ub5vNXyvHXrlE/wCCZ5oXRWIZrXtbctXyY110SRc6R6gNI9QObdVVqqK6J5NUeKY6gSXJd4OeZPVTE4mvE2o/5d2eaI9iu2Osra5bQtTZbbrLtpKKbdNUWcTpz2quaZn2M98c1aseWLJNqr5WkS6AAAK12627zTIM6jC4SKJt6T/FMr8eOJjmWbLltWeIR76WM9/ks/GU+zVV37OPpYz3+Sz8ZOzU79j6WM9/ks/GTtVO/Y+ljPf5LPxk7VTv2dre9bPa7lNM0WtJnTxyTiq7Gey5MFdqv4Oxdr/irt01T98xqyy2Rp7DrEzbE14TL7t63/FTHM7Ecy5aeIRP514/1U/FZ0Qq65PnXj/VT8Zd6IOuWPjs9xWYWJs3dOTMxPMRWIcm0y1ySIAAADYYDO8Tl1rwVnTk6686M1iUotwyfnXj/VT8XOiDrk+deP8AVT8Zd6Id65bDI8/xWPzCmxdinkzTMo2rERy7W0zKTq1oACG4nafHWsRct08nSmqYjn9q2KQpm8vL514//T8Tog65PnXj/VT8Zd6IOuT514/1U/GTog65PnXj/VT8ZOiDrll5XtHjMVjaLNzk8mr2o2rEOxeeUsVrQAAAAAHGunjBU+87bL5VdnJ8Dc/d0z+9qpnxz1Q0YqfcsmfJz/mFe0RfwlVNdEVW6o54lfLP5h6YjMsXi6It4jEV3KY6qpciOCbTO2O644AAAAAAAB64XFXsFibeJsVzRdt1cqmqOqXJ8uxPE8r42J2ptbS5ZTXyojEW45Nynr9WvvZL16ZbsV+qEjhBaAAAAAAAAAAAAAAAAAAAAAAAAAAAAAAAAAAAAAAAAAAAAAAAAAAAAAAAAAAAAAAAAAAAAAAAAAAAAgO9/oazxT3LsO2f5GlOtLGAAA72PL2uOntcIfQ2XY2xl2zuHxOJuRbt27MTVMsUxzbh6NZiK+VQ7Z7b4raPFVWrNVVrB0TMU0xOnK9stVKRDHlyTZFIhYqAAAAAAeuGxN7BXqMRh7lVu5ROsVRLkxy7E8T4XhsFtdG0mA5F7SnFWYiK49ftZclOluxZOqEr61a0AABSW9X0k909zVi0w5/ZDFqkAAB3seWt/e5LsbfSmWdG4T8Gj9MMU7elGmS461+f9E4j7u9Ku0baQBcocAAAAAAAAAA2+y3S9HDV2I30nTacqVwACtsd55e46u1fGmadvB0AAAZ+RdKWkbadrtYKloAAAAAJBEd4W1tOz+WTZsTE4u/E00f6fasx15lTlv0x4VTkGVV5ripxWImZoirlTM9ctFp48Qy0jmeZb3aHFWMDgKoi1am5XHJp+rHMhXzKy88Qg3jmZnr51zOAAAAAAAAAA3Gy20F/ZzNLeJtTM25mIuU9UwhevVCeO/TPK/8ALsdZzLB2sVh64rt3KdYmGOY4l6ETzHMMkdAAAAAAAAAAAAAAAAAAAAAAAAAAAAAAAAAAAAAAAAAAAAAAAAAAAAAAAAAAAAAAAAAAAAAAAAAAAQDe/wBDWeKe5dh2z/I0p5pYwAAHexzX7U/647R2Ew212pnG4HBZThbuti3ajwk0z459SrHT7lbkvzHEIYtUgAAAAAAAN1sjndzIs7w+IpmeRVVFFUdU68yN68wnjt025fQlFym5RTXRMTTVzxMMT0XYAAFJb1fST3T3NWLTDn9kMWqQAAHez5ajicl2NvpTLOjcJ+DR+mGKdvSrpkuOtfn/AETiOHvSrtG2kAXKHAAAAAAAAAANvst0vRw1diN9J02nKlcAArbHeeXuOrtXxpmnbwdAAAGfkXSlpG2kq7WCpXgAAAAMTNMxs5Vgb2Lv1RTRbpmefrn1ERzKMzxHKhMzzDFbW57VeqmqYrq0p/0U9TZEdMMFpm9kuwmGt5fhKbVMRFNEayr55XxHCE59mE4/HVTE/u6J0p9q2scQovbmWtSQAAAAAAAAAAAWHut2snBYmcpxdzWzdn91Mz/DPi0hTlpz5howZOP8yt3xwzNhAAAAAAAAAAAAAAAAAAAAAAAAAAAAAAAAAAAAAAAAAAAAAAAAAAAAAAAAAAAAAAAAAAAAAAAAAAAIBvf6Gs8U9y7Dtn+RpTzSxgAAOYAkHAOYjXxRMuByav5avgDh0AAAAANZpmJjxxzwC/8AYHMP2hstgaqquVcotxTXPtY8kcWl6GKeawkKCwABSW9X0k909zVi0w5/ZDFqkAAB3s+Wo4nJdh9KZZ0bhPwaP0wxTt6VdMlx1r9oOiMR93elXaNtIBpPqXKDSQAcAAAAA5A0kDSQbbZbpejhq7Eb6SptOVK8ABW2O88vcdXavjTNO3g6AAAM/IulLSNtJV2sFSvAAAANdPH4nBUO9Paj5djIynC1z4O15XSfHV1NWKnHljz5OfEMLZnKowWG8Pcp/eXI5teqHbTz4cx14c7T5l8jwfgqJ/eXfF93WVgvbiOEJWqAAAAAAAAAAAAHe1drsXabturk10TrTMdUuGl8bCbS29oMmtzVV/xFr6ldMzz83Nr72TJXiW/FfqhJUFoAAAAAAAAAAAAAAAAAAAAAAAAAAAAAAAAAAAAAAAAAAAAAAAAAAAAAAAAAAAAAAAAAAAAAAAAACAb3+hrPFPcuw7Z/kaU80sYAAAA4Jtsfu3xOexTisbVVh8LP8OkfWq90q75YrpdjwzbzKx8DsBs/gaaYpwNFVUf4p11lROS0tUYqx9M6dl8nmNJwNrRHrl3or+kd2g3X5VmVqqvA0/JL8RrHJjWKp9uqyuWY2rtgidKizbKsTk2OrweLo5Nyj+8etprPMcwyWrNZ4lhuogAAALh3PYibmSYi3M/wXdI+7RmzR5bPjz4T9S0AAKS3q+knunuasWmHP7IYtUgAAO9ny1HE5LsPpTLOjcJ+DR+mGKdvSrpky466XrNGItzbu08qirxwQ5LD/YWXfZqXeqXOmD9g5d9mpOqTphqto8rwmEy6q5Zs00VcqI1hOkzyjescImsVAAAAJPsxl2FxmCmu/aiurlTGsq7z5WUiJhuv2Fl32alDqlPpg/YOXfZqTqk6YemHyrB4W74SzZporjm1g5l2KxDLcdAAVtjvPL3HV2r40zTt4OgAADPyLpS0jbSVdrBUrwAAAGh2zz+jZ/Jbt/lR4auJpt0+uUqV5nhXkv015UtkWCuZtmU4i9rVTTVyqpnrnxw12niGKkcym08minXxUxHwVL0AzvHzj8fXXr9SmdKYWxHDPaeZYCSLgAAAAAAAAAAAAEi2G2hq2ezu3cqqmLF2YouR7EL16oWYr9Nl+WrlN63TcomJpqjWJhjb4dh0AAAAAAAAAAAAAAAAAAAAAAAAAAAAAAAAAAAAAAAAAAAAAAAAAAAAAAAAAAAAAAAAAAAAAAAABAN7/Q1ninuXYds/yNKeaWMAAByCRbCbPxtBn1u1cp5Vm1pcuR64V5LcQsxU6pX1Zs0WLVNq3TFNNMaREMj0Ijh30AABW++HKKLmDw+Y0UR4SiqYrq9cacy7Db6ZvkV8cqnaWQAAABau5mqPkmNp15/Ca6e5nztfx9SstQ0gAKS3q+knunuasWmHP7IYtUgAAO9ny1HE5LsPpTLOjcJ+DR+mGKdvSrpkuOgEAA021nRVXFT2p02hfSELVIAAAOJjsf0fVxSqvtdj036CwA0AAABW2O88vcdXavjTNO3g6AAAM/IulLSNtJV2sFSvAAAJmIjUFIbyNoK88zz5JZq1w2Hnk0x/r8UtWOvFWHNfm3DYZJl9OXYGmjT69Ua1fe5aeZTrXiHhtJmHyLATTTOld36sex2scy5eeIQWeedVrO5BwAAAAAAAAAAAADnXn1jxwC6t120P7WyacLer1vYaYo5556utky14nluw35jhNVa4AAAAAAAAAAAAAAAAAAAAAAAAAAAAAAAAAAAAAAAAAAAAAAAAAAAAAAAAAAAAAAAAAAAAAAAABAN7/Q1ninuXYds/yNKeaWMAAByC2NzmBinAYnGTH1puTRr7GbNPnhr+PHjlY6lpAAARbeXZi7sljKp8dFOsfGFmKf8ASrN6SohrYAAAAFo7mfJ4zj7oUZmr432s9nagAFJb1fST3T3NWLTDn9kMWqQAAHez5ajicl2H0plnRuE/Bo/TDFO3pV0yXHQAAGm2s6Jq4qe1Om0L6QhapAAAATHY7zCrilVdbj036CwAAAABW2O88vcdXavjTNO3g6AAAM/IulLSNtJV2sFSvAANQaPbLOackyHEX5q0rqpmijimOZOleZQyW6a8qW2cwlWY5lVib0a8meXVPrmWm08R4YaRzPMpqraEI2oxvyvMJoifqW+b3raRwoyTzLTJKwAAAAAAAAAAAAAAEh2FzyrI9oLFyap8FdnwVUdWs6RqhkrzCzFbpsv6mqKoiqmYmJ64Y29yOgAAAAAAAAAAAAAAAAAAAAAAAAAAAAAAAAAAAAAAAAAAAAAAAAAAAAAAAAAAAAAAAAAAAAAAAIBvf6Gs8U9y7Dtn+RpTzSxgAAE+IF17p6OTs3M+u5r/AGZcu23BH+U1VLwAAEb3iR/6PzDgjthPH7QqzekqDbGAAAABaO5nyeM4+6FGZq+N9rPZ2oABSW9X0k909zVi0w5/ZDFqkAAB3s+Wo4nJdh9KZZ0bhPwaP0wxTt6VdMlx0AABptrOiauKntTptC+kIWqQAAAEx2O8wq4pVXW49N+gsAAAAAVtjvPL3HV2r40zTt4OgAADPyLpS0jbSVdrBUrwAAFTb3858NirGWW6taKI5VyPVVEtGGvEcsnyLeeGHs1g4wmW0zMaV1zytfY7afLlI4hnY6/GGwl27rppTOn3uJTPEK5vXJvXarlXjqnWVzLy6OgAAAAAAAAAAAAADkCmqqiqK6Z0qpnWHBf+xGaxm+z2Gu8rWq3TFur74hkyRxZ6GK3NUgQWAAAAAAAAAAAAAAAAAAAAAAAAAAAAAAAAAAAAAAAAAAAAAAAAAAAAAAAAAAAAAAAAAAAAAAAAIBvf6Gs8U9y7Dtn+RpTzSxgAAE+IF3bq/RqOPuZcu27B6pkqXAAAI5vE9D8x4I7YTx+yrL6SoJsYAAAAFo7mfJ4zj7oUZmr432s9nagAFJb1fST3T3NWLTDn9kMWqQAAHez5ajicl2H0plnRuE/Bo/TDFO3pV0yXHQAAGm2s6Jq4qe1Om0L6QhapAAAATHY7zCrilVdbj036CwAAAABW2O88vcdXavjTNO3g6AAAM/IulLSNtJV2sFSvAAdLtfgrVdyf8NMy5A+fs6xVWe7V4i9rrTcvc3sjmba+KvPtPVZMrVEWrVFEeKmIhWvaTa7F+BwEWYnSquqJ9yVI5V5J4hDFqgAAAAAAAAAAAAAAABz4wWfubzOZnF5bM81FPhY++Z0Z80fbV8e30tBQ1AAAAAAAAAAAAAAAAAAAAAAAAAAAAAAAAAAAAAAAAAAAAAAAAAAAAAAAAAAAAAAAAAAAAAAAAIBvf6Gs8U9y7Dtn+RpTzSxgAAEgu7dX6NRx9zLl23YPVMlS4AABHN4nofmPBHbCeP2VZfSVBNjAAAAAtHcz5PGcfdCjM1fG+1ns7UAApLer6Se6e5qxaYc/shi1SAAA72fLUcTkuw+lMs6Nwn4NH6YYp29KumS46AAA021nRNXFT2p02hfSELVIAAACY7HeYVcUqrrcem/QWAAAAAK2x3nl7jq7V8aZp28HQAABn5F0paRtpKu1gqV4ADV7T46MuyTFYjXTSiY+PM7SOZQvPFeVG7K2PD5ryp8VNM1a+1rtphxx5TZW0Idthf8ACY23b15qKZiVlNKMs+WgTVgAAAAAAAAAAAAAAAAJPu5x84LanC0a6RiKot1fdzyryR/lbhniy+Y8TI3gAAAAAAAAAAAAAAAAAAAAAAAAAAAAAAAAAAAAAAAAAAAAAAAAAAAAAAAAAAAAAAAAAAAAAAAIBvf6Gs8U9y7Dtn+RpTzSxgAAALv3V+jUcfcyZdt2D1TFWuAAARzeJ6H5jwR2wnj9lWX0lQTYwAAAALR3M+TxnH3QozNXxvtZ7O1AAKS3q+knunuasWmHP7IYtUgAAO9ny1HE5LsPpTLOjcJ+DR+mGKdvSrpkuOgAANNtZ0TVxU9qdNoX0hC1SAAAAmOx3mFXFKq63Hpv0FgAAAACtsd55e46u1fGmadvB0AAAZ+RdKWkbaSrtYKleAAiW9C94PZLFUddfJ0+KzFH+lOef8Ky2LtxNV651xOn9l92bElSC1AM/u+FzbETrzRPMtrpnvtrkkQAAAAAAAAAAAAAAAHINhs7fnC57gb0eOi5r/ZG3mEqTxaH0ZZq5Vm3V66Yn+zE9KHcAAAAAAAAAAAAAAAAAAAAAAAAAAAAAAAAAAAAAAAAAAAAAAAAAAAAAAAAAAAAAAAAAAAAAAAEA3v9DWeKe5dh2z/I0p5pYwAAAF37q/RqOPuZMu27B6pirXAAAI5vE9D8x4I7YTx+yrL6SoJsYAAAAFo7mfJ4zj7oUZmr432s9nagAFJb1fST3T3NWLTDn9kMWqQAAHez5ajicl2H0plnRuE/Bo/TDFO3pV0yXHQAAGm2s6Jq4qe1Om0L6QhapAAAATHY7zCrilVdbj036CwAAAABW2O88vcdXavjTNO3g6AAAM/IulLSNtJV2sFSvAAQjezVMbOVRz8898LcPsoz+qBbFRHyXEz/ANSOxddRiSSf4Z+5BarjMauXjr0/6l0MttsZ1wAAAAAAAAAB6WLNeJvUWbVPKuVzyaYjrlx2I58JZb3V7Q3KKa4jDRFUaxrXKHdqt7Fnb6KNovVhfzz/ALOd2p2LH0UbR+rC/nO7U7Fz6KNo/Vhfzndqdix9FG0fqwv55/2O7U7Fj6KNo/Vhf/2T/sd6p2LPbB7rtosPi7N2fkulFWs6V/8AgnLXh2MFoXJYpqosW6KvHTTET8GWWyHoOgAAAAAAAAAAAAAAAAAAAAAAAAAAAAAAAAAAAAAAAAAAAAAAAAAAAAAAAAAAAAAAAAAAAAAAIBvf6Gs8U9y7Dtn+RpTzSxgAAALv3V+jUcfcyZdt2D1TFWuAAARzeJ6H5jwR2wnj9lWX0lQTYwAAAALR3M+TxnH3QozNXxvtZ7O1AAKS3q+knunuasWmHP7IYtUgAAO9ny1HE5LsPpTLOjcJ+DR+mGKdvSrpkuOgAANNtZ0TVxU9qdNoX0hC1SAAAAmOx3mFXFKq63Hpv0FgAAAACtsd55e46u1fGmadvB0AAAZ+RdKWkbaSrtYKleAAhe9a3NWzFyr+WY7YW4vZRn9VfbFVx8nxNPXNcT/ZddRiSSr+GfulBarfGxpirkdfKXQyzt4OuAAAAAAAAAANlsz6RZd+NCNtSnT2hdO2G01WzGT0Ym3a8JcnkxEMtK9UtuS/THKD/TDj/s1Pwhb2YZ/yJPpix/2an4QdmD8iSd8WP+zU/CDswfkSsLY/PLm0WS0Y67RyKqq6qdPuU3rxPDTjt1Ry0G3G3mJ2XzGxhrNmK6blE1TzR1Snjx9UK8mWazwjk74cd9mp+ELOzCr8iWTlm9fHY7MLGGnDRpcrimeaOuUZxREOxnmZ4WooawAAAAAAAAAAAAAAAAAAAAAAAAAAAAAAAAAAAAAAAAAAAAAAAAAAAAAAAAAAAAAAAAAAAAAAEA3v9DWeKe5dh2z/ACNKeaWMAAABd+6v0ajj7mTLtuweqYq1wAACObxPQ/MeCO2E8fsqy+kqCbGAAAABaO5nyeM4+6FGZq+N9rPZ2oABSW9X0k909zVi0w5/ZDFqkAAB3s+Wo4nJdh9KZZ0bhPwaP0wxTt6VdMlx0AABptrOiauKntTptC+kIWqQAAAEx2O8wq4pVXW49N+gsAAAAAVtjvPL3HV2r40zTt4OgAADPyLpS0jbSVdrBUrwAEd2/wAJVjtlsZZpj62kT8JTxzxZXljmswqLY69ycbcsz4qqZqabwx4p8pfMc0x7Fa9XWa0eDzG/TPVUujTNbbEdRAAAAAAAAAAbPZn0hy78aEbalKntCzd7Po5Z++nuUYdtXyPVT7SxgE+IF5brfRO1+LX3MuX2bsHqhW+HpzCfhVdsLcOlPyPaECWs7d7G4WcXtJhLcRrMTy/hMShf1TxxzZ9CMb0XIAAAAAAAAAAAAAAAAAAAAAAAAAAAAAAAAAAAAAAAAAAAAAAAAAAAAAAAAAAAAAAAAAAAAAAIBvf6Gs8U9y7Dtn+RpTzSxgAAALv3V+jUcfcyZdt2D1TFWuAAARzeJ6H5jwR2wnj9lWX0lQTYwAAAALR3M+TxnH3QozNXxvtZ7O1AAKS3q+knunuasWmHP7IYtUgAAO9ny1HE5LsPpTLOjcJ+DR+mGKdvSrpkuOgAANNtZ0TVxU9qdNoX0hC1SAAAAmOx3mFXFKq63Hpv0FgAAAACtsd55e46u1fGmadvB0AAAZ+RdKWkbaSrtYKleAAx8dYjE4O/aqjWKqJjT3ET5cnzD5+wlNeT7QVYev6tVFzwdXvbZ8w8+P8ANuE5ideePEqXoNtPZ8FmtdWnlOdbXSjJHEtQkgAAAAAAAAAA2ezXpDl340I21KVPaFm72fRyz/8AHuUYdtXyPVT7SxgE+IF5brfRO1+LX3MmX2bsHqhW+Hp3CfhVdsLcOlPyPaECXM6b7p8BOI2j+U6fVs0VRM+2YVZZ8L8Ef65XSytoAAAAAAAAAAAAAAAAAAAAAAAAAAAAAAAAAAAAAAAAAAAAAAAAAAAAAAAAAAAAAAAAAAAAAACAb3+hrPFPcuw7Z/kaU80sYAAAC791fo1HH3MmXbdg9UxVrgAAEc3ieh+Y8EdsJ4/ZVl9JUE2MAAAAC0dzPk8Zx90KMzV8b7WeztQACkt6vpJ7p7mrFphz+yGLVIAADvZ8tRxOS7D6Uyzo3Cfg0fphinb0q6ZLjoAADTbWdE1cVPanTaF9IQtUgAAAJjsd5hVxSqutx6b9BYAAAAArbHeeXuOrtXxpmnbwdAAAGfkXSlpG2kq7WCpXgAHsIFJb0MnqyraH5XRH1cVrd1jqnXRqxW5jhhz14ty2GS4uMbl9q5E6zH1Z++HJ2nWeYafbLC8q3axMR/D9WffKVEMkfaKLFIAAAADmAemGw13F36LFmma7lc6U0x1kzw7EczxDe/MDaH7HT+dDuVT7VnHzB2h+x0/mO5U7Vj5g7Q/Y6fzHcqdqzPyHYfPcLneCv3cLTTbt3YqqnleKHLXjhKmK0TEplvYt11bP2qaaKqqomnmiNfUqxbXZ/NVRfJr/APkXfyS0csfB8mv/AORe/JJycS4nD34if3F38knJwu/dfTVRspaiumqmfC180xp6mXL7N+H1Qve/auV55g5otV1R4Kr+GmZ64W4dKPke0IL8nvx/yLv5JXM/C3N0eUVYTKbuNuUTTViaomIqjSY05mXNbzw2fHrxHKfqmgAAAAAAAAAAAAAAAAAAAAAAAAAAAAAAAAAAAAAAAAAAAAAAAAAAAAAAAAAAAAAAAAAAAAAABAN7/Q1ninuXYds/yNKeaWMAAABd+6v0ajj7mTLtuweqYq1wAACObxPQ/MeCO2E8fsqy+kqCbGAAAABaO5nyeM4+6FGZq+N9rPZ2oABSW9X0k909zVi0w5/ZDFqkAAB3s+Wo4nJdh9KZZ0bhPwaP0wxTt6VdMlx0AABptrOiauKntTptC+kIWqQAAAEx2O8wq4pVXW49N+gsAAAAAVtjvPL3HV2r40zTt4OgAADPyLpS0jbSVdrBUrwAAEU3jZBGd5Dcqpp/fWP3kTHjmI6lmO3EqstOqqqdlswnCYqrC3Z5NNfNET1T1tF45hlx24nhJ8zwsY3A3LWmvNrH3q48LJjmFd3LdVq5Vbq5qqZ0lfDM6gAAAAA32wvpZl3HPZKGT1lZi9oW9tjtfb2Uw1quqzVdruaaRDNSnU2ZMnQiX0yx9hr/ALLeyp/JPplj7DX8IOwfkfxxVvmiI1+Q1/2c7B+T/E+y2/h9ocrtYm/h6aorjXk1R4lU/wCZXxPVHl7fsTLfsdn8rnVLvTDn9iZb9is/lOqTphxOSZb9is/lOqTphk4fD2sNb8HYt026InXk0xzOOxHDzxOXYPF1xXfw9u5VHNE1QRMwTES8pyTLZ5vkVn8rvVLnTDLs2LWHtxbs0U0UR4qY8UOT5SiOHYHIAAAAAAAAAAAAAAAAAAAAAAAAAAAAAAAAAAAAAAAAAAAAAAAAAAAAAAAAAAAAAAAAAAAAAAIBvf6Gs8U9y7Dtn+RpTzSxgAAALv3V+jUcfcyZdt2D1TFWuAAARzeJ6H5jwR2wnj9lWX0lQTYwAAAALR3M+TxnH3QozNXxvtZ7O1AAKS3q+knunuasWmHP7IYtUgAAO9ny1HE5LsPpTLOjcJ+DR+mGKdvSrpkuOgAANNtZ0TVxU9qdNoX0hC1SAAAAmOx3mFXFKq63Hpv0FgAAAACtsd55e46u1fGmadvB0AAAZ+RdKWkbaSrtYKleAAA4roprpmmqNYnxxIKP3h7NXMgzmcVYpmMNfnlU1R1VeOWrHbqhhy06Z5hnZFmtOZYWOVMeFo5qo9ZaOJSrblH9qssnDYqMTRH7u549OqUqT4V5K8eWiTVgAAAAN7sL6W5dxz2Shf1lZi9oTbfJ5HB/d3qsK75H0qxoZQHFf8Eg+hdi/R3C8LHf2ehj9YVzvA2kzXL9ortnDYqbduNdKdPaux1iYZ817Rbwjfzyz37dV8E+iqruWPnlnv26r4HRU7lmVlm12dXswsW68ZM01VxExo5akO1yWmV82ZmbNEz10wyPQhXe2e8LH7P53OCsWqaqIoirXmX0xxaOWbJmmtuIYmz+8bOc9zWzgbdin6061Tzc0R43bY4iOXKZrWnhaLO1OQAAAAAAAAAAAAAAAAAAAAAAAAAAAAAAAAAAAAAAAAAAAAAAAAAAAAAAAAAAAAAAAAAAAAAAQDe/0NZ4p7l2HbP8jSnmljAAAAXfur9Go4+5ky7bsHqmKtcAAAjm8T0PzHgjthPH7KsvpKgmxgAAAAWjuZ8njOPuhRmavjfaz2dqAAUlvV9JPdPc1YtMOf2QxapAAAd7PlqOJyXYfSmWdG4T8Gj9MMU7elXTJcdAAAabazomrip7U6bQvpCFqkAAABMdjvMKuKVV1uPTfoLAAAAAFbY7zy9x1dq+NM07eDoAAAz8i6UtI20lXawVK8AAAkGr2iyPD5/ll3B36Y+tH1auumUq24nlC9eqOJUXisJjdkc4qs3ommqifdXT7GqJi0MMxNJ4lJ+Vhs/y6qmmYnlRz/6ZQ1K3xaEHxmEuYLEVWbkaTErYnlRMcTw8HXAAAAG92F9Lcu457JQv6ysxe0Jtvk8jg/u71WFd8jUKtaGVwDiv+CQfQuxfo7heFjv7PRx+qp95npRe9/avxerJn9kTWqQGZlHSmF44cnSVdvpGx5G3wx2MMvShSO9P0rq/Bp7Za8Xqw5/dMN1mzE5fg5zTE0aXr38ETHPTHilVltz4XYKcRzKwetS0AAAAAAAAAAAAAAAAAAAAAAAAAAAAAAAAAAAAAAAAAAAAAAAAAAAAAAAAAAAAAAAAAAAAAAAIBvf6Gs8U9y7Dtn+RpTzSxgAAALv3V+jUcfcyZdt2D1TFWuAAARzeJ6H5jwR2wnj9lWX0lQTYwAAAALR3M+TxnH3QozNXxvtZ7O1AAKS3q+knunuasWmHP7IYtUgAAO9ny1HE5LsPpTLOjcJ+DR+mGKdvSrpkuOgAANNtZ0TVxU9qdNoX0hC1SAAAAmOx3mFXFKq63Hpv0FgAAAACtsd55e46u1fGmadvB0AAAZ+RdKWkbaSrtYKleAAAA4BHdsdkMNtNgqo5MU4miNaK47E6XmsqsmOLQpmYzDZTMqrN6iqmaZ0qpnxVR7GrxaGPzSfLcY6zhdpMH4bDzEYmiPEjHNZTni0Indt12rk27lM01UzpMSsVS6DgAADe7C+luXcc9koX9ZWYvaE33yRM2cHpEzzdUe1VhXfI+lWcmr+Wr4NDKcmr+Wr4A4roq5M/Vq+APoTYv0dwvN/hY7+z0cfqqfeb6UXvf2r8XqyZ/ZE1qkBmZR0phtP54ctpKu30jY8hb4Y7GGXpQrrN9kru0W3sXbtExg7Numa5/m555l9b9NGa2PqyfxYtqzRYt027dMU00xEREKNtLsDkAAAAAAAAAAAAAAAAAAAAAAAAAAAAAAAAAAAAAAAAAAAAAAAAAAAAAAAAAAAAAAAAAAAAAAEA3v8AQ1ninuXYds/yNKeaWMAAABd+6v0ajj7mTLtuweqYq1wAACObxPQ/MeCO2E8fsqy+kqCbGAAAABaO5nyeM4+6FGZq+N9rPZ2oABSW9X0k909zVi0w5/ZDFqkAAB3s+Wo4nJdh9KZZ0bhPwaP0wxTt6VdMlx0AABptrOiauKntTptC+kIWqQAAAEx2O8wq4pVXW49N+gsAAAAAVtjvPL3HV2r40zTt4OgAADPyLpS0jbSVdrBUrwAAAAAGi2n2RwG02Fm3foii9EfUu0x9amU6Xmqu+OLbU3nOzubbI42ZrpqiiJ+rdp54mPbLTW8WY7UtSWtzHMf2lNFyq1RRXEc9VP8AidiEbTywkkQAAG92F9Lcu457JQv6ysxe0L3x2U4HM4pjGYai/FMc3K6mSJmNN0xE7YfzRyL+mWPhP+7vXb9uduv6PmhkP9Msf3/3Ou37O3X9E7IZDP8A7ZY/v/uddv2duv6bTD4e1hLVNmxbi3bp8VMdSPMztKI40qbb7ZTNsy2gu4jC4aq5bnXSYhox3iIZMtLTbwjfzFz77FX8JT7kK+1Y+YuffYq/hLvcqdqzf7I7uszrzWzicdRFmxaq1mJ8coXyRx4WY8M8+Vw0RFNMUx1RozNhFFNMzMRETIOQAAAAAAAAAAAAAAAAAAAAAAAAAAAAAAAAAAAAAAAAAAAAAAAAAAAAAAAAAAAAAAAAAAAAAAAAQHe/0NZ4p7l2HbP8jSnWljAAAAXdus9Go4+5ky7bsHqmStcAAAjm8T0PzHgjthPH7KsvpKgmxgAAAAWjuZ8njOPuhRmavjfaz2dqAAUlvV9JPdPc1YtMOf2QxapAAAd7PlqOJyXYfSmWdG4T8Gj9MMU7elXTJcdAAAabazomrip7U6bQvpCFqkAAABMdjvMKuKVV1uPTfoLAAAAAFbY7zy9x1dq+NM07eDoAAAz8i6UtI20lXawVK8AAAAAkAGPjMDhsfZmzibNF2iY00qjUiZjTkxE+JVvtNummZuYnJrmnX4GrnmZ9nqX1y/tmvg+6q7zDKMdlV2bWMw1y1VHrhdFonTNNZjbDScAAb7YX0ty7jnslC/rKzF7QsreZtLmGQ4bD04Cuiiq5zzNVOvWoxUi0+WnNeax4V39Ie0X2q3+T/wAru3Vn71j6Q9ovtVv8v/k7dTvWcVbxNo4pmYxVv8n/AJO3VzvWXRsvjL2PyXD4i/VFVyuOeYZrxxLbSeY5bSaojxzEIpnLp/mj4gTXT/NHxAjTxg5gAAAAAAAAAAAAAAAAAAAAAAAAAAAAAAAAAAAAAAAAAAAAAAAAAAAAAAAAAAAAAAAAAAAAAAAAAAEe2y2XnanBUYaL9VnkzrrERKVLdKrJTrjhDPoZr/qNz8sLu8q/G/p9DFf9Ruflg738Pxv6fQxX/Ubn5YO9/D8b+n0MV/1G5+WDvfw/G/ridzFf9Ruflg7x+N/U62T2fnZvK4wU3Zu6TryphTe3M8rsdOmOG7RWAAANZtJlH7dybE5f4SbfhqYjlR1c6VJ4nlG9eqOFffQzX/Ubn5YW95n/ABv6fQxX/Ubn5Yd738Pxv6fQxX/Ubn5YO9/D8b+n0MV/1G5+WDvfw/G/p9DFf9Ruflg7zn439SvYrY2dlKb0Tiar3hZ154iNFd79S7Hj6EpVrQHDgg+1m7mdpcz+WfLK7PNMcmIiV1MnTCi+HqnlpfoYn+pXPywn3v4h+N/T6GJ/qNz8sHePxv6fQxP9Ruflg7x+N/T6GJ/qVz8sHePxv67Ubmporpq/aNzmnX+GDvH4/wDVmYWz8nwtmzrr4OimjX16Rozz5aYjiHrA6AAAwc4y+cywc2Iq5MzMTq7E8I2jlovmbX9on4Qn1ods+ZlX2if7HWds+ZlX2if7HWds+ZlX2if7HWds+ZlX2ifhB1nbbrJcr/ZeHmzNc1azM6oWnlOscNi4kAAAAAjN/ZHw16u58oqjlVTPihOL+Fc0dPmZ/wBzV8Id7jnbPmX/ANzV8IOs7Z8y/wDuavhB1nbPmX/3NXwg6ztsjAbK/I8VRf8AD1Vcnq0hyb8uxThIUFgAAAAAAAADGxeXYTH25t4ixRcpnx6wRMw5MRKJZtupyXHa1YXlYOr/AERrr8VsZpjam2Cs6RXMNz+ZWZ/4K/Rfp9dyqKVkZo+1U/Hn6aTEbutosNP1sNbq4a9e5LuVV9mzO2R2XzfAbT4C/fwldNuiueVVpPNzOWvE1Sx47RaOUg3yeRwf3d6GFZ8j6Va0MrgHFcxyJB9C7F+jmE4WK/s9HH6o5vVzXHZXg8NXgsTXZqmuInk9azDWJ2qz2mI8K3jbDP5mIjMr0zPVpC7oj9M3ct+0x2RyvazPLlOIxuYX8Pg4nWdYjlVezSVd5rGl2Ot7eZlaVizFizTbiZnkxprPWzz5aoekDoAAAAAAAAAAAAAAAAAAAAAAAAAAAAAAAAAAAAAAAAAAAAAAAAAAAAAAAAAAAAAAAAAAAAAAAAAAAAAAAAAAAAABAAAAAAAAAAAAAAAAGgAAAAAAAAAAAAAAAAA4DoAAAAAAAAAAAAAA4HjdAAAEF3mbO5jn1GGpwNiq7yI59OrnW4rRG1Gak20hWH3WZ9emIqimzx0re7VRGCzc4Hc1idYnGY+zNPqoiYlGc0fScfGn7lJ8q3Y5Hl0xVXaqxFUdVyeVCucsytjDWErsYe3hrcWrNFNuinxU0xpEK5W8IlvC2Yxu01rDYfCcmnk1xM11RrEQsx3ivPKrNSbadNmt2WW5Pyb2LiMXfjnnlc9Me6XbZZnRTDEeZTOiimimKaYimmOaIjqVLnIAAAAAAAAAAAAAAAAAAAAAAAAAAAAAAAAAAAAAAAAAAAAAAAAAAAAAAAAAAAAAAAAAAAAAAAAAAAAAAAAAAAAAAAAAAAAAAAAAAAAAAAAAAAAAAAAAAAAAAAAAAAAAAAAAAAAAAAAAAAAAAAAAAAAAAAAAAAAAAAAAAAAAAAAAAAAAAAAAAAAAAAAAAAAAAAAAAAAAAAAAAAAAAAAAAAAAAAAAAAAAAAAAAAAAAAAAAAAAAAAAAAAAAAAAAAAAAAAAAAAAAAAAAAAAAAAAAAAAAAAAAAAAAAAAAAAAAAAAAAAAAAAAAAAAAAAAAAAAAAAAAAAAAAAAAAAAAAAAAAAAAAAAAAAAAAAAAAAAAAAAAAAAAAAAAAAAAAAAAAAAAAAAAAAAAAAAAAAAAAAAAAAAAAAAAAAAAAAAAAAAAAAAAAAAAAAAAAAAAAAAAAAAAAAAAAAAAAAAAAAAAAAAAAAAAAAAAAAAAAAAAAAAAAAAAAAAAAAAAAAAAAAAAAAAAAAAAAAAAAAAAAAAAAAAAAAAAAAAAAAAAAAAAAAAAAAAAAAAAAAAAAAAAAAAAAAAAAAAAAAAAAAAAAAAAAAAAAAAAAAAAAAAAAAAAAAAAAAAAAAAAAAAAAAAAAAAAAAAAAAAAAAAAAAAAAAAAAAAAAAAAAAAAAAAAAAAAAAAAAAAAAAAAAAAAAAAAAAAAAAAAAAAAAAAAAAAAAAAAAAAAAAAAAAAAAAAAAAAAAAAAAAAAAAAAAAAAAAAAAAAAAAAAAAAAAAAAAAAAAAAAAAAAAAAAAAAAAAAAAAAAAAAAAAAAAAAAAAAAAAAAAAAAAAAAAAAAAAAAAAAAAAAAAAAAAAAAAAAAAAAAAAAAAAAAAAAAAAAAAAAAAAAAAAAAAAAAAAAAAAAAAAAAAAAAAAAAAAAAAAAAAAAAAAAAAAAAAAAAAAAAAAAAAAAAAAAAAAAAAAAAAAAAAAAAAAAAAAAAAAAAAAAAAAAAAAAAAAAAAAAAAAAAAAAAAAAAAAAAAAAAAAAAAAAAAAAAAAAAAAAAAAAAAAAAAAAAAAAAAAAAAAAAAAAAAAAAAAAAAAAAAAAAAAAAAAAAAAAAAAAAAAAAAAAAAAAAAAAAAAAAAAAAAAAAAAAAAAAAAAAAAAAAAAAAAAAAAAAAAAAAAAAAAAAAAAAAAAAAAAAAAAAAAAAAAAAAAAAAAAAAAAAAAAAAAAAAAAAAAAAAAAAAAAAAAAAAAAAAAAAAAAAAAAAAAAAAAAAAAAAAAAAAAAAAAAAAAAAAAAAAAAAAAAAAAAAAAAAAAAAAAAAAAAAAAAAAAAAAAAAAAAAAAAAAAAAAAAAAAAAAAAAAAAAAAAAAAAAAAAAAAAAAAAAAAAAAAAAAAAAAAAAAAAAAAAAAAAAAAAAAAAAAAAAAAAAAAAAAAAAAAAAAAAAAAAAAAAAAAAAAAAAAAAAAAAAAAAAAAAAAAAAAAAAAAAAAAAAAAAAAAAAAAAAAAAAAAAAAAAAAAAAAAAAAAAAAAAAAAAAAAAAAAAAAAAAAAAAAAAAAAAAAAAAAAAAAAAAAAAAAAAAAAAAAAAAAAAAAAAAAAAAAAAAAAAAAAAAAAAAAAAAAAAAAAAAAAAAAAAAAAAAAAAAAAAAAAAAAAAAAAAAAAAAAAAAAAAAAAAAAAAAAAAAAAAAAAAAAAAAAAAAAAAAAAAAAAAAAAAAAAAAAAAAAAAAAAAAAAAAAAAAAAAAAAAAAAAAAAAAAAAAAAAAAAAAAAAAAAAAAAAAAAAAAAAAAAAAAAAAAAAAAAAAAAAAAAAAAAAAAAAAAAAAAAAAAAAAAAAAAAAAAAAAAAAAAAAAAAAAAAAAAAAAAAAAAAAAAAAAAAAAAAAAAAAAAAAAAAAAAAAAAAAAAAAAAAAAAAAAAAAAAAAAAAAAAAAAAAAAAAAAAAAAAAAAAAAAAAAAAAAAAAAAAAAAAAAAAAAAAAAAAAAAAAAAAAAAAAAAAAAAAAAAAAAAAAAAAAAAAAAAAAAAAAAAAAAAAAAAAAAAAAAAAAAAAAAAAAAAAAAAAAAAAAAAAAAAAAAAAAAAAAAAAAAAAAAAAAAAAAAAAAAAAAAAAAAAAAAAAAAAAAAAAAAAAAAAAAAAAAAAAAAAAAAAAAAAAAAAAAAAAAAAAAAAAAAAAAAAAAAAAAAAAAAAAAAAAAAAAAAAAAAAAAAAAAAAAAAAAAAAAAAAAAAAAAAAAAAAAAAAAAAAAAAAAAAAAAAAAAAAAAAAAAAAAAAAAAAAAAAAAAAAAAAAAAAAAAAAAAAAAAAAAAAAAAAAAAAAAAAAAAAAAAAAAAAAAAAAAAAAAAAAAAAAAAAAAAAAAAAAAAAAAAAAAAAAAAAAAAAAAAAAAAAAAAAAAAAAAAAAAAAAAAAAAAAAAAAAAAAAAAAAAAAAAAAAAAAAAAAAAAAAAAAAAAAAAAAAAAAAAAAAAAAAAAAAAAAAAAAAAAAAAAAAAAAAAAAAAAAAAAAAAAAAAAAAAAAAAAAAAAAAAAAAAAAAAAAAAAAAAAAAAAAAAAAAAAAAAAAAAAAAAAAAAAAAAAAAAAAAAAAAAAAAAAAAAAAAAAAAAAAAAAAAAAAAAAAAAAAAAAAAAAAAAAAAAAAAAAAAAAAAAAAAAAAAAAAAAAAAAAAAAAAAAAAAAAAAAAAAAAAAAAAAAAAAAAAAAAAAAAAAAAAAAAAAAAAAAAAAAAAAAAAAAAAAAAAAAAAAAAAAAAAAAAAAAAAAAAAAAAAAAAAAAAAAAAAAAAAAAAAAAAAAAAAAAAAAAAAAAAAAAAAAAAAAAAAAAAAAAAAAAAAAAAAAAAAAAAAAAAAAAAAAAAAAAAAAAAAAAAAAAAAAAAAAAAAAAAAAAAAAAAAAAAAAAAAAAAAAAAAAAAAAAAAAAAAAAAAAAAAAAAAAAAAAAAAAAAAAAAAAAAAAAAAAAAAAAAAAAAAAAAAAAAAAAAAAAAAAAAAAAAAAAAAAAAAAAAAAAAAAAAAAAAAAAAAAAAAAAAAAAAAAAAAAAAAAAAAAAAAAAAAAAAAAAAAAAAAAAAAAAAAAAAAAAAAAAAAAAAAAAAAAAAAAAAAAAAAAAAAAAAAAAAAAAAAAAAAAAAAAAAAAAAAAAAAAAAAAAAAAAAAAAAAAAAAAAAAAAAAAAAAAAAAAAAAAAAAAAAAAAAAAAAAAAAAAAAAAAAAAAAAAAAAAAAAAAAAAAAAAAAAAAAAAAAAAAAAAAAAAAAAAAAAAAAAAAAAAAAAAAAAAAAAAAAAAAAAAAAAAAAAAAAAAAAAAAAAAAAAAAAAAAAAAAAAAAAAAAAAAAAAAAAAAAAAAAAAAAAAAAAAAAAAAAAAAAAAAAAAAAAAAAAAAAAAAAAAAAAAAAAAAAAAAAAAAAAAAAAAAAAAAAAAAAAAAAAAAAAAAAAAAAAAAAAAAAAAAAAAAAAAAAAAAAAAAAAAAAAAAAAAAAAAAAAAAAAAAAAAAAAAAAAAAAAAAAAAAAAAAP//Z;" parent="1" vertex="1">
          <mxGeometry x="183.81" y="310" width="152.38" height="80" as="geometry" />
        </mxCell>
        <mxCell id="RkjFfQdDdX4bQdD2x07N-25" value="&lt;b&gt;&lt;font style=&quot;font-size: 14px;&quot;&gt;INGESTION&lt;/font&gt;&lt;/b&gt;" style="rounded=0;whiteSpace=wrap;html=1;" parent="1" vertex="1">
          <mxGeometry x="180" y="460" width="160" height="60" as="geometry" />
        </mxCell>
        <mxCell id="RkjFfQdDdX4bQdD2x07N-26" value="&lt;font style=&quot;font-size: 14px;&quot;&gt;&lt;b&gt;DISTRIBUTED STORAGE&lt;/b&gt;&lt;/font&gt;" style="rounded=0;whiteSpace=wrap;html=1;" parent="1" vertex="1">
          <mxGeometry x="900" y="460" width="160" height="60" as="geometry" />
        </mxCell>
        <mxCell id="RkjFfQdDdX4bQdD2x07N-27" value="&lt;font style=&quot;font-size: 14px;&quot;&gt;&lt;b&gt;PROCESSING&lt;/b&gt;&lt;/font&gt;" style="rounded=0;whiteSpace=wrap;html=1;" parent="1" vertex="1">
          <mxGeometry x="660" y="460" width="160" height="60" as="geometry" />
        </mxCell>
        <mxCell id="RkjFfQdDdX4bQdD2x07N-28" value="&lt;font style=&quot;font-size: 14px;&quot;&gt;&lt;b&gt;MESSAGE QUEUE&lt;/b&gt;&lt;/font&gt;" style="rounded=0;whiteSpace=wrap;html=1;" parent="1" vertex="1">
          <mxGeometry x="420" y="460" width="160" height="60" as="geometry" />
        </mxCell>
        <mxCell id="RkjFfQdDdX4bQdD2x07N-29" value="&lt;font style=&quot;font-size: 14px;&quot;&gt;&lt;b&gt;SOURCE&lt;/b&gt;&lt;/font&gt;" style="shape=process;whiteSpace=wrap;html=1;backgroundOutline=1;rotation=-90;" parent="1" vertex="1">
          <mxGeometry x="50" y="320" width="120" height="60" as="geometry" />
        </mxCell>
        <mxCell id="RkjFfQdDdX4bQdD2x07N-30" value="" style="shape=flexArrow;endArrow=classic;html=1;rounded=0;entryX=1;entryY=0.5;entryDx=0;entryDy=0;fillColor=#191919;" parent="1" edge="1">
          <mxGeometry width="50" height="50" relative="1" as="geometry">
            <mxPoint x="180" y="350" as="sourcePoint" />
            <mxPoint x="140" y="349.5" as="targetPoint" />
          </mxGeometry>
        </mxCell>
      </root>
    </mxGraphModel>
  </diagram>
</mxfile>
